<?xml version="1.0" encoding="UTF-8" standalone="no"?>
<!-- Generator: Adobe Illustrator 19.0.0, SVG Export Plug-In . SVG Version: 6.00 Build 0)  -->

<svg
   xmlns:dc="http://purl.org/dc/elements/1.1/"
   xmlns:cc="http://creativecommons.org/ns#"
   xmlns:rdf="http://www.w3.org/1999/02/22-rdf-syntax-ns#"
   xmlns:svg="http://www.w3.org/2000/svg"
   xmlns="http://www.w3.org/2000/svg"
   xmlns:xlink="http://www.w3.org/1999/xlink"
   xmlns:sodipodi="http://sodipodi.sourceforge.net/DTD/sodipodi-0.dtd"
   xmlns:inkscape="http://www.inkscape.org/namespaces/inkscape"
   version="1.1"
   id="Capa_1"
   x="0px"
   y="0px"
   viewBox="0 0 914.53712 809.26178"
   xml:space="preserve"
   sodipodi:docname="accidental-dba-2.svg"
   width="914.53711"
   height="809.26178"
   inkscape:version="0.92.4 (5da689c313, 2019-01-14)"
   inkscape:export-filename="C:\Users\adilio\Desktop\accidental-dba\accidental-dba-2.png"
   inkscape:export-xdpi="96"
   inkscape:export-ydpi="96"><metadata
   id="metadata65"><rdf:RDF><cc:Work
       rdf:about=""><dc:format>image/svg+xml</dc:format><dc:type
         rdf:resource="http://purl.org/dc/dcmitype/StillImage" /><dc:title></dc:title></cc:Work></rdf:RDF></metadata><defs
   id="defs63"><linearGradient
     inkscape:collect="always"
     id="linearGradient1307"><stop
       style="stop-color:#000000;stop-opacity:1;"
       offset="0"
       id="stop1303" /><stop
       style="stop-color:#000000;stop-opacity:0;"
       offset="1"
       id="stop1305" /></linearGradient><clipPath
     clipPathUnits="userSpaceOnUse"
     id="clipPath1289"><rect
       style="opacity:0.4;fill:#ff0000;fill-opacity:1;stroke:none;stroke-width:1.42389202;stroke-miterlimit:4;stroke-dasharray:none;stroke-opacity:1"
       id="rect1291"
       width="154.35304"
       height="195.64087"
       x="-105.39478"
       y="-396.53723" /></clipPath><radialGradient
     inkscape:collect="always"
     xlink:href="#linearGradient1307"
     id="radialGradient1317"
     cx="175.31055"
     cy="56.954151"
     fx="175.31055"
     fy="56.954151"
     r="100.40039"
     gradientTransform="matrix(1,0,0,0.40035016,0,34.152547)"
     gradientUnits="userSpaceOnUse" /><radialGradient
     inkscape:collect="always"
     xlink:href="#linearGradient1307"
     id="radialGradient1319"
     gradientUnits="userSpaceOnUse"
     gradientTransform="matrix(1,0,0,0.40035016,0,34.152547)"
     cx="175.31055"
     cy="56.954151"
     fx="175.31055"
     fy="56.954151"
     r="100.40039" /><radialGradient
     inkscape:collect="always"
     xlink:href="#linearGradient1307"
     id="radialGradient1321"
     gradientUnits="userSpaceOnUse"
     gradientTransform="matrix(1,0,0,0.40035016,0,34.152547)"
     cx="175.31055"
     cy="56.954151"
     fx="175.31055"
     fy="56.954151"
     r="100.40039" /><radialGradient
     inkscape:collect="always"
     xlink:href="#linearGradient1307"
     id="radialGradient1317-7"
     cx="175.31055"
     cy="56.954151"
     fx="175.31055"
     fy="56.954151"
     r="100.40039"
     gradientTransform="matrix(1,0,0,0.40035016,0,34.152547)"
     gradientUnits="userSpaceOnUse" /><radialGradient
     inkscape:collect="always"
     xlink:href="#linearGradient1307"
     id="radialGradient1321-2"
     gradientUnits="userSpaceOnUse"
     gradientTransform="matrix(1,0,0,0.40035016,0,34.152547)"
     cx="175.31055"
     cy="56.954151"
     fx="175.31055"
     fy="56.954151"
     r="100.40039" /><radialGradient
     inkscape:collect="always"
     xlink:href="#linearGradient1307"
     id="radialGradient1319-9"
     gradientUnits="userSpaceOnUse"
     gradientTransform="matrix(1,0,0,0.40035016,0,34.152547)"
     cx="175.31055"
     cy="56.954151"
     fx="175.31055"
     fy="56.954151"
     r="100.40039" /></defs><sodipodi:namedview
   pagecolor="#ffffff"
   bordercolor="#666666"
   borderopacity="1"
   objecttolerance="10"
   gridtolerance="10"
   guidetolerance="10"
   inkscape:pageopacity="0"
   inkscape:pageshadow="2"
   inkscape:window-width="2388"
   inkscape:window-height="1622"
   id="namedview61"
   showgrid="false"
   fit-margin-top="0"
   fit-margin-left="0"
   fit-margin-right="0"
   fit-margin-bottom="0"
   inkscape:zoom="1.1132075"
   inkscape:cx="547.23702"
   inkscape:cy="377.90918"
   inkscape:window-x="787"
   inkscape:window-y="316"
   inkscape:window-maximized="0"
   inkscape:current-layer="Capa_1" />





<g
   id="g30"
   transform="translate(137.05481,730.47105)">
</g>
<g
   id="g32"
   transform="translate(137.05481,730.47105)">
</g>
<g
   id="g34"
   transform="translate(137.05481,730.47105)">
</g>
<g
   id="g36"
   transform="translate(137.05481,730.47105)">
</g>
<g
   id="g38"
   transform="translate(137.05481,730.47105)">
</g>
<g
   id="g40"
   transform="translate(137.05481,730.47105)">
</g>
<g
   id="g42"
   transform="translate(137.05481,730.47105)">
</g>
<g
   id="g44"
   transform="translate(137.05481,730.47105)">
</g>
<g
   id="g46"
   transform="translate(137.05481,730.47105)">
</g>
<g
   id="g48"
   transform="translate(137.05481,730.47105)">
</g>
<g
   id="g50"
   transform="translate(137.05481,730.47105)">
</g>
<g
   id="g52"
   transform="translate(137.05481,730.47105)">
</g>
<g
   id="g54"
   transform="translate(137.05481,730.47105)">
</g>
<g
   id="g56"
   transform="translate(137.05481,730.47105)">
</g>
<g
   id="g58"
   transform="translate(137.05481,730.47105)">
</g>
<g
   id="g1057"
   transform="matrix(2.1884286,0,0,1.5708082,6.5646342,0.00157081)"><path
     id="path996"
     d="M 97.103,353.103 C 97.103,440.86 168.244,512 256,512 v 0 c 87.756,0 158.897,-71.14 158.897,-158.897 0,-88.276 -44.138,-158.897 -14.524,-220.69 0,0 -47.27,8.828 -73.752,79.448 0,0 -88.276,-88.276 -51.394,-211.862 0,0 -89.847,35.31 -80.451,150.069 8.058,98.406 -9.396,114.759 -9.396,114.759 0,-79.448 -62.115,-114.759 -62.115,-114.759 17.976,97.104 -26.162,123.587 -26.162,203.035 z"
     style="fill:#ffb446"
     inkscape:connector-curvature="0" /><path
     id="path998"
     d="m 370.696,390.734 c 0,66.093 -51.033,122.516 -117.114,121.241 -62.188,-1.198 -108.457,-48.514 -103.512,-110.321 2.207,-27.586 23.172,-72.276 57.379,-117.517 l 22.805,13.793 C 229.517,242.023 256,167.724 256,167.724 c 17.396,78.283 114.696,98.574 114.696,223.01 z"
     style="fill:#ffdc64"
     inkscape:connector-curvature="0" /><path
     id="path1000"
     d="m 211.862,335.448 c -8.828,52.966 -26.483,72.249 -26.483,105.931 0,35.311 31.619,70.621 70.621,70.621 v 0 c 39.284,0 70.729,-32.097 70.62,-71.381 -0.295,-105.508 -61.792,-158.136 -61.792,-158.136 8.828,52.966 -17.655,79.448 -17.655,79.448 -11.032,-16.546 -35.311,-26.483 -35.311,-26.483 z"
     style="fill:#ffffff"
     inkscape:connector-curvature="0" /><g
     id="g1002">
</g><g
     id="g1004">
</g><g
     id="g1006">
</g><g
     id="g1008">
</g><g
     id="g1010">
</g><g
     id="g1012">
</g><g
     id="g1014">
</g><g
     id="g1016">
</g><g
     id="g1018">
</g><g
     id="g1020">
</g><g
     id="g1022">
</g><g
     id="g1024">
</g><g
     id="g1026">
</g><g
     id="g1028">
</g><g
     id="g1030">
</g></g><g
   id="g1283"
   transform="matrix(3,0,0,3,316.18435,1392.5193)"
   clip-path="url(#clipPath1289)"><path
     id="path1176"
     style="fill:#e8594a;stroke-width:8"
     d="m 24.46384,-305.508 -7.04,-9.44 -10.48,11.44 -10,-14.48 -14.48,11.52 -0.32,-7.12 h -0.08 l -118.8,-15.04 -58.8,-7.44 v 72.56 l 50,6.32 86.88,11.04 63.52,8 31.68,4 6.08,-47.6 a 19.456,19.456 0 0 0 -18.16,-23.76 z"
     inkscape:connector-curvature="0" /><path
     id="path1180"
     style="fill:#87ced9;stroke-width:8"
     d="m -51.77616,-372.628 a 24.152,24.152 0 0 0 -17.92,-11.92 l -110.88,-14.4 a 23.656,23.656 0 0 0 -14.96,3.04 v 59.84 l 58.8,7.44 118.8,15.04 z"
     inkscape:connector-curvature="0" /><rect
     id="rect1182"
     style="fill:#59b0bd;stroke-width:8"
     transform="rotate(-83.014)"
     height="15.992"
     width="64"
     y="-183.59692"
     x="309.56555" /><rect
     id="rect1184"
     style="fill:#bd3a35;stroke-width:8"
     transform="rotate(-82.986)"
     height="15.992"
     width="72"
     y="-183.74731"
     x="237.47528" /><circle
     id="circle1186"
     style="fill:#663318;stroke-width:8"
     r="39.992001"
     cy="-241.98801"
     cx="-35.53616" /><path
     id="path1196"
     style="fill:#ededeb;stroke-width:8"
     d="m -33.56816,-257.86 a 16,16 0 1 0 -3.936,31.744 15.688,15.688 0 0 0 2.016,0.128 16,16 0 0 0 1.92,-31.872 z m -2.72,23.824 z"
     inkscape:connector-curvature="0" /><rect
     id="rect1212"
     style="fill:#bd3a35;stroke-width:8"
     transform="rotate(-80.727)"
     height="24.823999"
     width="16"
     y="-160.79074"
     x="267.78058" /></g><g
   id="g994"
   transform="matrix(3,0,0,3,369.94921,377.40158)"><path
     inkscape:connector-curvature="0"
     id="path2"
     d="m 132.75066,21.728814 v 0 C 130.76519,9.6095678 102.40094,0 67.686441,0 32.971945,0 4.6076949,9.6095678 2.6222246,21.728814 v 0 H 2.5 v 1.35805 31.23517 1.358051 1.358051 29.877118 1.358051 1.358051 32.593224 h 0.1222246 c 1.9854703,12.11653 30.3524364,21.72881 65.0642164,21.72881 34.711779,0 63.078749,-9.61228 65.064219,-21.72881 h 0.12222 V 89.631356 88.273305 86.915254 57.038136 55.680085 54.322034 23.086864 21.728814 Z"
     style="fill:#424a60;stroke-width:2.71610165" /><g
     transform="matrix(2.7161017,0,0,2.7161017,-4.2902542,0)"
     id="g10">
	<path
   inkscape:connector-curvature="0"
   id="path4"
   d="M 26.5,41 C 13.245,41 2.5,37.194 2.5,32.5 V 45 h 0.045 c 0.731,4.461 11.175,8 23.955,8 12.78,0 23.224,-3.539 23.955,-8 H 50.5 V 32.5 c 0,4.694 -10.745,8.5 -24,8.5 z"
   style="fill:#424a60" />
	<path
   inkscape:connector-curvature="0"
   id="path6"
   d="m 2.5,32 v 0.5 c 0,-0.168 0.018,-0.334 0.045,-0.5 z"
   style="fill:#424a60" />
	<path
   inkscape:connector-curvature="0"
   id="path8"
   d="m 50.455,32 c 0.027,0.166 0.045,0.332 0.045,0.5 V 32 Z"
   style="fill:#424a60" />
</g><g
     transform="matrix(2.7161017,0,0,2.7161017,-4.2902542,0)"
     id="g18">
	<path
   inkscape:connector-curvature="0"
   id="path12"
   d="M 26.5,29 C 13.245,29 2.5,25.194 2.5,20.5 V 33 h 0.045 c 0.731,4.461 11.175,8 23.955,8 12.78,0 23.224,-3.539 23.955,-8 H 50.5 V 20.5 c 0,4.694 -10.745,8.5 -24,8.5 z"
   style="fill:#556080" />
	<path
   inkscape:connector-curvature="0"
   id="path14"
   d="m 2.5,20 v 0.5 c 0,-0.168 0.018,-0.334 0.045,-0.5 z"
   style="fill:#556080" />
	<path
   inkscape:connector-curvature="0"
   id="path16"
   d="m 50.455,20 c 0.027,0.166 0.045,0.332 0.045,0.5 V 20 Z"
   style="fill:#556080" />
</g><ellipse
     id="ellipse20"
     ry="23.086864"
     rx="65.18644"
     cy="23.086864"
     cx="67.68644"
     style="fill:#7fabda;stroke-width:2.71610165" /><g
     transform="matrix(2.7161017,0,0,2.7161017,-4.2902542,0)"
     id="g28">
	<path
   inkscape:connector-curvature="0"
   id="path22"
   d="M 26.5,17 C 13.245,17 2.5,13.194 2.5,8.5 V 21 h 0.045 c 0.731,4.461 11.175,8 23.955,8 12.78,0 23.224,-3.539 23.955,-8 H 50.5 V 8.5 c 0,4.694 -10.745,8.5 -24,8.5 z"
   style="fill:#7383bf" />
	<path
   inkscape:connector-curvature="0"
   id="path24"
   d="M 2.5,8 V 8.5 C 2.5,8.332 2.518,8.166 2.545,8 Z"
   style="fill:#7383bf" />
	<path
   inkscape:connector-curvature="0"
   id="path26"
   d="M 50.455,8 C 50.482,8.166 50.5,8.332 50.5,8.5 V 8 Z"
   style="fill:#7383bf" />
</g></g><g
   id="g4605"
   transform="rotate(-30,889.68374,202.01961)"><flowRoot
     transform="matrix(3.4839882,0,0,3.4839882,-177.64201,-47.887534)"
     style="font-style:normal;font-variant:normal;font-weight:normal;font-stretch:normal;font-size:40px;line-height:1.25;font-family:sans-serif;-inkscape-font-specification:'sans-serif, Normal';font-variant-ligatures:normal;font-variant-caps:normal;font-variant-numeric:normal;font-feature-settings:normal;text-align:center;letter-spacing:0px;word-spacing:0px;writing-mode:lr-tb;text-anchor:middle;fill:url(#radialGradient1317);fill-opacity:1;stroke:#000000;stroke-opacity:1"
     id="flowRoot1293"
     xml:space="preserve"><flowRegion
       style="font-style:normal;font-variant:normal;font-weight:normal;font-stretch:normal;font-size:40px;font-family:sans-serif;-inkscape-font-specification:'sans-serif, Normal';font-variant-ligatures:normal;font-variant-caps:normal;font-variant-numeric:normal;font-feature-settings:normal;text-align:center;writing-mode:lr-tb;text-anchor:middle;fill:url(#radialGradient1321);fill-opacity:1;stroke:#000000;stroke-opacity:1"
       id="flowRegion1295"><rect
         style="font-style:normal;font-variant:normal;font-weight:normal;font-stretch:normal;font-size:40px;font-family:sans-serif;-inkscape-font-specification:'sans-serif, Normal';font-variant-ligatures:normal;font-variant-caps:normal;font-variant-numeric:normal;font-feature-settings:normal;text-align:center;writing-mode:lr-tb;text-anchor:middle;fill:url(#radialGradient1319);fill-opacity:1;stroke:#000000;stroke-opacity:1"
         y="10.656227"
         x="20.961521"
         height="163.31451"
         width="326.10291"
         id="rect1297" /></flowRegion><flowPara
       style="font-style:normal;font-variant:normal;font-weight:normal;font-stretch:normal;font-size:50.516819px;font-family:'Segoe UI';-inkscape-font-specification:'Segoe UI, Normal';font-variant-ligatures:normal;font-variant-caps:normal;font-variant-numeric:normal;font-feature-settings:normal;text-align:center;writing-mode:lr-tb;text-anchor:middle;fill:#ff0000;fill-opacity:1;stroke:#000000;stroke-opacity:1"
       id="flowPara1299">Accidental</flowPara><flowPara
       style="font-style:normal;font-variant:normal;font-weight:normal;font-stretch:normal;font-size:50.516819px;font-family:'Segoe UI';-inkscape-font-specification:'Segoe UI, Normal';font-variant-ligatures:normal;font-variant-caps:normal;font-variant-numeric:normal;font-feature-settings:normal;text-align:center;writing-mode:lr-tb;text-anchor:middle;fill:#ff0000;fill-opacity:1;stroke:#000000;stroke-opacity:1"
       id="flowPara1301" /></flowRoot><flowRoot
     transform="matrix(3.4839882,0,0,3.4839882,-190.96231,117.57653)"
     style="font-style:normal;font-variant:normal;font-weight:normal;font-stretch:normal;font-size:40px;line-height:1.25;font-family:sans-serif;-inkscape-font-specification:'sans-serif, Normal';font-variant-ligatures:normal;font-variant-caps:normal;font-variant-numeric:normal;font-feature-settings:normal;text-align:center;letter-spacing:0px;word-spacing:0px;writing-mode:lr-tb;text-anchor:middle;fill:url(#radialGradient1317-7);fill-opacity:1;stroke:#000000;stroke-opacity:1"
     id="flowRoot1293-5"
     xml:space="preserve"><flowRegion
       style="font-style:normal;font-variant:normal;font-weight:normal;font-stretch:normal;font-size:40px;font-family:sans-serif;-inkscape-font-specification:'sans-serif, Normal';font-variant-ligatures:normal;font-variant-caps:normal;font-variant-numeric:normal;font-feature-settings:normal;text-align:center;writing-mode:lr-tb;text-anchor:middle;fill:url(#radialGradient1321-2);fill-opacity:1;stroke:#000000;stroke-opacity:1"
       id="flowRegion1295-1"><rect
         style="font-style:normal;font-variant:normal;font-weight:normal;font-stretch:normal;font-size:40px;font-family:sans-serif;-inkscape-font-specification:'sans-serif, Normal';font-variant-ligatures:normal;font-variant-caps:normal;font-variant-numeric:normal;font-feature-settings:normal;text-align:center;writing-mode:lr-tb;text-anchor:middle;fill:url(#radialGradient1319-9);fill-opacity:1;stroke:#000000;stroke-opacity:1"
         y="10.656227"
         x="20.961521"
         height="163.31451"
         width="326.10291"
         id="rect1297-7" /></flowRegion><flowPara
       style="font-style:normal;font-variant:normal;font-weight:normal;font-stretch:normal;font-size:50.516819px;font-family:'Segoe UI';-inkscape-font-specification:'Segoe UI, Normal';font-variant-ligatures:normal;font-variant-caps:normal;font-variant-numeric:normal;font-feature-settings:normal;text-align:center;writing-mode:lr-tb;text-anchor:middle;fill:#ff0000;fill-opacity:1;stroke:#000000;stroke-opacity:1"
       id="flowPara1299-8">DBA</flowPara><flowPara
       style="font-style:normal;font-variant:normal;font-weight:normal;font-stretch:normal;font-size:50.516819px;font-family:'Segoe UI';-inkscape-font-specification:'Segoe UI, Normal';font-variant-ligatures:normal;font-variant-caps:normal;font-variant-numeric:normal;font-feature-settings:normal;text-align:center;writing-mode:lr-tb;text-anchor:middle;fill:#ff0000;fill-opacity:1;stroke:#000000;stroke-opacity:1"
       id="flowPara1301-9" /></flowRoot></g></svg>