<?xml version="1.0" encoding="UTF-8" standalone="no"?>
<svg
   xmlns:dc="http://purl.org/dc/elements/1.1/"
   xmlns:cc="http://creativecommons.org/ns#"
   xmlns:rdf="http://www.w3.org/1999/02/22-rdf-syntax-ns#"
   xmlns:svg="http://www.w3.org/2000/svg"
   xmlns="http://www.w3.org/2000/svg"
   xmlns:sodipodi="http://sodipodi.sourceforge.net/DTD/sodipodi-0.dtd"
   xmlns:inkscape="http://www.inkscape.org/namespaces/inkscape"
   height="512pt"
   viewBox="-55 0 511 512"
   width="512pt"
   version="1.1"
   id="svg34"
   sodipodi:docname="koan-monk.svg"
   inkscape:export-filename="C:\Dropbox\svg\PSKoans\kmonk7.png"
   inkscape:export-xdpi="96"
   inkscape:export-ydpi="96"
   inkscape:version="0.92.4 (5da689c313, 2019-01-14)">
  <metadata
     id="metadata40">
    <rdf:RDF>
      <cc:Work
         rdf:about="">
        <dc:format>image/svg+xml</dc:format>
        <dc:type
           rdf:resource="http://purl.org/dc/dcmitype/StillImage" />
        <dc:title />
      </cc:Work>
    </rdf:RDF>
  </metadata>
  <defs
     id="defs38">
    <linearGradient
       id="SVGID_1_"
       gradientUnits="userSpaceOnUse"
       x1="95.266701"
       y1="91.9263"
       x2="26.700001"
       y2="30.68">
      <stop
         offset="0"
         style="stop-color:#A9C8FF"
         id="stop8" />
      <stop
         offset="1"
         style="stop-color:#C7E6FF"
         id="stop10" />
    </linearGradient>
    <linearGradient
       y2="90.277802"
       x2="93.585403"
       y1="30.7778"
       x1="26.5854"
       gradientUnits="userSpaceOnUse"
       id="SVGID_2_">
      <stop
         id="stop15"
         style="stop-color:#2D4664"
         offset="0" />
      <stop
         id="stop17"
         style="stop-color:#29405B"
         offset="0.1689" />
      <stop
         id="stop19"
         style="stop-color:#1E2F43"
         offset="0.4445" />
      <stop
         id="stop21"
         style="stop-color:#0C131B"
         offset="0.7902" />
      <stop
         id="stop23"
         style="stop-color:#000000"
         offset="1" />
    </linearGradient>
    <linearGradient
       gradientTransform="matrix(0.74999998,0,0,0.74999998,194.87846,585.19052)"
       id="SVGID_2_-2"
       gradientUnits="userSpaceOnUse"
       x1="26.1775"
       y1="30.014601"
       x2="93.748497"
       y2="90.738098">
      <stop
         offset="0"
         style="stop-color:#5391FE"
         id="stop9" />
      <stop
         offset="1"
         style="stop-color:#3E6DBF"
         id="stop11" />
    </linearGradient>
  </defs>
  <sodipodi:namedview
     pagecolor="#ffffff"
     bordercolor="#666666"
     borderopacity="1"
     objecttolerance="10"
     gridtolerance="10"
     guidetolerance="10"
     inkscape:pageopacity="0"
     inkscape:pageshadow="2"
     inkscape:window-width="1760"
     inkscape:window-height="1387"
     id="namedview36"
     showgrid="false"
     inkscape:zoom="0.9777961"
     inkscape:cx="365.67914"
     inkscape:cy="472.6901"
     inkscape:window-x="1095"
     inkscape:window-y="302"
     inkscape:window-maximized="0"
     inkscape:current-layer="svg34" />
  <path
     d="m 401.33984,469.44922 c 0,9.25391 -3.74609,17.66016 -9.82812,23.72266 C 385.44531,499.25391 377.05469,503 367.78516,503 H 34.050781 C 15.519531,503 0.5,487.98047 0.5,469.44922 c 0,-42.34375 17.152344,-80.66797 44.898438,-108.41797 15.238281,-15.23437 33.667968,-27.28906 54.207031,-35.03906 7.167971,-2.72656 14.593751,-4.91016 22.226561,-6.53125 4.54688,-0.95703 9.16406,-1.72656 13.84375,-2.27735 5.94922,-0.69921 12.00391,-1.0625 18.14063,-1.0625 h 94.20703 c 10.97265,0 21.66406,1.15625 31.98047,3.33985 69.32031,14.70703 121.33593,76.27734 121.33593,149.98828 z m 0,0"
     id="path2"
     inkscape:connector-curvature="0"
     style="fill:#7b5341" />
  <path
     d="m 401.33984,469.44922 c 0,9.25391 -3.74609,17.66016 -9.82812,23.72266 C 385.44531,499.25391 377.05469,503 367.78516,503 H 83.976562 c -18.535156,0 -33.554687,-15.01953 -33.554687,-33.55078 0,-42.34375 17.152344,-80.66797 44.898437,-108.41797 20.562498,-20.5625 46.929688,-35.30859 76.437498,-41.57031 19.71094,-4.17188 29.19141,-3.33985 76.26563,-3.33985 6.21875,0 12.33593,0.375 18.35547,1.09375 4.60937,0.55079 9.15234,1.30079 13.625,2.2461 7.75,1.64453 15.26953,3.86719 22.53906,6.63672 57.7539,21.97656 98.79687,77.8789 98.79687,143.35156 z m 0,0"
     id="path4"
     inkscape:connector-curvature="0"
     style="fill:#9c6a53" />
  <path
     d="m 135.80078,198.20313 v 119.28125 l 65.11719,92.19921 65.12109,-92.19921 V 198.20313 Z m 0,0"
     id="path6"
     inkscape:connector-curvature="0"
     style="fill:#e3a76f" />
  <path
     d="m 135.90625,172.82813 c 0,23.8789 -19.35938,43.23828 -43.238281,43.23828 -23.882813,0 -43.238281,-19.35938 -43.238281,-43.23828 0,-23.87891 19.355468,-43.23829 43.238281,-43.23829 23.878901,0 43.238281,19.35938 43.238281,43.23829 z m 0,0"
     id="path8"
     inkscape:connector-curvature="0"
     style="fill:#e3a76f" />
  <path
     d="m 352.41016,172.83594 c 0,23.8789 -19.35938,43.23828 -43.23829,43.23828 -23.8789,0 -43.23828,-19.35938 -43.23828,-43.23828 0,-23.88281 19.35938,-43.23828 43.23828,-43.23828 23.87891,0 43.23829,19.35547 43.23829,43.23828 z m 0,0"
     id="path10"
     inkscape:connector-curvature="0"
     style="fill:#e3a76f" />
  <path
     d="m 313.33984,110.02384 v 108.66134 c 0,50.17392 -39.875,92.0862 -92.66015,100.58134 C 151.41797,330.44881 88.5,281.95391 88.5,218.68518 V 110.02384 C 88.5,53.60459 138.83984,7.874683 200.91797,7.874683 c 62.03125,0 112.42187,45.689137 112.42187,102.149157 z m 0,0"
     id="path12"
     inkscape:connector-curvature="0"
     style="fill:#e3a76f;stroke-width:0.974087" />
  <path
     d="m 313.33984,110.05314 v 108.60104 c 0,50.14607 -39.875,92.03509 -92.66015,100.52551 -52.77344,-8.48672 -92.65625,-50.39056 -92.65625,-100.52551 V 110.05314 c 0,-50.260901 40,-92.042498 92.65625,-100.514395 52.66015,8.471897 92.66015,50.253494 92.66015,100.514395 z m 0,0"
     id="path14"
     inkscape:connector-curvature="0"
     style="fill:#f2bb88;stroke-width:0.97381669" />
  <path
     d="m 302.54297,326.09766 c -9.20703,17.79687 -91.53125,131.02343 -96.42188,137.7539 l -17.20312,-36.45312 77.46094,-110.1836 c 4.60937,0.55079 9.15234,1.30079 13.625,2.2461 7.75,1.64453 15.26953,3.86719 22.53906,6.63672 z m 0,0"
     id="path16"
     inkscape:connector-curvature="0"
     style="fill:#ffc14f" />
  <path
     style="fill:#ae583e"
     inkscape:connector-curvature="0"
     id="path20"
     d="m 275.17969,174.87891 c 0,7.5039 -6.08594,13.58984 -13.58985,13.58984 -7.5039,0 -13.58593,-6.08594 -13.58593,-13.58984 0,-7.50391 6.08203,-13.58985 13.58593,-13.58985 7.50391,0 13.58985,6.08594 13.58985,13.58985 z m 0,0" />
  <path
     style="fill:#ae583e"
     inkscape:connector-curvature="0"
     id="path22"
     d="M 279.29297,138.56641 C 258.75391,129.99219 240.33984,131.91406 239.56641,132 c -4.28125,0.47656 -7.36719,4.33203 -6.89063,8.61328 0.47266,4.28125 4.32422,7.36719 8.61328,6.89063 0.14844,-0.0156 15.14063,-1.57813 31.99219,5.45703 0.98047,0.41015 2,0.60547 3.00391,0.60547 3.05078,0 5.94921,-1.80469 7.19921,-4.79688 1.66016,-3.97266 -0.21875,-8.54297 -4.1914,-10.20312 z m 0,0" />
  <path
     style="fill:#ae583e"
     inkscape:connector-curvature="0"
     id="path24"
     d="m 150.83594,174.87891 c 0,7.5039 -6.08203,13.58984 -13.58985,13.58984 -7.5039,0 -13.58593,-6.08594 -13.58593,-13.58984 0,-7.50391 6.08203,-13.58985 13.58593,-13.58985 7.50782,0 13.58985,6.08594 13.58985,13.58985 z m 0,0" />
  <path
     style="fill:#ae583e"
     inkscape:connector-curvature="0"
     id="path26"
     d="m 159.27344,132 c -0.77735,-0.0859 -19.19141,-2.00781 -39.72656,6.56641 -3.97657,1.66015 -5.85157,6.23046 -4.19141,10.20312 1.25,2.99609 4.14844,4.79688 7.19922,4.79688 1.0039,0 2.01953,-0.19141 3.0039,-0.60157 16.59766,-6.92968 31.76563,-5.48047 32.01563,-5.45312 4.28906,0.44922 8.11719,-2.625 8.58984,-6.89453 0.47656,-4.28516 -2.60937,-8.14063 -6.89062,-8.61719 z m 0,0" />
  <path
     d="m 266.35937,503 h -44.9414 C 89.71875,312.48438 104.17969,333.74219 99.605469,325.99219 c 7.167971,-2.72656 14.593751,-4.91016 22.226561,-6.53125 4.54688,-0.95703 9.16406,-1.72656 13.84375,-2.27735 l 0.125,0.30079 65.11719,92.20312 c 70.48047,100.41406 62.58984,89.14063 65.4414,93.3125 z m 0,0"
     id="path30"
     inkscape:connector-curvature="0"
     style="fill:#ffb52d" />
  <path
     d="m 135.80078,317.48438 -0.125,-0.30079 c -4.67969,0.55079 -9.29687,1.32032 -13.84375,2.27735 -7.63281,1.62109 -15.05859,3.80469 -22.226561,6.53125 4.113281,6.97265 1.449221,2.89062 13.253901,19.96875 9.44141,-6.97656 19.72657,-12.88672 30.66016,-17.54688 z m 0,0"
     id="path32"
     inkscape:connector-curvature="0"
     style="fill:#f29500" />
  <path
     style="fill:#ae583e;fill-opacity:1;stroke-width:1.37339914"
     inkscape:connector-curvature="0"
     d="m 222.08792,241.44047 c 0,11.07304 -9.01293,20.08596 -20.08596,20.08596 -11.07839,0 -20.08596,-9.01292 -20.08596,-20.08596 0,-5.74574 -4.65668,-10.39705 -10.39707,-10.39705 -21.7115,0 -8.54619,51.27178 30.48303,51.27178 39.0185,0 52.19453,-51.27178 30.47766,-51.27178 -5.74038,0 -10.3917,4.65667 -10.3917,10.39705 z m 0,0"
     id="path28" />
  <g
     id="g4228"
     style="opacity:0.5"
     transform="matrix(1.0696202,0,0,1.130991,-13.958847,-11.221253)">
    <ellipse
       ry="2.5887299"
       rx="20.548452"
       cy="19.546021"
       cx="200.63911"
       id="path4170"
       style="opacity:1;fill:#4980e1;fill-opacity:1;fill-rule:evenodd;stroke:none;stroke-width:4.91913414;stroke-linecap:butt;stroke-linejoin:round;stroke-miterlimit:4;stroke-dasharray:none;stroke-opacity:1" />
    <g
       id="g4221">
      <path
         sodipodi:type="star"
         style="opacity:1;fill:#4980e1;fill-opacity:1;fill-rule:evenodd;stroke:none;stroke-width:20.31458855;stroke-linecap:butt;stroke-linejoin:round;stroke-miterlimit:4;stroke-dasharray:none;stroke-opacity:1"
         id="path1032"
         sodipodi:sides="3"
         sodipodi:cx="204.42194"
         sodipodi:cy="93.712379"
         sodipodi:r1="57.865086"
         sodipodi:r2="28.932543"
         sodipodi:arg1="1.5707963"
         sodipodi:arg2="2.6179939"
         inkscape:flatsided="true"
         inkscape:rounded="0"
         inkscape:randomized="0"
         d="m 204.42194,151.57747 -50.11264,-86.797632 100.22527,-3e-6 z"
         inkscape:transform-center-y="11.7559"
         transform="matrix(1.4839996,0,0,0.81264198,-102.86208,12.354993)"
         inkscape:transform-center-x="7.0707255e-06" />
      <rect
         style="opacity:1;fill:#4980e1;fill-opacity:1;fill-rule:evenodd;stroke:none;stroke-width:8.96531868;stroke-linecap:butt;stroke-linejoin:round;stroke-miterlimit:4;stroke-dasharray:none;stroke-opacity:1"
         id="rect1028-9"
         width="31.915487"
         height="48.502747"
         x="-217.45277"
         y="19.890173"
         transform="matrix(-1,0,0.18773341,0.98222002,0,0)" />
      <rect
         style="opacity:1;fill:#4980e1;fill-opacity:1;fill-rule:evenodd;stroke:none;stroke-width:8.96531868;stroke-linecap:butt;stroke-linejoin:round;stroke-miterlimit:4;stroke-dasharray:none;stroke-opacity:1"
         id="rect1028-9-3"
         width="31.915489"
         height="48.502743"
         x="183.83392"
         y="19.908737"
         transform="matrix(1,0,-0.18773341,0.98222002,0,0)" />
    </g>
  </g>
  <g
     id="g4207"
     transform="matrix(1.2459224,0,0,1.2459224,-51.651711,-25.448463)"
     style="opacity:1;fill:#ffffff">
    <path
       id="path36"
       d="m 215.36065,82.246426 c -0.28622,0.576284 -0.8802,1.211812 -1.93044,1.94967 L 182.5671,106.36187 c -1.685,1.22412 -4.104,0.77017 -5.40199,-1.01485 -1.29798,-1.78501 -0.98484,-4.22403 0.70017,-5.448921 L 205.69693,79.744324 V 79.330385 L 188.20992,60.72773 c -1.42648,-1.517266 -1.27799,-3.970896 0.3316,-5.481236 1.60959,-1.509572 4.07015,-1.503414 5.49663,0.01383 l 20.98242,22.321955 c 1.19104,1.267209 1.27952,3.186102 0.34008,4.664128 z"
       style="clip-rule:evenodd;fill:#ffffff;fill-opacity:1;fill-rule:evenodd;stroke-width:0.76940429"
       inkscape:connector-curvature="0" />
    <path
       id="path38"
       d="m 209.95677,98.823243 h 16.62913 c 1.93351,0 3.50079,1.550347 3.50079,3.462317 0,1.91197 -1.56728,3.46233 -3.50079,3.46233 h -16.62913 c -1.93352,0 -3.50079,-1.55036 -3.50079,-3.46233 0,-1.91197 1.56727,-3.462317 3.50079,-3.462317 z"
       style="clip-rule:evenodd;fill:#ffffff;fill-opacity:1;fill-rule:evenodd;stroke-width:0.76940429"
       inkscape:connector-curvature="0" />
  </g>
</svg>
