<?xml version="1.0" encoding="UTF-8" standalone="no"?>
<!-- Generator: Adobe Illustrator 15.1.0, SVG Export Plug-In . SVG Version: 6.00 Build 0)  -->

<svg
   xmlns:ns="&amp;ns_sfw;"
   xmlns:dc="http://purl.org/dc/elements/1.1/"
   xmlns:cc="http://creativecommons.org/ns#"
   xmlns:rdf="http://www.w3.org/1999/02/22-rdf-syntax-ns#"
   xmlns:svg="http://www.w3.org/2000/svg"
   xmlns="http://www.w3.org/2000/svg"
   xmlns:xlink="http://www.w3.org/1999/xlink"
   xmlns:sodipodi="http://sodipodi.sourceforge.net/DTD/sodipodi-0.dtd"
   xmlns:inkscape="http://www.inkscape.org/namespaces/inkscape"
   version="1.1"
   x="0px"
   y="0px"
   width="451.40198"
   height="451.40198"
   viewBox="0 0 451.40201 451.40201"
   enable-background="new 0 0 225.7 225.7"
   xml:space="preserve"
   id="svg38"
   sodipodi:docname="Run-Pwsh.svg"
   inkscape:version="0.92.4 (5da689c313, 2019-01-14)"
   inkscape:export-filename="C:\Dropbox\svg\run-ps1\Run-Pwsh.png"
   inkscape:export-xdpi="96"
   inkscape:export-ydpi="96"><defs
   id="defs42">
	
	
		
	
		
	
	
	
	
	
	
</defs><sodipodi:namedview
   pagecolor="#ffffff"
   bordercolor="#666666"
   borderopacity="1"
   objecttolerance="10"
   gridtolerance="10"
   guidetolerance="10"
   inkscape:pageopacity="0"
   inkscape:pageshadow="2"
   inkscape:window-width="1623"
   inkscape:window-height="1144"
   id="namedview40"
   showgrid="false"
   units="px"
   fit-margin-top="0"
   fit-margin-left="0"
   fit-margin-right="0"
   fit-margin-bottom="0"
   inkscape:zoom="1.4787523"
   inkscape:cx="139.77687"
   inkscape:cy="268.73617"
   inkscape:window-x="1238"
   inkscape:window-y="351"
   inkscape:window-maximized="0"
   inkscape:current-layer="svg38" />
<metadata
   id="metadata2">
	<ns:sfw>
		<ns:slices />
		<ns:sliceSourceBounds
   height="16383"
   width="16383"
   y="-8490"
   x="-7770"
   bottomLeftOrigin="true" />
	</ns:sfw>
<rdf:RDF><cc:Work
     rdf:about=""><dc:format>image/svg+xml</dc:format><dc:type
       rdf:resource="http://purl.org/dc/dcmitype/StillImage" /><dc:title></dc:title></cc:Work></rdf:RDF></metadata>
<g
   id="Unterleger"
   display="none"
   style="display:none"
   transform="translate(0,225.70099)">
	
		<image
   display="inline"
   overflow="visible"
   width="300"
   height="300"
   xlink:href="file:///C:/Users/Adilio/Desktop/../../../../../Users/kaimac/Desktop/run_dmc-1683.jpg"
   transform="matrix(0.75,0,0,0.75,0.1836,0.5166)"
   id="image4"
   style="display:inline;overflow:visible"
   sodipodi:absref="C:\Users\Adilio\Desktop\..\..\..\..\..\Users\kaimac\Desktop\run_dmc-1683.jpg">
	</image>
</g>
<rect
   style="stroke:#000000;stroke-width:2.06800008;stroke-miterlimit:10"
   id="rect7"
   height="449.33401"
   width="449.33401"
   stroke-miterlimit="10"
   y="1.034"
   x="1.034" /><rect
   style="fill:#be0a26;stroke:#be0a26;stroke-width:2.06800008;stroke-miterlimit:10"
   id="rect9"
   height="36"
   width="374.66599"
   stroke-miterlimit="10"
   y="67.429993"
   x="39.700001" /><rect
   style="fill:#be0a26;stroke:#be0a26;stroke-width:2.06800008;stroke-miterlimit:10"
   id="rect11"
   height="36"
   width="374.66599"
   stroke-miterlimit="10"
   y="349.80255"
   x="39.700001" /><g
   id="g15"
   transform="matrix(2,0,0,2,0,1.999992)">
		<path
   style="fill:#ffffff"
   inkscape:connector-curvature="0"
   id="path13"
   d="m 122.196,54.342 h 19.58 v 37.087 c 0,3.678 -0.587,7.15 -1.754,10.417 -1.17,3.267 -3.005,6.125 -5.502,8.572 -2.499,2.447 -5.119,4.165 -7.862,5.156 -3.812,1.385 -8.389,2.079 -13.731,2.079 -3.091,0 -6.462,-0.213 -10.115,-0.637 -3.653,-0.426 -6.708,-1.267 -9.161,-2.525 -2.456,-1.259 -4.701,-3.048 -6.736,-5.368 -2.036,-2.319 -3.429,-4.709 -4.181,-7.171 -1.212,-3.96 -1.819,-7.468 -1.819,-10.523 V 54.342 h 19.58 v 37.971 c 0,3.394 0.959,6.046 2.881,7.955 1.919,1.909 4.584,2.863 7.992,2.863 3.379,0 6.027,-0.94 7.948,-2.821 1.921,-1.881 2.881,-4.547 2.881,-7.998 v -37.97 z" />
	</g><g
   id="g19"
   transform="matrix(2,0,0,2,0,1.999992)">
		<path
   style="fill:#ffffff"
   inkscape:connector-curvature="0"
   id="path17"
   d="m 144.746,53.951 h 18.893 l 24.655,35.28 v -35.28 h 19.071 v 63.77 H 188.294 L 163.773,82.707 v 35.014 h -19.026 v -63.77 z" />
	</g><g
   id="g23"
   transform="translate(0,225.70099)">
		
	</g><g
   id="g35"
   transform="matrix(2,0,0,2,0,1.999992)">
		<path
   style="fill:#ffffff"
   inkscape:connector-curvature="0"
   id="path33"
   d="M 19.78,117.288 V 54.064 h 32.482 c 6.023,0 10.627,0.518 13.811,1.553 3.184,1.035 5.75,2.954 7.701,5.757 1.951,2.803 2.926,6.217 2.926,10.242 0,3.508 -0.746,6.534 -2.239,9.079 -1.492,2.544 -3.544,4.607 -6.155,6.188 -1.665,1.006 -3.946,1.84 -6.845,2.501 2.321,0.778 4.013,1.555 5.073,2.331 0.716,0.518 1.755,1.626 3.117,3.324 1.361,1.699 2.271,3.008 2.73,3.928 l 9.438,18.321 H 59.797 L 49.379,97.967 C 48.06,95.466 46.883,93.842 45.851,93.094 44.446,92.117 42.854,91.628 41.076,91.628 h -1.721 v 25.661 H 19.78 Z M 39.355,79.682 h 8.217 c 0.889,0 2.609,-0.287 5.163,-0.863 1.291,-0.259 2.344,-0.92 3.162,-1.984 0.817,-1.063 1.226,-2.286 1.226,-3.666 0,-2.042 -0.646,-3.608 -1.936,-4.701 -1.291,-1.093 -3.715,-1.639 -7.271,-1.639 h -8.562 v 12.853 z" />
	</g>
<flowRoot
   xml:space="preserve"
   id="flowRoot864"
   style="font-style:normal;font-weight:normal;font-size:40px;line-height:1.25;font-family:sans-serif;letter-spacing:0px;word-spacing:0px;fill:#ffffff;fill-opacity:1;stroke:none"
   transform="matrix(1.5560362,0,0,1.5560362,3.6698264,11.87619)"><flowRegion
     id="flowRegion866"
     style="fill:#ffffff"><rect
       id="rect868"
       width="277.46826"
       height="143.95522"
       x="17.920513"
       y="124.60126"
       style="fill:#ffffff" /></flowRegion><flowPara
     id="flowPara870"
     style="font-style:normal;font-variant:normal;font-weight:normal;font-stretch:normal;font-size:96px;font-family:'Franklin Gothic Heavy';-inkscape-font-specification:'Franklin Gothic Heavy, Normal';font-variant-ligatures:normal;font-variant-caps:normal;font-variant-numeric:normal;font-feature-settings:normal;text-align:start;letter-spacing:-6.79133224px;writing-mode:lr-tb;text-anchor:start">PWSH</flowPara></flowRoot></svg>