<?xml version="1.0" encoding="UTF-8" standalone="no"?>
<!-- Generator: Adobe Illustrator 19.0.0, SVG Export Plug-In . SVG Version: 6.00 Build 0)  -->

<svg
   xmlns:dc="http://purl.org/dc/elements/1.1/"
   xmlns:cc="http://creativecommons.org/ns#"
   xmlns:rdf="http://www.w3.org/1999/02/22-rdf-syntax-ns#"
   xmlns:svg="http://www.w3.org/2000/svg"
   xmlns="http://www.w3.org/2000/svg"
   xmlns:sodipodi="http://sodipodi.sourceforge.net/DTD/sodipodi-0.dtd"
   xmlns:inkscape="http://www.inkscape.org/namespaces/inkscape"
   version="1.1"
   id="Capa_1"
   x="0px"
   y="0px"
   viewBox="0 0 512 512"
   style="enable-background:new 0 0 512 512;"
   xml:space="preserve"
   sodipodi:docname="denver-skyline-mountains.svg"
   inkscape:export-filename="C:\Users\adilio\Desktop\mountains3.png"
   inkscape:export-xdpi="96"
   inkscape:export-ydpi="96"
   inkscape:version="0.92.4 (5da689c313, 2019-01-14)"><metadata
   id="metadata127"><rdf:RDF><cc:Work
       rdf:about=""><dc:format>image/svg+xml</dc:format><dc:type
         rdf:resource="http://purl.org/dc/dcmitype/StillImage" /><dc:title></dc:title></cc:Work></rdf:RDF></metadata><defs
   id="defs125">
	
	
	
	
	
	
	
	
	
	
	
	
	
	
	
	
	
	
	
	
	
	
</defs><sodipodi:namedview
   pagecolor="#ffffff"
   bordercolor="#666666"
   borderopacity="1"
   objecttolerance="10"
   gridtolerance="10"
   guidetolerance="10"
   inkscape:pageopacity="0"
   inkscape:pageshadow="2"
   inkscape:window-width="1640"
   inkscape:window-height="857"
   id="namedview123"
   showgrid="false"
   inkscape:zoom="0.921875"
   inkscape:cx="261.44697"
   inkscape:cy="262.46879"
   inkscape:window-x="1196"
   inkscape:window-y="170"
   inkscape:window-maximized="0"
   inkscape:current-layer="Capa_1" />
<g
   id="g1032"
   transform="matrix(1.4237288,0,0,1.4830508,-108.47458,-123.66102)"><g
     id="g4">
		<circle
   style="fill:#9da6ed"
   cx="256"
   cy="256"
   r="256"
   id="circle2" />
	</g><g
     style="opacity:0.3"
     id="g8">
		<circle
   style="fill:#ffc8a9"
   cx="256"
   cy="250.19901"
   r="158.634"
   id="circle6" />
	</g><g
     style="opacity:0.3"
     id="g12">
		<circle
   style="fill:#ffd7a8"
   cx="256"
   cy="250.19901"
   r="84.309998"
   id="circle10" />
	</g><g
     id="g16">
		<path
   style="fill:#a17988"
   d="M 508.242,299.51 C 502.773,290.685 480.239,256 463.889,256 c -20.604,0 -48.39,56 -66.602,56 -14.569,0 -32.78,-32 -41.626,-32 -8.325,0 -44.228,48 -58.276,48 -24.976,0 -77.702,0 -116.552,0 -24.976,0 -58.993,-53.765 -66.602,-64 -6.938,-9.333 -24.976,-8 -24.976,-8 0,0 -47.175,72 -74.925,72 H 10.338 C 41.451,434.318 139.624,512 256,512 382.544,512 487.573,420.158 508.242,299.51 Z"
   id="path14"
   inkscape:connector-curvature="0" />
	</g><g
     id="g20">
		<path
   style="fill:#926e79"
   d="M 366.942,288.094 C 360,286.5 358.75,300.5 351,301.5 c -10.888,1.405 -14,24 -18,31.5 -4,7.5 -15,14.5 -25.5,14.5 -10.5,0 -22.198,16.573 -34.75,23.75 0,0 117.25,35.75 156.75,35.75 17.875,0 31.62,-5.651 42.231,-13.253 17.994,-28.141 30.651,-60.026 36.512,-94.237 -3.598,-5.805 -14.585,-22.76 -26.334,-33.711 C 474.993,264.795 468.64,264.18 467,265 c -4,2 -8.5,4 -11.5,12.865 -3,8.865 -18,15.135 -26,21.635 -8,6.5 -7.5,22 -14.866,23.5 -7.366,1.5 -8.634,-5 -17.346,-11 -9.79,0 -21.213,-14.426 -30.346,-23.906 z"
   id="path18"
   inkscape:connector-curvature="0" />
	</g><g
     id="g24">
		<path
   style="fill:#926e79"
   d="m 176.667,348 c -11.56,3.287 -17.417,-1.25 -21.333,-10 -7.239,-16.172 -44.592,-55.461 -52.667,-55 C 91,283.667 88.167,277.167 82,282.272 c -4.668,3.865 -42.134,31.254 -53.312,34.964 -5.313,1.764 -16.123,3.317 -20.32,3.826 6.828,26.055 17.695,50.457 31.831,72.574 7.367,1.321 16.408,2.047 27.802,1.696 C 111.333,394 211.5,373 211.5,373 201.559,362.445 194.25,343 176.667,348 Z"
   id="path22"
   inkscape:connector-curvature="0" />
	</g><g
     id="g28">
		<path
   style="fill:#86646a"
   d="m 97.852,336 c -10.601,0 -36.398,32 -59.367,32 -5.041,0 -9.167,0 -12.642,0 C 67.384,453.239 154.796,512 256,512 363.551,512 455.526,445.641 493.412,351.657 477.927,348.28 471.01,320 462.537,320 c -7.421,0 -49.826,32 -59.368,32 -14.842,0 -17.669,-24 -33.924,-24 -16.255,0 -15.902,40 -33.924,40 -13.782,0 -11.308,-8 -25.442,-8 -5.631,0 -8.482,8 -16.96,8 -21.831,0 -42.232,0 -50.89,0 -12.015,0 -25.796,-16 -33.924,-16 -8.746,0 -21.91,16 -42.405,16 -43.819,0 -50.886,-32 -67.848,-32 z"
   id="path26"
   inkscape:connector-curvature="0" />
	</g><g
     id="g32">
		<path
   style="fill:#745154"
   d="M 256,512 C 361.34,512 451.784,448.356 491.071,357.44 479.75,355 471.75,349.25 467.25,340 c -3.039,-6.246 -11.033,-3.865 -12.75,-2.14 -10.75,10.8 -29.365,46.106 -39.866,46.106 -5.384,0 -33.419,-37.485 -37.634,-37.967 -8.75,-1 -13.5,16.5 -33,23.5 -8.165,2.931 -11.5,13.434 -21,14.467 -9.5,1.034 -24.5,-3.466 -34,4.034 -9.5,7.5 -50.96,31.796 -61.329,29.152 -9.421,-2.402 -7.083,-16.198 -8.171,-21.731 -2,-10.171 -6.5,-23.671 -14,-18.921 -5.491,3.478 -20.667,0.219 -29.167,1.5 -8.5,1.281 -34,27.333 -48.333,22 -6.374,-2.372 -19,-37.5 -25,-38 -6,-0.5 -8.271,1.076 -12.5,3 -10.428,4.745 -37.857,14.635 -54.973,21.075 C 80.082,461.431 162.116,512 256,512 Z"
   id="path30"
   inkscape:connector-curvature="0" />
	</g><g
     id="g36">
		<circle
   style="fill:#ffffff"
   cx="256"
   cy="250.19901"
   r="37.532001"
   id="circle34" />
	</g><g
     style="opacity:0.5"
     id="g40">
		<path
   style="fill:#ffffff"
   d="m 152.764,166.731 h 63.119 c 0,-22.091 -17.909,-40 -40,-40 -11.602,0 -21.961,5.017 -29.267,12.907 -2.167,-0.538 -4.399,-0.907 -6.733,-0.907 -9.529,0 -17.92,4.782 -22.978,12.054 -5.259,-2.561 -11.132,-4.054 -17.378,-4.054 -13.611,0 -25.596,6.829 -32.821,17.215 -2.281,-0.719 -4.661,-1.215 -7.179,-1.215 -13.255,0 -24,10.745 -24,24 h 128 c 0,-8.359 -4.283,-15.702 -10.763,-20 z"
   id="path38"
   inkscape:connector-curvature="0" />
	</g><g
     style="opacity:0.5"
     id="g44">
		<path
   style="fill:#ffffff"
   d="m 445.634,160 c -11.602,0 -21.961,5.017 -29.267,12.907 -2.167,-0.538 -4.399,-0.907 -6.733,-0.907 -10.721,0 -19.923,6.093 -24.628,14.942 -3.244,-3.093 -7.613,-5.02 -12.449,-5.02 -5.243,0 -9.924,2.268 -13.226,5.833 -0.979,-0.243 -1.988,-0.41 -3.043,-0.41 -6.988,0 -12.654,5.665 -12.654,12.654 h 38 9 95 c 0,-22.09 -17.909,-39.999 -40,-39.999 z"
   id="path42"
   inkscape:connector-curvature="0" />
	</g><g
     style="opacity:0.3"
     id="g48">
		<path
   style="fill:#ffffff"
   d="m 272.25,150.192 c 0,-9.07 7.353,-16.423 16.423,-16.423 1.369,0 2.678,0.217 3.949,0.532 4.285,-4.628 10.362,-7.571 17.166,-7.571 12.957,0 23.462,10.504 23.462,23.462 z"
   id="path46"
   inkscape:connector-curvature="0" />
	</g><g
     id="g52">
		<path
   style="fill:#674447"
   d="m 256,512 c 64.907,0 124.039,-24.283 169.135,-64.107 C 366.188,446.731 324.094,400 301.088,400 c -37.738,0 -87.17,54.667 -108.211,56 -21.041,1.333 -51.851,-32.667 -72.14,-24 -16.792,7.172 -30.343,13.363 -34.569,15.308 C 131.35,487.491 190.766,512 256,512 Z"
   id="path50"
   inkscape:connector-curvature="0" />
	</g><g
     style="opacity:0.5"
     id="g56">
		<circle
   style="fill:#ffffff"
   cx="213.75"
   cy="57.333"
   r="6"
   id="circle54" />
	</g><g
     style="opacity:0.15"
     id="g60">
		<circle
   style="fill:#ffffff"
   cx="263.29901"
   cy="39.333"
   r="6"
   id="circle58" />
	</g><g
     style="opacity:0.15"
     id="g64">
		<circle
   style="fill:#ffffff"
   cx="314.53201"
   cy="72"
   r="6"
   id="circle62" />
	</g><g
     style="opacity:0.15"
     id="g68">
		<circle
   style="fill:#ffffff"
   cx="375.33301"
   cy="108"
   r="6"
   id="circle66" />
	</g><g
     style="opacity:0.5"
     id="g72">
		<circle
   style="fill:#ffffff"
   cx="262"
   cy="102"
   r="6"
   id="circle70" />
	</g><g
     style="opacity:0.5"
     id="g76">
		<circle
   style="fill:#ffffff"
   cx="369.33301"
   cy="66"
   r="6"
   id="circle74" />
	</g><g
     style="opacity:0.15"
     id="g80">
		<circle
   style="fill:#ffffff"
   cx="161.69"
   cy="51.333"
   r="6"
   id="circle78" />
	</g><g
     style="opacity:0.15"
     id="g84">
		<circle
   style="fill:#ffffff"
   cx="219.75"
   cy="114"
   r="6"
   id="circle82" />
	</g><g
     style="opacity:0.5"
     id="g88">
		<circle
   style="fill:#ffffff"
   cx="115.934"
   cy="96"
   r="6"
   id="circle86" />
	</g></g>
<g
   id="g92">
</g>
<g
   id="g94">
</g>
<g
   id="g96">
</g>
<g
   id="g98">
</g>
<g
   id="g100">
</g>
<g
   id="g102">
</g>
<g
   id="g104">
</g>
<g
   id="g106">
</g>
<g
   id="g108">
</g>
<g
   id="g110">
</g>
<g
   id="g112">
</g>
<g
   id="g114">
</g>
<g
   id="g116">
</g>
<g
   id="g118">
</g>
<g
   id="g120">
</g>
<path
   id="path978"
   d="m -0.430206,518.39501 v -16.7643 h 3.108353 v -6.1899 h 3.108362 v -4.47049 h 3.1083522 v -16.85024 h 7.2194108 v -9.71472 h 9.8264 v -30.17573 h 3.609706 v 7.9953 h 6.718057 v 3.5248 h 7.770886 v 7.04959 h 8.272239 v 5.33018 h 3.108353 v -31.89514 h 11.38059 v -39.03072 h 18.599992 v 8.855 h 7.770876 v 45.2206 h 6.216722 v 5.33019 h 4.662527 v 8.855 h 9.32507 v 44.36089 h 3.10836 v -7.99528 h 4.16117 v -67.40107 h 9.82642 v -4.47048 h 16.04312 v 4.47048 h 11.38058 v 23.04015 h 5.66524 v 6.18991 h 3.10836 v 32.84082 h 5.16388 V 466.1248 h 2.607 v -5.33021 h 13.93747 v 5.33021 h 2.05552 v 19.51536 h 2.60701 V 370.35337 h 16.0431 l 5.16391,2.66509 v 111.67601 h 3.6097 v -5.33018 h 4.66252 v -4.38451 h 7.2194 v -2.66508 h 4.16119 v 8.85498 h 3.10834 v -25.70525 h 7.77091 v -4.47049 h 4.66252 v 4.47049 h 1.55417 v -6.18989 h 5.01347 v -4.38453 h 3.10836 v -14.18516 h 14.99029 v -7.13557 h 7.21941 v 7.13557 h 4.66255 v -43.41524 h 3.60969 v -10.66037 h 24.31536 c 0,0 2.60701,3.00897 2.60701,14.01323 v 55.96696 h 1.05282 v 17.70997 h 19.15149 v 28.37036 h 1.55415 v -2.66509 h 2.60703 v -2.66511 h 3.6097 v 5.3302 h 4.16118 v -12.3798 h 3.10837 v -3.52478 h 5.16387 v 3.52478 h 2.60701 v 9.71471 h 4.66252 v -3.52482 h 0.50135 v -7.13556 h 4.66255 v -2.66509 h 8.27223 v 2.66509 h 3.60971 v 2.66511 h 3.60969 v 2.66507 h 4.11104 v 6.1899 h 7.77089 v 2.66509 h 3.6097 5.06362 v 5.3302 h 1.55418 v -3.52482 h 7.2194 v 3.52482 h 3.10836 v -3.52482 h 9.82642 v 3.52482 h 1.55415 v -2.66511 h 2.60703 v 2.66511 h 2.05551 v -11.5201 h 1.05283 v -7.99527 c 0,0 -1.40375,-7.04959 2.20595,-10.48844 l 1.10295,-7.6514 1.0027,7.6514 c 3.6097,3.43885 1.90511,10.48844 1.90511,10.48844 v 7.99527 h 1.05283 v 11.5201 h 2.05554 v -23.89988 h 34.6431 v 21.32074 h 1.55419 v -5.3302 h 9.8264 v -7.99526 l 1.80485,-7.22154 1.85498,6.53377 v 8.59708 h 2.05555 v -7.99528 l 1.80483,-7.22154 1.85499,6.53378 v 13.06756 h 2.05553 v 7.99527 h 1.55416 v 4.47047 h 2.60702 v -5.24423 h 7.7709 v 19.51538 H -0.430206 Z"
   stroke-miterlimit="10"
   stroke=""
   inkscape:connector-curvature="0"
   style="fill:#222b00;stroke-width:1.31303048;stroke-linecap:round;stroke-linejoin:round;stroke-miterlimit:10" /><g
   id="g1132"
   transform="matrix(0.49706696,0,0,0.49706696,-74.235576,172.65095)"
   style="opacity:0.85;fill:#446499;fill-opacity:1"><path
     id="path36"
     d="m 765.54087,165.02446 c -1.91569,3.85711 -5.89125,8.11075 -12.92057,13.0493 L 546.05094,326.43107 c -11.27781,8.19315 -27.46842,5.15484 -36.15594,-6.79244 -8.68752,-11.94727 -6.5916,-28.27177 4.68621,-36.47007 l 186.2796,-134.89088 v -2.77053 L 583.81874,20.998035 c -9.54752,-10.155182 -8.55363,-26.577531 2.21952,-36.686365 10.77314,-10.103686 27.24184,-10.062486 36.78935,0.0927 L 763.2647,133.80706 c 7.97172,8.48154 8.56393,21.32485 2.27617,31.2174 z"
     style="clip-rule:evenodd;fill:#446499;fill-opacity:1;fill-rule:evenodd;stroke:#2c5591;stroke-width:5.14968634;stroke-opacity:1"
     inkscape:connector-curvature="0" /><path
     id="path38-0"
     d="m 695.33004,275.97445 h 111.30017 c 12.94116,0 23.43107,10.37661 23.43107,23.17358 0,12.79697 -10.48991,23.17359 -23.43107,23.17359 H 695.33004 c -12.94116,0 -23.43107,-10.37662 -23.43107,-23.17359 0,-12.79697 10.48991,-23.17358 23.43107,-23.17358 z"
     style="clip-rule:evenodd;fill:#446499;fill-opacity:1;fill-rule:evenodd;stroke:#2c5591;stroke-width:5.14968634;stroke-opacity:1"
     inkscape:connector-curvature="0" /></g></svg>