<?xml version="1.0" encoding="UTF-8" standalone="no"?>
<!-- Generator: Adobe Illustrator 19.0.0, SVG Export Plug-In . SVG Version: 6.00 Build 0)  -->

<svg
   xmlns:dc="http://purl.org/dc/elements/1.1/"
   xmlns:cc="http://creativecommons.org/ns#"
   xmlns:rdf="http://www.w3.org/1999/02/22-rdf-syntax-ns#"
   xmlns:svg="http://www.w3.org/2000/svg"
   xmlns="http://www.w3.org/2000/svg"
   xmlns:sodipodi="http://sodipodi.sourceforge.net/DTD/sodipodi-0.dtd"
   xmlns:inkscape="http://www.inkscape.org/namespaces/inkscape"
   version="1.1"
   id="Capa_1"
   x="0px"
   y="0px"
   viewBox="0 0 728.94916 759.32202"
   xml:space="preserve"
   sodipodi:docname="denver-skyline-mountains-round1.svg"
   inkscape:export-filename="C:\src\ps-design\denver-psug\denver-skyline-mountains-round1.png"
   inkscape:export-xdpi="96"
   inkscape:export-ydpi="96"
   inkscape:version="0.92.4 (5da689c313, 2019-01-14)"
   width="728.94916"
   height="759.32202"><metadata
   id="metadata127"><rdf:RDF><cc:Work
       rdf:about=""><dc:format>image/svg+xml</dc:format><dc:type
         rdf:resource="http://purl.org/dc/dcmitype/StillImage" /><dc:title></dc:title></cc:Work></rdf:RDF></metadata><defs
   id="defs125">
	
	
	
	
	
	
	
	
	
	
	
	
	
	
	
	
	
	
	
	
	
	
<clipPath
   clipPathUnits="userSpaceOnUse"
   id="clipPath1022"><g
     id="g1112"
     transform="matrix(1.4237288,0,0,1.4830508,646.47239,-122.31532)"
     style="opacity:0.40700001"><g
       id="g1026"><circle
         style="fill:#9da6ed"
         cx="256"
         cy="256"
         r="256"
         id="circle1024" /></g><g
       style="opacity:0.3"
       id="g1030"><circle
         style="fill:#ffc8a9"
         cx="256"
         cy="250.19901"
         r="158.634"
         id="circle1028" /></g><g
       style="opacity:0.3"
       id="g1034"><circle
         style="fill:#ffd7a8"
         cx="256"
         cy="250.19901"
         r="84.309998"
         id="circle1032" /></g><g
       id="g1038"><path
         style="fill:#a17988"
         d="M 508.242,299.51 C 502.773,290.685 480.239,256 463.889,256 c -20.604,0 -48.39,56 -66.602,56 -14.569,0 -32.78,-32 -41.626,-32 -8.325,0 -44.228,48 -58.276,48 -24.976,0 -77.702,0 -116.552,0 -24.976,0 -58.993,-53.765 -66.602,-64 -6.938,-9.333 -24.976,-8 -24.976,-8 0,0 -47.175,72 -74.925,72 H 10.338 C 41.451,434.318 139.624,512 256,512 382.544,512 487.573,420.158 508.242,299.51 Z"
         id="path1036"
         inkscape:connector-curvature="0" /></g><g
       id="g1042"><path
         style="fill:#926e79"
         d="M 366.942,288.094 C 360,286.5 358.75,300.5 351,301.5 c -10.888,1.405 -14,24 -18,31.5 -4,7.5 -15,14.5 -25.5,14.5 -10.5,0 -22.198,16.573 -34.75,23.75 0,0 117.25,35.75 156.75,35.75 17.875,0 31.62,-5.651 42.231,-13.253 17.994,-28.141 30.651,-60.026 36.512,-94.237 -3.598,-5.805 -14.585,-22.76 -26.334,-33.711 C 474.993,264.795 468.64,264.18 467,265 c -4,2 -8.5,4 -11.5,12.865 -3,8.865 -18,15.135 -26,21.635 -8,6.5 -7.5,22 -14.866,23.5 -7.366,1.5 -8.634,-5 -17.346,-11 -9.79,0 -21.213,-14.426 -30.346,-23.906 z"
         id="path1040"
         inkscape:connector-curvature="0" /></g><g
       id="g1046"><path
         style="fill:#926e79"
         d="m 176.667,348 c -11.56,3.287 -17.417,-1.25 -21.333,-10 -7.239,-16.172 -44.592,-55.461 -52.667,-55 C 91,283.667 88.167,277.167 82,282.272 c -4.668,3.865 -42.134,31.254 -53.312,34.964 -5.313,1.764 -16.123,3.317 -20.32,3.826 6.828,26.055 17.695,50.457 31.831,72.574 7.367,1.321 16.408,2.047 27.802,1.696 C 111.333,394 211.5,373 211.5,373 201.559,362.445 194.25,343 176.667,348 Z"
         id="path1044"
         inkscape:connector-curvature="0" /></g><g
       id="g1050"><path
         style="fill:#86646a"
         d="m 97.852,336 c -10.601,0 -36.398,32 -59.367,32 -5.041,0 -9.167,0 -12.642,0 C 67.384,453.239 154.796,512 256,512 363.551,512 455.526,445.641 493.412,351.657 477.927,348.28 471.01,320 462.537,320 c -7.421,0 -49.826,32 -59.368,32 -14.842,0 -17.669,-24 -33.924,-24 -16.255,0 -15.902,40 -33.924,40 -13.782,0 -11.308,-8 -25.442,-8 -5.631,0 -8.482,8 -16.96,8 -21.831,0 -42.232,0 -50.89,0 -12.015,0 -25.796,-16 -33.924,-16 -8.746,0 -21.91,16 -42.405,16 -43.819,0 -50.886,-32 -67.848,-32 z"
         id="path1048"
         inkscape:connector-curvature="0" /></g><g
       id="g1054"><path
         style="fill:#745154"
         d="M 256,512 C 361.34,512 451.784,448.356 491.071,357.44 479.75,355 471.75,349.25 467.25,340 c -3.039,-6.246 -11.033,-3.865 -12.75,-2.14 -10.75,10.8 -29.365,46.106 -39.866,46.106 -5.384,0 -33.419,-37.485 -37.634,-37.967 -8.75,-1 -13.5,16.5 -33,23.5 -8.165,2.931 -11.5,13.434 -21,14.467 -9.5,1.034 -24.5,-3.466 -34,4.034 -9.5,7.5 -50.96,31.796 -61.329,29.152 -9.421,-2.402 -7.083,-16.198 -8.171,-21.731 -2,-10.171 -6.5,-23.671 -14,-18.921 -5.491,3.478 -20.667,0.219 -29.167,1.5 -8.5,1.281 -34,27.333 -48.333,22 -6.374,-2.372 -19,-37.5 -25,-38 -6,-0.5 -8.271,1.076 -12.5,3 -10.428,4.745 -37.857,14.635 -54.973,21.075 C 80.082,461.431 162.116,512 256,512 Z"
         id="path1052"
         inkscape:connector-curvature="0" /></g><g
       id="g1058"><circle
         style="fill:#ffffff"
         cx="256"
         cy="250.19901"
         r="37.532001"
         id="circle1056" /></g><g
       style="opacity:0.5"
       id="g1062"><path
         style="fill:#ffffff"
         d="m 152.764,166.731 h 63.119 c 0,-22.091 -17.909,-40 -40,-40 -11.602,0 -21.961,5.017 -29.267,12.907 -2.167,-0.538 -4.399,-0.907 -6.733,-0.907 -9.529,0 -17.92,4.782 -22.978,12.054 -5.259,-2.561 -11.132,-4.054 -17.378,-4.054 -13.611,0 -25.596,6.829 -32.821,17.215 -2.281,-0.719 -4.661,-1.215 -7.179,-1.215 -13.255,0 -24,10.745 -24,24 h 128 c 0,-8.359 -4.283,-15.702 -10.763,-20 z"
         id="path1060"
         inkscape:connector-curvature="0" /></g><g
       style="opacity:0.5"
       id="g1066"><path
         style="fill:#ffffff"
         d="m 445.634,160 c -11.602,0 -21.961,5.017 -29.267,12.907 -2.167,-0.538 -4.399,-0.907 -6.733,-0.907 -10.721,0 -19.923,6.093 -24.628,14.942 -3.244,-3.093 -7.613,-5.02 -12.449,-5.02 -5.243,0 -9.924,2.268 -13.226,5.833 -0.979,-0.243 -1.988,-0.41 -3.043,-0.41 -6.988,0 -12.654,5.665 -12.654,12.654 h 38 9 95 c 0,-22.09 -17.909,-39.999 -40,-39.999 z"
         id="path1064"
         inkscape:connector-curvature="0" /></g><g
       style="opacity:0.3"
       id="g1070"><path
         style="fill:#ffffff"
         d="m 272.25,150.192 c 0,-9.07 7.353,-16.423 16.423,-16.423 1.369,0 2.678,0.217 3.949,0.532 4.285,-4.628 10.362,-7.571 17.166,-7.571 12.957,0 23.462,10.504 23.462,23.462 z"
         id="path1068"
         inkscape:connector-curvature="0" /></g><g
       id="g1074"><path
         style="fill:#674447"
         d="m 256,512 c 64.907,0 124.039,-24.283 169.135,-64.107 C 366.188,446.731 324.094,400 301.088,400 c -37.738,0 -87.17,54.667 -108.211,56 -21.041,1.333 -51.851,-32.667 -72.14,-24 -16.792,7.172 -30.343,13.363 -34.569,15.308 C 131.35,487.491 190.766,512 256,512 Z"
         id="path1072"
         inkscape:connector-curvature="0" /></g><g
       style="opacity:0.5"
       id="g1078"><circle
         style="fill:#ffffff"
         cx="213.75"
         cy="57.333"
         r="6"
         id="circle1076" /></g><g
       style="opacity:0.15"
       id="g1082"><circle
         style="fill:#ffffff"
         cx="263.29901"
         cy="39.333"
         r="6"
         id="circle1080" /></g><g
       style="opacity:0.15"
       id="g1086"><circle
         style="fill:#ffffff"
         cx="314.53201"
         cy="72"
         r="6"
         id="circle1084" /></g><g
       style="opacity:0.15"
       id="g1090"><circle
         style="fill:#ffffff"
         cx="375.33301"
         cy="108"
         r="6"
         id="circle1088" /></g><g
       style="opacity:0.5"
       id="g1094"><circle
         style="fill:#ffffff"
         cx="262"
         cy="102"
         r="6"
         id="circle1092" /></g><g
       style="opacity:0.5"
       id="g1098"><circle
         style="fill:#ffffff"
         cx="369.33301"
         cy="66"
         r="6"
         id="circle1096" /></g><g
       style="opacity:0.15"
       id="g1102"><circle
         style="fill:#ffffff"
         cx="161.69"
         cy="51.333"
         r="6"
         id="circle1100" /></g><g
       style="opacity:0.15"
       id="g1106"><circle
         style="fill:#ffffff"
         cx="219.75"
         cy="114"
         r="6"
         id="circle1104" /></g><g
       style="opacity:0.5"
       id="g1110"><circle
         style="fill:#ffffff"
         cx="115.934"
         cy="96"
         r="6"
         id="circle1108" /></g></g></clipPath></defs><sodipodi:namedview
   pagecolor="#ffffff"
   bordercolor="#666666"
   borderopacity="1"
   objecttolerance="10"
   gridtolerance="10"
   guidetolerance="10"
   inkscape:pageopacity="0"
   inkscape:pageshadow="2"
   inkscape:window-width="1640"
   inkscape:window-height="857"
   id="namedview123"
   showgrid="false"
   inkscape:zoom="0.65186406"
   inkscape:cx="819.76407"
   inkscape:cy="311.03008"
   inkscape:window-x="813"
   inkscape:window-y="147"
   inkscape:window-maximized="0"
   inkscape:current-layer="Capa_1"
   fit-margin-top="0"
   fit-margin-left="0"
   fit-margin-right="0"
   fit-margin-bottom="0" />
<g
   id="g1032"
   transform="scale(1.4237288,1.4830508)"><g
     id="g4">
		<circle
   style="fill:#9da6ed"
   cx="256"
   cy="256"
   r="256"
   id="circle2" />
	</g><g
     style="opacity:0.3"
     id="g8">
		<circle
   style="fill:#ffc8a9"
   cx="256"
   cy="250.19901"
   r="158.634"
   id="circle6" />
	</g><g
     style="opacity:0.3"
     id="g12">
		<circle
   style="fill:#ffd7a8"
   cx="256"
   cy="250.19901"
   r="84.309998"
   id="circle10" />
	</g><g
     id="g16">
		<path
   style="fill:#a17988"
   d="M 508.242,299.51 C 502.773,290.685 480.239,256 463.889,256 c -20.604,0 -48.39,56 -66.602,56 -14.569,0 -32.78,-32 -41.626,-32 -8.325,0 -44.228,48 -58.276,48 -24.976,0 -77.702,0 -116.552,0 -24.976,0 -58.993,-53.765 -66.602,-64 -6.938,-9.333 -24.976,-8 -24.976,-8 0,0 -47.175,72 -74.925,72 H 10.338 C 41.451,434.318 139.624,512 256,512 382.544,512 487.573,420.158 508.242,299.51 Z"
   id="path14"
   inkscape:connector-curvature="0" />
	</g><g
     id="g20">
		<path
   style="fill:#926e79"
   d="M 366.942,288.094 C 360,286.5 358.75,300.5 351,301.5 c -10.888,1.405 -14,24 -18,31.5 -4,7.5 -15,14.5 -25.5,14.5 -10.5,0 -22.198,16.573 -34.75,23.75 0,0 117.25,35.75 156.75,35.75 17.875,0 31.62,-5.651 42.231,-13.253 17.994,-28.141 30.651,-60.026 36.512,-94.237 -3.598,-5.805 -14.585,-22.76 -26.334,-33.711 C 474.993,264.795 468.64,264.18 467,265 c -4,2 -8.5,4 -11.5,12.865 -3,8.865 -18,15.135 -26,21.635 -8,6.5 -7.5,22 -14.866,23.5 -7.366,1.5 -8.634,-5 -17.346,-11 -9.79,0 -21.213,-14.426 -30.346,-23.906 z"
   id="path18"
   inkscape:connector-curvature="0" />
	</g><g
     id="g24">
		<path
   style="fill:#926e79"
   d="m 176.667,348 c -11.56,3.287 -17.417,-1.25 -21.333,-10 -7.239,-16.172 -44.592,-55.461 -52.667,-55 C 91,283.667 88.167,277.167 82,282.272 c -4.668,3.865 -42.134,31.254 -53.312,34.964 -5.313,1.764 -16.123,3.317 -20.32,3.826 6.828,26.055 17.695,50.457 31.831,72.574 7.367,1.321 16.408,2.047 27.802,1.696 C 111.333,394 211.5,373 211.5,373 201.559,362.445 194.25,343 176.667,348 Z"
   id="path22"
   inkscape:connector-curvature="0" />
	</g><g
     id="g28">
		<path
   style="fill:#86646a"
   d="m 97.852,336 c -10.601,0 -36.398,32 -59.367,32 -5.041,0 -9.167,0 -12.642,0 C 67.384,453.239 154.796,512 256,512 363.551,512 455.526,445.641 493.412,351.657 477.927,348.28 471.01,320 462.537,320 c -7.421,0 -49.826,32 -59.368,32 -14.842,0 -17.669,-24 -33.924,-24 -16.255,0 -15.902,40 -33.924,40 -13.782,0 -11.308,-8 -25.442,-8 -5.631,0 -8.482,8 -16.96,8 -21.831,0 -42.232,0 -50.89,0 -12.015,0 -25.796,-16 -33.924,-16 -8.746,0 -21.91,16 -42.405,16 -43.819,0 -50.886,-32 -67.848,-32 z"
   id="path26"
   inkscape:connector-curvature="0" />
	</g><g
     id="g32">
		<path
   style="fill:#745154"
   d="M 256,512 C 361.34,512 451.784,448.356 491.071,357.44 479.75,355 471.75,349.25 467.25,340 c -3.039,-6.246 -11.033,-3.865 -12.75,-2.14 -10.75,10.8 -29.365,46.106 -39.866,46.106 -5.384,0 -33.419,-37.485 -37.634,-37.967 -8.75,-1 -13.5,16.5 -33,23.5 -8.165,2.931 -11.5,13.434 -21,14.467 -9.5,1.034 -24.5,-3.466 -34,4.034 -9.5,7.5 -50.96,31.796 -61.329,29.152 -9.421,-2.402 -7.083,-16.198 -8.171,-21.731 -2,-10.171 -6.5,-23.671 -14,-18.921 -5.491,3.478 -20.667,0.219 -29.167,1.5 -8.5,1.281 -34,27.333 -48.333,22 -6.374,-2.372 -19,-37.5 -25,-38 -6,-0.5 -8.271,1.076 -12.5,3 -10.428,4.745 -37.857,14.635 -54.973,21.075 C 80.082,461.431 162.116,512 256,512 Z"
   id="path30"
   inkscape:connector-curvature="0" />
	</g><g
     id="g36">
		<circle
   style="fill:#ffffff"
   cx="256"
   cy="250.19901"
   r="37.532001"
   id="circle34" />
	</g><g
     style="opacity:0.5"
     id="g40">
		<path
   style="fill:#ffffff"
   d="m 152.764,166.731 h 63.119 c 0,-22.091 -17.909,-40 -40,-40 -11.602,0 -21.961,5.017 -29.267,12.907 -2.167,-0.538 -4.399,-0.907 -6.733,-0.907 -9.529,0 -17.92,4.782 -22.978,12.054 -5.259,-2.561 -11.132,-4.054 -17.378,-4.054 -13.611,0 -25.596,6.829 -32.821,17.215 -2.281,-0.719 -4.661,-1.215 -7.179,-1.215 -13.255,0 -24,10.745 -24,24 h 128 c 0,-8.359 -4.283,-15.702 -10.763,-20 z"
   id="path38"
   inkscape:connector-curvature="0" />
	</g><g
     style="opacity:0.5"
     id="g44">
		<path
   style="fill:#ffffff"
   d="m 445.634,160 c -11.602,0 -21.961,5.017 -29.267,12.907 -2.167,-0.538 -4.399,-0.907 -6.733,-0.907 -10.721,0 -19.923,6.093 -24.628,14.942 -3.244,-3.093 -7.613,-5.02 -12.449,-5.02 -5.243,0 -9.924,2.268 -13.226,5.833 -0.979,-0.243 -1.988,-0.41 -3.043,-0.41 -6.988,0 -12.654,5.665 -12.654,12.654 h 38 9 95 c 0,-22.09 -17.909,-39.999 -40,-39.999 z"
   id="path42"
   inkscape:connector-curvature="0" />
	</g><g
     style="opacity:0.3"
     id="g48">
		<path
   style="fill:#ffffff"
   d="m 272.25,150.192 c 0,-9.07 7.353,-16.423 16.423,-16.423 1.369,0 2.678,0.217 3.949,0.532 4.285,-4.628 10.362,-7.571 17.166,-7.571 12.957,0 23.462,10.504 23.462,23.462 z"
   id="path46"
   inkscape:connector-curvature="0" />
	</g><g
     id="g52">
		<path
   style="fill:#674447"
   d="m 256,512 c 64.907,0 124.039,-24.283 169.135,-64.107 C 366.188,446.731 324.094,400 301.088,400 c -37.738,0 -87.17,54.667 -108.211,56 -21.041,1.333 -51.851,-32.667 -72.14,-24 -16.792,7.172 -30.343,13.363 -34.569,15.308 C 131.35,487.491 190.766,512 256,512 Z"
   id="path50"
   inkscape:connector-curvature="0" />
	</g><g
     style="opacity:0.5"
     id="g56">
		<circle
   style="fill:#ffffff"
   cx="213.75"
   cy="57.333"
   r="6"
   id="circle54" />
	</g><g
     style="opacity:0.15"
     id="g60">
		<circle
   style="fill:#ffffff"
   cx="263.29901"
   cy="39.333"
   r="6"
   id="circle58" />
	</g><g
     style="opacity:0.15"
     id="g64">
		<circle
   style="fill:#ffffff"
   cx="314.53201"
   cy="72"
   r="6"
   id="circle62" />
	</g><g
     style="opacity:0.15"
     id="g68">
		<circle
   style="fill:#ffffff"
   cx="375.33301"
   cy="108"
   r="6"
   id="circle66" />
	</g><g
     style="opacity:0.5"
     id="g72">
		<circle
   style="fill:#ffffff"
   cx="262"
   cy="102"
   r="6"
   id="circle70" />
	</g><g
     style="opacity:0.5"
     id="g76">
		<circle
   style="fill:#ffffff"
   cx="369.33301"
   cy="66"
   r="6"
   id="circle74" />
	</g><g
     style="opacity:0.15"
     id="g80">
		<circle
   style="fill:#ffffff"
   cx="161.69"
   cy="51.333"
   r="6"
   id="circle78" />
	</g><g
     style="opacity:0.15"
     id="g84">
		<circle
   style="fill:#ffffff"
   cx="219.75"
   cy="114"
   r="6"
   id="circle82" />
	</g><g
     style="opacity:0.5"
     id="g88">
		<circle
   style="fill:#ffffff"
   cx="115.934"
   cy="96"
   r="6"
   id="circle86" />
	</g></g>
<g
   id="g92"
   transform="translate(108.47458,123.66102)">
</g>
<g
   id="g94"
   transform="translate(108.47458,123.66102)">
</g>
<g
   id="g96"
   transform="translate(108.47458,123.66102)">
</g>
<g
   id="g98"
   transform="translate(108.47458,123.66102)">
</g>
<g
   id="g100"
   transform="translate(108.47458,123.66102)">
</g>
<g
   id="g102"
   transform="translate(108.47458,123.66102)">
</g>
<g
   id="g104"
   transform="translate(108.47458,123.66102)">
</g>
<g
   id="g106"
   transform="translate(108.47458,123.66102)">
</g>
<g
   id="g108"
   transform="translate(108.47458,123.66102)">
</g>
<g
   id="g110"
   transform="translate(108.47458,123.66102)">
</g>
<g
   id="g112"
   transform="translate(108.47458,123.66102)">
</g>
<g
   id="g114"
   transform="translate(108.47458,123.66102)">
</g>
<g
   id="g116"
   transform="translate(108.47458,123.66102)">
</g>
<g
   id="g118"
   transform="translate(108.47458,123.66102)">
</g>
<g
   id="g120"
   transform="translate(108.47458,123.66102)">
</g>
<path
   id="path978"
   d="m 734.94302,636.49796 v -29.63279 h 4.03227 v -10.94134 h 4.03227 v -7.9021 h 4.03227 v -29.78469 h 9.36527 v -17.17187 h 12.74715 v -53.33899 h 4.68264 v 14.13259 h 8.7149 v 6.23049 h 10.08066 v 12.46093 h 10.73104 v 9.4217 h 4.03226 v -56.37825 h 14.7633 v -68.99119 h 24.12856 v 15.65221 h 10.08066 v 79.9325 h 8.06455 v 9.42171 h 6.04839 v 15.65221 h 12.09681 v 78.41287 h 4.03227 v -14.13256 h 5.39802 V 470.40241 h 12.74717 v -7.90208 h 20.81169 v 7.90208 h 14.76329 v 40.72606 h 7.34914 v 10.94136 h 4.03228 v 58.04985 h 6.69876 v -36.0152 h 3.38189 v -9.42174 h 18.08018 v 9.42174 h 2.66649 v 34.4956 h 3.38191 V 374.8177 h 20.81169 l 6.6988,4.71085 v 197.39992 h 4.6826 v -9.4217 h 6.0484 v -7.75012 h 9.3653 v -4.71082 h 5.398 V 570.698 h 4.0322 v -45.43692 h 10.0808 v -7.9021 h 6.0483 v 7.9021 h 2.0162 v -10.94134 h 6.5036 v -7.75014 h 4.0323 v -25.07387 h 19.4459 v -12.61292 h 9.3653 v 12.61292 h 6.0484 V 404.7544 h 4.6826 v -18.84339 h 31.5428 c 0,0 3.3819,5.31869 3.3819,24.76996 v 98.9279 h 1.3657 v 31.30436 h 24.844 v 50.14781 h 2.0161 v -4.71085 h 3.3819 v -4.71087 h 4.6827 v 9.42172 h 5.398 v -21.88269 h 4.0323 v -6.23045 h 6.6987 v 6.23045 h 3.3819 v 17.17184 h 6.0484 v -6.23051 h 0.6504 v -12.61291 h 6.0484 v -4.71085 h 10.731 v 4.71085 h 4.6827 v 4.71089 h 4.6826 v 4.71081 h 5.333 v 10.94133 h 10.0806 v 4.71085 h 4.6827 6.5687 v 9.42173 h 2.0161 v -6.23052 h 9.3653 v 6.23052 h 4.0323 v -6.23052 h 12.7471 v 6.23052 h 2.0161 v -4.71088 h 3.382 v 4.71088 h 2.6664 v -20.36306 h 1.3658 v -14.13255 c 0,0 -1.821,-12.46094 2.8616,-18.5395 l 1.4308,-13.5247 1.3008,13.5247 c 4.6826,6.07856 2.4713,18.5395 2.4713,18.5395 v 14.13255 h 1.3658 v 20.36306 h 2.6665 v -42.24573 h 44.9403 v 37.68681 h 2.0161 v -9.42173 h 12.7472 v -14.13252 l 2.3413,-12.76489 2.4063,11.54918 v 15.1963 h 2.6666 v -14.13254 l 2.3412,-12.7649 2.4064,11.5492 v 23.09839 h 2.6665 v 14.13253 h 2.0161 v 7.90206 h 3.3819 v -9.26977 h 10.0807 v 34.49564 H 734.94302 Z"
   stroke-miterlimit="10"
   stroke=""
   inkscape:connector-curvature="0"
   style="fill:#222b00;stroke-width:1.98828053;stroke-linecap:round;stroke-linejoin:round;stroke-miterlimit:10"
   clip-path="url(#clipPath1022)"
   transform="translate(-646.47239,122.31532)" /><g
   id="g1132"
   transform="matrix(0.53603266,0,0,0.53603266,4.7765135,282.38856)"
   style="opacity:0.85;fill:#446499;fill-opacity:1"><path
     id="path36"
     d="m 765.54087,165.02446 c -1.91569,3.85711 -5.89125,8.11075 -12.92057,13.0493 L 546.05094,326.43107 c -11.27781,8.19315 -27.46842,5.15484 -36.15594,-6.79244 -8.68752,-11.94727 -6.5916,-28.27177 4.68621,-36.47007 l 186.2796,-134.89088 v -2.77053 L 583.81874,20.998035 c -9.54752,-10.155182 -8.55363,-26.577531 2.21952,-36.686365 10.77314,-10.103686 27.24184,-10.062486 36.78935,0.0927 L 763.2647,133.80706 c 7.97172,8.48154 8.56393,21.32485 2.27617,31.2174 z"
     style="clip-rule:evenodd;fill:#446499;fill-opacity:1;fill-rule:evenodd;stroke:#2c5591;stroke-width:5.14968634;stroke-opacity:1"
     inkscape:connector-curvature="0" /><path
     id="path38-0"
     d="m 695.33004,275.97445 h 111.30017 c 12.94116,0 23.43107,10.37661 23.43107,23.17358 0,12.79697 -10.48991,23.17359 -23.43107,23.17359 H 695.33004 c -12.94116,0 -23.43107,-10.37662 -23.43107,-23.17359 0,-12.79697 10.48991,-23.17358 23.43107,-23.17358 z"
     style="clip-rule:evenodd;fill:#446499;fill-opacity:1;fill-rule:evenodd;stroke:#2c5591;stroke-width:5.14968634;stroke-opacity:1"
     inkscape:connector-curvature="0" /></g></svg>