<?xml version="1.0" encoding="UTF-8" standalone="no"?>
<!-- Generator: Adobe Illustrator 21.0.0, SVG Export Plug-In . SVG Version: 6.00 Build 0)  -->

<svg
   xmlns:dc="http://purl.org/dc/elements/1.1/"
   xmlns:cc="http://creativecommons.org/ns#"
   xmlns:rdf="http://www.w3.org/1999/02/22-rdf-syntax-ns#"
   xmlns:svg="http://www.w3.org/2000/svg"
   xmlns="http://www.w3.org/2000/svg"
   xmlns:sodipodi="http://sodipodi.sourceforge.net/DTD/sodipodi-0.dtd"
   xmlns:inkscape="http://www.inkscape.org/namespaces/inkscape"
   version="1.1"
   id="Layer_1"
   x="0px"
   y="0px"
   width="669.88055"
   height="640"
   viewBox="0 0 133.9761 128.00001"
   enable-background="new 0 0 128 128"
   xml:space="preserve"
   sodipodi:docname="ps-live-logo.svg"
   inkscape:version="0.92.4 (5da689c313, 2019-01-14)"
   inkscape:export-filename="C:\Users\Adilio\Desktop\ps-live-logo.png"
   inkscape:export-xdpi="96"
   inkscape:export-ydpi="96"><metadata
   id="metadata46"><rdf:RDF><cc:Work
       rdf:about=""><dc:format>image/svg+xml</dc:format><dc:type
         rdf:resource="http://purl.org/dc/dcmitype/StillImage" /><dc:title></dc:title></cc:Work></rdf:RDF></metadata><defs
   id="defs44"><clipPath
     clipPathUnits="userSpaceOnUse"
     id="clipPath1106"><rect
       style="opacity:0.95999995;fill:#52205f;fill-opacity:1;stroke:#52205f;stroke-width:1.64916396;stroke-miterlimit:4;stroke-dasharray:none;stroke-opacity:1"
       id="rect1108"
       width="269.34995"
       height="434.27029"
       x="172.20308"
       y="-23.963076" /></clipPath><clipPath
     clipPathUnits="userSpaceOnUse"
     id="clipPath1126"><rect
       style="opacity:0.95999995;fill:#52205f;fill-opacity:1;stroke:#52205f;stroke-width:3.56110287;stroke-miterlimit:4;stroke-dasharray:none;stroke-opacity:1"
       id="rect1128"
       width="238.54573"
       height="495.67804"
       x="236.03659"
       y="-186.91261"
       transform="matrix(0.8381203,0.54548544,-0.50499465,0.86312247,0,0)" /></clipPath><clipPath
     clipPathUnits="userSpaceOnUse"
     id="clipPath1214"><rect
       style="opacity:0.95999995;fill:#52205f;fill-opacity:1;stroke:#52205f;stroke-width:1.42098856;stroke-miterlimit:4;stroke-dasharray:none;stroke-opacity:1"
       id="rect1216"
       width="227.94"
       height="484.97003"
       x="174.01735"
       y="-55.532177" /></clipPath><clipPath
     clipPathUnits="userSpaceOnUse"
     id="clipPath1286"><rect
       style="opacity:0.95999995;fill:#52205f;fill-opacity:1;stroke:#52205f;stroke-width:3.0444119;stroke-miterlimit:4;stroke-dasharray:none;stroke-opacity:1"
       id="rect1288"
       width="243.12148"
       height="264.82156"
       x="170.53023"
       y="158.54204" /></clipPath><clipPath
     clipPathUnits="userSpaceOnUse"
     id="clipPath1296"><rect
       style="opacity:0.95999995;fill:#52205f;fill-opacity:1;stroke:#52205f;stroke-width:1.4989506;stroke-miterlimit:4;stroke-dasharray:none;stroke-opacity:1"
       id="rect1298"
       width="172.20682"
       height="170.33029"
       x="203.164"
       y="-20.042643" /></clipPath><clipPath
     clipPathUnits="userSpaceOnUse"
     id="clipPath1286-5"><rect
       style="opacity:0.95999995;fill:#52205f;fill-opacity:1;stroke:#52205f;stroke-width:3.0444119;stroke-miterlimit:4;stroke-dasharray:none;stroke-opacity:1"
       id="rect1288-3"
       width="243.12148"
       height="264.82156"
       x="170.53023"
       y="158.54204" /></clipPath><clipPath
     clipPathUnits="userSpaceOnUse"
     id="clipPath1387"><rect
       style="opacity:0.95999995;fill:#52205f;fill-opacity:1;stroke:#52205f;stroke-width:1.37065554;stroke-miterlimit:4;stroke-dasharray:none;stroke-opacity:1"
       id="rect1389"
       width="228.03845"
       height="368.78198"
       x="-31.501684"
       y="-23.443811" /></clipPath><clipPath
     clipPathUnits="userSpaceOnUse"
     id="clipPath1286-8"><rect
       style="opacity:0.95999995;fill:#52205f;fill-opacity:1;stroke:#52205f;stroke-width:3.0444119;stroke-miterlimit:4;stroke-dasharray:none;stroke-opacity:1"
       id="rect1288-5"
       width="243.12148"
       height="264.82156"
       x="170.53023"
       y="158.54204" /></clipPath></defs><sodipodi:namedview
   pagecolor="#ffffff"
   bordercolor="#666666"
   borderopacity="1"
   objecttolerance="10"
   gridtolerance="10"
   guidetolerance="10"
   inkscape:pageopacity="0"
   inkscape:pageshadow="2"
   inkscape:window-width="1649"
   inkscape:window-height="952"
   id="namedview42"
   showgrid="false"
   fit-margin-top="0"
   fit-margin-left="0"
   fit-margin-right="0"
   fit-margin-bottom="0"
   inkscape:zoom="0.70710678"
   inkscape:cx="247.75307"
   inkscape:cy="256.8861"
   inkscape:window-x="182"
   inkscape:window-y="182"
   inkscape:window-maximized="0"
   inkscape:current-layer="Layer_1"
   units="px"
   scale-x="0.2" />




















<g
   id="g920-0-9"
   transform="matrix(0.22671601,0,0,0.28668045,44.934405,10.869287)"
   style="stroke:#000000;stroke-width:2.80003977;stroke-miterlimit:4;stroke-dasharray:none;stroke-opacity:1"
   clip-path="url(#clipPath1296)"><path
     id="path853-4-2"
     d="m 60.832,204.541 v 66.133 c 0,6.788 5.495,12.283 12.283,12.283 H 84.88 V 192.258 H 73.115 c -6.788,10e-4 -12.283,5.496 -12.283,12.283 z"
     style="fill:#ffc10d;stroke:#000000;stroke-width:2.80003977;stroke-miterlimit:4;stroke-dasharray:none;stroke-opacity:1"
     inkscape:connector-curvature="0" /><path
     id="path855-3-1"
     d="m 21.915,237.576 c 0,9.826 7.499,19.071 17.131,19.911 V 217.6 c -9.568,0.905 -17.131,10.214 -17.131,19.976 z"
     style="fill:#56ace0;stroke:#000000;stroke-width:2.80003977;stroke-miterlimit:4;stroke-dasharray:none;stroke-opacity:1"
     inkscape:connector-curvature="0" /><path
     id="path857-7-5"
     d="M 319.676,192.259 H 307.91 v 90.634 h 11.766 c 6.788,0 12.283,-5.495 12.283,-12.283 v -66.133 c 0,-6.723 -5.495,-12.218 -12.283,-12.218 z"
     style="fill:#ffc10d;stroke:#000000;stroke-width:2.80003977;stroke-miterlimit:4;stroke-dasharray:none;stroke-opacity:1"
     inkscape:connector-curvature="0" /><path
     id="path859-8-7"
     d="m 353.745,217.6 v 39.952 c 9.568,-0.84 17.131,-10.15 17.131,-19.911 0,-9.827 -7.563,-19.136 -17.131,-20.041 z"
     style="fill:#56ace0;stroke:#000000;stroke-width:2.80003977;stroke-miterlimit:4;stroke-dasharray:none;stroke-opacity:1"
     inkscape:connector-curvature="0" /><path
     id="path861-8-1"
     d="m 352.581,195.814 c -2.521,-9.568 -9.115,-17.519 -17.842,-21.786 V 146.812 C 334.739,65.81 271.192,0 193.163,0 115.134,0 51.588,65.81 51.588,146.812 v 31.289 c -5.495,4.461 -9.503,10.667 -11.378,17.713 -22.303,0.905 -40.081,19.265 -40.081,41.826 0,22.497 17.778,40.792 40.081,41.826 3.879,14.61 17.131,25.341 32.905,25.341 h 22.626 c 6.012,0 10.925,-4.848 10.925,-10.925 V 181.398 c 0,-6.012 -4.848,-10.925 -10.925,-10.925 H 73.309 v -23.661 c 0,-68.913 53.721,-125.026 119.79,-125.026 66.069,0 119.79,56.113 119.79,125.026 v 23.661 h -15.903 c -6.012,0 -10.925,4.848 -10.925,10.925 v 112.485 c 0,6.012 4.848,10.925 10.925,10.925 h 12.671 v 4.59 c 0,33.939 -26.376,61.414 -58.634,61.414 h -47.709 v -1.681 c 0,-6.012 -4.848,-10.925 -10.925,-10.925 -6.077,0 -10.925,4.848 -10.925,10.925 v 12.606 c 0,6.012 4.848,10.925 10.925,10.925 h 58.57 c 44.347,0 80.42,-37.301 80.42,-83.329 v -6.723 c 10.279,-3.879 18.23,-12.541 21.075,-23.208 22.303,-0.905 40.081,-19.265 40.081,-41.826 0.127,-22.562 -17.651,-40.857 -39.954,-41.762 z M 84.88,282.893 H 73.115 c -6.788,0 -12.283,-5.495 -12.283,-12.283 v -66.133 c 0,-6.788 5.495,-12.283 12.283,-12.283 H 84.88 Z M 39.046,257.552 c -9.568,-0.84 -17.131,-10.15 -17.131,-19.911 0,-9.826 7.499,-19.071 17.131,-19.911 z m 314.699,0 V 217.6 c 9.568,0.84 17.131,10.15 17.131,19.911 0,9.891 -7.563,19.2 -17.131,20.041 z m -21.786,13.123 c 0,6.788 -5.495,12.283 -12.283,12.283 H 307.91 v -90.699 h 11.766 c 6.788,0 12.283,5.495 12.283,12.283 z"
     style="fill:#194f82;stroke:#000000;stroke-width:2.80003977;stroke-miterlimit:4;stroke-dasharray:none;stroke-opacity:1"
     inkscape:connector-curvature="0" /><g
     id="g863-3-8"
     style="stroke:#000000;stroke-width:2.80003977;stroke-miterlimit:4;stroke-dasharray:none;stroke-opacity:1" /><g
     id="g865-0-6"
     style="stroke:#000000;stroke-width:2.80003977;stroke-miterlimit:4;stroke-dasharray:none;stroke-opacity:1" /><g
     id="g867-5-2"
     style="stroke:#000000;stroke-width:2.80003977;stroke-miterlimit:4;stroke-dasharray:none;stroke-opacity:1" /><g
     id="g869-3-8"
     style="stroke:#000000;stroke-width:2.80003977;stroke-miterlimit:4;stroke-dasharray:none;stroke-opacity:1" /><g
     id="g871-4-0"
     style="stroke:#000000;stroke-width:2.80003977;stroke-miterlimit:4;stroke-dasharray:none;stroke-opacity:1" /><g
     id="g873-5-3"
     style="stroke:#000000;stroke-width:2.80003977;stroke-miterlimit:4;stroke-dasharray:none;stroke-opacity:1" /><g
     id="g875-5-2"
     style="stroke:#000000;stroke-width:2.80003977;stroke-miterlimit:4;stroke-dasharray:none;stroke-opacity:1" /><g
     id="g877-4-0"
     style="stroke:#000000;stroke-width:2.80003977;stroke-miterlimit:4;stroke-dasharray:none;stroke-opacity:1" /><g
     id="g879-4-4"
     style="stroke:#000000;stroke-width:2.80003977;stroke-miterlimit:4;stroke-dasharray:none;stroke-opacity:1" /><g
     id="g881-6-5"
     style="stroke:#000000;stroke-width:2.80003977;stroke-miterlimit:4;stroke-dasharray:none;stroke-opacity:1" /><g
     id="g883-0-5"
     style="stroke:#000000;stroke-width:2.80003977;stroke-miterlimit:4;stroke-dasharray:none;stroke-opacity:1" /><g
     id="g885-1-6"
     style="stroke:#000000;stroke-width:2.80003977;stroke-miterlimit:4;stroke-dasharray:none;stroke-opacity:1" /><g
     id="g887-9-7"
     style="stroke:#000000;stroke-width:2.80003977;stroke-miterlimit:4;stroke-dasharray:none;stroke-opacity:1" /><g
     id="g889-5-7"
     style="stroke:#000000;stroke-width:2.80003977;stroke-miterlimit:4;stroke-dasharray:none;stroke-opacity:1" /><g
     id="g891-1-4"
     style="stroke:#000000;stroke-width:2.80003977;stroke-miterlimit:4;stroke-dasharray:none;stroke-opacity:1" /></g><g
   id="g920-0-4"
   transform="matrix(0.34166042,0,0,0.33832883,13.739862,5.3715758)"
   style="opacity:0.98999999;stroke:#000000;stroke-width:2.80003977;stroke-miterlimit:4;stroke-dasharray:none;stroke-opacity:1"
   clip-path="url(#clipPath1387)"><path
     id="path853-4-7"
     d="m 60.832,204.541 v 66.133 c 0,6.788 5.495,12.283 12.283,12.283 H 84.88 V 192.258 H 73.115 c -6.788,10e-4 -12.283,5.496 -12.283,12.283 z"
     style="fill:#ffc10d;stroke:#000000;stroke-width:2.80003977;stroke-miterlimit:4;stroke-dasharray:none;stroke-opacity:1"
     inkscape:connector-curvature="0" /><path
     id="path855-3-14"
     d="m 21.915,237.576 c 0,9.826 7.499,19.071 17.131,19.911 V 217.6 c -9.568,0.905 -17.131,10.214 -17.131,19.976 z"
     style="fill:#56ace0;stroke:#000000;stroke-width:2.80003977;stroke-miterlimit:4;stroke-dasharray:none;stroke-opacity:1"
     inkscape:connector-curvature="0" /><path
     id="path857-7-2"
     d="M 319.676,192.259 H 307.91 v 90.634 h 11.766 c 6.788,0 12.283,-5.495 12.283,-12.283 v -66.133 c 0,-6.723 -5.495,-12.218 -12.283,-12.218 z"
     style="fill:#ffc10d;stroke:#000000;stroke-width:2.80003977;stroke-miterlimit:4;stroke-dasharray:none;stroke-opacity:1"
     inkscape:connector-curvature="0" /><path
     id="path859-8-2"
     d="m 353.745,217.6 v 39.952 c 9.568,-0.84 17.131,-10.15 17.131,-19.911 0,-9.827 -7.563,-19.136 -17.131,-20.041 z"
     style="fill:#56ace0;stroke:#000000;stroke-width:2.80003977;stroke-miterlimit:4;stroke-dasharray:none;stroke-opacity:1"
     inkscape:connector-curvature="0" /><path
     id="path861-8-2"
     d="m 352.581,195.814 c -2.521,-9.568 -9.115,-17.519 -17.842,-21.786 V 146.812 C 334.739,65.81 271.192,0 193.163,0 115.134,0 51.588,65.81 51.588,146.812 v 31.289 c -5.495,4.461 -9.503,10.667 -11.378,17.713 -22.303,0.905 -40.081,19.265 -40.081,41.826 0,22.497 17.778,40.792 40.081,41.826 3.879,14.61 17.131,25.341 32.905,25.341 h 22.626 c 6.012,0 10.925,-4.848 10.925,-10.925 V 181.398 c 0,-6.012 -4.848,-10.925 -10.925,-10.925 H 73.309 v -23.661 c 0,-68.913 53.721,-125.026 119.79,-125.026 66.069,0 119.79,56.113 119.79,125.026 v 23.661 h -15.903 c -6.012,0 -10.925,4.848 -10.925,10.925 v 112.485 c 0,6.012 4.848,10.925 10.925,10.925 h 12.671 v 4.59 c 0,33.939 -26.376,61.414 -58.634,61.414 h -47.709 v -1.681 c 0,-6.012 -4.848,-10.925 -10.925,-10.925 -6.077,0 -10.925,4.848 -10.925,10.925 v 12.606 c 0,6.012 4.848,10.925 10.925,10.925 h 58.57 c 44.347,0 80.42,-37.301 80.42,-83.329 v -6.723 c 10.279,-3.879 18.23,-12.541 21.075,-23.208 22.303,-0.905 40.081,-19.265 40.081,-41.826 0.127,-22.562 -17.651,-40.857 -39.954,-41.762 z M 84.88,282.893 H 73.115 c -6.788,0 -12.283,-5.495 -12.283,-12.283 v -66.133 c 0,-6.788 5.495,-12.283 12.283,-12.283 H 84.88 Z M 39.046,257.552 c -9.568,-0.84 -17.131,-10.15 -17.131,-19.911 0,-9.826 7.499,-19.071 17.131,-19.911 z m 314.699,0 V 217.6 c 9.568,0.84 17.131,10.15 17.131,19.911 0,9.891 -7.563,19.2 -17.131,20.041 z m -21.786,13.123 c 0,6.788 -5.495,12.283 -12.283,12.283 H 307.91 v -90.699 h 11.766 c 6.788,0 12.283,5.495 12.283,12.283 z"
     style="fill:#194f82;stroke:#000000;stroke-width:2.80003977;stroke-miterlimit:4;stroke-dasharray:none;stroke-opacity:1"
     inkscape:connector-curvature="0" /><g
     id="g863-3-7"
     style="stroke:#000000;stroke-width:2.80003977;stroke-miterlimit:4;stroke-dasharray:none;stroke-opacity:1" /><g
     id="g865-0-9"
     style="stroke:#000000;stroke-width:2.80003977;stroke-miterlimit:4;stroke-dasharray:none;stroke-opacity:1" /><g
     id="g867-5-95"
     style="stroke:#000000;stroke-width:2.80003977;stroke-miterlimit:4;stroke-dasharray:none;stroke-opacity:1" /><g
     id="g869-3-2"
     style="stroke:#000000;stroke-width:2.80003977;stroke-miterlimit:4;stroke-dasharray:none;stroke-opacity:1" /><g
     id="g871-4-3"
     style="stroke:#000000;stroke-width:2.80003977;stroke-miterlimit:4;stroke-dasharray:none;stroke-opacity:1" /><g
     id="g873-5-2"
     style="stroke:#000000;stroke-width:2.80003977;stroke-miterlimit:4;stroke-dasharray:none;stroke-opacity:1" /><g
     id="g875-5-9"
     style="stroke:#000000;stroke-width:2.80003977;stroke-miterlimit:4;stroke-dasharray:none;stroke-opacity:1" /><g
     id="g877-4-19"
     style="stroke:#000000;stroke-width:2.80003977;stroke-miterlimit:4;stroke-dasharray:none;stroke-opacity:1" /><g
     id="g879-4-0"
     style="stroke:#000000;stroke-width:2.80003977;stroke-miterlimit:4;stroke-dasharray:none;stroke-opacity:1" /><g
     id="g881-6-8"
     style="stroke:#000000;stroke-width:2.80003977;stroke-miterlimit:4;stroke-dasharray:none;stroke-opacity:1" /><g
     id="g883-0-9"
     style="stroke:#000000;stroke-width:2.80003977;stroke-miterlimit:4;stroke-dasharray:none;stroke-opacity:1" /><g
     id="g885-1-17"
     style="stroke:#000000;stroke-width:2.80003977;stroke-miterlimit:4;stroke-dasharray:none;stroke-opacity:1" /><g
     id="g887-9-8"
     style="stroke:#000000;stroke-width:2.80003977;stroke-miterlimit:4;stroke-dasharray:none;stroke-opacity:1" /><g
     id="g889-5-40"
     style="stroke:#000000;stroke-width:2.80003977;stroke-miterlimit:4;stroke-dasharray:none;stroke-opacity:1" /><g
     id="g891-1-7"
     style="stroke:#000000;stroke-width:2.80003977;stroke-miterlimit:4;stroke-dasharray:none;stroke-opacity:1" /></g><path
   d="m 111.76101,56.531 c 0,-10.772 -4.692,-20.482 -12.180004,-27.29 C 92.800998,23.076 83.729998,19.293 73.742998,19.237 v -0.003 c -0.037,0 -0.074,10e-4 -0.111,10e-4 -0.037,0 -0.074,-10e-4 -0.111,-10e-4 v 0.003 c -21.017,0.117 -38.018,16.768 -38.018,37.294 0,5.451 0.865,10.734 1.07,16.113 0.002,-0.03 0.004,-0.051 0.004,-0.051 0,0 -0.001,0.021 -0.004,0.051 0.007,0.176 0.019,0.351 0.024,0.526 0.102,3.41 0.259,6.825 0.572,10.223 1.357,9.026 5.379,21.891 16.887,31.289 5.455,4.455 12.313,8.737 19.356,8.755 0.036,0 0.073,0 0.109,0 0,0 0.111,0 0.222,0 0.039,0 0.078,0 0.116,0 7.037,-0.018 13.891,-4.295 19.343,-8.745 11.477012,-9.366 15.512012,-22.178 16.883012,-31.203 0.319,-3.43 0.479,-6.877 0.581,-10.319 0.167,-5.561 1.095,-11.01 1.095,-16.639 z"
   id="path2"
   inkscape:connector-curvature="0"
   style="fill:#59b4d9" /><path
   d="m 73.411998,125.5 c -6.326,-0.016 -13.083,-3.031 -20.661,-9.22 -11.989,-9.791 -16.2,-23.121 -17.621,-32.579 l -0.009,-0.058 -0.005,-0.059 c -0.278,-3.012 -0.457,-6.204 -0.58,-10.351 -0.003,-0.084 -0.026,-0.572 -0.026,-0.572 -0.088,-2.246 -0.299,-4.54 -0.502,-6.759 -0.279,-3.037 -0.567,-6.177 -0.567,-9.37 0,-20.907 16.873,-38.131 38.018,-39.294 v -0.062 l 4.347,-0.003 v 0.064 c 9.383,0.515 18.252,4.194 25.164012,10.479 8.169,7.428 12.855,17.931 12.855,28.816 0,3.191 -0.29,6.329 -0.57,9.363 -0.223,2.409 -0.452,4.9 -0.525,7.338 -0.125,4.195 -0.307,7.418 -0.589,10.449 l -0.006,0.059 -0.009,0.059 c -1.433,9.433 -5.653,22.726 -17.618012,32.491 -7.573,6.181 -14.325,9.193 -20.642,9.21 h -0.454 z"
   id="path4"
   inkscape:connector-curvature="0"
   style="opacity:0.95039996;fill:#1e1e1e" /><path
   d="m 111.76101,56.531 c 0,-10.772 -4.692,-20.482 -12.180004,-27.29 C 92.800998,23.076 83.729998,19.293 73.742998,19.237 v -0.003 c -0.037,0 -0.074,10e-4 -0.111,10e-4 -0.037,0 -0.074,-10e-4 -0.111,-10e-4 v 0.003 c -21.017,0.117 -38.018,16.768 -38.018,37.294 0,5.451 0.865,10.734 1.07,16.113 0.002,-0.03 0.004,-0.051 0.004,-0.051 0,0 -0.001,0.021 -0.004,0.051 0.007,0.176 0.019,0.351 0.024,0.526 0.102,3.41 0.259,6.825 0.572,10.223 1.357,9.026 5.379,21.891 16.887,31.289 5.455,4.455 12.313,8.737 19.356,8.755 0.036,0 0.073,0 0.109,0 0,0 0.111,0 0.222,0 0.039,0 0.078,0 0.116,0 7.037,-0.018 13.891,-4.295 19.343,-8.745 11.477012,-9.366 15.512012,-22.178 16.883012,-31.203 0.319,-3.43 0.479,-6.877 0.581,-10.319 0.167,-5.561 1.095,-11.01 1.095,-16.639 z"
   id="path6"
   inkscape:connector-curvature="0"
   style="fill:#59b4d9" /><path
   d="m 37.366998,48.443 c -0.316,1.347 -0.56,2.719 -0.718,4.117 -0.019,0.178 -0.04,0.355 -0.056,0.533 -0.025,0.255 -0.041,0.511 -0.06,0.767 -0.029,0.415 -0.059,0.83 -0.075,1.25 l 48.838,26.924 -36.998,26.986 c 1.359,1.597 2.771,3.093 4.462,4.561 l 46.094008,-31.24 z"
   id="path8"
   inkscape:connector-curvature="0"
   style="fill:#ffffff" /><path
   d="m 95.417998,55.49 c 5.443012,0 12.739012,0.878 15.802012,10 v -10e-4 c 0.274,-2.964 0.541,-5.935 0.541,-8.958 0,-10.772 -4.692,-20.482 -12.180004,-27.29 0.620004,2.097 2.390004,19.699 -4.163008,26.249 z"
   id="path10"
   inkscape:connector-curvature="0"
   style="opacity:0.79199997;fill:#68217a" /><path
   d="m 95.417998,55.49 c 5.443012,0 12.739012,0.878 15.802012,10 v -10e-4 c 0.274,-2.964 0.541,-5.935 0.541,-8.958 0,-10.772 -4.692,-20.482 -12.180004,-27.29 0.620004,2.097 2.390004,19.699 -4.163008,26.249 z"
   id="path12"
   inkscape:connector-curvature="0"
   style="opacity:0.19800002;fill:#1e1e1e" /><path
   d="m 90.169998,7.7819998 c -11.41,-8.75800004 -31.336,-8.18400004 -45.416,0.632 -9.134,5.7190002 -19.277,3.9950002 -22.554,15.6930002 -0.617,2.202 0.261,10.129 -3.104,15.755 C 15.730998,45.488 6.33,50.065 5.344,59.903 c -1.569,15.653 8.078998,27.143 12.372998,31.709 5.206,5.537 7.521,5.459 5.395,13.034 -1.056,3.762 -1.895,7.636 -1.895,11.564 0,7.993 0.607,9.043 7.205,9.043 11.121,0 17.71,-0.471 21.245,-14.692 -8.183,-8.796 -11.328,-19.402 -12.496,-27.167 -0.313,-3.399 -0.471,-6.813 -0.572,-10.223 -0.005,-0.176 -0.017,-0.351 -0.024,-0.526 -0.002,-0.055 -0.006,-0.11 -0.009,-0.165 0.004,0.038 0.009,0.075 0.012,0.114 l 8.776,-10.934 c 4.18,-5.208 11.087,-6.453 17.759,-6.146 v 0 c 12.294,0 27.745,-3.755 35.232998,-17.736 C 106.18901,23.129 97.251998,13.219 90.169998,7.7819998 Z"
   id="path14"
   inkscape:connector-curvature="0"
   style="fill:#68217a" /><path
   d="m 90.788998,91.68 c -2.305,0 -4.367,-0.453 -6.128,-1.347 -3.642,-1.848 -5.905,-5.251 -5.905,-8.883 v -1.383 l 1.107,-0.828 c 0.054,-0.04 6.373,-4.452 13.166,-7.266 6.205008,-2.57 13.390012,-4.183 13.693012,-4.25 l 4.099,-0.912 -0.787,4.125 c -0.056,0.293 -1.352,6.82 -6.195,10.534 -1.706,5.828 -5.409014,9.379 -10.511012,10.04 -0.871,0.112 -1.725,0.17 -2.539,0.17 z"
   id="path18"
   inkscape:connector-curvature="0"
   style="fill:#59b4d9" /><path
   d="m 81.515998,81.45 c 0,0 6.061,-4.231 12.569,-6.926 6.054012,-2.507 13.236012,-4.106 13.236012,-4.106 0,0 -1.227,6.429 -5.89,9.367 z"
   id="path20"
   inkscape:connector-curvature="0"
   style="fill:#68217a" /><path
   d="m 81.515998,81.45 c 0,0 6.061,-4.231 12.569,-6.926 6.054012,-2.507 13.236012,-4.106 13.236012,-4.106 0,0 -1.227,6.429 -5.89,9.367 z"
   id="path22"
   inkscape:connector-curvature="0"
   style="opacity:0.39599998;fill:#1e1e1e" /><path
   d="m 92.970998,88.772 c 5.654998,-0.733 8.541012,-5.803 9.121012,-13.318 0,0 -4.082014,0.48 -10.861012,2.602 -4.77,1.493 -9.715,3.394 -9.715,3.394 0,2.705 1.832,5.121 4.393,6.421 2.157,1.094 4.704,1.207 7.062,0.901 z"
   id="path24"
   inkscape:connector-curvature="0"
   style="fill:#ffffff" /><path
   d="m 65.744998,81.45 c 0,0 -6.061,-4.231 -12.569,-6.926 -6.054,-2.507 -13.236,-4.106 -13.236,-4.106 0,0 1.227,6.429 5.89,9.367 z"
   id="path26"
   inkscape:connector-curvature="0"
   style="fill:#68217a" /><path
   d="m 65.744998,81.45 c 0,0 -6.061,-4.231 -12.569,-6.926 -6.054,-2.507 -13.236,-4.106 -13.236,-4.106 0,0 1.227,6.429 5.89,9.367 z"
   id="path28"
   inkscape:connector-curvature="0"
   style="opacity:0.39599998;fill:#1e1e1e" /><path
   d="m 54.289998,88.772 c -5.655,-0.733 -8.541,-5.803 -9.121,-13.318 0,0 4.082,0.48 10.861,2.602 4.77,1.493 9.715,3.394 9.715,3.394 0,2.705 -1.832,5.121 -4.393,6.421 -2.157,1.094 -4.704,1.207 -7.062,0.901 z"
   id="path30"
   inkscape:connector-curvature="0"
   style="fill:#ffffff" /><path
   d="M 103.86901,102.068 H 81.515998 v 6.27 h 17.947008 c 1.708004,-2.029 3.164004,-4.137 4.406004,-6.27 z"
   id="path32"
   inkscape:connector-curvature="0"
   style="fill:#ffffff" /><path
   d="m 29.595998,107.671 c -0.236,7.214 3.282,11.828 7.445,14.201 -3.154,-3.248 -4.298,-6.559 -4.598,-10.266 -0.446,-5.499 4.26,-5.388 3.049,-15.364 -1.342,-11.049 -14.222,-24.906 -8.219,-37.654 4.025,-8.547 13.882,-8.104 18.661,-8.404 6.918,-0.435 13.689,1.507 20.636,1.102 10.592,-0.617 25.215,-11.439 29.54,-18.066 -6.228,6.496 -20.171,18.266 -36.388,14.146 -8.651,-2.198 -17.725,-3.594 -26.377,-0.861 -8.566,2.706 -13.504,9.593 -13.483,18.577 0.028,12.027 7.256,15.566 10.87,26.635 3.303,10.118 -0.993,11.582 -1.136,15.954 z"
   id="path34"
   inkscape:connector-curvature="0"
   style="fill:#ec008c" /><path
   d="m 28.083998,38.708 c 5.91,-4.71 12.752,-3.908 16.365,-2.635 5.23,1.842 6.561,4.502 13.934,7.263 7.949,2.976 17.003,2.296 31.201,-5.913 0,0 -18.846,11.869 -33.069,1.776 -5.823,-4.132 -6.996,-7.107 -14.223,-7.799 -7.153,-0.686 -11.01,2.752 -14.208,7.308 z"
   id="path36"
   inkscape:connector-curvature="0"
   style="fill:#ec008c" /><path
   d="m 64.670998,12.632 c 0,0 30.747,-9.1820002 34.183008,14.978 0,0.001 -0.75701,-16.777 -34.183008,-14.978 z"
   id="path38"
   inkscape:connector-curvature="0"
   style="fill:#ec008c" /><rect
   id="_x3C_Slice_x3E__7_"
   width="128"
   height="128"
   x="0"
   y="0"
   style="fill:none" /><g
   id="g920"
   transform="matrix(0.22305753,0,0,0.30026964,46.105793,5.9805497)"
   style="stroke:#000000;stroke-width:2.80003977;stroke-miterlimit:4;stroke-dasharray:none;stroke-opacity:1"
   clip-path="url(#clipPath1286)"><path
     id="path853"
     d="m 60.832,204.541 v 66.133 c 0,6.788 5.495,12.283 12.283,12.283 H 84.88 V 192.258 H 73.115 c -6.788,10e-4 -12.283,5.496 -12.283,12.283 z"
     style="fill:#ffc10d;stroke:#000000;stroke-width:2.80003977;stroke-miterlimit:4;stroke-dasharray:none;stroke-opacity:1"
     inkscape:connector-curvature="0" /><path
     id="path855"
     d="m 21.915,237.576 c 0,9.826 7.499,19.071 17.131,19.911 V 217.6 c -9.568,0.905 -17.131,10.214 -17.131,19.976 z"
     style="fill:#56ace0;stroke:#000000;stroke-width:2.80003977;stroke-miterlimit:4;stroke-dasharray:none;stroke-opacity:1"
     inkscape:connector-curvature="0" /><path
     id="path857"
     d="M 319.676,192.259 H 307.91 v 90.634 h 11.766 c 6.788,0 12.283,-5.495 12.283,-12.283 v -66.133 c 0,-6.723 -5.495,-12.218 -12.283,-12.218 z"
     style="fill:#ffc10d;stroke:#000000;stroke-width:2.80003977;stroke-miterlimit:4;stroke-dasharray:none;stroke-opacity:1"
     inkscape:connector-curvature="0" /><path
     id="path859"
     d="m 353.745,217.6 v 39.952 c 9.568,-0.84 17.131,-10.15 17.131,-19.911 0,-9.827 -7.563,-19.136 -17.131,-20.041 z"
     style="fill:#56ace0;stroke:#000000;stroke-width:2.80003977;stroke-miterlimit:4;stroke-dasharray:none;stroke-opacity:1"
     inkscape:connector-curvature="0" /><path
     id="path861"
     d="m 352.581,195.814 c -2.521,-9.568 -9.115,-17.519 -17.842,-21.786 V 146.812 C 334.739,65.81 271.192,0 193.163,0 115.134,0 51.588,65.81 51.588,146.812 v 31.289 c -5.495,4.461 -9.503,10.667 -11.378,17.713 -22.303,0.905 -40.081,19.265 -40.081,41.826 0,22.497 17.778,40.792 40.081,41.826 3.879,14.61 17.131,25.341 32.905,25.341 h 22.626 c 6.012,0 10.925,-4.848 10.925,-10.925 V 181.398 c 0,-6.012 -4.848,-10.925 -10.925,-10.925 H 73.309 v -23.661 c 0,-68.913 53.721,-125.026 119.79,-125.026 66.069,0 119.79,56.113 119.79,125.026 v 23.661 h -15.903 c -6.012,0 -10.925,4.848 -10.925,10.925 v 112.485 c 0,6.012 4.848,10.925 10.925,10.925 h 12.671 v 4.59 c 0,33.939 -26.376,61.414 -58.634,61.414 h -47.709 v -1.681 c 0,-6.012 -4.848,-10.925 -10.925,-10.925 -6.077,0 -10.925,4.848 -10.925,10.925 v 12.606 c 0,6.012 4.848,10.925 10.925,10.925 h 58.57 c 44.347,0 80.42,-37.301 80.42,-83.329 v -6.723 c 10.279,-3.879 18.23,-12.541 21.075,-23.208 22.303,-0.905 40.081,-19.265 40.081,-41.826 0.127,-22.562 -17.651,-40.857 -39.954,-41.762 z M 84.88,282.893 H 73.115 c -6.788,0 -12.283,-5.495 -12.283,-12.283 v -66.133 c 0,-6.788 5.495,-12.283 12.283,-12.283 H 84.88 Z M 39.046,257.552 c -9.568,-0.84 -17.131,-10.15 -17.131,-19.911 0,-9.826 7.499,-19.071 17.131,-19.911 z m 314.699,0 V 217.6 c 9.568,0.84 17.131,10.15 17.131,19.911 0,9.891 -7.563,19.2 -17.131,20.041 z m -21.786,13.123 c 0,6.788 -5.495,12.283 -12.283,12.283 H 307.91 v -90.699 h 11.766 c 6.788,0 12.283,5.495 12.283,12.283 z"
     style="fill:#194f82;stroke:#000000;stroke-width:2.80003977;stroke-miterlimit:4;stroke-dasharray:none;stroke-opacity:1"
     inkscape:connector-curvature="0" /><g
     id="g863"
     style="stroke:#000000;stroke-width:2.80003977;stroke-miterlimit:4;stroke-dasharray:none;stroke-opacity:1">
</g><g
     id="g865"
     style="stroke:#000000;stroke-width:2.80003977;stroke-miterlimit:4;stroke-dasharray:none;stroke-opacity:1">
</g><g
     id="g867"
     style="stroke:#000000;stroke-width:2.80003977;stroke-miterlimit:4;stroke-dasharray:none;stroke-opacity:1">
</g><g
     id="g869"
     style="stroke:#000000;stroke-width:2.80003977;stroke-miterlimit:4;stroke-dasharray:none;stroke-opacity:1">
</g><g
     id="g871"
     style="stroke:#000000;stroke-width:2.80003977;stroke-miterlimit:4;stroke-dasharray:none;stroke-opacity:1">
</g><g
     id="g873"
     style="stroke:#000000;stroke-width:2.80003977;stroke-miterlimit:4;stroke-dasharray:none;stroke-opacity:1">
</g><g
     id="g875"
     style="stroke:#000000;stroke-width:2.80003977;stroke-miterlimit:4;stroke-dasharray:none;stroke-opacity:1">
</g><g
     id="g877"
     style="stroke:#000000;stroke-width:2.80003977;stroke-miterlimit:4;stroke-dasharray:none;stroke-opacity:1">
</g><g
     id="g879"
     style="stroke:#000000;stroke-width:2.80003977;stroke-miterlimit:4;stroke-dasharray:none;stroke-opacity:1">
</g><g
     id="g881"
     style="stroke:#000000;stroke-width:2.80003977;stroke-miterlimit:4;stroke-dasharray:none;stroke-opacity:1">
</g><g
     id="g883"
     style="stroke:#000000;stroke-width:2.80003977;stroke-miterlimit:4;stroke-dasharray:none;stroke-opacity:1">
</g><g
     id="g885"
     style="stroke:#000000;stroke-width:2.80003977;stroke-miterlimit:4;stroke-dasharray:none;stroke-opacity:1">
</g><g
     id="g887"
     style="stroke:#000000;stroke-width:2.80003977;stroke-miterlimit:4;stroke-dasharray:none;stroke-opacity:1">
</g><g
     id="g889"
     style="stroke:#000000;stroke-width:2.80003977;stroke-miterlimit:4;stroke-dasharray:none;stroke-opacity:1">
</g><g
     id="g891"
     style="stroke:#000000;stroke-width:2.80003977;stroke-miterlimit:4;stroke-dasharray:none;stroke-opacity:1">
</g></g><path
   d="m 90.169998,7.7819998 c -11.41,-8.75800004 -31.336,-8.18400004 -45.416,0.632 -9.134,5.7190002 -19.277,3.9950002 -22.554,15.6930002 -0.617,2.202 0.261,10.129 -3.104,15.755 C 15.730998,45.488 6.33,50.065 5.344,59.903 c -1.569,15.653 8.078998,27.143 12.372998,31.709 5.206,5.537 7.521,5.459 5.395,13.034 -1.056,3.762 -1.895,7.636 -1.895,11.564 0,7.993 0.607,9.043 7.205,9.043 11.121,0 17.71,-0.471 21.245,-14.692 -8.183,-8.796 -11.328,-19.402 -12.496,-27.167 -0.313,-3.399 -0.471,-6.813 -0.572,-10.223 -0.005,-0.176 -0.017,-0.351 -0.024,-0.526 -0.002,-0.055 -0.006,-0.11 -0.009,-0.165 0.004,0.038 0.009,0.075 0.012,0.114 l 8.776,-10.934 c 4.18,-5.208 11.087,-6.453 17.759,-6.146 v 0 c 12.294,0 27.745,-3.755 35.232998,-17.736 C 106.18901,23.129 97.251998,13.219 90.169998,7.7819998 Z"
   id="path16"
   inkscape:connector-curvature="0"
   style="opacity:0.297;fill:#1e1e1e" /></svg>