<?xml version="1.0" encoding="UTF-8" standalone="no"?>
<svg
   xmlns:dc="http://purl.org/dc/elements/1.1/"
   xmlns:cc="http://creativecommons.org/ns#"
   xmlns:rdf="http://www.w3.org/1999/02/22-rdf-syntax-ns#"
   xmlns:svg="http://www.w3.org/2000/svg"
   xmlns="http://www.w3.org/2000/svg"
   xmlns:sodipodi="http://sodipodi.sourceforge.net/DTD/sodipodi-0.dtd"
   xmlns:inkscape="http://www.inkscape.org/namespaces/inkscape"
   viewBox="0 0 217.16074 128.81737"
   version="1.1"
   id="svg32"
   sodipodi:docname="Vagrantey.svg"
   inkscape:version="0.92.4 (5da689c313, 2019-01-14)"
   width="217.16074"
   height="128.81737"
   inkscape:export-filename="C:\Users\Adilio\Desktop\Vagrantey.png"
   inkscape:export-xdpi="96"
   inkscape:export-ydpi="96">
  <metadata
     id="metadata36">
    <rdf:RDF>
      <cc:Work
         rdf:about="">
        <dc:format>image/svg+xml</dc:format>
        <dc:type
           rdf:resource="http://purl.org/dc/dcmitype/StillImage" />
        <dc:title>Asset 1</dc:title>
      </cc:Work>
    </rdf:RDF>
  </metadata>
  <sodipodi:namedview
     pagecolor="#ffffff"
     bordercolor="#666666"
     borderopacity="1"
     objecttolerance="10"
     gridtolerance="10"
     guidetolerance="10"
     inkscape:pageopacity="0"
     inkscape:pageshadow="2"
     inkscape:window-width="3840"
     inkscape:window-height="2050"
     id="namedview34"
     showgrid="false"
     inkscape:zoom="2.0806184"
     inkscape:cx="47.316265"
     inkscape:cy="8.7105712"
     inkscape:window-x="-12"
     inkscape:window-y="-12"
     inkscape:window-maximized="1"
     inkscape:current-layer="svg32"
     fit-margin-top="0"
     fit-margin-left="0"
     fit-margin-right="0"
     fit-margin-bottom="0" />
  <defs
     id="defs4">
    <style
       id="style2">.cls-1{fill:#1159cc;}.cls-2{fill:#127eff;}</style>
    <clipPath
       clipPathUnits="userSpaceOnUse"
       id="clipPath4639">
      <rect
         id="rect4641"
         width="71.907021"
         height="36.102982"
         x="-16.250597"
         y="-67.814629"
         style="opacity:0.51700003;stroke-width:0.69990057"
         transform="matrix(-0.11542351,0.99331637,-0.96034664,-0.27880876,0,0)" />
    </clipPath>
    <clipPath
       clipPathUnits="userSpaceOnUse"
       id="clipPath4643">
      <rect
         id="rect4645"
         width="71.907021"
         height="36.102982"
         x="-16.250597"
         y="-67.814629"
         style="opacity:0.51700003;stroke-width:0.69990057"
         transform="matrix(-0.11542351,0.99331637,-0.96034664,-0.27880876,0,0)" />
    </clipPath>
    <clipPath
       clipPathUnits="userSpaceOnUse"
       id="clipPath4647">
      <rect
         id="rect4649"
         width="71.907021"
         height="36.102982"
         x="-16.250597"
         y="-67.814629"
         style="opacity:0.51700003;stroke-width:0.69990057"
         transform="matrix(-0.11542351,0.99331637,-0.96034664,-0.27880876,0,0)" />
    </clipPath>
    <clipPath
       clipPathUnits="userSpaceOnUse"
       id="clipPath884">
      <rect
         style="opacity:0.51700003"
         id="rect886"
         width="74.088203"
         height="23.280008"
         x="-21.413525"
         y="-59.785648"
         transform="rotate(111.32446)" />
    </clipPath>
    <clipPath
       clipPathUnits="userSpaceOnUse"
       id="clipPath888">
      <rect
         style="opacity:0.51700003"
         id="rect890"
         width="74.088203"
         height="23.280008"
         x="-21.413525"
         y="-59.785648"
         transform="rotate(111.32446)" />
    </clipPath>
    <clipPath
       clipPathUnits="userSpaceOnUse"
       id="clipPath892">
      <rect
         style="opacity:0.51700003"
         id="rect894"
         width="74.088203"
         height="23.280008"
         x="-21.413525"
         y="-59.785648"
         transform="rotate(111.32446)" />
    </clipPath>
  </defs>
  <title
     id="title6">Asset 1</title>
  <flowRoot
     xml:space="preserve"
     id="flowRoot833"
     style="font-style:normal;font-weight:normal;font-size:40px;line-height:1.25;font-family:sans-serif;letter-spacing:0px;word-spacing:0px;fill:#000000;fill-opacity:1;stroke:none"
     transform="matrix(1.1899504,0,0,1.1899504,-41.845257,-18.016197)"><flowRegion
       id="flowRegion835"><rect
         id="rect837"
         width="204.08243"
         height="94.989243"
         x="35.684685"
         y="78.02227" /></flowRegion><flowPara
       id="flowPara839"
       style="font-style:normal;font-variant:normal;font-weight:bold;font-stretch:normal;font-size:40px;font-family:'Fira Sans';-inkscape-font-specification:'Fira Sans, Bold';font-variant-ligatures:normal;font-variant-caps:normal;font-variant-numeric:normal;font-feature-settings:normal;text-align:start;writing-mode:lr-tb;text-anchor:start">Vagrantey</flowPara></flowRoot>  <g
     id="g847"
     transform="translate(71.961134)">
    <polygon
       transform="rotate(-30,52.534106,-9.0742068)"
       style="fill:#1159cc"
       id="polygon24"
       points="34.29,39.7 29.01,43.34 29.01,60.01 40.32,53.49 58.03,10.12 58.03,4.63 44.84,12.3 44.84,16.94 "
       class="cls-1" />
    <polygon
       transform="rotate(-30,52.534106,-9.0742068)"
       style="fill:#1159cc"
       id="polygon26"
       points="13.19,12.3 13.19,16.94 23.74,40.7 29.01,38.09 29.01,31.47 21.1,13 21.1,7.78 21.05,7.76 "
       class="cls-1" />
    <polygon
       transform="rotate(-30,52.534106,-9.0742068)"
       style="fill:#127eff"
       id="polygon28"
       points="34.22,40.66 44.84,16.94 44.84,12.3 44.84,12.29 58.03,4.63 50.12,0.01 36.94,7.73 36.93,7.73 36.93,7.74 36.93,13 29.01,31.47 29.01,37.64 23.74,40.7 13.19,16.94 13.19,12.29 21.11,7.74 7.91,0.01 0,4.63 0,10.29 17.81,53.54 29.01,60.01 29.01,43.76 34.29,40.7 "
       class="cls-2" />
    <path
       inkscape:connector-curvature="0"
       d="m 6.509765,40.275671 3.994141,14.72461 4.482422,1.201172 19.253906,16.082032 2.15039,6.04101 16.101563,4.31446 L 49.121093,70.027625 11.8125,41.695593 Z"
       style="fill:#1159cc"
       id="polygon24-8" />
    <path
       inkscape:connector-curvature="0"
       d="m 27.957031,77.590125 c -0.0069,-0.004 0.0078,0.01 0.01758,0.0156 0.0038,10e-4 0.0079,6e-4 0.01172,0.002 -0.0096,-0.006 -0.01944,-0.0118 -0.0293,-0.0176 z m 4.15625,3.35742 c -2.68e-4,0.0182 0.0022,0.0364 0.002,0.0547 0.0043,0.0171 0.0081,0.0335 0.01172,0.0508 0.01532,0.0738 0.01343,0.0721 0.02344,0.14844 0.01117,0.10888 0.0075,0.2189 0.0059,0.32812 0.0017,0.005 -0.0073,-0.0325 0.0039,0.01 0.0071,0.0266 0.01305,0.0534 0.01953,0.0801 0.01538,0.0752 0.01995,0.15196 0.02148,0.22851 v 0.002 c 8.65e-4,0.003 0.0012,0.005 0.002,0.008 0.0017,0.008 0.0043,0.0156 0.0059,0.0234 0.0094,0.0113 0.01109,0.027 0.01563,0.041 0.02766,0.0851 0.04432,0.16927 0.05664,0.25781 0.0065,0.063 0.0066,0.12626 0.0059,0.18946 0.0037,0.0166 0.0084,0.0321 0.01172,0.0488 0.01063,0.0537 0.01598,0.0897 0.02148,0.14454 0.0014,0.0142 0.0021,0.0252 0.0039,0.043 0.01492,0.0547 0.0138,0.11188 0.02148,0.16797 l 0.130859,-0.0215 z"
       style="fill:#1159cc"
       id="polygon26-4" />
    <path
       inkscape:connector-curvature="0"
       d="M 6.509765,40.275671 0,46.719031 l 4.044921,14.730464 -0.002,0.01 0.0098,0.002 5.080078,1.36133 15.699219,12.35742 c 0.02969,0.006 0.06007,0.009 0.08984,0.0176 0.01495,0.004 0.03118,0.005 0.04297,0.0156 0.0148,0.003 0.03014,0.006 0.04492,0.01 0.05453,0.0158 0.02292,0.009 0.01953,0.008 0.05646,0.003 0.06727,0.004 0.134766,0.0117 0.07781,0.0129 0.06676,0.009 0.138672,0.0254 0.0106,0.002 0.03179,-0.003 0.0332,0.008 0.0013,0.0102 -0.04146,-0.004 -0.03125,-0.002 0.171461,0.0248 0.0086,-0.005 0.189453,0.0332 0.08585,0.0273 0.08425,0.0225 0.158203,0.0547 0.0018,7.7e-4 -0.0077,-10e-4 -0.0059,0 0.03003,0.0128 0.05988,0.0241 0.08984,0.0371 0.01229,0.005 0.05034,0.0154 0.03711,0.0176 -0.01633,0.003 -0.03123,-0.0103 -0.04687,-0.0156 0.02887,0.0101 0.106966,0.0352 0.140625,0.0527 0.0057,0.003 -0.02559,-0.007 -0.01953,-0.004 0.01566,0.006 0.0337,0.009 0.04883,0.0156 0.02437,0.006 0.04788,0.0136 0.07227,0.0195 0.02723,0.01 0.05495,0.0191 0.08203,0.0293 0.0079,0.003 0.03173,0.0108 0.02344,0.01 -0.02726,-0.005 -0.107825,-0.0203 -0.08008,-0.0215 0.03972,-0.002 0.092,0.0228 0.136719,0.0391 0.01584,0.005 0.0209,0.008 0.03125,0.01 0.03194,0.005 0.07883,0.02 0.115234,0.0312 0.09131,0.007 0.182461,0.0148 0.271485,0.0391 0.0013,2.1e-4 0.0026,-2.2e-4 0.0039,0 0.06535,0.011 0.130055,0.0236 0.193359,0.043 0.0013,1.3e-4 0.0026,-10e-5 0.0039,0 0.06964,0.003 0.14022,0.005 0.208984,0.0176 0.09106,0.0102 0.188499,0.0193 0.27539,0.0508 0.0033,10e-4 -0.01511,-6.9e-4 -0.01172,0 0.03144,0.006 0.0641,0.012 0.0957,0.0176 0.03345,0.009 0.06623,0.0196 0.09961,0.0293 0.009,0.003 0.01317,6.8e-4 0.01953,0.002 0.02707,0.005 0.05341,0.0127 0.08008,0.0195 0.009,0.002 0.01842,0.007 0.02734,0.01 0.06385,0.003 0.126565,0.01 0.189453,0.0215 0.0177,0.003 0.03702,0.006 0.05469,0.01 0.0087,0.002 0.01927,-0.001 0.02539,0.006 0.0044,0.005 -0.02579,8.1e-4 -0.01953,0.002 0.08554,0.007 0.173605,0.005 0.257813,0.0254 0.02457,0.005 0.04778,0.0102 0.07227,0.0156 0.01837,0.004 0.03657,0.008 0.05469,0.0137 0.0015,4.1e-4 0.0023,0.004 0.0039,0.004 0.0518,0.0103 0.105457,0.014 0.15625,0.0293 -0.01575,-8.5e-4 -0.06261,-0.003 -0.04687,-0.002 0.115418,0.008 0.228244,0.0283 0.335938,0.0723 -0.01327,-0.003 -0.02446,-0.009 -0.03906,-0.0117 -0.02605,-0.004 0.05066,0.0125 0.07617,0.0195 -0.01168,-0.006 -0.02522,-0.003 -0.03711,-0.008 0.04707,0.011 0.09034,0.023 0.138672,0.041 0.0014,5.8e-4 0.0025,8.6e-4 0.0039,0.002 0.0073,0.003 0.01434,0.002 0.02148,0.004 0.02308,0.007 0.04731,0.0142 0.07031,0.0215 0.0044,0.001 0.01633,0.007 0.01172,0.006 -0.02536,-0.003 -0.09973,-0.0159 -0.07422,-0.0137 0.09715,0.008 0.192113,0.0359 0.28125,0.0742 0.0043,0.002 0.0064,0.003 0.01172,0.006 0.0032,0.001 0.0052,8.6e-4 0.0078,0.002 0.133249,0.034 -0.184987,-0.0287 0.07227,0.0156 0.04386,0.009 0.07378,0.0147 0.111328,0.0254 0.04868,0.004 0.104326,0.009 0.07031,0.004 0.03412,0.006 0.0679,0.008 0.101563,0.0156 0.09157,0.0214 0.12642,0.0383 0.205078,0.0762 0.0025,0.001 0.0033,0.003 0.0059,0.004 0.0015,3.8e-4 0.0026,-2.6e-4 0.0039,0 h 0.002 c 0.02406,0.004 0.04838,0.007 0.07227,0.0117 0.04097,0.008 0.04206,0.01 0.06836,0.0176 0.0032,2e-4 0.0066,-2.1e-4 0.0098,0 0.0927,0.004 0.185164,0.0151 0.275391,0.0371 0.0063,0.002 0.02409,0.006 0.01758,0.006 -0.01795,10e-4 -0.07073,-0.002 -0.05273,-0.002 0.101162,-8.6e-4 0.202982,0.014 0.300781,0.0391 0.0026,6.9e-4 0.0052,8.6e-4 0.0078,0.002 0.0202,-2.1e-4 0.03242,-5e-4 0.08008,0 0.02384,0.001 0.04645,0.0113 0.07031,0.0137 0.0066,-8.2e-4 0.01291,-0.005 0.01953,-0.006 0.08311,-0.006 0.165835,0.0186 0.244141,0.0605 0.01711,0.006 0.03598,0.005 0.05273,0.0117 0.02435,0.007 0.04802,0.014 0.07227,0.0215 0.01235,0.004 0.03774,-9.5e-4 0.03711,0.0117 0.0059,0.001 0.01168,0.003 0.01758,0.004 0.0083,0.002 0.02833,-0.002 0.02539,0.006 -0.0031,0.008 -0.01843,-0.002 -0.02734,-0.002 0.138945,0.0156 0.233201,0.0143 0.361328,0.10157 0.17091,0.11636 0.254314,0.24518 0.302735,0.43554 7.99e-4,10e-4 -8.58e-4,0.003 0,0.004 0.0011,0.002 0.0013,0.003 0.002,0.004 0.0031,0.0123 0.0015,0.004 0.0039,0.0137 0.02675,0.0315 0.05454,0.063 0.08203,0.0937 0.02384,0.0415 0.04647,0.0836 0.07031,0.125 0.01602,0.0416 0.03858,0.0964 0.04687,0.13867 0.0199,0.10156 0.0274,0.19705 0.02344,0.29883 -3.07e-4,0.0805 10e-5,0.16171 0,0.24218 0.0011,0.11913 0.0059,0.23674 0.01563,0.35547 0.015,0.18217 -0.01017,0.32834 -0.04883,0.45703 0.0029,0.0125 0.0068,0.0247 0.0098,0.0371 0.01166,0.0663 0.01247,0.0833 0.01758,0.13477 -0.0043,-0.0129 -0.02022,-0.0632 0.0098,0.0254 0.04244,0.13667 0.04273,0.28036 0.04102,0.42187 l -0.0039,-0.0898 c 0.02645,0.0832 0.03794,0.17154 0.04492,0.25781 -0.0085,-0.0645 -0.02201,-0.14314 0.0078,-0.0254 0.02038,0.0804 0.02946,0.15974 0.03516,0.24219 0.0012,0.0492 0.0019,0.0623 0.002,0.0879 4.21e-4,0.002 -0.0078,-0.0284 0.0039,0.0117 0.02117,0.0767 0.03246,0.15505 0.03711,0.23438 8.04e-4,0.0135 0.0013,0.0251 0.002,0.041 0.02548,0.10587 0.04041,0.21335 0.04102,0.32227 1.43e-4,-0.004 0.0011,0.009 0.002,0.0117 0.0041,0.0169 0.0083,0.0338 0.01172,0.0508 0.01433,0.0724 0.01406,0.0717 0.02344,0.14648 0.01001,0.10204 0.0074,0.20426 0.0059,0.30664 0.0043,0.0171 0.0081,0.0335 0.01172,0.0508 0.01532,0.0738 0.01343,0.0721 0.02344,0.14844 0.01117,0.10888 0.0075,0.2189 0.0059,0.32812 0.0017,0.005 -0.0073,-0.0306 0.0039,0.0117 0.0071,0.0266 0.01305,0.0534 0.01953,0.0801 0.0016,0.008 4.08e-4,0.0157 0.002,0.0234 l 0.294922,1.08984 -0.132812,0.0215 c 0.01087,0.0716 0.02744,0.14249 0.02734,0.21484 -0.002,-0.0308 -0.0035,-0.0611 -0.0059,-0.0918 -4.07e-4,-0.005 -0.0036,-0.0205 -0.002,-0.0156 0.01111,0.0327 0.02597,0.0961 0.03125,0.125 0.0025,0.0136 3.03e-4,0.0224 0.0059,0.041 0.0211,0.0623 0.03208,0.12679 0.04297,0.19141 0.0014,2.2e-4 0.0025,0.002 0.0039,0.002 -0.0017,-0.009 -0.0063,-0.0123 -0.002,-0.0156 0.0044,-0.003 0.003,0.009 0.0039,0.0156 0.02739,0.004 0.05448,0.0102 0.08203,0.0137 0.03659,0.005 0.07289,0.005 0.109374,0.01 0.05839,0.009 0.117589,0.0195 0.175782,0.0293 0.09082,0.0159 0.178932,0.0325 0.269531,0.0527 0.05764,0.0128 0.116159,0.0325 0.175781,0.0352 0.114854,0.01 0.231019,-0.007 0.345703,0 0.06798,0.004 0.135322,0.013 0.203125,0.0195 0.04501,0.01 0.09171,0.0212 0.136719,0.0312 0.01951,0.005 0.03702,0.0109 0.05664,0.0156 0.02262,0.005 -0.02447,-0.005 0.02344,-0.006 0.122861,-10e-4 0.246272,-0.003 0.369141,-0.004 0.131579,-5.6e-4 0.26295,-1.1e-4 0.394531,0 0.184439,0.008 0.352774,0.0563 0.525391,0.11523 0.06561,0.0224 0.03749,0.0198 0.06641,0.0215 0.111614,0.0404 0.218976,0.082 0.330078,0.11523 0.0014,3.3e-4 0.0025,0.002 0.0039,0.002 0.0025,7.6e-4 0.0053,9.5e-4 0.0078,0.002 0.146109,0.0354 0.291012,0.0757 0.431641,0.12891 0.0017,-2e-5 0.0074,7.1e-4 0.0059,0 -0.0078,-0.004 -0.01719,-0.009 -0.02539,-0.0117 -0.0066,-0.002 -0.02638,-0.007 -0.01953,-0.006 0.08644,0.017 0.171579,0.0402 0.257813,0.0566 0.168996,0.0211 0.286649,0.0878 0.43164,0.14258 -0.0045,-0.003 -0.01857,-0.009 -0.01367,-0.008 0.05424,0.0187 0.108117,0.0392 0.16211,0.0586 0.04665,0.0167 0.09752,0.0429 0.148437,0.0449 0.235002,0.0268 0.463772,0.0995 0.695313,0.14648 0.246668,0.0441 0.494232,0.0768 0.742187,0.11328 0.157859,0.019 0.315806,0.0329 0.474609,0.041 0.05803,0.003 0.115892,-6.6e-4 0.173829,0.004 0.06175,0.005 0.123964,0.0131 0.185547,0.0195 0.08864,0.0206 0.174999,0.0367 0.265624,0.0371 0.112001,-9e-4 0.225887,-0.004 0.337891,-0.004 0.136368,-0.005 0.266573,0.005 0.402344,0.0273 0.05121,0.008 0.09985,0.0236 0.150391,0.0352 0.05386,0.004 0.108078,0.002 0.162109,0.002 0.129907,0.0165 0.235068,0.0164 0.353515,0.0625 0.06446,0.0251 0.126655,0.0569 0.189454,0.0859 0.01181,0.005 0.02285,0.0134 0.03516,0.0176 0.0088,0.003 -0.01538,-0.008 -0.02344,-0.0137 0.03396,0.0152 0.0676,0.0297 0.101563,0.0449 0.04037,0.005 0.115838,0.0692 0.15625,0.0488 0.25753,0.0536 0.102223,0.0149 0.269531,0.0645 0.0032,9.4e-4 0.01268,0.003 0.0098,0.002 -0.0026,-0.001 -0.04783,-0.01 -0.02344,-0.0117 0.173486,0.007 0.345509,0.0485 0.515625,0.082 0.149513,0.0348 0.302077,0.0524 0.453125,0.0781 0.141784,0.0241 0.281077,0.0527 0.423828,0.0703 0.06713,0.013 0.134123,0.0257 0.201172,0.0391 0.155007,0.0309 0.146268,0.0314 0.310547,0.0723 0.0832,0.0207 0.165227,0.042 0.25,0.0547 0.0769,0.006 0.14557,0.0417 0.21875,0.0606 0.01779,0.005 -0.006,-0.007 0.002,-0.006 0.06818,0.0132 0.137042,0.0271 0.205078,0.041 0.301979,0.0932 -0.228606,-0.067 0.226563,0.0664 0.0607,0.0178 0.03214,0.0153 0.06055,0.0176 0.216715,0.0842 0.218043,0.0891 0.3125,0.13672 0.0011,4e-4 0.0026,-4.8e-4 0.0039,0 0.0256,0.0129 0.03272,0.0124 0.08203,0.0371 -0.01121,-0.006 -0.022,-0.0116 -0.0332,-0.0176 0.04785,0.0179 0.09601,0.0349 0.144531,0.0508 0.118219,0.0526 0.110717,0.0477 0.1875,0.0879 -0.01688,-0.009 -0.06571,-0.0359 -0.04883,-0.0273 0.04115,0.0212 0.0819,0.0413 0.123047,0.0625 -0.02379,-0.0105 -0.362601,-0.12445 0.113281,0.0391 -0.0076,-0.003 -0.02908,-0.0111 -0.02148,-0.01 0.04206,0.009 0.08371,0.0272 0.125,0.0391 0.07552,0.0217 0.150453,0.046 0.226563,0.0664 0.176943,0.0514 0.360798,0.0689 0.539062,0.11524 0.05347,0.0139 0.105086,0.0317 0.158203,0.0469 0.174176,0.0383 0.34596,0.0859 0.515625,0.14063 0.203925,0.0627 0.36852,0.14747 0.548828,0.26171 0.146657,0.084 0.294159,0.16491 0.449219,0.23243 0.06564,0.0337 0.131835,0.0674 0.197266,0.10156 0.02899,0.0151 0.05721,0.0314 0.08594,0.0469 l 4.154297,-4.15234 -15.697266,-4.20508 -1.58789,-5.89258 -0.05664,0.0586 -20.164062,-16.39844 -4.482422,-1.201172 -0.0098,-0.002 z m 25.085938,36.755864 c 0.0089,0.0112 0.01819,0.0222 0.02734,0.0332 -0.003,-0.006 -0.0045,-0.01 -0.0078,-0.0156 -0.0088,-0.009 -0.02496,-0.0244 -0.01953,-0.0176 z m -4.949219,8.36328 c -0.0033,0.0248 -0.0065,0.0494 -0.0098,0.0742 0.01274,0.0223 0.02209,0.0481 0.03516,0.0683 0.0087,0.003 0.01205,0.003 0.01953,0.006 -0.01314,-0.0501 -0.03141,-0.0985 -0.04492,-0.14843 z"
       style="fill:#127eff"
       id="polygon28-1" />
    <rect
       transform="matrix(0.80028412,0.59962099,-0.63985204,0.76849812,0,0)"
       y="39.547756"
       x="67.276024"
       height="5.7875943"
       width="9.6703291"
       id="rect1415"
       style="opacity:1;fill:#127eff;fill-opacity:1;stroke-width:1.16775775" />
    <path
       inkscape:connector-curvature="0"
       d="m 35.410156,78.385045 -3.980469,1.04297 0.994141,3.79297 c 0.0359,0.006 0.07125,0.0149 0.107422,0.0195 0.03659,0.005 0.07289,0.005 0.109374,0.01 0.05839,0.009 0.117589,0.0195 0.175782,0.0293 0.02837,0.005 0.05598,0.0124 0.08398,0.0176 l 3.552734,-0.93164 z"
       style="opacity:1;fill:#127eff;fill-opacity:1"
       id="rect1417" />
    <rect
       transform="matrix(0.97461095,0.22390509,-0.59731906,0.8020037,0,0)"
       y="77.899017"
       x="82.741333"
       height="2.7831533"
       width="16.177885"
       id="rect1438"
       style="opacity:1;fill:#127eff;fill-opacity:1;stroke-width:0.74802798" />
  </g>
</svg>
