<?xml version="1.0" encoding="UTF-8" standalone="no"?>
<svg
   xmlns:dc="http://purl.org/dc/elements/1.1/"
   xmlns:cc="http://creativecommons.org/ns#"
   xmlns:rdf="http://www.w3.org/1999/02/22-rdf-syntax-ns#"
   xmlns:svg="http://www.w3.org/2000/svg"
   xmlns="http://www.w3.org/2000/svg"
   xmlns:sodipodi="http://sodipodi.sourceforge.net/DTD/sodipodi-0.dtd"
   xmlns:inkscape="http://www.inkscape.org/namespaces/inkscape"
   height="512pt"
   viewBox="0 0 512 512"
   width="512pt"
   version="1.1"
   id="svg18"
   sodipodi:docname="devops-vaseline.svg"
   inkscape:export-filename="C:\Users\Adilio\Desktop\devops-vaseline.png"
   inkscape:export-xdpi="96"
   inkscape:export-ydpi="96"
   inkscape:version="0.92.4 (5da689c313, 2019-01-14)">
  <metadata
     id="metadata24">
    <rdf:RDF>
      <cc:Work
         rdf:about="">
        <dc:format>image/svg+xml</dc:format>
        <dc:type
           rdf:resource="http://purl.org/dc/dcmitype/StillImage" />
        <dc:title></dc:title>
      </cc:Work>
    </rdf:RDF>
  </metadata>
  <defs
     id="defs22" />
  <sodipodi:namedview
     pagecolor="#ffffff"
     bordercolor="#666666"
     borderopacity="1"
     objecttolerance="10"
     gridtolerance="10"
     guidetolerance="10"
     inkscape:pageopacity="0"
     inkscape:pageshadow="2"
     inkscape:window-width="1380"
     inkscape:window-height="959"
     id="namedview20"
     showgrid="false"
     inkscape:zoom="0.9777961"
     inkscape:cx="317.54771"
     inkscape:cy="371.63656"
     inkscape:window-x="658"
     inkscape:window-y="181"
     inkscape:window-maximized="0"
     inkscape:current-layer="svg18" />
  <path
     d="m512 256c0 141.386719-114.613281 256-256 256s-256-114.613281-256-256 114.613281-256 256-256 256 114.613281 256 256zm0 0"
     fill="#a3d4ff"
     id="path2" />
  <path
     d="m512 256c0-15-1.304688-29.691406-3.777344-43.984375l-89.480468-89.480469-314.414063 248.90625 140.292969 140.292969c3.773437.164063 7.566406.265625 11.378906.265625 141.386719 0 256-114.613281 256-256zm0 0"
     fill="#65b1fc"
     id="path4" />
  <path
     d="m369.683594 389.464844h-227.367188c-27.09375 0-49.058594-21.964844-49.058594-49.0625v-217.867188h325.484376v217.867188c0 27.097656-21.964844 49.0625-49.058594 49.0625zm0 0"
     fill="#fff4c5"
     id="path6" />
  <path
     d="m255.59375 122.535156v266.929688h114.085938c27.097656 0 49.0625-21.964844 49.0625-49.0625v-217.867188zm0 0"
     fill="#ffe89c"
     id="path8" />
  <path
     d="m129.570312 244.105469h252.859376v96.253906h-252.859376zm0 0"
     fill="#4a98f7"
     id="path10" />
  <path
     d="m255.59375 244.105469h126.835938v96.253906h-126.835938zm0 0"
     fill="#4a7aff"
     id="path12" />
  <path
     d="m93.257812 122.535156h325.484376v84.363282h-325.484376zm0 0"
     fill="#4a7aff"
     id="path14" />
  <path
     d="m255.59375 122.535156h163.148438v84.363282h-163.148438zm0 0"
     fill="#2864f0"
     id="path16" />
  <flowRoot
     xml:space="preserve"
     id="flowRoot4537"
     style="font-style:normal;font-weight:normal;font-size:40px;line-height:1.25;font-family:sans-serif;letter-spacing:0px;word-spacing:0px;fill:#ffffff;fill-opacity:1;stroke:#ffffff"
     transform="matrix(1.2549867,0,0,1.2549867,-96.533615,-163.43036)"><flowRegion
       id="flowRegion4539"
       style="fill:#ffffff;stroke:#ffffff"><rect
         id="rect4541"
         width="310.90326"
         height="107.38435"
         x="187.15558"
         y="338.01404"
         style="fill:#ffffff;stroke:#ffffff" /></flowRegion><flowPara
       id="flowPara4543"
       style="font-weight:bold">Dev Ops</flowPara></flowRoot></svg>
