<?xml version="1.0" encoding="UTF-8" standalone="no"?>
<!-- Generator: Adobe Illustrator 19.0.0, SVG Export Plug-In . SVG Version: 6.00 Build 0)  -->

<svg
   xmlns:dc="http://purl.org/dc/elements/1.1/"
   xmlns:cc="http://creativecommons.org/ns#"
   xmlns:rdf="http://www.w3.org/1999/02/22-rdf-syntax-ns#"
   xmlns:svg="http://www.w3.org/2000/svg"
   xmlns="http://www.w3.org/2000/svg"
   xmlns:xlink="http://www.w3.org/1999/xlink"
   xmlns:sodipodi="http://sodipodi.sourceforge.net/DTD/sodipodi-0.dtd"
   xmlns:inkscape="http://www.inkscape.org/namespaces/inkscape"
   version="1.1"
   id="Layer_1"
   x="0px"
   y="0px"
   viewBox="0 0 512 512"
   xml:space="preserve"
   sodipodi:docname="ps-sat-paris-pieces.svg"
   inkscape:export-filename="C:\Users\adilio\Desktop\ps-saturday-paris.png"
   inkscape:export-xdpi="96"
   inkscape:export-ydpi="96"
   style="enable-background:new 0 0 512 512;"
   inkscape:version="0.92.4 (5da689c313, 2019-01-14)"><metadata
   id="metadata87"><rdf:RDF><cc:Work
       rdf:about=""><dc:format>image/svg+xml</dc:format><dc:type
         rdf:resource="http://purl.org/dc/dcmitype/StillImage" /><dc:title></dc:title></cc:Work></rdf:RDF></metadata><defs
   id="defs85" /><sodipodi:namedview
   pagecolor="#ffffff"
   bordercolor="#666666"
   borderopacity="1"
   objecttolerance="10"
   gridtolerance="10"
   guidetolerance="10"
   inkscape:pageopacity="0"
   inkscape:pageshadow="2"
   inkscape:window-width="2591"
   inkscape:window-height="1518"
   id="namedview83"
   showgrid="false"
   inkscape:zoom="1.84375"
   inkscape:cx="129.92426"
   inkscape:cy="240.46895"
   inkscape:window-x="388"
   inkscape:window-y="95"
   inkscape:window-maximized="0"
   inkscape:current-layer="g1246" />









<g
   id="g52">
</g>
<g
   id="g54">
</g>
<g
   id="g56">
</g>
<g
   id="g58">
</g>
<g
   id="g60">
</g>
<g
   id="g62">
</g>
<g
   id="g64">
</g>
<g
   id="g66">
</g>
<g
   id="g68">
</g>
<g
   id="g70">
</g>
<g
   id="g72">
</g>
<g
   id="g74">
</g>
<g
   id="g76">
</g>
<g
   id="g78">
</g>
<g
   id="g80">
</g>
<circle
   style="opacity:0.48300003;fill:#4d4d4d;fill-opacity:1;stroke:#959caf;stroke-width:0.99258494;stroke-opacity:1"
   id="path894"
   cx="792.34247"
   cy="442.94302"
   r="256.19208" /><circle
   style="opacity:0.48300003;fill:#4d4d4d;fill-opacity:1;stroke:#959caf;stroke-width:0.79967934;stroke-opacity:1"
   id="path894-4"
   cx="-797.04749"
   cy="-230.96803"
   r="206.40199"
   transform="rotate(173.69944)" /><path
   d="m 406.32103,-130.15141 h 42.15942 c 4.90199,0 8.87546,4.14513 8.87546,9.25779 0,5.11265 -3.97347,9.25974 -8.87546,9.25974 h -42.15942 c -4.90198,0 -8.87546,-4.14514 -8.87546,-9.25974 0,-5.11266 3.97348,-9.25779 8.87546,-9.25779 z"
   id="path3774-6"
   inkscape:connector-curvature="0"
   style="clip-rule:evenodd;fill:#2c5591;fill-rule:evenodd;stroke-width:1.95065093" /><path
   d="m 398.19202,-161.82399 c -0.72564,1.46104 -2.23155,3.07228 -4.89418,4.94295 l -78.24647,56.1963 c -4.27192,3.103491 -10.40477,1.952611 -13.69552,-2.57291 -3.29074,-4.52551 -2.49683,-10.70907 1.7751,-13.81451 l 70.56089,-51.09535 v -1.04945 l -44.33439,-47.16283 c -3.61651,-3.84669 -3.24003,-10.06731 0.84073,-13.89644 4.08076,-3.82718 10.31894,-3.81157 13.93545,0.0351 l 53.1962,56.59228 c 3.01961,3.21273 3.24393,8.07765 0.86219,11.82485 z"
   id="path3776-0"
   inkscape:connector-curvature="0"
   style="clip-rule:evenodd;fill:#2c5591;fill-rule:evenodd;stroke-width:1.95065093" /><ellipse
   style="opacity:0.48300003;fill:#4d4d4d;fill-opacity:1;stroke:#959caf;stroke-width:0.97923017;stroke-opacity:1"
   id="path894-4-5"
   cx="-830.13635"
   cy="715.98248"
   transform="matrix(-0.90481855,0.42579736,0.42583535,0.90480067,0,0)"
   rx="252.7417"
   ry="252.74858" /><g
   id="g1246"><path
     id="path2"
     d="M255.997,0C397.385,0,512,114.615,512,255.997C512,397.385,397.385,512,255.997,512  C114.615,512,0,397.385,0,255.997C0,114.615,114.615,0,255.997,0z"
     style="fill:#B1E9F1;" /><path
     id="path4"
     d="M25.493,367.484l460.686,0.663c11.065-22.669,18.883-47.211,22.846-73.027l-6.962,0.012l-0.223,8.91  c-5.823,0.047-3.704,0.352-5.259-1.368c-0.035,0.933,0.229,0.74-0.922,1.268l-0.728,0.217c-0.094,0.041-0.247,0.07-0.335,0.117  c-1.115,0.575-0.628,1.679-0.634,2.489c-3.123,0.54-6.774,0.64-10.026,1.15c-2.923,0.452-0.722,0.317-3.105,0.699  c0.047,0.07,0.205,0.088,0.229,0.194c0.023,0.094,0.17,0.141,0.2,0.182c0.029,0.029,0.129,0.123,0.159,0.164l0.023,0.792  c0,0.023,0,0.1,0,0.123c0,0.023,0.018,0.106,0.023,0.129l-0.035,1.79c0,0.029,0.006,0.1,0.006,0.129l0.018,2.184  c0.006,0.023,0.023,0.1,0.029,0.123l-0.053,1.667c0,0.029,0.006,0.106,0.006,0.129c0,0.029,0.023,0.106,0.029,0.129  c0,0.029,0.018,0.106,0.018,0.129l-0.065,1.397c-0.006,0.023-0.041,0.1-0.041,0.129l0.71,0.892l-3.405-0.17l-0.276-8.188  l-10.783,0.018l-0.217,3.493l-5.811,0.006c0.029-1.626,0.129-7.15-0.282-7.684l-8.406-0.059c-0.188-10.818,2.06-21.302,3.745-31.95  l-11.458,0.969c-0.047-0.047-0.123-0.147-0.164-0.182c-0.035-0.041-0.088-0.135-0.159-0.194c-5.406,0.352-9.351,0.411-14.798,0  l-1.104,1.18l-10.801-1.737c0.863,4.714,3.622,14.305,2.729,18.578c-0.464,0.44-2.518,0.916-3.487,1.556  c-2.371,1.585-1.984-0.522-1.878,4.35c0.041,1.996,1.01,2.436-1.362,2.759c-1.808-1.092-0.411-39.628-0.663-44.312l-8.594-0.053  l2.97-6.645c-3.052-1.919-5.488-1.127-11.1-1.356c-0.106-2.847,0.088-12.374-1.597-14.334l-1.374,14.375  c-6.762,0.047-6.674-0.446-11.329,1.086l3.064,6.885l-8.787-0.006l-0.023,63.125c-1.779,0.006-0.869,0.094-1.796-0.405  c-0.898-0.481-0.663-0.387-0.387-1.121c0.106-0.276,0.217-0.047,0.229-0.499l-0.376-0.969c0.129-1.08,0.499-0.194,0.17-1.303  l-0.018-1.767c-0.247-0.787,0.288-0.834-0.006-1.767c-0.018-0.065-0.088-0.288-0.053-0.47c0.123-0.64,0.499,0.411,0.247-0.822  l-0.34-0.646c-0.088-0.886,0.569,0.135,0.352-1.133c-0.023-0.153-0.54,0.059-0.205-0.963c0.763-2.283-0.035,0.141-0.628-1.878  c-1.691-0.17-2.201-0.1-3.657-0.323c-0.951-0.147,0.493-0.076-1.644-0.252c-0.927-0.076-1.79-0.041-2.729-0.035  c0.534-6.14,1.761-10.172-0.581-16.377c-2.401-6.386-5.506-8.306-9.151-13.647l-2.753,0.587l-2.043-2.319  c-2.371,0.558-6.651,2.054-8.875,2.283l-0.769-9.204l-1.344,9.838c-5.324,2.084-10.378,1.961-12.45,5.4  c-0.916,1.52-0.428,1.696-3.598,2.195l0.035-23.708c-2.072,0.382-3.522,1.08-5.447,1.509c-0.957-3.14,0.2-14-1.239-15.743  l-1.162,16.594c-2.641,0.675-19.881,5.817-20.691,6.674c-0.681,1.509,0.158,22.499-0.029,26.215l-3.099,0.035  c-0.399,2.747-1.503-0.44-2.066,2.213c-0.094,0.423,0.153,1.115,0.029,1.567c-0.37,1.374-1.362,0.751-1.415,2.559  c-0.047,1.667-0.875,1.391-1.192,2.841c-0.288,1.315,0.792,0.875-1.074,1.256c-1.608-1.421-0.229-33.447-0.505-38.225  c-0.892-0.229-0.54-0.1-1.133-0.241l-1.098-5.923c-1.691-0.428-1.109,0.029-2.653-0.511l0.006-6.281l-3.575-0.023l-0.188-2.219  l-6.463-0.023l-0.546-7.983c-0.035,0.387-0.71,6.991-0.957,7.995l-5.459,0.018v2.101l-3.645,0.188l-0.035,12.673  c-2.917,0.041-1.608-0.147-2.195,0.481c-0.622,1.385-0.012,23.685-0.006,28.745c0.006,0.927,0.54,2.166-0.094,3.064  c-0.534,0.745,0.393,0.293-1.057,0.64c-1.779-0.411-0.939-1.221-1.203-2.137c-0.276-0.986-0.012-0.47-1.033-1.004  c-1.479-0.763-4.273-0.898-5.87-0.27c-0.094,0.035-0.194,0.094-0.282,0.135l-0.499,0.288c-1.385,0.91-0.522,1.538-0.986,2.812  l-4.602,0.223l0.393,1.614c0.023,0.047,0.088,0.117,0.1,0.158c0.006,0.041,0.035,0.112,0.035,0.153  c0.018,0.534-0.247,0.035-0.599,1.021c-0.329,0.904-0.076,3.052-0.076,4.085l0.035,6.163c0.023,1.919,0.98,0.669-0.763,1.955  c-2.295-0.505-1.362-0.053-1.344-3.498c0.006-1.285,0.029-2.571-0.018-3.851l-2.313-0.399c0.194-4.25,0.892-6.011-7.842-7.895  c-5.113,1.227-4.426,1.55-7.484,3.029c-1.045,0.499-0.023,3.616-0.323,4.496c-0.182,0.534-0.728,0.458-1.608,0.763  c-1.737,0.599-3.369,0.534-5.688,0.405l-0.076-3.493l-6.568-0.006l-0.018-9.509h-10.284l-0.023,4.203  c-4.038,0.082-2.888-0.041-5.025,1.092c-0.61,0.329-1.086,0.205-1.297,0.64c0,0.998,0.288,2.119-0.458,2.841  c-0.945,0.922-0.511-0.622-0.963,1.015c-0.129,0.458,0.082,1.057-0.053,1.544c-0.687,2.501-1.239-0.399-1.145,5.694l-0.411-0.399  c-0.035-0.053-0.123-0.141-0.158-0.211c-0.035-0.065-0.076-0.141-0.112-0.223c-0.082-0.223-0.053-0.722-0.065-0.98l-8.1-0.023  l-0.076,2.553l-4.285,0.035c0.863-1.743,0.247-3.475,0.294-5.289c0.035-1.509,0.904-0.834-1.374-1.426l0.851-0.37  c0.54-0.282,0.153,0.041,0.675-0.399c-0.1-0.047-0.252-0.188-0.299-0.135l-0.382-0.763c0.534-0.27,0.147,0.047,0.681-0.382  c-0.798-0.387,0.505-0.065-1.509-0.517l1.503-0.769l-1.503-0.769c2.489-0.499,0.481-0.012,1.503-0.511  c-0.564-0.47-0.059-0.094-0.669-0.393l-0.857-0.382c2.096-0.446,0.745-0.147,1.532-0.511c-0.546-0.458-0.076-0.106-0.669-0.399  l-0.552-0.247c-0.059-0.029-0.211-0.082-0.305-0.123l1.532-0.517l-1.573-0.769c2.078-0.54,0.945,0.164,1.497-0.769  c-1.89-0.505-1.726-1.332-3.217-2.019c-0.141-0.065-0.775-0.317-0.851-0.364l-2.694-1.397c-0.106-0.018-0.317-0.035-0.464-0.07  h-1.092c-1.426,0.434-0.992-0.012-2.066,0.487c-1.415,0.657,0.293,0.082-1.004,0.957c-3.721,0.264-11.857,0.751-14.945,1.784  l-1.702,0.622c0.417,0.511,0.927,0.44,0.916,0.822l-1.004,0.716l1.591,0.517c-1.52,0.781-0.804-0.112-1.597,0.769  c1.268,1.151,1.104,0.1,0.006,1.286c0.446,0.417,0.792,0.358,0.716,1.115c-0.006,0.035-0.023,0.117-0.023,0.153l0.018,1.602  c0.112,0.135,0.769,0.399,0.875,0.464c-1.497,0.317-0.963,0.276-1.579,0.511c1.156,0.775,0.329,0.123,1.591,0.769l-1.192,0.364  c-0.082,0.029-0.264,0.106-0.393,0.153l0.581,0.299c0.029,0.029,0.176,0.112,0.2,0.147l0.029,1.438c0,0.029,0.018,0.106,0.018,0.135  c-0.006,0.029-0.029,0.106-0.035,0.141c0,0.029-0.059,0.106-0.065,0.141l0.106,0.886c0.006,0.035,0.029,0.112,0.029,0.147  l-0.176,3.469c0.188,0.699,0.605-0.194,0.217,0.564c-0.012,0.029-0.646,0.434-0.863,0.587l0.722,0.288  c0.082,0.023,0.792,0.223,0.816,0.229l-1.55,0.769l1.033,0.405c0.957,0.505-0.076-0.405,0.499,0.364  c-0.669,0.129-0.528,0.112-1.109,0.293c-1.673,0.517,0.364-0.018-0.951,0.329c-0.182-2.254-0.81-5.817-0.029-7.296  c-0.147-0.041-0.382-0.158-0.464-0.1c-0.293,0.229-2.759-1.092-2.964-1.197l0.704-0.616c0.07-0.029,0.229-0.094,0.34-0.135  l-0.012-1.286c-1.015-0.892,0.176-0.041-1.614-0.769c2.013-0.769,0.675,0.135,1.602-0.775c-0.112-0.035-0.293-0.17-0.34-0.117  l-0.364-0.722c0.599-0.294,0.182,0.041,0.728-0.44l-1.597-0.511l1.591-0.775l-0.734-0.857c0.534-0.27,0.205,0,0.74-0.423  c-0.117-0.047-0.293-0.194-0.346-0.141l-1.233-0.376l0.904-1.045c-0.07-0.023-0.839-0.223-0.886-0.235  c0.082-0.047,0.235-0.158,0.27-0.123l1.291-0.652c-0.816-0.358,0.041-0.164-1.544-0.511l1.544-0.769l-1.644-0.828  c2.184-0.188,0.798,0.065,1.644-0.458l-1.286-0.646c-0.047-0.023-0.188-0.076-0.258-0.123c1.491-0.305,0.857-0.211,1.544-0.511  l-1.567-0.775c2.319-0.599,1.432,0.434,1.362-0.939c-14.287-0.012-3.164-0.605-11.658-1.244c-2.131-0.158-4.115-0.299-6.287-0.417  l-0.117-6.122l-1.99-0.299c-0.123-0.023-0.293-0.047-0.405-0.065l-0.787-6.821c-0.258-1.039-0.781-0.247-2.084-1.303  c-0.792-0.646-1.104-0.892-2.694-1.35c-2.231-0.646-4.08-1.391-6.222-1.972c-7.584,1.538-8.717,3.223-9.814,3.821  c-0.07,0.035-0.194,0.088-0.27,0.123l-1.35,0.423l-0.006,6.674c-0.687,0.728,0.153,0.159-1.262,0.481  c-0.933,0.211-0.428-0.17-1.902,0.288l-0.035,16.424l-2.847,0.517c-0.37,2.131,0.616,6.152-0.106,7.965  c-0.299,0.757,0.235,0.499-1.045,0.834c-1.755-0.364-1.327,0.452-1.233-2.641c0.065-2.36-1.092-7.842,0.763-9.497  c-0.1-0.047-0.293-0.164-0.34-0.117c-0.587,0.593-1.732-1.362-1.174-2.917c0.599-1.667,1.556-0.916-1.139-2.683l-6.75-5.207  c-0.1,0.059-0.211,0.088-0.247,0.194l-4.449,3.675l-15.168-0.006c-0.44,1.878,0.704,4.267-0.863,5.794  c-1.602,1.561-0.088,3.451-0.745,5.119c-0.839,1.021,0.264,0.047-1.99,0.769l-0.065,12.491l-2.236-0.006  c-1.379-0.839,0.088-0.053-0.54-0.704c-0.61-0.64-0.217-0.299-0.845-0.622c-1.233-0.628-1.432,0.628-1.415-1.667  c-2.688-0.082-2.407,0.258-3.187-0.505l-0.012-10.754l-6.011-0.018c0.018-1.972-1.221-1.409-1.203-3.598  c0.053-5.535,0.147-3.88-1.526-4.884c-1.667-1.004,1.585-0.922-7.191-0.91l-0.722,0.787c-0.065,0.047-0.182,0.106-0.258,0.153  c-0.1,0.059-0.47,0.217-0.569,0.288c-0.581,0.358-0.481-0.012-0.816,0.716c-0.059,0.129-0.041,0.857-0.035,1.027l-0.581,1.673  c-0.886,0.792-0.74,0.158-0.822,1.919c-0.094,1.931-1.28,0.528-1.186,5.923c0.012,1.074,0.54,1.385-1.039,1.691  c-1.544-0.27-0.564,0.428-1.068-0.693c-0.094-0.205-0.035-1.25-0.029-1.526c0.076-2.066,0.34-4.32-0.2-6.357  c-0.176-0.646-0.141-0.053-0.147-0.581l0.364-1.374l-15.103-0.029c0.018,0.37,0.34,1.197,0.346,1.215l-0.358,21.801l-4.262-0.006  c-0.434-0.798-1.802-2.988-3.17-3.434C11.652,334.648,17.762,351.529,25.493,367.484z"
     style="fill:#8FA3AD;" /><path
     id="path6"
     d="M24.219,364.795h463.556C446.88,451.775,358.479,512,255.997,512  C153.521,512,65.12,451.775,24.219,364.795z"
     style="fill:#ADD37F;" /><path
     id="path8"
     d="M18.508,351.717h474.979c-1.784,4.42-3.686,8.781-5.711,13.078H24.219  C22.2,360.498,20.292,356.137,18.508,351.717z"
     style="fill:#BBBBBB;" /><path
     inkscape:connector-curvature="0"
     id="path10"
     d="m 147.62741,150.98162 c 3.305,0 6.428,0.787 9.186,2.178 2.988,-2.923 7.085,-4.731 11.605,-4.731 7.819,0 14.381,5.412 16.136,12.697 3.909,1.174 7.044,4.127 8.476,7.918 0.47,-0.053 0.945,-0.076 1.426,-0.076 7.226,0 13.09,5.858 13.09,13.09 0,7.232 -5.864,13.09 -13.09,13.09 -2.254,0 -4.373,-0.569 -6.222,-1.567 -1.585,5.436 -6.609,9.409 -12.567,9.409 -3.633,0 -6.921,-1.479 -9.298,-3.88 -2.371,2.401 -5.664,3.88 -9.298,3.88 -3.457,0 -6.604,-1.344 -8.946,-3.528 -2.389,2.612 -5.829,4.256 -9.662,4.256 -3.581,0 -6.821,-1.432 -9.18,-3.763 -1.086,0.241 -2.213,0.364 -3.358,0.364 -8.617,0 -15.596,-6.985 -15.596,-15.596 0,-8.611 6.979,-15.596 15.596,-15.596 0.464,0 0.933,0.023 1.391,0.07 1.105,-10.244 9.775,-18.215 20.311,-18.215 z"
     style="fill:#ffffff" /><g
     id="g40">
	<g
   id="g16">
		<polygon
   id="polygon12"
   points="255.733,2.442 254.236,34.116 257.277,34.116   "
   style="fill:#263238;" />
		<path
   id="path14"
   d="M255.932,427.251L255.932,427.251c-0.065,0-0.129,0-0.2,0c-0.059,0-0.123,0-0.188,0l0,0    c-40.825,0.205-73.984,32.807-75.082,73.415c2.712,0.839,5.447,1.614,8.194,2.366l-0.023-0.91    c0-37.15,30.007-67.286,67.099-67.515c37.103,0.229,67.104,30.365,67.104,67.515c0,0.323-0.006,0.681-0.023,1.051    c2.753-0.74,5.488-1.52,8.2-2.354C329.999,460.14,296.804,427.456,255.932,427.251z"
   style="fill:#263238;" />
	</g>
	<polygon
   id="polygon18"
   points="255.932,30.84 255.932,30.33 255.733,30.588 255.545,30.33 255.545,30.84 247.433,41.547    247.433,54.197 255.545,54.197 255.932,54.197 264.039,54.197 264.039,41.547  "
   style="fill:#252A2D;" />
	<g
   id="g28">
		<path
   id="path20"
   d="M236.051,345.536h-6.375l-1.696,6.398L236.051,345.536z M348.383,494.807l-1.591,0.605    l-4.279-3.152l1.285,4.285l-1.35,0.475l-1.309-4.338l-3.71,6.087c-0.693,0.235-1.397,0.452-2.09,0.675l5.242-8.599l-13.307-9.809    l0.082-0.939v-0.722l-0.687-0.2l3.622-12.215l-18.696-13.736l0.428-0.581v-0.716h9.374l-4.291-9.674l-4.232,11.024l-1.338-0.517    l4.608-11.98l-21.02-13.976l0.792-1.192l19.594,13.025l-5.383-12.139l1.309-0.575l5.576,12.585l4.813-12.556l1.338,0.511    l-5.277,13.759l17.797,11.828l-0.399,0.593l0,0l0.687,0.205l-4.021,13.548l16.882,12.403l-0.423,0.575l0.61,0.376l-6.533,10.718    L348.383,494.807z M176.249,499.315c-0.681-0.223-1.368-0.434-2.049-0.669l-4.432-7.555l-2.119,5.248l-1.338-0.511l1.667-4.132    l-4.05,3.228c-0.517-0.2-1.045-0.387-1.556-0.593l6.339-5.048l-6.269-10.677l0.622-0.364l-0.417-0.581l1.021-0.728v-0.534h0.751    l15.397-10.983l-4.308-12.221l0.681-0.241l-0.405-0.593l17.439-11.728l-4.925-14.188l1.356-0.47l4.625,13.33l5.97-13.389    l1.309,0.587l-5.436,12.18l19.429-13.066l0.399,0.593l0.605,0.387l-17.369,26.949l-1.203-0.781l15.461-24.008l-18.42,12.385    l-0.059,0.141l4.226,12.203l-0.364,0.129l-16.717,11.916l-0.464,0.763l3.733,10.578l-0.681,0.235v0.722l-0.534,0.974    l-13.595,10.83L176.249,499.315z M339.901,488.556l-2.548-8.458h-8.946L339.901,488.556z M338.85,480.097l2.735,9.098l5.553-9.098    H338.85z M336.69,478.665l-5.377-10.108l-3,10.108H336.69z M329.018,464.243l-5.794-10.883h-9.016L329.018,464.243z     M324.851,453.36l6.081,11.44l3.399-11.44H324.851z M333.233,469.115l5.083,9.55h7.913L333.233,469.115z M318.805,442.548    l4.156,9.38h9.961L318.805,442.548z M169.528,487.857l4.502-10.983l1.332,0.534l-4.015,9.773l11.746-9.351h-18.214l-0.869,0.616    L169.528,487.857z M173.789,476.399l5.347-8.74l-12.25,8.74H173.789z M181.05,464.542l6.651-10.871H177.2l3.833,10.877    L181.05,464.542z M189.38,453.671l-5.353,8.74l12.256-8.74H189.38z M180.687,467.87l-5.218,8.529h8.224L180.687,467.87z     M188.511,452.239l4.273-9.586l-14.252,9.586H188.511z M194.111,443.199l-4.027,9.04h7.167L194.111,443.199z M257.388,187.478    l4.584-7.114l-5.518-7.079h-1.432l-5.089,6.539l4.719,7.654H257.388z M262.794,179.09l3.739-5.805h-8.265L262.794,179.09z     M267.842,172.574l0.605,0.387l-4.719,7.326l5.817,7.466l-0.564,0.44l0.581,0.417l-5.113,7.132l6.375,8.341l-0.569,0.434    l0.475,0.534l-5.265,4.661l6.146,4.884l-0.446,0.564l0.493,0.517l-5.377,5.072l5.823,4.714l-0.47,0.581h0.61v0.716l0.458,0.546    l-5.594,4.714l6.656,4.984l-0.428,0.575l0.528,0.481l-6.017,6.598l6.128,5.694h0.828v0.716l0.587,0.399l-5.6,8.212l7.666,8.464    l-0.528,0.481l0,0l0.587,0.405l-5.606,8.024l7.907,8.241l-0.44,0.423v0.558l0.564,0.434l-5.788,7.513l8.359,8.036l-0.992,1.027    l-8.241-7.918l-6.046,7.842l-0.569-0.434l-0.458,0.552l-10.519-8.723l-10.413,8.717l-0.464-0.546l-0.569,0.428l-5.993-8.048    l-8.206,7.625l-0.974-1.045l8.323-7.731l-5.788-7.783l0.569-0.428l0,0l-0.517-0.499l8.177-8.511l-5.066-7.449h-0.235v-1.432h0.288    l7.108-8.147l-5.835-8.353l0.593-0.411l-0.481-0.534l7.05-6.334l-5.629-6.269l0.534-0.475l-0.423-0.581l6.568-4.825l-5.547-4.667    l0.464-0.546l0,0l-0.458-0.552l6.727-5.571l-5.553-4.942l0.475-0.534l-0.446-0.558l6.087-4.878l-5.242-4.672l0.428-0.481    l-0.053-0.041l0.1-0.141v-0.587h0.417l5.424-7.613l-5.195-7.59l0.587-0.405l-0.564-0.44l6.24-8.018l-3.974-6.451h-0.575v-0.716    l-0.581-0.417l5.418-7.472l-4.455-6.604l0.593-0.399l-0.575-0.423l5.072-7.02l-4.191-6.639l0.605-0.382l0,0l-0.552-0.458    l4.69-5.694l-4.097-5.582l0.575-0.423l-0.546-0.458l4.52-5.347l-3.968-5.095l0.569-0.44l-0.546-0.47l4.537-5.224l-3.052-4.209    h-0.446v-0.716l-0.564-0.446l4.179-5.259l-2.853-3.862h-0.323v-1.432h0.335l2.953-3.798l-3.481-4.461l0.558-0.44l-0.552-0.458    l3.622-4.397l-2.542-3.369h-0.205v-0.282l-0.006-0.006l0.006-0.006v-1.139h0.223l2.683-3.311l-2.976-3.727h-0.247v-1.092    l-0.018-0.012l0.018-0.018v-0.311h0.2l3.135-4.913l-3.058-4.843l1.215-0.763l2.694,4.273l2.729-4.279l0.798,0.511l0.798-0.511    l2.471,3.88l2.113-3.839l1.256,0.693l-2.495,4.514l3.369,5.277h0.217v1.432h-0.264l-2.782,3.557l3.24,3.727l-0.54,0.47    l0.546,0.458l-3.123,3.739l3.475,4.291l-0.552,0.452l0.564,0.434l-3.299,4.297l3.68,4.215l-0.54,0.475l0.569,0.434l-3.469,4.485    l3.839,4.919l-0.569,0.44l0.558,0.446l-3.704,4.62l4.22,5.095l-0.552,0.458l0.569,0.428l-3.909,5.195l4.443,5.254l-0.546,0.464    l0.575,0.434l-4.068,5.43l4.672,5.846l-0.564,0.446l0.599,0.387l-4.132,6.322l5.054,6.445l-0.751,0.593h0.188v0.71l0.587,0.411    l-4.684,6.692l5.612,7.367L267.842,172.574z M262.906,181.561l-3.815,5.917h8.423L262.906,181.561z M266.398,171.858l-4.461-5.852    l-4.097,5.852H266.398z M261.028,164.809l-4.895-6.422h-1.315l-4.584,6.322l4.819,7.15h1.415l-0.252-0.176L261.028,164.809z     M257.928,158.387l3.956,5.195l3.639-5.195H257.928z M256.097,156.96l4.549-6.956l-4.766-6.075h-0.44l-4.59,6.357l4.038,6.392    l0.387,0.282H256.097z M261.474,148.737l3.146-4.807h-6.921L261.474,148.737z M261.579,151.19l-3.774,5.77h8.294L261.579,151.19z     M264.456,142.497l-3.51-4.391l-3.287,4.391H264.456z M260.024,136.95l-4.138-5.177h-0.006l-4.397,5.342l3.95,5.383h0.434    L260.024,136.95z M257.717,131.773l3.193,3.992l2.988-3.992H257.717z M255.88,130.329l3.716-4.937l-3.868-4.567l-3.768,4.461    L255.88,130.329z M260.482,124.218l2.853-3.792h-6.058L260.482,124.218z M260.546,126.513l-2.882,3.827h6.116L260.546,126.513z     M263.246,119l-3.064-3.692L257.224,119H263.246z M259.255,114.181l-3.311-4.003l-3.405,3.921l3.217,4.438L259.255,114.181z     M257.5,109.814l2.671,3.228l2.583-3.228H257.5z M255.944,107.912l3.223-4.168l-3.287-4.215h-0.153l-3.093,3.898L255.944,107.912z     M260.065,102.576l2.354-3.046h-4.725L260.065,102.576z M260.071,104.906l-2.683,3.475h5.389L260.071,104.906z M262.301,98.097    l-2.459-2.812l-2.16,2.812H262.301z M258.885,94.188l-3.205-3.663l-2.923,3.768l2.97,3.804h0.153L258.885,94.188z M257.23,90.114    l2.542,2.917l2.242-2.917H257.23z M255.68,88.248l3.017-3.61l-2.812-3.463h-0.17l-2.8,3.405L255.68,88.248z M259.631,83.517    l1.961-2.342h-3.862L259.631,83.517z M259.613,85.771l-2.43,2.911h4.784L259.613,85.771z M261.55,79.742l-2.025-2.33l-1.826,2.33    H261.55z M258.568,76.308l-2.782-3.205l-2.7,3.334l2.641,3.305h0.153L258.568,76.308z M257.335,72.704l2.137,2.454l1.919-2.454    H257.335z M255.721,70.579l2.501-4.526l-2.483-3.886l-2.683,4.197L255.721,70.579z M259.096,67.427l-2.119,3.845h4.578    L259.096,67.427z M257.752,203.802l-0.552-0.393l5.471-7.637l-5.248-6.862h-3.358l-5.195,7.296l5.201,7.596H257.752z     M263.54,194.557l4.05-5.647h-8.365L263.54,194.557z M263.581,196.964l-4.907,6.838h10.137L263.581,196.964z M252.968,187.478    l-3.974-6.445l-5.013,6.445H252.968z M245.907,173.285l3.228,5.242l4.074-5.242H245.907z M248.008,194.95l4.303-6.04h-8.435    L248.008,194.95z M247.991,197.445l-4.526,6.357h8.875L247.991,197.445z M249.382,163.447l3.663-5.06h-7.073L249.382,163.447z     M249.341,165.941l-4.291,5.917h8.277L249.341,165.941z M253.367,156.96l-3.422-5.424l-3.921,5.424H253.367z M246.828,143.929    l3.193,5.054l3.651-5.054H246.828z M250.609,135.923l3.416-4.15h-6.463L250.609,135.923z M250.544,138.253l-3.498,4.244h6.615    L250.544,138.253z M254.083,130.341l-3.064-3.939l-3.328,3.939H254.083z M248.184,120.426l2.876,3.704l3.129-3.704H248.184z     M251.677,112.913l2.683-3.099h-4.931L251.677,112.913z M251.577,115.208L248.29,119h6.034L251.577,115.208z M254.512,108.381    l-2.8-3.792l-3.017,3.792H254.512z M249.757,99.53l1.996,2.7l2.143-2.7H249.757z M251.847,93.131l2.342-3.017h-4.702    L251.847,93.131z M251.853,95.462l-2.054,2.636h4.115L251.853,95.462z M254.213,88.682l-2.236-2.964l-2.436,2.964H254.213z     M250.344,81.175l1.685,2.231l1.837-2.231H250.344z M252.17,75.293l2.096-2.589h-4.162L252.17,75.293z M252.164,77.576    l-1.755,2.166h3.487L252.164,77.576z M254.465,71.272l-2.26-3.575l-2.283,3.575H254.465z M269.116,214.444l-4.737-3.768    l-4.256,3.768H269.116z M263.24,209.772l-5.711-4.537h-3.581l-5.676,4.543l5.236,4.667h4.461L263.24,209.772z M259.83,205.234    l4.502,3.575l4.038-3.575H259.83z M247.192,208.815l4.461-3.581h-8.488L247.192,208.815z M247.139,210.687l-4.684,3.757h8.899    L247.139,210.687z M270.548,226.043l-5.318-4.303l-4.561,4.303H270.548z M264.109,220.831l-5.641-4.567l-2.013,3.886l2.63,5.418    L264.109,220.831z M260.259,215.876l4.901,3.962l4.203-3.962H260.259z M252.657,226.043l-0.047-0.029l-0.023,0.029H252.657z     M252.399,224.869l2.454-4.737l-1.861-3.839l-5.301,4.385L252.399,224.869z M255.674,218.541l1.385-2.665h-2.677L255.674,218.541z     M255.633,221.74l-2.231,4.303h4.32L255.633,221.74z M251.559,226.043l-4.984-4.443l-5.371,4.443H251.559z M242.297,215.876    l4.308,3.839l4.643-3.839H242.297z M271.165,236.844l-5.183-3.874l-4.537,3.821L271.165,236.844z M264.802,232.089l-5.758-4.303    l-2.448,3.698l3.199,4.825L264.802,232.089z M261.022,227.469l4.907,3.675l4.35-3.675H261.022z M251.683,236.309l3.199-4.825    l-2.454-3.704l-5.811,4.267L251.683,236.309z M255.739,230.187l1.796-2.718h-3.592L255.739,230.187z M255.739,232.782    l-2.624,3.962l5.265,0.029L255.739,232.782z M249.951,236.726l-4.52-3.804l-5.107,3.751L249.951,236.726z M241.181,227.469    l4.308,3.633l4.937-3.633H241.181z M244.322,243.166l5.571-5.007l-10.12-0.059L244.322,243.166z M251.7,238.458l-6.428,5.776    l5.113,5.688l4.637-6.521L251.7,238.458z M244.21,245.191l-5.664,5.089l10.249,0.018L244.21,245.191z M259.666,250.321    l-3.792-5.647l-4.009,5.629L259.666,250.321z M253.232,238.176l2.677,3.986l2.812-3.956L253.232,238.176z M256.76,243.43    l4.355,6.48l4.719-5.171l-6.022-5.594L256.76,243.43z M266.798,243.682l4.925-5.4l-10.806-0.065L266.798,243.682z M266.88,245.713    l-4.203,4.614l9.192,0.018L266.88,245.713z M273.436,251.8l-0.023-0.018l-10.789-0.023l6.181,6.827L273.436,251.8z     M275.315,267.901l-6.351-7.009l-4.784,7.009H275.315z M267.977,259.801l-6.885-7.602l-4.549,6.275l6.269,8.893L267.977,259.801z     M248.666,266.897l6.122-8.441l-4.402-6.234l-6.645,7.625L248.666,266.897z M255.674,257.236l3.974-5.482l-7.854-0.018    L255.674,257.236z M255.657,259.695l-5.952,8.206h11.74L255.657,259.695z M247.621,267.901l-4.849-6.938l-6.052,6.938H247.621z     M238.059,251.706l4.837,6.932l6.022-6.909L238.059,251.706z M240.841,275.726l6.134-6.392h-10.478L240.841,275.726z     M248.642,269.668l-6.979,7.267l5.242,7.713l7.801-8.37L248.642,269.668z M240.653,277.991l-6.815,7.097l11.722,0.123    L240.653,277.991z M255.686,275.233l5.494-5.899h-10.9L255.686,275.233z M262.83,269.662l-6.175,6.627l7.965,8.693l5.441-7.783    L262.83,269.662z M255.674,277.34l-7.361,7.901l14.739,0.147L255.674,277.34z M270.895,276.002l4.661-6.668h-11.053    L270.895,276.002z M271.071,278.25l-5.013,7.173l12.016,0.117L271.071,278.25z M272.233,294.363l-7.572-7.279l-7.86,6.58    l9.75,8.083L272.233,294.363z M266.492,286.855l6.621,6.369l4.813-6.251L266.492,286.855z M244.932,301.735l9.632-8.065    l-7.772-6.445l-7.49,6.95L244.932,301.735z M255.68,292.737l7.067-5.917l-14.381-0.147L255.68,292.737z M233.609,286.52    l4.837,6.498l6.868-6.375L233.609,286.52z M226.524,321.658l-1.133-0.875l4.719-6.128l-2.454-5.048l1.291-0.628l2.143,4.408    l3.487-4.532l0.564,0.44h0.006l0.587-0.405l3.434,5.077l4.25-5.13l0.552,0.458l0.511-0.505l4.643,4.79l5.747-4.837l0.464,0.552    l0.452-0.552l6.146,5.101l5.072-5.06l0.505,0.511l0.552-0.458l3.997,4.866l2.542-4.749l0.634,0.34l0,0l0.54-0.47l4.35,5.048    l2.407-4.895l1.285,0.628l-2.677,5.441l4.925,5.706l-1.086,0.933l-4.526-5.242l-2.506,5.095l-0.64-0.317l0,0l-0.558,0.452    l-4.443-5.412l-2.571,4.807l-0.634-0.335l-0.458,0.552l-6.621-5.512l-5.97,5.952l-0.505-0.505l0,0l-0.511,0.499l-6.005-6.187    l-6.105,5.13l-0.464-0.546l-0.587,0.399l-2.823-4.168l-4.402,5.33l-0.552-0.458l-0.646,0.311l-2.641-5.436L226.524,321.658z     M234.22,311.673l-2.43,3.152l1.82,3.757L234.22,311.673z M235.012,318.993l3.205-3.88l-2.536-3.751L235.012,318.993z     M244.011,310.358l-4.009,4.843l2.612,3.857l5.412-4.555L244.011,310.358z M254.641,310.81l-4.514,3.798l4.667,4.813    L254.641,310.81z M260.91,314.86l-4.837-4.021l0.158,8.687L260.91,314.86z M263.035,314.76l5.846,4.86l2.442-4.555l-3.868-4.708    L263.035,314.76z M274.88,311.462l-1.843,3.44l3.099,3.768L274.88,311.462z M277.633,318.934l1.802-3.669l-3.052-3.545    L277.633,318.934z M281.402,344.104l-1.215-6.152l-5.33,6.152H281.402z M279.617,335.076l-1.203-6.081l1.409-0.276l1.197,6.081    l5.559-6.41l1.08,0.933l-6.199,7.15l10.225,7.772l-0.434,0.575l0.575,0.423l-6.181,8.458l12.156,9.632l-0.446,0.564l0,0    l0.546,0.464l-6.932,8.212l13.565,9.474l-0.405,0.587v0.716h-22.587v-0.716l-0.546-0.458l7.872-9.327l-11.975-8.365l0.411-0.587    l-0.575-0.423l6.95-9.509l-10.83-8.588l0.44-0.558l0,0l-0.54-0.47l6.633-7.66l-9.556-7.261l0.863-1.145L279.617,335.076z     M281.754,338.492l1.104,5.612h6.269L281.754,338.492z M286.403,363.181l-2.049-7.719l-5.641,7.719H286.403z M283.415,351.934    l-1.696-6.398h-6.369L283.415,351.934z M283.204,345.536l1.767,6.662l4.872-6.662H283.204z M285.91,355.732l1.972,7.449h7.42    L285.91,355.732z M292.337,381.918l-2.542-7.954l-6.715,7.954H292.337z M288.886,371.111l-2.078-6.498h-7.226L288.886,371.111z     M288.311,364.613l2.06,6.451l5.447-6.451H288.311z M291.533,374.709l2.307,7.208h8.012L291.533,374.709z M228.538,344.104    l1.109-5.612l-7.373,5.612H228.538z M230.381,334.8l1.197-6.081l1.403,0.276l-1.197,6.081l8.928-6.791l0.863,1.145l-9.556,7.261    l6.633,7.66l-0.54,0.47l0,0l0.44,0.558l-10.83,8.588l6.95,9.509l-0.575,0.423l0.411,0.587l-11.975,8.365l7.871,9.327l-0.546,0.458    v0.716h-22.587v-0.716l-0.411-0.587l13.565-9.474l-6.926-8.212l0.54-0.464l0,0l-0.44-0.564l12.157-9.632l-6.187-8.458l0.575-0.423    l-0.428-0.575l10.219-7.772l-6.193-7.15l1.08-0.933L230.381,334.8z M231.214,337.952l-1.215,6.152h6.545L231.214,337.952z     M228.197,345.536h-6.639l4.872,6.662L228.197,345.536z M223.519,363.181l1.972-7.449l-9.392,7.449H223.519z M227.047,355.468    l-2.049,7.713h7.69L227.047,355.468z M217.561,381.918l2.301-7.208l-10.319,7.208H217.561z M221.03,371.064l2.06-6.451h-7.508    L221.03,371.064z M224.593,364.613l-2.072,6.498l9.298-6.498H224.593z M221.605,373.964l-2.542,7.954h9.251L221.605,373.964z"
   style="fill:#263238;" />
		<path
   id="path22"
   d="M284.801,319.926h-29.596h-0.382h-29.59c-0.54,3.164-1.104,6.263-1.673,9.274h16.858h14.405h0.382    h14.405h16.858C285.898,326.189,285.341,323.09,284.801,319.926z"
   style="fill:#263238;" />
		<path
   id="path24"
   d="M313.369,405.45h-57.437h-0.387h-57.437c-3.011,7.132-6.069,14.07-9.128,20.762h66.564h0.387    h66.564C319.439,419.52,316.38,412.582,313.369,405.45z"
   style="fill:#263238;" />
		<path
   id="path26"
   d="M186.709,502.503l-0.006-0.382c0-19.095,7.713-36.393,20.192-48.949    c12.485-12.562,29.749-20.368,48.832-20.486h0.018c19.089,0.117,36.352,7.924,48.837,20.486    c12.473,12.556,20.186,29.854,20.186,48.949l-0.006,0.522c-1.303,0.364-2.606,0.716-3.909,1.062    c0.029-0.575,0.053-1.115,0.053-1.585c0-18.044-7.279-34.38-19.06-46.231c-11.787-11.857-28.093-19.241-46.114-19.359    c-18.015,0.117-34.315,7.502-46.102,19.359c-11.787,11.851-19.059,28.193-19.059,46.231c0,0.429,0.018,0.922,0.047,1.438    C189.309,503.219,188.006,502.866,186.709,502.503z M357.634,491.009c-1.18,0.511-2.371,1.021-3.563,1.514    c-15.573-27.682-46.167-85.923-64.187-145.79c-23.532-78.163-28.686-263.129-29.191-283.668h-4.76h-0.387h-4.755    c-0.511,20.539-5.664,205.504-29.197,283.668c-17.985,59.744-48.491,117.861-64.093,145.614c-1.192-0.493-2.377-1.004-3.557-1.52    c15.45-27.448,45.99-85.524,63.952-145.197c24.753-82.231,29.079-283.949,29.085-284.531l1.931,0.035v-1.931h6.633h0.387h6.633    v1.931l1.925-0.035c0.012,0.581,4.338,202.299,29.085,284.531C311.585,405.444,342.22,463.638,357.634,491.009z M255.932,400.584    h-0.387h-29.948h-2.524l0.663-2.436c10.848-39.886,15.491-69.517,15.502-69.599l3.804,0.622    c-0.012,0.082-4.52,28.798-14.921,67.551h27.424h0.387h27.424c-10.407-38.753-14.91-67.468-14.921-67.551l3.798-0.622    c0.012,0.082,4.661,29.713,15.502,69.599l0.663,2.436h-2.524H255.932z"
   style="fill:#263238;" />
	</g>
	<polygon
   id="polygon30"
   points="255.932,391.609 255.545,391.609 190.642,391.609 190.642,405.45 255.545,405.45    255.932,405.45 320.836,405.45 320.836,391.609  "
   style="fill:#252A2D;" />
	<g
   id="g38">
		<polygon
   id="polygon32"
   points="255.938,400.085 255.539,400.085 187.818,400.085 187.818,405.45 255.539,405.45     255.938,405.45 323.653,405.45 323.653,400.085   "
   style="fill:#263238;" />
		<polygon
   id="polygon34"
   points="255.932,53.756 255.545,53.756 244.334,53.756 244.334,61.868 255.545,61.868     255.932,61.868 267.144,61.868 267.144,53.756   "
   style="fill:#263238;" />
		<path
   id="path36"
   d="M256.144,302.774h-0.81h-34.386v6.521h34.386h0.81h34.386v-6.521H256.144z M241.14,326.929h14.405    h0.387h14.399v3.857h-14.399h-0.387H241.14V326.929z"
   style="fill:#263238;" />
	</g>
</g><path
     inkscape:connector-curvature="0"
     id="path42"
     d="m 307.26989,11.486527 c 19.112,0 34.609,15.496 34.609,34.608997 0,19.113 -15.496,34.609 -34.609,34.609 -19.113,0 -34.609,-15.496 -34.609,-34.609 0,-19.112997 15.497,-34.608997 34.609,-34.608997 z"
     style="fill:#ffff00" /><path
     inkscape:connector-curvature="0"
     id="path44"
     d="m 328.43695,136.77902 c 1.743,0 3.387,0.417 4.843,1.15 1.579,-1.544 3.733,-2.495 6.116,-2.495 4.121,0 7.572,2.859 8.5,6.698 2.06,0.616 3.716,2.166 4.467,4.168 0.247,-0.029 0.493,-0.041 0.751,-0.041 3.81,0 6.897,3.088 6.897,6.897 0,3.81 -3.088,6.897 -6.897,6.897 -1.186,0 -2.301,-0.299 -3.275,-0.822 -0.839,2.865 -3.487,4.954 -6.621,4.954 -1.919,0 -3.657,-0.781 -4.907,-2.043 -1.244,1.262 -2.982,2.043 -4.895,2.043 -1.826,0 -3.481,-0.704 -4.714,-1.861 -1.262,1.379 -3.076,2.248 -5.089,2.248 -1.89,0 -3.598,-0.757 -4.843,-1.99 -0.569,0.129 -1.162,0.194 -1.767,0.194 -4.537,0 -8.218,-3.68 -8.218,-8.218 0,-4.538 3.68,-8.212 8.218,-8.212 0.247,0 0.493,0.012 0.734,0.029 0.58,-5.393 5.153,-9.596 10.7,-9.596 z"
     style="fill:#ffffff" /><text
     transform="rotate(-1.1233973,6454.8261,28679.74)"
     id="text943"
     style="font-style:normal;font-weight:normal;font-size:56.16793823px;line-height:1.25;font-family:sans-serif;letter-spacing:0px;word-spacing:0px;fill:#000000;fill-opacity:1;stroke:#000000;stroke-width:2;stroke-miterlimit:4;stroke-dasharray:none;"
     xml:space="preserve"><textPath
       style="fill:#ffffff;stroke:#000000;stroke-width:2;stroke-miterlimit:4;stroke-dasharray:none;"
       id="textPath945"
       xlink:href="#path894-4"><tspan
   x="-167.5457"
   y="-182.27373"
   style="font-style:normal;font-variant:normal;font-weight:normal;font-stretch:normal;font-size:56px;font-family:sans-serif;-inkscape-font-specification:'sans-serif, Normal';font-variant-ligatures:normal;font-variant-caps:normal;font-variant-numeric:normal;font-feature-settings:normal;text-align:start;writing-mode:lr-tb;text-anchor:start;fill:#ffffff;stroke:#000000;stroke-width:2;stroke-miterlimit:4;stroke-dasharray:none;"
   id="tspan939"><tspan
   id="tspan1042"
   style="fill:#0000ff;stroke:#000000;">Pow</tspan>erS<tspan
   id="tspan1044"
   style="fill:#ff0000;stroke:#000000;">hell</tspan>       <tspan
   id="tspan1046"
   style="fill:#0000ff;stroke:#000000;">Sat</tspan>ur<tspan
   id="tspan1048"
   style="fill:#ff0000;stroke:#000000;">day</tspan></tspan></textPath></text>
<g
     style="fill:#2c5591;fill-opacity:1;stroke:#000000;stroke-opacity:1"
     transform="matrix(0.34079067,0,0,0.34079067,124.09146,112.26058)"
     id="g988"><g
       style="opacity:0.8"
       id="g1181"><path
         style="clip-rule:evenodd;fill:#2c5591;fill-rule:evenodd;stroke:#000000;stroke-width:1.95065093;stroke-opacity:1;fill-opacity:1"
         inkscape:connector-curvature="0"
         id="path3778-0"
         d="m 575.34313,-197.33225 c -0.72564,1.46104 -2.23155,3.07228 -4.89418,4.94295 l -78.24647,56.1963 c -4.27192,3.10349 -10.40477,1.9526 -13.69552,-2.57291 -3.29074,-4.52551 -2.49683,-10.70907 1.7751,-13.81451 l 70.56089,-51.09535 v -1.04945 l -44.33439,-47.16284 c -3.61651,-3.84668 -3.24003,-10.06731 0.84073,-13.89643 4.08076,-3.82718 10.31894,-3.81158 13.93545,0.0351 l 53.1962,56.59228 c 3.01961,3.21273 3.24393,8.07765 0.86219,11.82485 z" /><path
         style="clip-rule:evenodd;fill:#2c5591;fill-rule:evenodd;stroke:#000000;stroke-width:1.95065093;stroke-opacity:1;fill-opacity:1"
         inkscape:connector-curvature="0"
         id="path3780-9"
         d="m 548.74795,-155.30548 h 42.15942 c 4.90199,0 8.87546,3.93057 8.87546,8.77793 0,4.84737 -3.97347,8.77793 -8.87546,8.77793 h -42.15942 c -4.90198,0 -8.87546,-3.93056 -8.87546,-8.77793 0,-4.84736 3.97348,-8.77793 8.87546,-8.77793 z" /></g></g><text
     transform="translate(-800.86424,-46.788896)"
     y="-66.731705"
     x="-724.07733"
     id="text1023"
     style="font-style:normal;font-weight:normal;font-size:40px;line-height:1.25;font-family:sans-serif;letter-spacing:0px;word-spacing:0px;fill:#000000;fill-opacity:1;stroke:#333333;stroke-width:2;stroke-miterlimit:4;stroke-dasharray:none;"
     xml:space="preserve"><textPath
       style="font-style:normal;font-variant:normal;font-weight:normal;font-stretch:normal;font-size:64px;font-family:sans-serif;-inkscape-font-specification:'sans-serif, Normal';font-variant-ligatures:normal;font-variant-caps:normal;font-variant-numeric:normal;font-feature-settings:normal;text-align:start;letter-spacing:6.46000147px;writing-mode:lr-tb;text-anchor:start;fill:#ffffff;stroke:#333333;"
       id="textPath1025"
       xlink:href="#path894-4-5"><tspan
   x="-793.4082"
   y="-174.2231"
   style="font-style:normal;font-variant:normal;font-weight:normal;font-stretch:normal;font-size:64px;font-family:sans-serif;-inkscape-font-specification:'sans-serif, Normal';font-variant-ligatures:normal;font-variant-caps:normal;font-variant-numeric:normal;font-feature-settings:normal;text-align:start;letter-spacing:6.46000147px;writing-mode:lr-tb;text-anchor:start;fill:#ffffff;stroke:#000000;stroke-width:2;stroke-miterlimit:4;stroke-dasharray:none;stroke-opacity:1"
   id="tspan1015">Paris       2019</tspan></textPath></text>
<rect
     style="fill:none;stroke-width:0.97003782"
     y="385.83148"
     x="193.91759"
     height="124.16484"
     width="124.16484"
     id="_x3C_Slice_x3E__7_" /><g
     transform="translate(-7.7508511)"
     id="g1177"><path
       d="m 302.32998,440.66869 c 0,-10.44925 -4.55142,-19.86832 -11.81506,-26.47233 -6.57686,-5.98029 -15.37607,-9.64994 -25.06384,-9.70426 v -0.003 c -0.0359,0 -0.0718,9.7e-4 -0.10767,9.7e-4 -0.0359,0 -0.0718,-9.7e-4 -0.10768,-9.7e-4 v 0.003 c -20.38728,0.11349 -36.8789,16.26559 -36.8789,36.17659 0,5.28768 0.83909,10.41239 1.03794,15.63022 0.002,-0.0291 0.004,-0.0495 0.004,-0.0495 0,0 -9.7e-4,0.0204 -0.004,0.0495 0.007,0.17073 0.0184,0.34048 0.0233,0.51024 0.099,3.30783 0.25124,6.62051 0.55487,9.9167 1.31634,8.75556 5.21783,21.23509 16.38103,30.35151 5.29155,4.32152 11.94407,8.47522 18.77605,8.49268 0.0349,0 0.0708,0 0.10573,0 0,0 0.10768,0 0.21535,0 0.0378,0 0.0757,0 0.11252,0 6.82616,-0.0175 13.4748,-4.16631 18.76345,-8.48298 11.13312,-9.08537 15.04722,-21.5135 16.37715,-30.26809 0.30944,-3.32723 0.46464,-6.67095 0.56359,-10.00982 0.16199,-5.39438 1.06219,-10.68012 1.06219,-16.14046 z"
       id="path2-0"
       inkscape:connector-curvature="0"
       style="fill:#59b4d9;stroke-width:0.97003782" /><path
       d="m 265.13,507.57123 c -6.13646,-0.0155 -12.69101,-2.94019 -20.04195,-8.94375 -11.62979,-9.49764 -15.71462,-22.42824 -17.09304,-31.60286 l -0.009,-0.0563 -0.005,-0.0572 c -0.26967,-2.92175 -0.44331,-6.01811 -0.56262,-10.04086 -0.003,-0.0815 -0.0252,-0.55486 -0.0252,-0.55486 -0.0854,-2.17871 -0.29005,-4.40397 -0.48696,-6.55649 -0.27064,-2.946 -0.55001,-5.99192 -0.55001,-9.08925 0,-20.28058 16.36744,-36.98851 36.87889,-38.11667 v -0.0601 l 4.21676,-0.003 v 0.0621 c 9.10186,0.49957 17.70513,4.06834 24.41003,10.16503 7.92424,7.20544 12.46984,17.39375 12.46984,27.95261 0,3.09539 -0.28131,6.13937 -0.55292,9.08246 -0.21632,2.33682 -0.43846,4.75319 -0.50927,7.11814 -0.12126,4.06931 -0.29781,7.19574 -0.57136,10.13593 l -0.006,0.0572 -0.009,0.0572 c -1.39006,9.15037 -5.48362,22.04508 -17.09012,31.5175 -7.3461,5.9958 -13.8958,8.91756 -20.02352,8.93405 H 265.13 Z"
       id="path4-9"
       inkscape:connector-curvature="0"
       style="opacity:0.75;fill:#1e1e1e;stroke-width:0.97003782" /><path
       d="m 302.32998,440.66869 c 0,-10.44925 -4.55142,-19.86832 -11.81506,-26.47233 -6.57686,-5.98029 -15.37607,-9.64994 -25.06384,-9.70426 v -0.003 c -0.0359,0 -0.0718,9.7e-4 -0.10767,9.7e-4 -0.0359,0 -0.0718,-9.7e-4 -0.10768,-9.7e-4 v 0.003 c -20.38728,0.11349 -36.8789,16.26559 -36.8789,36.17659 0,5.28768 0.83909,10.41239 1.03794,15.63022 0.002,-0.0291 0.004,-0.0495 0.004,-0.0495 0,0 -9.7e-4,0.0204 -0.004,0.0495 0.007,0.17073 0.0184,0.34048 0.0233,0.51024 0.099,3.30783 0.25124,6.62051 0.55487,9.9167 1.31634,8.75556 5.21783,21.23509 16.38103,30.35151 5.29155,4.32152 11.94407,8.47522 18.77605,8.49268 0.0349,0 0.0708,0 0.10573,0 0,0 0.10768,0 0.21535,0 0.0378,0 0.0757,0 0.11252,0 6.82616,-0.0175 13.4748,-4.16631 18.76345,-8.48298 11.13312,-9.08537 15.04722,-21.5135 16.37715,-30.26809 0.30944,-3.32723 0.46464,-6.67095 0.56359,-10.00982 0.16199,-5.39438 1.06219,-10.68012 1.06219,-16.14046 z"
       id="path6-6"
       inkscape:connector-curvature="0"
       style="fill:#59b4d9;stroke-width:0.97003782" /><path
       d="m 230.16498,432.82302 c -0.30653,1.30664 -0.54322,2.63754 -0.69648,3.99365 -0.0184,0.17267 -0.0388,0.34436 -0.0543,0.51703 -0.0243,0.24736 -0.0398,0.49569 -0.0582,0.74402 -0.0281,0.40256 -0.0572,0.80513 -0.0728,1.21255 l 47.37471,26.11729 -35.88946,26.17745 c 1.31828,1.54915 2.68797,3.00032 4.32831,4.42434 l 44.71292,-30.30398 z"
       id="path8-8"
       inkscape:connector-curvature="0"
       style="fill:#ffffff;stroke-width:0.97003782" /><path
       d="m 286.47665,439.65888 c 5.27992,0 12.35731,0.85169 15.32854,9.70038 v -9.7e-4 c 0.26579,-2.87519 0.52479,-5.75718 0.52479,-8.6896 0,-10.44925 -4.55142,-19.86832 -11.81506,-26.47233 0.60142,2.03417 2.31839,19.10877 -4.03827,25.46252 z"
       id="path10-2"
       inkscape:connector-curvature="0"
       style="opacity:0.8;fill:#68217a;stroke-width:0.97003782" /><path
       d="m 286.47665,439.65888 c 5.27992,0 12.35731,0.85169 15.32854,9.70038 v -9.7e-4 c 0.26579,-2.87519 0.52479,-5.75718 0.52479,-8.6896 0,-10.44925 -4.55142,-19.86832 -11.81506,-26.47233 0.60142,2.03417 2.31839,19.10877 -4.03827,25.46252 z"
       id="path12"
       inkscape:connector-curvature="0"
       style="opacity:0.2;fill:#1e1e1e;stroke-width:0.97003782" /><path
       d="m 255.94984,406.57788 c -6.03668,-5.46828 -16.57894,-5.1099 -24.02825,0.39462 -4.83252,3.5708 -10.19888,2.49437 -11.93264,9.79832 -0.32644,1.37489 0.13809,6.32432 -1.64225,9.83705 -1.7803,3.51276 -6.75408,6.37052 -7.27575,12.51314 -0.83012,9.77336 4.27435,16.94744 6.54617,19.79835 2.75435,3.45717 3.97914,3.40846 2.85435,8.13813 -0.5587,2.3489 -1.0026,4.76772 -1.0026,7.22027 0,4.99066 0.32116,5.64625 3.81196,5.64625 5.88379,0 9.36982,-0.29409 11.2401,-9.17334 -4.32939,-5.49202 -5.99332,-12.11415 -6.61127,-16.96243 -0.16561,-2.12227 -0.24919,-4.25388 -0.30264,-6.383 -0.003,-0.1099 -0.009,-0.21916 -0.0126,-0.32844 -0.002,-0.0342 -0.004,-0.0687 -0.006,-0.10301 0.003,0.0238 0.006,0.0468 0.007,0.0713 l 4.64311,-6.82693 c 2.21151,-3.25175 5.86581,-4.0291 9.39577,-3.83741 v 0 c 6.50439,0 14.67904,-2.34454 18.64072,-11.07395 4.1495,-9.14649 -0.5788,-15.33405 -4.32568,-18.72879 z"
       id="path14-5"
       inkscape:connector-curvature="0"
       style="fill:#68217a;stroke-width:0.57475108" /><path
       d="m 281.98635,474.76455 c -2.23594,0 -4.23616,-0.43943 -5.9444,-1.30664 -3.53287,-1.79263 -5.72807,-5.09367 -5.72807,-8.61685 v -1.34156 l 1.07383,-0.80319 c 0.0524,-0.0388 6.18205,-4.31861 12.77152,-7.0483 6.01909,-2.49299 12.98881,-4.05766 13.28273,-4.12266 l 3.97618,-0.88467 -0.76342,4.0014 c -0.0543,0.28423 -1.31149,6.61566 -6.00938,10.21838 -1.65489,5.65338 -5.24694,9.09799 -10.19607,9.73918 -0.8449,0.10865 -1.67331,0.16491 -2.46292,0.16491 z"
       id="path18"
       inkscape:connector-curvature="0"
       style="fill:#59b4d9;stroke-width:0.97003782" /><path
       d="m 272.99118,464.84106 c 0,0 5.8794,-4.10423 12.19241,-6.71848 5.87261,-2.43188 12.83942,-3.98298 12.83942,-3.98298 0,0 -1.19024,6.23638 -5.71352,9.08635 z"
       id="path20-9"
       inkscape:connector-curvature="0"
       style="fill:#68217a;stroke-width:0.97003782" /><path
       d="m 272.99118,464.84106 c 0,0 5.8794,-4.10423 12.19241,-6.71848 5.87261,-2.43188 12.83942,-3.98298 12.83942,-3.98298 0,0 -1.19024,6.23638 -5.71352,9.08635 z"
       id="path22-4"
       inkscape:connector-curvature="0"
       style="opacity:0.4;fill:#1e1e1e;stroke-width:0.97003782" /><path
       d="m 284.10297,471.94368 c 5.48556,-0.71104 8.28509,-5.62913 8.84771,-12.91896 0,0 -3.95969,0.46561 -10.53558,2.52403 -4.62708,1.44827 -9.42392,3.29231 -9.42392,3.29231 0,2.62395 1.77711,4.96757 4.26138,6.22862 2.09237,1.06122 4.56306,1.17083 6.85041,0.874 z"
       id="path24-5"
       inkscape:connector-curvature="0"
       style="fill:#ffffff;stroke-width:0.97003782" /><path
       d="m 257.69272,464.84106 c 0,0 -5.8794,-4.10423 -12.19241,-6.71848 -5.87261,-2.43188 -12.83942,-3.98298 -12.83942,-3.98298 0,0 1.19024,6.23638 5.71352,9.08635 z"
       id="path26-6"
       inkscape:connector-curvature="0"
       style="fill:#68217a;stroke-width:0.97003782" /><path
       d="m 257.69272,464.84106 c 0,0 -5.8794,-4.10423 -12.19241,-6.71848 -5.87261,-2.43188 -12.83942,-3.98298 -12.83942,-3.98298 0,0 1.19024,6.23638 5.71352,9.08635 z"
       id="path28"
       inkscape:connector-curvature="0"
       style="opacity:0.4;fill:#1e1e1e;stroke-width:0.97003782" /><path
       d="m 246.58093,471.94368 c -5.48556,-0.71104 -8.28509,-5.62913 -8.84771,-12.91896 0,0 3.95969,0.46561 10.53558,2.52403 4.62708,1.44827 9.42392,3.29231 9.42392,3.29231 0,2.62395 -1.77711,4.96757 -4.26138,6.22862 -2.09237,1.06122 -4.56306,1.17083 -6.85041,0.874 z"
       id="path30"
       inkscape:connector-curvature="0"
       style="fill:#ffffff;stroke-width:0.97003782" /><path
       d="m 294.67444,484.8413 h -21.68326 v 6.08214 h 17.40927 c 1.65683,-1.96821 3.0692,-4.01305 4.27399,-6.08214 z"
       id="path32"
       inkscape:connector-curvature="0"
       style="fill:#ffffff;stroke-width:0.97003782" /><path
       d="m 223.98601,466.96832 c -0.1304,5.15656 1.81351,8.45464 4.11382,10.15086 -1.74278,-2.32166 -2.37491,-4.68836 -2.54067,-7.33812 -0.24644,-3.93067 2.3539,-3.85135 1.68476,-10.98218 -0.74154,-7.89782 -7.85854,-17.80279 -4.54151,-26.91504 2.22406,-6.1094 7.67066,-5.79274 10.31134,-6.00718 3.82262,-0.31094 7.56402,1.0772 11.40266,0.78772 5.85273,-0.44104 13.93283,-8.1766 16.32266,-12.91357 -3.44136,4.64333 -11.14571,13.05652 -20.1066,10.11155 -4.78021,-1.57113 -9.79414,-2.56898 -14.5749,-0.61545 -4.73325,1.93425 -7.46179,6.85707 -7.45018,13.27882 0.0155,8.5969 4.00937,11.12657 6.00633,19.03869 1.82511,7.23233 -0.54868,8.2788 -0.62771,11.4039 z"
       id="path34"
       inkscape:connector-curvature="0"
       style="fill:#ec008c;stroke-width:0.62846661" /><path
       d="m 226.14582,420.31157 c 4.18502,-4.56887 9.03001,-3.7909 11.58846,-2.55604 3.7035,1.7868 4.64601,4.36711 9.86702,7.04538 5.62888,2.88683 12.04024,2.22721 22.0942,-5.73583 0,0 -13.34532,11.51338 -23.41698,1.72278 -4.12341,-4.00819 -4.95405,-6.89406 -10.07166,-7.56532 -5.06522,-0.66545 -7.79646,2.66954 -10.06104,7.08903 z"
       id="path36-5"
       inkscape:connector-curvature="0"
       style="fill:#ec008c;stroke-width:0.82879901" /><g
       id="g1135"
       transform="matrix(0.57496118,-0.01743866,0.01826406,0.54897757,267.12753,159.23305)"><path
         style="fill:#ff5555;stroke-width:0.3523719"
         inkscape:connector-curvature="0"
         id="path2-2"
         d="m -107.22042,471.41413 c 17.116187,-19.51535 53.667891,-39.82491 91.078501,-44.09329 14.258673,-1.62284 30.990835,-0.4088 44.192392,5.21676 35.223426,15.01297 37.241306,49.42979 19.882856,62.70981 l -67.227324,3.48656 -75.647092,8.07702 c -11.222223,-0.44322 -20.074183,-6.53815 -19.841573,-18.10861 0.12664,-6.47071 3.29661,-12.42387 7.56224,-17.28825 z m 0,0" /><path
         style="fill:#e34747;fill-opacity:1;stroke:none;stroke-width:0.3523719;stroke-opacity:1"
         inkscape:connector-curvature="0"
         id="path4-5"
         d="m 45.933329,497.24741 c 0.51204,-5.01579 -2.63728,-9.82099 -7.653073,-11.23323 -41.501427,-11.69021 -90.666945,-9.38053 -130.743743,6.51337 -5.428729,2.14865 -8.081153,8.29451 -5.932512,13.71911 2.144514,5.42047 8.290377,8.07977 13.716352,5.92838 35.805665,-14.19123 80.159105,-16.26279 117.232483,-5.81964 6.257355,1.76323 12.681263,-2.49551 13.380493,-9.10799 z m 0,0" /></g></g><flowRoot
     xml:space="preserve"
     id="flowRoot2597"
     style="fill:black;fill-opacity:1;stroke:none;font-family:sans-serif;font-style:normal;font-weight:normal;font-size:40px;line-height:1.25;letter-spacing:0px;word-spacing:0px"><flowRegion
       id="flowRegion2599"><rect
         id="rect2601"
         width="598.2373"
         height="597.69495"
         x="-71.05085"
         y="-31.457628" /></flowRegion><flowPara
       id="flowPara2603"></flowPara></flowRoot></g></svg>