<?xml version="1.0" encoding="UTF-8" standalone="no"?>
<!-- Created with Inkscape (http://www.inkscape.org/) -->

<svg
   xmlns:dc="http://purl.org/dc/elements/1.1/"
   xmlns:cc="http://creativecommons.org/ns#"
   xmlns:rdf="http://www.w3.org/1999/02/22-rdf-syntax-ns#"
   xmlns:svg="http://www.w3.org/2000/svg"
   xmlns="http://www.w3.org/2000/svg"
   xmlns:xlink="http://www.w3.org/1999/xlink"
   xmlns:sodipodi="http://sodipodi.sourceforge.net/DTD/sodipodi-0.dtd"
   xmlns:inkscape="http://www.inkscape.org/namespaces/inkscape"
   width="1024"
   height="1024"
   viewBox="0 0 55.562498 270.93334"
   version="1.1"
   id="svg1381"
   inkscape:version="0.92.4 (5da689c313, 2019-01-14)"
   sodipodi:docname="ps-sat-paris.svg"
   inkscape:export-filename="C:\Users\adilio\Desktop\ps-sat-paris.png"
   inkscape:export-xdpi="96"
   inkscape:export-ydpi="96">
  <defs
     id="defs1375">
    <circle
       style="opacity:0.48300003;fill:#4d4d4d;fill-opacity:1;stroke:#959caf;stroke-width:0.79967934;stroke-opacity:1"
       id="path894-4"
       cx="-797.04749"
       cy="-230.96803"
       r="206.40199"
       transform="rotate(173.69944)" />
    <ellipse
       style="opacity:0.48300003;fill:#4d4d4d;fill-opacity:1;stroke:#959caf;stroke-width:0.97923017;stroke-opacity:1"
       id="path894-4-5"
       cx="-830.13635"
       cy="715.98248"
       transform="matrix(-0.90481855,0.42579736,0.42583535,0.90480067,0,0)"
       rx="252.7417"
       ry="252.74858" />
    <circle
       style="opacity:0.48300003;fill:#4d4d4d;fill-opacity:1;stroke:#959caf;stroke-width:0.79967934;stroke-opacity:1"
       id="path894-4-3"
       cx="-797.04749"
       cy="-230.96803"
       r="206.40199"
       transform="rotate(173.69944)" />
    <ellipse
       style="opacity:0.48300003;fill:#4d4d4d;fill-opacity:1;stroke:#959caf;stroke-width:0.97923017;stroke-opacity:1"
       id="path894-4-5-0"
       cx="-830.13635"
       cy="715.98248"
       transform="matrix(-0.90481855,0.42579736,0.42583535,0.90480067,0,0)"
       rx="252.7417"
       ry="252.74858" />
  </defs>
  <sodipodi:namedview
     id="base"
     pagecolor="#ffffff"
     bordercolor="#666666"
     borderopacity="1.0"
     inkscape:pageopacity="0.0"
     inkscape:pageshadow="2"
     inkscape:zoom="0.98994949"
     inkscape:cx="692.69486"
     inkscape:cy="430.36168"
     inkscape:document-units="mm"
     inkscape:current-layer="layer1"
     showgrid="false"
     units="px"
     inkscape:window-width="1959"
     inkscape:window-height="1640"
     inkscape:window-x="1312"
     inkscape:window-y="202"
     inkscape:window-maximized="0" />
  <metadata
     id="metadata1378">
    <rdf:RDF>
      <cc:Work
         rdf:about="">
        <dc:format>image/svg+xml</dc:format>
        <dc:type
           rdf:resource="http://purl.org/dc/dcmitype/StillImage" />
        <dc:title></dc:title>
      </cc:Work>
    </rdf:RDF>
  </metadata>
  <g
     inkscape:label="Layer 1"
     inkscape:groupmode="layer"
     id="layer1"
     transform="translate(0,-26.066651)">
    <g
       id="g2859"
       transform="matrix(0.52350288,0,0,0.52350288,-106.23549,27.516584)">
      <path
         inkscape:connector-curvature="0"
         style="fill:#b1e9f1"
         d="M 255.997,0 C 397.385,0 512,114.615 512,255.997 512,397.385 397.385,512 255.997,512 114.615,512 0,397.385 0,255.997 0,114.615 114.615,0 255.997,0 Z"
         id="path2" />
      <path
         inkscape:connector-curvature="0"
         style="fill:#8fa3ad"
         d="m 25.493,367.484 460.686,0.663 c 11.065,-22.669 18.883,-47.211 22.846,-73.027 l -6.962,0.012 -0.223,8.91 c -5.823,0.047 -3.704,0.352 -5.259,-1.368 -0.035,0.933 0.229,0.74 -0.922,1.268 l -0.728,0.217 c -0.094,0.041 -0.247,0.07 -0.335,0.117 -1.115,0.575 -0.628,1.679 -0.634,2.489 -3.123,0.54 -6.774,0.64 -10.026,1.15 -2.923,0.452 -0.722,0.317 -3.105,0.699 0.047,0.07 0.205,0.088 0.229,0.194 0.023,0.094 0.17,0.141 0.2,0.182 0.029,0.029 0.129,0.123 0.159,0.164 l 0.023,0.792 c 0,0.023 0,0.1 0,0.123 0,0.023 0.018,0.106 0.023,0.129 l -0.035,1.79 c 0,0.029 0.006,0.1 0.006,0.129 l 0.018,2.184 c 0.006,0.023 0.023,0.1 0.029,0.123 l -0.053,1.667 c 0,0.029 0.006,0.106 0.006,0.129 0,0.029 0.023,0.106 0.029,0.129 0,0.029 0.018,0.106 0.018,0.129 l -0.065,1.397 c -0.006,0.023 -0.041,0.1 -0.041,0.129 l 0.71,0.892 -3.405,-0.17 -0.276,-8.188 -10.783,0.018 -0.217,3.493 -5.811,0.006 c 0.029,-1.626 0.129,-7.15 -0.282,-7.684 l -8.406,-0.059 c -0.188,-10.818 2.06,-21.302 3.745,-31.95 l -11.458,0.969 c -0.047,-0.047 -0.123,-0.147 -0.164,-0.182 -0.035,-0.041 -0.088,-0.135 -0.159,-0.194 -5.406,0.352 -9.351,0.411 -14.798,0 l -1.104,1.18 -10.801,-1.737 c 0.863,4.714 3.622,14.305 2.729,18.578 -0.464,0.44 -2.518,0.916 -3.487,1.556 -2.371,1.585 -1.984,-0.522 -1.878,4.35 0.041,1.996 1.01,2.436 -1.362,2.759 -1.808,-1.092 -0.411,-39.628 -0.663,-44.312 l -8.594,-0.053 2.97,-6.645 c -3.052,-1.919 -5.488,-1.127 -11.1,-1.356 -0.106,-2.847 0.088,-12.374 -1.597,-14.334 l -1.374,14.375 c -6.762,0.047 -6.674,-0.446 -11.329,1.086 l 3.064,6.885 -8.787,-0.006 -0.023,63.125 c -1.779,0.006 -0.869,0.094 -1.796,-0.405 -0.898,-0.481 -0.663,-0.387 -0.387,-1.121 0.106,-0.276 0.217,-0.047 0.229,-0.499 l -0.376,-0.969 c 0.129,-1.08 0.499,-0.194 0.17,-1.303 l -0.018,-1.767 c -0.247,-0.787 0.288,-0.834 -0.006,-1.767 -0.018,-0.065 -0.088,-0.288 -0.053,-0.47 0.123,-0.64 0.499,0.411 0.247,-0.822 l -0.34,-0.646 c -0.088,-0.886 0.569,0.135 0.352,-1.133 -0.023,-0.153 -0.54,0.059 -0.205,-0.963 0.763,-2.283 -0.035,0.141 -0.628,-1.878 -1.691,-0.17 -2.201,-0.1 -3.657,-0.323 -0.951,-0.147 0.493,-0.076 -1.644,-0.252 -0.927,-0.076 -1.79,-0.041 -2.729,-0.035 0.534,-6.14 1.761,-10.172 -0.581,-16.377 -2.401,-6.386 -5.506,-8.306 -9.151,-13.647 l -2.753,0.587 -2.043,-2.319 c -2.371,0.558 -6.651,2.054 -8.875,2.283 l -0.769,-9.204 -1.344,9.838 c -5.324,2.084 -10.378,1.961 -12.45,5.4 -0.916,1.52 -0.428,1.696 -3.598,2.195 l 0.035,-23.708 c -2.072,0.382 -3.522,1.08 -5.447,1.509 -0.957,-3.14 0.2,-14 -1.239,-15.743 l -1.162,16.594 c -2.641,0.675 -19.881,5.817 -20.691,6.674 -0.681,1.509 0.158,22.499 -0.029,26.215 l -3.099,0.035 c -0.399,2.747 -1.503,-0.44 -2.066,2.213 -0.094,0.423 0.153,1.115 0.029,1.567 -0.37,1.374 -1.362,0.751 -1.415,2.559 -0.047,1.667 -0.875,1.391 -1.192,2.841 -0.288,1.315 0.792,0.875 -1.074,1.256 -1.608,-1.421 -0.229,-33.447 -0.505,-38.225 -0.892,-0.229 -0.54,-0.1 -1.133,-0.241 l -1.098,-5.923 c -1.691,-0.428 -1.109,0.029 -2.653,-0.511 l 0.006,-6.281 -3.575,-0.023 -0.188,-2.219 -6.463,-0.023 -0.546,-7.983 c -0.035,0.387 -0.71,6.991 -0.957,7.995 l -5.459,0.018 v 2.101 l -3.645,0.188 -0.035,12.673 c -2.917,0.041 -1.608,-0.147 -2.195,0.481 -0.622,1.385 -0.012,23.685 -0.006,28.745 0.006,0.927 0.54,2.166 -0.094,3.064 -0.534,0.745 0.393,0.293 -1.057,0.64 -1.779,-0.411 -0.939,-1.221 -1.203,-2.137 -0.276,-0.986 -0.012,-0.47 -1.033,-1.004 -1.479,-0.763 -4.273,-0.898 -5.87,-0.27 -0.094,0.035 -0.194,0.094 -0.282,0.135 l -0.499,0.288 c -1.385,0.91 -0.522,1.538 -0.986,2.812 l -4.602,0.223 0.393,1.614 c 0.023,0.047 0.088,0.117 0.1,0.158 0.006,0.041 0.035,0.112 0.035,0.153 0.018,0.534 -0.247,0.035 -0.599,1.021 -0.329,0.904 -0.076,3.052 -0.076,4.085 l 0.035,6.163 c 0.023,1.919 0.98,0.669 -0.763,1.955 -2.295,-0.505 -1.362,-0.053 -1.344,-3.498 0.006,-1.285 0.029,-2.571 -0.018,-3.851 l -2.313,-0.399 c 0.194,-4.25 0.892,-6.011 -7.842,-7.895 -5.113,1.227 -4.426,1.55 -7.484,3.029 -1.045,0.499 -0.023,3.616 -0.323,4.496 -0.182,0.534 -0.728,0.458 -1.608,0.763 -1.737,0.599 -3.369,0.534 -5.688,0.405 l -0.076,-3.493 -6.568,-0.006 -0.018,-9.509 h -10.284 l -0.023,4.203 c -4.038,0.082 -2.888,-0.041 -5.025,1.092 -0.61,0.329 -1.086,0.205 -1.297,0.64 0,0.998 0.288,2.119 -0.458,2.841 -0.945,0.922 -0.511,-0.622 -0.963,1.015 -0.129,0.458 0.082,1.057 -0.053,1.544 -0.687,2.501 -1.239,-0.399 -1.145,5.694 l -0.411,-0.399 c -0.035,-0.053 -0.123,-0.141 -0.158,-0.211 -0.035,-0.065 -0.076,-0.141 -0.112,-0.223 -0.082,-0.223 -0.053,-0.722 -0.065,-0.98 l -8.1,-0.023 -0.076,2.553 -4.285,0.035 c 0.863,-1.743 0.247,-3.475 0.294,-5.289 0.035,-1.509 0.904,-0.834 -1.374,-1.426 l 0.851,-0.37 c 0.54,-0.282 0.153,0.041 0.675,-0.399 -0.1,-0.047 -0.252,-0.188 -0.299,-0.135 l -0.382,-0.763 c 0.534,-0.27 0.147,0.047 0.681,-0.382 -0.798,-0.387 0.505,-0.065 -1.509,-0.517 l 1.503,-0.769 -1.503,-0.769 c 2.489,-0.499 0.481,-0.012 1.503,-0.511 -0.564,-0.47 -0.059,-0.094 -0.669,-0.393 l -0.857,-0.382 c 2.096,-0.446 0.745,-0.147 1.532,-0.511 -0.546,-0.458 -0.076,-0.106 -0.669,-0.399 l -0.552,-0.247 c -0.059,-0.029 -0.211,-0.082 -0.305,-0.123 l 1.532,-0.517 -1.573,-0.769 c 2.078,-0.54 0.945,0.164 1.497,-0.769 -1.89,-0.505 -1.726,-1.332 -3.217,-2.019 -0.141,-0.065 -0.775,-0.317 -0.851,-0.364 l -2.694,-1.397 c -0.106,-0.018 -0.317,-0.035 -0.464,-0.07 h -1.092 c -1.426,0.434 -0.992,-0.012 -2.066,0.487 -1.415,0.657 0.293,0.082 -1.004,0.957 -3.721,0.264 -11.857,0.751 -14.945,1.784 l -1.702,0.622 c 0.417,0.511 0.927,0.44 0.916,0.822 l -1.004,0.716 1.591,0.517 c -1.52,0.781 -0.804,-0.112 -1.597,0.769 1.268,1.151 1.104,0.1 0.006,1.286 0.446,0.417 0.792,0.358 0.716,1.115 -0.006,0.035 -0.023,0.117 -0.023,0.153 l 0.018,1.602 c 0.112,0.135 0.769,0.399 0.875,0.464 -1.497,0.317 -0.963,0.276 -1.579,0.511 1.156,0.775 0.329,0.123 1.591,0.769 l -1.192,0.364 c -0.082,0.029 -0.264,0.106 -0.393,0.153 l 0.581,0.299 c 0.029,0.029 0.176,0.112 0.2,0.147 l 0.029,1.438 c 0,0.029 0.018,0.106 0.018,0.135 -0.006,0.029 -0.029,0.106 -0.035,0.141 0,0.029 -0.059,0.106 -0.065,0.141 l 0.106,0.886 c 0.006,0.035 0.029,0.112 0.029,0.147 l -0.176,3.469 c 0.188,0.699 0.605,-0.194 0.217,0.564 -0.012,0.029 -0.646,0.434 -0.863,0.587 l 0.722,0.288 c 0.082,0.023 0.792,0.223 0.816,0.229 l -1.55,0.769 1.033,0.405 c 0.957,0.505 -0.076,-0.405 0.499,0.364 -0.669,0.129 -0.528,0.112 -1.109,0.293 -1.673,0.517 0.364,-0.018 -0.951,0.329 -0.182,-2.254 -0.81,-5.817 -0.029,-7.296 -0.147,-0.041 -0.382,-0.158 -0.464,-0.1 -0.293,0.229 -2.759,-1.092 -2.964,-1.197 l 0.704,-0.616 c 0.07,-0.029 0.229,-0.094 0.34,-0.135 l -0.012,-1.286 c -1.015,-0.892 0.176,-0.041 -1.614,-0.769 2.013,-0.769 0.675,0.135 1.602,-0.775 -0.112,-0.035 -0.293,-0.17 -0.34,-0.117 l -0.364,-0.722 c 0.599,-0.294 0.182,0.041 0.728,-0.44 l -1.597,-0.511 1.591,-0.775 -0.734,-0.857 c 0.534,-0.27 0.205,0 0.74,-0.423 -0.117,-0.047 -0.293,-0.194 -0.346,-0.141 l -1.233,-0.376 0.904,-1.045 c -0.07,-0.023 -0.839,-0.223 -0.886,-0.235 0.082,-0.047 0.235,-0.158 0.27,-0.123 l 1.291,-0.652 c -0.816,-0.358 0.041,-0.164 -1.544,-0.511 l 1.544,-0.769 -1.644,-0.828 c 2.184,-0.188 0.798,0.065 1.644,-0.458 l -1.286,-0.646 c -0.047,-0.023 -0.188,-0.076 -0.258,-0.123 1.491,-0.305 0.857,-0.211 1.544,-0.511 l -1.567,-0.775 c 2.319,-0.599 1.432,0.434 1.362,-0.939 -14.287,-0.012 -3.164,-0.605 -11.658,-1.244 -2.131,-0.158 -4.115,-0.299 -6.287,-0.417 l -0.117,-6.122 -1.99,-0.299 c -0.123,-0.023 -0.293,-0.047 -0.405,-0.065 l -0.787,-6.821 c -0.258,-1.039 -0.781,-0.247 -2.084,-1.303 -0.792,-0.646 -1.104,-0.892 -2.694,-1.35 -2.231,-0.646 -4.08,-1.391 -6.222,-1.972 -7.584,1.538 -8.717,3.223 -9.814,3.821 -0.07,0.035 -0.194,0.088 -0.27,0.123 l -1.35,0.423 -0.006,6.674 c -0.687,0.728 0.153,0.159 -1.262,0.481 -0.933,0.211 -0.428,-0.17 -1.902,0.288 l -0.035,16.424 -2.847,0.517 c -0.37,2.131 0.616,6.152 -0.106,7.965 -0.299,0.757 0.235,0.499 -1.045,0.834 -1.755,-0.364 -1.327,0.452 -1.233,-2.641 0.065,-2.36 -1.092,-7.842 0.763,-9.497 -0.1,-0.047 -0.293,-0.164 -0.34,-0.117 -0.587,0.593 -1.732,-1.362 -1.174,-2.917 0.599,-1.667 1.556,-0.916 -1.139,-2.683 l -6.75,-5.207 c -0.1,0.059 -0.211,0.088 -0.247,0.194 l -4.449,3.675 -15.168,-0.006 c -0.44,1.878 0.704,4.267 -0.863,5.794 -1.602,1.561 -0.088,3.451 -0.745,5.119 -0.839,1.021 0.264,0.047 -1.99,0.769 l -0.065,12.491 -2.236,-0.006 c -1.379,-0.839 0.088,-0.053 -0.54,-0.704 -0.61,-0.64 -0.217,-0.299 -0.845,-0.622 -1.233,-0.628 -1.432,0.628 -1.415,-1.667 -2.688,-0.082 -2.407,0.258 -3.187,-0.505 l -0.012,-10.754 -6.011,-0.018 c 0.018,-1.972 -1.221,-1.409 -1.203,-3.598 0.053,-5.535 0.147,-3.88 -1.526,-4.884 -1.667,-1.004 1.585,-0.922 -7.191,-0.91 l -0.722,0.787 c -0.065,0.047 -0.182,0.106 -0.258,0.153 -0.1,0.059 -0.47,0.217 -0.569,0.288 -0.581,0.358 -0.481,-0.012 -0.816,0.716 -0.059,0.129 -0.041,0.857 -0.035,1.027 l -0.581,1.673 c -0.886,0.792 -0.74,0.158 -0.822,1.919 -0.094,1.931 -1.28,0.528 -1.186,5.923 0.012,1.074 0.54,1.385 -1.039,1.691 -1.544,-0.27 -0.564,0.428 -1.068,-0.693 -0.094,-0.205 -0.035,-1.25 -0.029,-1.526 0.076,-2.066 0.34,-4.32 -0.2,-6.357 -0.176,-0.646 -0.141,-0.053 -0.147,-0.581 l 0.364,-1.374 -15.103,-0.029 c 0.018,0.37 0.34,1.197 0.346,1.215 l -0.358,21.801 -4.262,-0.006 c -0.434,-0.798 -1.802,-2.988 -3.17,-3.434 4.313,17.595 10.423,34.476 18.154,50.431 z"
         id="path4" />
      <path
         inkscape:connector-curvature="0"
         style="fill:#add37f"
         d="M 24.219,364.795 H 487.775 C 446.88,451.775 358.479,512 255.997,512 153.521,512 65.12,451.775 24.219,364.795 Z"
         id="path6" />
      <path
         inkscape:connector-curvature="0"
         style="fill:#bbbbbb"
         d="m 18.508,351.717 h 474.979 c -1.784,4.42 -3.686,8.781 -5.711,13.078 H 24.219 c -2.019,-4.297 -3.927,-8.658 -5.711,-13.078 z"
         id="path8" />
      <path
         style="fill:#ffffff"
         d="m 147.62741,150.98162 c 3.305,0 6.428,0.787 9.186,2.178 2.988,-2.923 7.085,-4.731 11.605,-4.731 7.819,0 14.381,5.412 16.136,12.697 3.909,1.174 7.044,4.127 8.476,7.918 0.47,-0.053 0.945,-0.076 1.426,-0.076 7.226,0 13.09,5.858 13.09,13.09 0,7.232 -5.864,13.09 -13.09,13.09 -2.254,0 -4.373,-0.569 -6.222,-1.567 -1.585,5.436 -6.609,9.409 -12.567,9.409 -3.633,0 -6.921,-1.479 -9.298,-3.88 -2.371,2.401 -5.664,3.88 -9.298,3.88 -3.457,0 -6.604,-1.344 -8.946,-3.528 -2.389,2.612 -5.829,4.256 -9.662,4.256 -3.581,0 -6.821,-1.432 -9.18,-3.763 -1.086,0.241 -2.213,0.364 -3.358,0.364 -8.617,0 -15.596,-6.985 -15.596,-15.596 0,-8.611 6.979,-15.596 15.596,-15.596 0.464,0 0.933,0.023 1.391,0.07 1.105,-10.244 9.775,-18.215 20.311,-18.215 z"
         id="path10"
         inkscape:connector-curvature="0" />
      <g
         id="g40">
        <g
           id="g16">
          <polygon
             style="fill:#263238"
             points="255.733,2.442 254.236,34.116 257.277,34.116 "
             id="polygon12" />
          <path
             inkscape:connector-curvature="0"
             style="fill:#263238"
             d="m 255.932,427.251 v 0 c -0.065,0 -0.129,0 -0.2,0 -0.059,0 -0.123,0 -0.188,0 v 0 c -40.825,0.205 -73.984,32.807 -75.082,73.415 2.712,0.839 5.447,1.614 8.194,2.366 l -0.023,-0.91 c 0,-37.15 30.007,-67.286 67.099,-67.515 37.103,0.229 67.104,30.365 67.104,67.515 0,0.323 -0.006,0.681 -0.023,1.051 2.753,-0.74 5.488,-1.52 8.2,-2.354 -1.014,-40.679 -34.209,-73.363 -75.081,-73.568 z"
             id="path14" />
        </g>
        <polygon
           style="fill:#252a2d"
           points="255.932,30.33 255.733,30.588 255.545,30.33 255.545,30.84 247.433,41.547 247.433,54.197 255.545,54.197 255.932,54.197 264.039,54.197 264.039,41.547 255.932,30.84 "
           id="polygon18" />
        <g
           id="g28">
          <path
             inkscape:connector-curvature="0"
             style="fill:#263238"
             d="m 236.051,345.536 h -6.375 l -1.696,6.398 z m 112.332,149.271 -1.591,0.605 -4.279,-3.152 1.285,4.285 -1.35,0.475 -1.309,-4.338 -3.71,6.087 c -0.693,0.235 -1.397,0.452 -2.09,0.675 l 5.242,-8.599 -13.307,-9.809 0.082,-0.939 v -0.722 l -0.687,-0.2 3.622,-12.215 -18.696,-13.736 0.428,-0.581 v -0.716 h 9.374 l -4.291,-9.674 -4.232,11.024 -1.338,-0.517 4.608,-11.98 -21.02,-13.976 0.792,-1.192 19.594,13.025 -5.383,-12.139 1.309,-0.575 5.576,12.585 4.813,-12.556 1.338,0.511 -5.277,13.759 17.797,11.828 -0.399,0.593 v 0 l 0.687,0.205 -4.021,13.548 16.882,12.403 -0.423,0.575 0.61,0.376 -6.533,10.718 z m -172.134,4.508 c -0.681,-0.223 -1.368,-0.434 -2.049,-0.669 l -4.432,-7.555 -2.119,5.248 -1.338,-0.511 1.667,-4.132 -4.05,3.228 c -0.517,-0.2 -1.045,-0.387 -1.556,-0.593 l 6.339,-5.048 -6.269,-10.677 0.622,-0.364 -0.417,-0.581 1.021,-0.728 v -0.534 h 0.751 l 15.397,-10.983 -4.308,-12.221 0.681,-0.241 -0.405,-0.593 17.439,-11.728 -4.925,-14.188 1.356,-0.47 4.625,13.33 5.97,-13.389 1.309,0.587 -5.436,12.18 19.429,-13.066 0.399,0.593 0.605,0.387 -17.369,26.949 -1.203,-0.781 15.461,-24.008 -18.42,12.385 -0.059,0.141 4.226,12.203 -0.364,0.129 -16.717,11.916 -0.464,0.763 3.733,10.578 -0.681,0.235 v 0.722 l -0.534,0.974 -13.595,10.83 z m 163.652,-10.759 -2.548,-8.458 h -8.946 z m -1.051,-8.459 2.735,9.098 5.553,-9.098 z m -2.16,-1.432 -5.377,-10.108 -3,10.108 z m -7.672,-14.422 -5.794,-10.883 h -9.016 z m -4.167,-10.883 6.081,11.44 3.399,-11.44 z m 8.382,15.755 5.083,9.55 h 7.913 z m -14.428,-26.567 4.156,9.38 h 9.961 z m -149.277,45.309 4.502,-10.983 1.332,0.534 -4.015,9.773 11.746,-9.351 h -18.214 l -0.869,0.616 z m 4.261,-11.458 5.347,-8.74 -12.25,8.74 z m 7.261,-11.857 6.651,-10.871 H 177.2 l 3.833,10.877 z m 8.33,-10.871 -5.353,8.74 12.256,-8.74 z m -8.693,14.199 -5.218,8.529 h 8.224 z m 7.824,-15.631 4.273,-9.586 -14.252,9.586 z m 5.6,-9.04 -4.027,9.04 h 7.167 z m 63.277,-255.721 4.584,-7.114 -5.518,-7.079 h -1.432 l -5.089,6.539 4.719,7.654 z m 5.406,-8.388 3.739,-5.805 h -8.265 z m 5.048,-6.516 0.605,0.387 -4.719,7.326 5.817,7.466 -0.564,0.44 0.581,0.417 -5.113,7.132 6.375,8.341 -0.569,0.434 0.475,0.534 -5.265,4.661 6.146,4.884 -0.446,0.564 0.493,0.517 -5.377,5.072 5.823,4.714 -0.47,0.581 h 0.61 v 0.716 l 0.458,0.546 -5.594,4.714 6.656,4.984 -0.428,0.575 0.528,0.481 -6.017,6.598 6.128,5.694 h 0.828 v 0.716 l 0.587,0.399 -5.6,8.212 7.666,8.464 -0.528,0.481 v 0 l 0.587,0.405 -5.606,8.024 7.907,8.241 -0.44,0.423 v 0.558 l 0.564,0.434 -5.788,7.513 8.359,8.036 -0.992,1.027 -8.241,-7.918 -6.046,7.842 -0.569,-0.434 -0.458,0.552 -10.519,-8.723 -10.413,8.717 -0.464,-0.546 -0.569,0.428 -5.993,-8.048 -8.206,7.625 -0.974,-1.045 8.323,-7.731 -5.788,-7.783 0.569,-0.428 v 0 l -0.517,-0.499 8.177,-8.511 -5.066,-7.449 h -0.235 v -1.432 h 0.288 l 7.108,-8.147 -5.835,-8.353 0.593,-0.411 -0.481,-0.534 7.05,-6.334 -5.629,-6.269 0.534,-0.475 -0.423,-0.581 6.568,-4.825 -5.547,-4.667 0.464,-0.546 v 0 l -0.458,-0.552 6.727,-5.571 -5.553,-4.942 0.475,-0.534 -0.446,-0.558 6.087,-4.878 -5.242,-4.672 0.428,-0.481 -0.053,-0.041 0.1,-0.141 v -0.587 h 0.417 l 5.424,-7.613 -5.195,-7.59 0.587,-0.405 -0.564,-0.44 6.24,-8.018 -3.974,-6.451 h -0.575 v -0.716 l -0.581,-0.417 5.418,-7.472 -4.455,-6.604 0.593,-0.399 -0.575,-0.423 5.072,-7.02 -4.191,-6.639 0.605,-0.382 v 0 l -0.552,-0.458 4.69,-5.694 -4.097,-5.582 0.575,-0.423 -0.546,-0.458 4.52,-5.347 -3.968,-5.095 0.569,-0.44 -0.546,-0.47 4.537,-5.224 -3.052,-4.209 h -0.446 v -0.716 l -0.564,-0.446 4.179,-5.259 -2.853,-3.862 h -0.323 v -1.432 h 0.335 l 2.953,-3.798 -3.481,-4.461 0.558,-0.44 -0.552,-0.458 3.622,-4.397 -2.542,-3.369 h -0.205 v -0.282 l -0.006,-0.006 0.006,-0.006 v -1.139 h 0.223 l 2.683,-3.311 -2.976,-3.727 h -0.247 v -1.092 l -0.018,-0.012 0.018,-0.018 v -0.311 h 0.2 l 3.135,-4.913 -3.058,-4.843 1.215,-0.763 2.694,4.273 2.729,-4.279 0.798,0.511 0.798,-0.511 2.471,3.88 2.113,-3.839 1.256,0.693 -2.495,4.514 3.369,5.277 h 0.217 v 1.432 h -0.264 l -2.782,3.557 3.24,3.727 -0.54,0.47 0.546,0.458 -3.123,3.739 3.475,4.291 -0.552,0.452 0.564,0.434 -3.299,4.297 3.68,4.215 -0.54,0.475 0.569,0.434 -3.469,4.485 3.839,4.919 -0.569,0.44 0.558,0.446 -3.704,4.62 4.22,5.095 -0.552,0.458 0.569,0.428 -3.909,5.195 4.443,5.254 -0.546,0.464 0.575,0.434 -4.068,5.43 4.672,5.846 -0.564,0.446 0.599,0.387 -4.132,6.322 5.054,6.445 -0.751,0.593 h 0.188 v 0.71 l 0.587,0.411 -4.684,6.692 5.612,7.367 z m -4.936,8.987 -3.815,5.917 h 8.423 z m 3.492,-9.703 -4.461,-5.852 -4.097,5.852 z m -5.37,-7.049 -4.895,-6.422 h -1.315 l -4.584,6.322 4.819,7.15 h 1.415 l -0.252,-0.176 z m -3.1,-6.422 3.956,5.195 3.639,-5.195 z m -1.831,-1.427 4.549,-6.956 -4.766,-6.075 h -0.44 l -4.59,6.357 4.038,6.392 0.387,0.282 z m 5.377,-8.223 3.146,-4.807 h -6.921 z m 0.105,2.453 -3.774,5.77 h 8.294 z m 2.877,-8.693 -3.51,-4.391 -3.287,4.391 z m -4.432,-5.547 -4.138,-5.177 h -0.006 l -4.397,5.342 3.95,5.383 h 0.434 z m -2.307,-5.177 3.193,3.992 2.988,-3.992 z m -1.837,-1.444 3.716,-4.937 -3.868,-4.567 -3.768,4.461 z m 4.602,-6.111 2.853,-3.792 h -6.058 z m 0.064,2.295 -2.882,3.827 h 6.116 z m 2.7,-7.513 -3.064,-3.692 -2.958,3.692 z m -3.991,-4.819 -3.311,-4.003 -3.405,3.921 3.217,4.438 z m -1.755,-4.367 2.671,3.228 2.583,-3.228 z m -1.556,-1.902 3.223,-4.168 -3.287,-4.215 h -0.153 l -3.093,3.898 z m 4.121,-5.336 2.354,-3.046 h -4.725 z m 0.006,2.33 -2.683,3.475 h 5.389 z m 2.23,-6.809 -2.459,-2.812 -2.16,2.812 z m -3.416,-3.909 -3.205,-3.663 -2.923,3.768 2.97,3.804 h 0.153 z m -1.655,-4.074 2.542,2.917 2.242,-2.917 z m -1.55,-1.866 3.017,-3.61 -2.812,-3.463 h -0.17 l -2.8,3.405 z m 3.951,-4.731 1.961,-2.342 h -3.862 z m -0.018,2.254 -2.43,2.911 h 4.784 z m 1.937,-6.029 -2.025,-2.33 -1.826,2.33 z m -2.982,-3.434 -2.782,-3.205 -2.7,3.334 2.641,3.305 h 0.153 z m -1.233,-3.604 2.137,2.454 1.919,-2.454 z m -1.614,-2.125 2.501,-4.526 -2.483,-3.886 -2.683,4.197 z m 3.375,-3.152 -2.119,3.845 h 4.578 z m -1.344,136.375 -0.552,-0.393 5.471,-7.637 -5.248,-6.862 h -3.358 l -5.195,7.296 5.201,7.596 z m 5.788,-9.245 4.05,-5.647 h -8.365 z m 0.041,2.407 -4.907,6.838 h 10.137 z m -10.613,-9.486 -3.974,-6.445 -5.013,6.445 z m -7.061,-14.193 3.228,5.242 4.074,-5.242 z m 2.101,21.665 4.303,-6.04 h -8.435 z m -0.017,2.495 -4.526,6.357 h 8.875 z m 1.391,-33.998 3.663,-5.06 h -7.073 z m -0.041,2.494 -4.291,5.917 h 8.277 z m 4.026,-8.981 -3.422,-5.424 -3.921,5.424 z m -6.539,-13.031 3.193,5.054 3.651,-5.054 z m 3.781,-8.006 3.416,-4.15 h -6.463 z m -0.065,2.33 -3.498,4.244 h 6.615 z m 3.539,-7.912 -3.064,-3.939 -3.328,3.939 z m -5.899,-9.915 2.876,3.704 3.129,-3.704 z m 3.493,-7.513 2.683,-3.099 h -4.931 z m -0.1,2.295 -3.287,3.792 h 6.034 z m 2.935,-6.827 -2.8,-3.792 -3.017,3.792 z m -4.755,-8.851 1.996,2.7 2.143,-2.7 z m 2.09,-6.399 2.342,-3.017 h -4.702 z m 0.006,2.331 -2.054,2.636 h 4.115 z m 2.36,-6.78 -2.236,-2.964 -2.436,2.964 z m -3.869,-7.507 1.685,2.231 1.837,-2.231 z m 1.826,-5.882 2.096,-2.589 h -4.162 z m -0.006,2.283 -1.755,2.166 h 3.487 z m 2.301,-6.304 -2.26,-3.575 -2.283,3.575 z m 14.651,143.172 -4.737,-3.768 -4.256,3.768 z m -5.876,-4.672 -5.711,-4.537 h -3.581 l -5.676,4.543 5.236,4.667 h 4.461 z m -3.41,-4.538 4.502,3.575 4.038,-3.575 z m -12.638,3.581 4.461,-3.581 h -8.488 z m -0.053,1.872 -4.684,3.757 h 8.899 z m 23.409,15.356 -5.318,-4.303 -4.561,4.303 z m -6.439,-5.212 -5.641,-4.567 -2.013,3.886 2.63,5.418 z m -3.85,-4.955 4.901,3.962 4.203,-3.962 z m -7.602,10.167 -0.047,-0.029 -0.023,0.029 z m -0.258,-1.174 2.454,-4.737 -1.861,-3.839 -5.301,4.385 z m 3.275,-6.328 1.385,-2.665 h -2.677 z m -0.041,3.199 -2.231,4.303 h 4.32 z m -4.074,4.303 -4.984,-4.443 -5.371,4.443 z m -9.262,-10.167 4.308,3.839 4.643,-3.839 z m 28.868,20.968 -5.183,-3.874 -4.537,3.821 z m -6.363,-4.755 -5.758,-4.303 -2.448,3.698 3.199,4.825 z m -3.78,-4.62 4.907,3.675 4.35,-3.675 z m -9.339,8.84 3.199,-4.825 -2.454,-3.704 -5.811,4.267 z m 4.056,-6.122 1.796,-2.718 h -3.592 z m 0,2.595 -2.624,3.962 5.265,0.029 z m -5.788,3.944 -4.52,-3.804 -5.107,3.751 z m -8.77,-9.257 4.308,3.633 4.937,-3.633 z m 3.141,15.697 5.571,-5.007 -10.12,-0.059 z m 7.378,-4.708 -6.428,5.776 5.113,5.688 4.637,-6.521 z m -7.49,6.733 -5.664,5.089 10.249,0.018 z m 15.456,5.13 -3.792,-5.647 -4.009,5.629 z m -6.434,-12.145 2.677,3.986 2.812,-3.956 z m 3.528,5.254 4.355,6.48 4.719,-5.171 -6.022,-5.594 z m 10.038,0.252 4.925,-5.4 -10.806,-0.065 z m 0.082,2.031 -4.203,4.614 9.192,0.018 z m 6.556,6.087 -0.023,-0.018 -10.789,-0.023 6.181,6.827 z m 1.879,16.101 -6.351,-7.009 -4.784,7.009 z m -7.338,-8.1 -6.885,-7.602 -4.549,6.275 6.269,8.893 z m -19.311,7.096 6.122,-8.441 -4.402,-6.234 -6.645,7.625 z m 7.008,-9.661 3.974,-5.482 -7.854,-0.018 z m -0.017,2.459 -5.952,8.206 h 11.74 z m -8.036,8.206 -4.849,-6.938 -6.052,6.938 z m -9.562,-16.195 4.837,6.932 6.022,-6.909 z m 2.782,24.02 6.134,-6.392 h -10.478 z m 7.801,-6.058 -6.979,7.267 5.242,7.713 7.801,-8.37 z m -7.989,8.323 -6.815,7.097 11.722,0.123 z m 15.033,-2.758 5.494,-5.899 h -10.9 z m 7.144,-5.571 -6.175,6.627 7.965,8.693 5.441,-7.783 z m -7.156,7.678 -7.361,7.901 14.739,0.147 z m 15.221,-1.338 4.661,-6.668 h -11.053 z m 0.176,2.248 -5.013,7.173 12.016,0.117 z m 1.162,16.113 -7.572,-7.279 -7.86,6.58 9.75,8.083 z m -5.741,-7.508 6.621,6.369 4.813,-6.251 z m -21.56,14.88 9.632,-8.065 -7.772,-6.445 -7.49,6.95 z m 10.748,-8.998 7.067,-5.917 -14.381,-0.147 z m -22.071,-6.217 4.837,6.498 6.868,-6.375 z m -7.085,35.138 -1.133,-0.875 4.719,-6.128 -2.454,-5.048 1.291,-0.628 2.143,4.408 3.487,-4.532 0.564,0.44 h 0.006 l 0.587,-0.405 3.434,5.077 4.25,-5.13 0.552,0.458 0.511,-0.505 4.643,4.79 5.747,-4.837 0.464,0.552 0.452,-0.552 6.146,5.101 5.072,-5.06 0.505,0.511 0.552,-0.458 3.997,4.866 2.542,-4.749 0.634,0.34 v 0 l 0.54,-0.47 4.35,5.048 2.407,-4.895 1.285,0.628 -2.677,5.441 4.925,5.706 -1.086,0.933 -4.526,-5.242 -2.506,5.095 -0.64,-0.317 v 0 l -0.558,0.452 -4.443,-5.412 -2.571,4.807 -0.634,-0.335 -0.458,0.552 -6.621,-5.512 -5.97,5.952 -0.505,-0.505 v 0 l -0.511,0.499 -6.005,-6.187 -6.105,5.13 -0.464,-0.546 -0.587,0.399 -2.823,-4.168 -4.402,5.33 -0.552,-0.458 -0.646,0.311 -2.641,-5.436 z m 7.696,-9.985 -2.43,3.152 1.82,3.757 z m 0.792,7.32 3.205,-3.88 -2.536,-3.751 z m 8.999,-8.635 -4.009,4.843 2.612,3.857 5.412,-4.555 z m 10.63,0.452 -4.514,3.798 4.667,4.813 z m 6.269,4.05 -4.837,-4.021 0.158,8.687 z m 2.125,-0.1 5.846,4.86 2.442,-4.555 -3.868,-4.708 z m 11.845,-3.298 -1.843,3.44 3.099,3.768 z m 2.753,7.472 1.802,-3.669 -3.052,-3.545 z m 3.769,25.17 -1.215,-6.152 -5.33,6.152 z m -1.785,-9.028 -1.203,-6.081 1.409,-0.276 1.197,6.081 5.559,-6.41 1.08,0.933 -6.199,7.15 10.225,7.772 -0.434,0.575 0.575,0.423 -6.181,8.458 12.156,9.632 -0.446,0.564 v 0 l 0.546,0.464 -6.932,8.212 13.565,9.474 -0.405,0.587 v 0.716 h -22.587 v -0.716 l -0.546,-0.458 7.872,-9.327 -11.975,-8.365 0.411,-0.587 -0.575,-0.423 6.95,-9.509 -10.83,-8.588 0.44,-0.558 v 0 l -0.54,-0.47 6.633,-7.66 -9.556,-7.261 0.863,-1.145 z m 2.137,3.416 1.104,5.612 h 6.269 z m 4.649,24.689 -2.049,-7.719 -5.641,7.719 z m -2.988,-11.247 -1.696,-6.398 h -6.369 z m -0.211,-6.398 1.767,6.662 4.872,-6.662 z m 2.706,10.196 1.972,7.449 h 7.42 z m 6.427,26.186 -2.542,-7.954 -6.715,7.954 z m -3.451,-10.807 -2.078,-6.498 h -7.226 z m -0.575,-6.498 2.06,6.451 5.447,-6.451 z m 3.222,10.096 2.307,7.208 h 8.012 z m -62.995,-30.605 1.109,-5.612 -7.373,5.612 z m 1.843,-9.304 1.197,-6.081 1.403,0.276 -1.197,6.081 8.928,-6.791 0.863,1.145 -9.556,7.261 6.633,7.66 -0.54,0.47 v 0 l 0.44,0.558 -10.83,8.588 6.95,9.509 -0.575,0.423 0.411,0.587 -11.975,8.365 7.871,9.327 -0.546,0.458 v 0.716 h -22.587 v -0.716 l -0.411,-0.587 13.565,-9.474 -6.926,-8.212 0.54,-0.464 v 0 l -0.44,-0.564 12.157,-9.632 -6.187,-8.458 0.575,-0.423 -0.428,-0.575 10.219,-7.772 -6.193,-7.15 1.08,-0.933 z m 0.833,3.152 -1.215,6.152 h 6.545 z m -3.017,7.584 h -6.639 l 4.872,6.662 z m -4.678,17.645 1.972,-7.449 -9.392,7.449 z m 3.528,-7.713 -2.049,7.713 h 7.69 z m -9.486,26.45 2.301,-7.208 -10.319,7.208 z m 3.469,-10.854 2.06,-6.451 h -7.508 z m 3.563,-6.451 -2.072,6.498 9.298,-6.498 z m -2.988,9.351 -2.542,7.954 h 9.251 z"
             id="path20" />
          <path
             inkscape:connector-curvature="0"
             style="fill:#263238"
             d="m 284.801,319.926 h -29.596 -0.382 -29.59 c -0.54,3.164 -1.104,6.263 -1.673,9.274 h 16.858 14.405 0.382 14.405 16.858 c -0.57,-3.011 -1.127,-6.11 -1.667,-9.274 z"
             id="path22" />
          <path
             inkscape:connector-curvature="0"
             style="fill:#263238"
             d="m 313.369,405.45 h -57.437 -0.387 -57.437 c -3.011,7.132 -6.069,14.07 -9.128,20.762 h 66.564 0.387 66.564 c -3.056,-6.692 -6.115,-13.63 -9.126,-20.762 z"
             id="path24" />
          <path
             inkscape:connector-curvature="0"
             style="fill:#263238"
             d="m 186.709,502.503 -0.006,-0.382 c 0,-19.095 7.713,-36.393 20.192,-48.949 12.485,-12.562 29.749,-20.368 48.832,-20.486 h 0.018 c 19.089,0.117 36.352,7.924 48.837,20.486 12.473,12.556 20.186,29.854 20.186,48.949 l -0.006,0.522 c -1.303,0.364 -2.606,0.716 -3.909,1.062 0.029,-0.575 0.053,-1.115 0.053,-1.585 0,-18.044 -7.279,-34.38 -19.06,-46.231 -11.787,-11.857 -28.093,-19.241 -46.114,-19.359 -18.015,0.117 -34.315,7.502 -46.102,19.359 -11.787,11.851 -19.059,28.193 -19.059,46.231 0,0.429 0.018,0.922 0.047,1.438 -1.309,-0.339 -2.612,-0.692 -3.909,-1.055 z m 170.925,-11.494 c -1.18,0.511 -2.371,1.021 -3.563,1.514 C 338.498,464.841 307.904,406.6 289.884,346.733 266.352,268.57 261.198,83.604 260.693,63.065 h -4.76 -0.387 -4.755 c -0.511,20.539 -5.664,205.504 -29.197,283.668 -17.985,59.744 -48.491,117.861 -64.093,145.614 -1.192,-0.493 -2.377,-1.004 -3.557,-1.52 15.45,-27.448 45.99,-85.524 63.952,-145.197 24.753,-82.231 29.079,-283.949 29.085,-284.531 l 1.931,0.035 v -1.931 h 6.633 0.387 6.633 v 1.931 l 1.925,-0.035 c 0.012,0.581 4.338,202.299 29.085,284.531 18.01,59.814 48.645,118.008 64.059,145.379 z M 255.932,400.584 h -0.387 -29.948 -2.524 l 0.663,-2.436 c 10.848,-39.886 15.491,-69.517 15.502,-69.599 l 3.804,0.622 c -0.012,0.082 -4.52,28.798 -14.921,67.551 h 27.424 0.387 27.424 c -10.407,-38.753 -14.91,-67.468 -14.921,-67.551 l 3.798,-0.622 c 0.012,0.082 4.661,29.713 15.502,69.599 l 0.663,2.436 h -2.524 z"
             id="path26" />
        </g>
        <polygon
           style="fill:#252a2d"
           points="255.545,405.45 255.932,405.45 320.836,405.45 320.836,391.609 255.932,391.609 255.545,391.609 190.642,391.609 190.642,405.45 "
           id="polygon30" />
        <g
           id="g38">
          <polygon
             style="fill:#263238"
             points="255.539,405.45 255.938,405.45 323.653,405.45 323.653,400.085 255.938,400.085 255.539,400.085 187.818,400.085 187.818,405.45 "
             id="polygon32" />
          <polygon
             style="fill:#263238"
             points="255.545,61.868 255.932,61.868 267.144,61.868 267.144,53.756 255.932,53.756 255.545,53.756 244.334,53.756 244.334,61.868 "
             id="polygon34" />
          <path
             inkscape:connector-curvature="0"
             style="fill:#263238"
             d="m 256.144,302.774 h -0.81 -34.386 v 6.521 h 34.386 0.81 34.386 v -6.521 z m -15.004,24.155 h 14.405 0.387 14.399 v 3.857 h -14.399 -0.387 -14.405 z"
             id="path36" />
        </g>
      </g>
      <path
         style="fill:#ffff00"
         d="m 307.26989,11.486527 c 19.112,0 34.609,15.496 34.609,34.608997 0,19.113 -15.496,34.609 -34.609,34.609 -19.113,0 -34.609,-15.496 -34.609,-34.609 0,-19.112997 15.497,-34.608997 34.609,-34.608997 z"
         id="path42"
         inkscape:connector-curvature="0" />
      <path
         style="fill:#ffffff"
         d="m 328.43695,136.77902 c 1.743,0 3.387,0.417 4.843,1.15 1.579,-1.544 3.733,-2.495 6.116,-2.495 4.121,0 7.572,2.859 8.5,6.698 2.06,0.616 3.716,2.166 4.467,4.168 0.247,-0.029 0.493,-0.041 0.751,-0.041 3.81,0 6.897,3.088 6.897,6.897 0,3.81 -3.088,6.897 -6.897,6.897 -1.186,0 -2.301,-0.299 -3.275,-0.822 -0.839,2.865 -3.487,4.954 -6.621,4.954 -1.919,0 -3.657,-0.781 -4.907,-2.043 -1.244,1.262 -2.982,2.043 -4.895,2.043 -1.826,0 -3.481,-0.704 -4.714,-1.861 -1.262,1.379 -3.076,2.248 -5.089,2.248 -1.89,0 -3.598,-0.757 -4.843,-1.99 -0.569,0.129 -1.162,0.194 -1.767,0.194 -4.537,0 -8.218,-3.68 -8.218,-8.218 0,-4.538 3.68,-8.212 8.218,-8.212 0.247,0 0.493,0.012 0.734,0.029 0.58,-5.393 5.153,-9.596 10.7,-9.596 z"
         id="path44"
         inkscape:connector-curvature="0" />
      <text
         xml:space="preserve"
         style="font-style:normal;font-weight:normal;font-size:56.16793823px;line-height:1.25;font-family:sans-serif;letter-spacing:0px;word-spacing:0px;fill:#000000;fill-opacity:1;stroke:#000000;stroke-width:2;stroke-miterlimit:4;stroke-dasharray:none"
         id="text943"
         transform="rotate(-1.1233973,6454.8261,28679.74)"><textPath
           xlink:href="#path894-4-3"
           id="textPath945"
           style="fill:#ffffff;stroke:#000000;stroke-width:2;stroke-miterlimit:4;stroke-dasharray:none"><tspan
   id="tspan939"
   style="font-style:normal;font-variant:normal;font-weight:normal;font-stretch:normal;font-size:56px;font-family:sans-serif;-inkscape-font-specification:'sans-serif, Normal';font-variant-ligatures:normal;font-variant-caps:normal;font-variant-numeric:normal;font-feature-settings:normal;text-align:start;writing-mode:lr-tb;text-anchor:start;fill:#ffffff;stroke:#000000;stroke-width:2;stroke-miterlimit:4;stroke-dasharray:none"
   y="-182.27373"
   x="-167.5457"><tspan
   style="fill:#0000ff;stroke:#000000"
   id="tspan1042">Pow</tspan>erS<tspan
   style="fill:#ff0000;stroke:#000000"
   id="tspan1044">hell</tspan>       <tspan
   style="fill:#0000ff;stroke:#000000"
   id="tspan1046">Sat</tspan>ur<tspan
   style="fill:#ff0000;stroke:#000000"
   id="tspan1048">day</tspan></tspan></textPath></text>
      <g
         id="g988"
         transform="matrix(0.34079067,0,0,0.34079067,124.09146,112.26058)"
         style="fill:#2c5591;fill-opacity:1;stroke:#000000;stroke-opacity:1">
        <g
           id="g1181"
           style="opacity:0.8">
          <path
             d="m 575.34313,-197.33225 c -0.72564,1.46104 -2.23155,3.07228 -4.89418,4.94295 l -78.24647,56.1963 c -4.27192,3.10349 -10.40477,1.9526 -13.69552,-2.57291 -3.29074,-4.52551 -2.49683,-10.70907 1.7751,-13.81451 l 70.56089,-51.09535 v -1.04945 l -44.33439,-47.16284 c -3.61651,-3.84668 -3.24003,-10.06731 0.84073,-13.89643 4.08076,-3.82718 10.31894,-3.81158 13.93545,0.0351 l 53.1962,56.59228 c 3.01961,3.21273 3.24393,8.07765 0.86219,11.82485 z"
             id="path3778-0"
             inkscape:connector-curvature="0"
             style="clip-rule:evenodd;fill:#2c5591;fill-opacity:1;fill-rule:evenodd;stroke:#000000;stroke-width:1.95065093;stroke-opacity:1" />
          <path
             d="m 548.74795,-155.30548 h 42.15942 c 4.90199,0 8.87546,3.93057 8.87546,8.77793 0,4.84737 -3.97347,8.77793 -8.87546,8.77793 h -42.15942 c -4.90198,0 -8.87546,-3.93056 -8.87546,-8.77793 0,-4.84736 3.97348,-8.77793 8.87546,-8.77793 z"
             id="path3780-9"
             inkscape:connector-curvature="0"
             style="clip-rule:evenodd;fill:#2c5591;fill-opacity:1;fill-rule:evenodd;stroke:#000000;stroke-width:1.95065093;stroke-opacity:1" />
        </g>
      </g>
      <text
         xml:space="preserve"
         style="font-style:normal;font-weight:normal;font-size:40px;line-height:1.25;font-family:sans-serif;letter-spacing:0px;word-spacing:0px;fill:#000000;fill-opacity:1;stroke:#333333;stroke-width:2;stroke-miterlimit:4;stroke-dasharray:none"
         id="text1023"
         x="-724.07733"
         y="-66.731705"
         transform="translate(-800.86424,-46.788896)"><textPath
           xlink:href="#path894-4-5-0"
           id="textPath1025"
           style="font-style:normal;font-variant:normal;font-weight:normal;font-stretch:normal;font-size:64px;font-family:sans-serif;-inkscape-font-specification:'sans-serif, Normal';font-variant-ligatures:normal;font-variant-caps:normal;font-variant-numeric:normal;font-feature-settings:normal;text-align:start;letter-spacing:6.46000147px;writing-mode:lr-tb;text-anchor:start;fill:#ffffff;stroke:#333333"><tspan
   id="tspan1015"
   style="font-style:normal;font-variant:normal;font-weight:normal;font-stretch:normal;font-size:64px;font-family:sans-serif;-inkscape-font-specification:'sans-serif, Normal';font-variant-ligatures:normal;font-variant-caps:normal;font-variant-numeric:normal;font-feature-settings:normal;text-align:start;letter-spacing:6.46000147px;writing-mode:lr-tb;text-anchor:start;fill:#ffffff;stroke:#000000;stroke-width:2;stroke-miterlimit:4;stroke-dasharray:none;stroke-opacity:1"
   y="-174.2231"
   x="-793.4082">Paris       2019</tspan></textPath></text>
      <rect
         id="_x3C_Slice_x3E__7_"
         width="124.16484"
         height="124.16484"
         x="193.91759"
         y="385.83148"
         style="fill:none;stroke-width:0.97003782" />
      <g
         id="g1177"
         transform="translate(-7.7508511)">
        <path
           style="fill:#59b4d9;stroke-width:0.97003782"
           inkscape:connector-curvature="0"
           id="path2-0"
           d="m 302.32998,440.66869 c 0,-10.44925 -4.55142,-19.86832 -11.81506,-26.47233 -6.57686,-5.98029 -15.37607,-9.64994 -25.06384,-9.70426 v -0.003 c -0.0359,0 -0.0718,9.7e-4 -0.10767,9.7e-4 -0.0359,0 -0.0718,-9.7e-4 -0.10768,-9.7e-4 v 0.003 c -20.38728,0.11349 -36.8789,16.26559 -36.8789,36.17659 0,5.28768 0.83909,10.41239 1.03794,15.63022 0.002,-0.0291 0.004,-0.0495 0.004,-0.0495 0,0 -9.7e-4,0.0204 -0.004,0.0495 0.007,0.17073 0.0184,0.34048 0.0233,0.51024 0.099,3.30783 0.25124,6.62051 0.55487,9.9167 1.31634,8.75556 5.21783,21.23509 16.38103,30.35151 5.29155,4.32152 11.94407,8.47522 18.77605,8.49268 0.0349,0 0.0708,0 0.10573,0 0,0 0.10768,0 0.21535,0 0.0378,0 0.0757,0 0.11252,0 6.82616,-0.0175 13.4748,-4.16631 18.76345,-8.48298 11.13312,-9.08537 15.04722,-21.5135 16.37715,-30.26809 0.30944,-3.32723 0.46464,-6.67095 0.56359,-10.00982 0.16199,-5.39438 1.06219,-10.68012 1.06219,-16.14046 z" />
        <path
           style="opacity:0.75;fill:#1e1e1e;stroke-width:0.97003782"
           inkscape:connector-curvature="0"
           id="path4-9"
           d="m 265.13,507.57123 c -6.13646,-0.0155 -12.69101,-2.94019 -20.04195,-8.94375 -11.62979,-9.49764 -15.71462,-22.42824 -17.09304,-31.60286 l -0.009,-0.0563 -0.005,-0.0572 c -0.26967,-2.92175 -0.44331,-6.01811 -0.56262,-10.04086 -0.003,-0.0815 -0.0252,-0.55486 -0.0252,-0.55486 -0.0854,-2.17871 -0.29005,-4.40397 -0.48696,-6.55649 -0.27064,-2.946 -0.55001,-5.99192 -0.55001,-9.08925 0,-20.28058 16.36744,-36.98851 36.87889,-38.11667 v -0.0601 l 4.21676,-0.003 v 0.0621 c 9.10186,0.49957 17.70513,4.06834 24.41003,10.16503 7.92424,7.20544 12.46984,17.39375 12.46984,27.95261 0,3.09539 -0.28131,6.13937 -0.55292,9.08246 -0.21632,2.33682 -0.43846,4.75319 -0.50927,7.11814 -0.12126,4.06931 -0.29781,7.19574 -0.57136,10.13593 l -0.006,0.0572 -0.009,0.0572 c -1.39006,9.15037 -5.48362,22.04508 -17.09012,31.5175 -7.3461,5.9958 -13.8958,8.91756 -20.02352,8.93405 H 265.13 Z" />
        <path
           style="fill:#59b4d9;stroke-width:0.97003782"
           inkscape:connector-curvature="0"
           id="path6-6"
           d="m 302.32998,440.66869 c 0,-10.44925 -4.55142,-19.86832 -11.81506,-26.47233 -6.57686,-5.98029 -15.37607,-9.64994 -25.06384,-9.70426 v -0.003 c -0.0359,0 -0.0718,9.7e-4 -0.10767,9.7e-4 -0.0359,0 -0.0718,-9.7e-4 -0.10768,-9.7e-4 v 0.003 c -20.38728,0.11349 -36.8789,16.26559 -36.8789,36.17659 0,5.28768 0.83909,10.41239 1.03794,15.63022 0.002,-0.0291 0.004,-0.0495 0.004,-0.0495 0,0 -9.7e-4,0.0204 -0.004,0.0495 0.007,0.17073 0.0184,0.34048 0.0233,0.51024 0.099,3.30783 0.25124,6.62051 0.55487,9.9167 1.31634,8.75556 5.21783,21.23509 16.38103,30.35151 5.29155,4.32152 11.94407,8.47522 18.77605,8.49268 0.0349,0 0.0708,0 0.10573,0 0,0 0.10768,0 0.21535,0 0.0378,0 0.0757,0 0.11252,0 6.82616,-0.0175 13.4748,-4.16631 18.76345,-8.48298 11.13312,-9.08537 15.04722,-21.5135 16.37715,-30.26809 0.30944,-3.32723 0.46464,-6.67095 0.56359,-10.00982 0.16199,-5.39438 1.06219,-10.68012 1.06219,-16.14046 z" />
        <path
           style="fill:#ffffff;stroke-width:0.97003782"
           inkscape:connector-curvature="0"
           id="path8-8"
           d="m 230.16498,432.82302 c -0.30653,1.30664 -0.54322,2.63754 -0.69648,3.99365 -0.0184,0.17267 -0.0388,0.34436 -0.0543,0.51703 -0.0243,0.24736 -0.0398,0.49569 -0.0582,0.74402 -0.0281,0.40256 -0.0572,0.80513 -0.0728,1.21255 l 47.37471,26.11729 -35.88946,26.17745 c 1.31828,1.54915 2.68797,3.00032 4.32831,4.42434 l 44.71292,-30.30398 z" />
        <path
           style="opacity:0.8;fill:#68217a;stroke-width:0.97003782"
           inkscape:connector-curvature="0"
           id="path10-2"
           d="m 286.47665,439.65888 c 5.27992,0 12.35731,0.85169 15.32854,9.70038 v -9.7e-4 c 0.26579,-2.87519 0.52479,-5.75718 0.52479,-8.6896 0,-10.44925 -4.55142,-19.86832 -11.81506,-26.47233 0.60142,2.03417 2.31839,19.10877 -4.03827,25.46252 z" />
        <path
           style="opacity:0.2;fill:#1e1e1e;stroke-width:0.97003782"
           inkscape:connector-curvature="0"
           id="path12"
           d="m 286.47665,439.65888 c 5.27992,0 12.35731,0.85169 15.32854,9.70038 v -9.7e-4 c 0.26579,-2.87519 0.52479,-5.75718 0.52479,-8.6896 0,-10.44925 -4.55142,-19.86832 -11.81506,-26.47233 0.60142,2.03417 2.31839,19.10877 -4.03827,25.46252 z" />
        <path
           style="fill:#68217a;stroke-width:0.57475108"
           inkscape:connector-curvature="0"
           id="path14-5"
           d="m 255.94984,406.57788 c -6.03668,-5.46828 -16.57894,-5.1099 -24.02825,0.39462 -4.83252,3.5708 -10.19888,2.49437 -11.93264,9.79832 -0.32644,1.37489 0.13809,6.32432 -1.64225,9.83705 -1.7803,3.51276 -6.75408,6.37052 -7.27575,12.51314 -0.83012,9.77336 4.27435,16.94744 6.54617,19.79835 2.75435,3.45717 3.97914,3.40846 2.85435,8.13813 -0.5587,2.3489 -1.0026,4.76772 -1.0026,7.22027 0,4.99066 0.32116,5.64625 3.81196,5.64625 5.88379,0 9.36982,-0.29409 11.2401,-9.17334 -4.32939,-5.49202 -5.99332,-12.11415 -6.61127,-16.96243 -0.16561,-2.12227 -0.24919,-4.25388 -0.30264,-6.383 -0.003,-0.1099 -0.009,-0.21916 -0.0126,-0.32844 -0.002,-0.0342 -0.004,-0.0687 -0.006,-0.10301 0.003,0.0238 0.006,0.0468 0.007,0.0713 l 4.64311,-6.82693 c 2.21151,-3.25175 5.86581,-4.0291 9.39577,-3.83741 v 0 c 6.50439,0 14.67904,-2.34454 18.64072,-11.07395 4.1495,-9.14649 -0.5788,-15.33405 -4.32568,-18.72879 z" />
        <path
           style="fill:#59b4d9;stroke-width:0.97003782"
           inkscape:connector-curvature="0"
           id="path18"
           d="m 281.98635,474.76455 c -2.23594,0 -4.23616,-0.43943 -5.9444,-1.30664 -3.53287,-1.79263 -5.72807,-5.09367 -5.72807,-8.61685 v -1.34156 l 1.07383,-0.80319 c 0.0524,-0.0388 6.18205,-4.31861 12.77152,-7.0483 6.01909,-2.49299 12.98881,-4.05766 13.28273,-4.12266 l 3.97618,-0.88467 -0.76342,4.0014 c -0.0543,0.28423 -1.31149,6.61566 -6.00938,10.21838 -1.65489,5.65338 -5.24694,9.09799 -10.19607,9.73918 -0.8449,0.10865 -1.67331,0.16491 -2.46292,0.16491 z" />
        <path
           style="fill:#68217a;stroke-width:0.97003782"
           inkscape:connector-curvature="0"
           id="path20-9"
           d="m 272.99118,464.84106 c 0,0 5.8794,-4.10423 12.19241,-6.71848 5.87261,-2.43188 12.83942,-3.98298 12.83942,-3.98298 0,0 -1.19024,6.23638 -5.71352,9.08635 z" />
        <path
           style="opacity:0.4;fill:#1e1e1e;stroke-width:0.97003782"
           inkscape:connector-curvature="0"
           id="path22-4"
           d="m 272.99118,464.84106 c 0,0 5.8794,-4.10423 12.19241,-6.71848 5.87261,-2.43188 12.83942,-3.98298 12.83942,-3.98298 0,0 -1.19024,6.23638 -5.71352,9.08635 z" />
        <path
           style="fill:#ffffff;stroke-width:0.97003782"
           inkscape:connector-curvature="0"
           id="path24-5"
           d="m 284.10297,471.94368 c 5.48556,-0.71104 8.28509,-5.62913 8.84771,-12.91896 0,0 -3.95969,0.46561 -10.53558,2.52403 -4.62708,1.44827 -9.42392,3.29231 -9.42392,3.29231 0,2.62395 1.77711,4.96757 4.26138,6.22862 2.09237,1.06122 4.56306,1.17083 6.85041,0.874 z" />
        <path
           style="fill:#68217a;stroke-width:0.97003782"
           inkscape:connector-curvature="0"
           id="path26-6"
           d="m 257.69272,464.84106 c 0,0 -5.8794,-4.10423 -12.19241,-6.71848 -5.87261,-2.43188 -12.83942,-3.98298 -12.83942,-3.98298 0,0 1.19024,6.23638 5.71352,9.08635 z" />
        <path
           style="opacity:0.4;fill:#1e1e1e;stroke-width:0.97003782"
           inkscape:connector-curvature="0"
           id="path28"
           d="m 257.69272,464.84106 c 0,0 -5.8794,-4.10423 -12.19241,-6.71848 -5.87261,-2.43188 -12.83942,-3.98298 -12.83942,-3.98298 0,0 1.19024,6.23638 5.71352,9.08635 z" />
        <path
           style="fill:#ffffff;stroke-width:0.97003782"
           inkscape:connector-curvature="0"
           id="path30"
           d="m 246.58093,471.94368 c -5.48556,-0.71104 -8.28509,-5.62913 -8.84771,-12.91896 0,0 3.95969,0.46561 10.53558,2.52403 4.62708,1.44827 9.42392,3.29231 9.42392,3.29231 0,2.62395 -1.77711,4.96757 -4.26138,6.22862 -2.09237,1.06122 -4.56306,1.17083 -6.85041,0.874 z" />
        <path
           style="fill:#ffffff;stroke-width:0.97003782"
           inkscape:connector-curvature="0"
           id="path32"
           d="m 294.67444,484.8413 h -21.68326 v 6.08214 h 17.40927 c 1.65683,-1.96821 3.0692,-4.01305 4.27399,-6.08214 z" />
        <path
           style="fill:#ec008c;stroke-width:0.62846661"
           inkscape:connector-curvature="0"
           id="path34"
           d="m 223.98601,466.96832 c -0.1304,5.15656 1.81351,8.45464 4.11382,10.15086 -1.74278,-2.32166 -2.37491,-4.68836 -2.54067,-7.33812 -0.24644,-3.93067 2.3539,-3.85135 1.68476,-10.98218 -0.74154,-7.89782 -7.85854,-17.80279 -4.54151,-26.91504 2.22406,-6.1094 7.67066,-5.79274 10.31134,-6.00718 3.82262,-0.31094 7.56402,1.0772 11.40266,0.78772 5.85273,-0.44104 13.93283,-8.1766 16.32266,-12.91357 -3.44136,4.64333 -11.14571,13.05652 -20.1066,10.11155 -4.78021,-1.57113 -9.79414,-2.56898 -14.5749,-0.61545 -4.73325,1.93425 -7.46179,6.85707 -7.45018,13.27882 0.0155,8.5969 4.00937,11.12657 6.00633,19.03869 1.82511,7.23233 -0.54868,8.2788 -0.62771,11.4039 z" />
        <path
           style="fill:#ec008c;stroke-width:0.82879901"
           inkscape:connector-curvature="0"
           id="path36-5"
           d="m 226.14582,420.31157 c 4.18502,-4.56887 9.03001,-3.7909 11.58846,-2.55604 3.7035,1.7868 4.64601,4.36711 9.86702,7.04538 5.62888,2.88683 12.04024,2.22721 22.0942,-5.73583 0,0 -13.34532,11.51338 -23.41698,1.72278 -4.12341,-4.00819 -4.95405,-6.89406 -10.07166,-7.56532 -5.06522,-0.66545 -7.79646,2.66954 -10.06104,7.08903 z" />
        <g
           transform="matrix(0.57496118,-0.01743866,0.01826406,0.54897757,267.12753,159.23305)"
           id="g1135">
          <path
             d="m -107.22042,471.41413 c 17.116187,-19.51535 53.667891,-39.82491 91.078501,-44.09329 14.258673,-1.62284 30.990835,-0.4088 44.192392,5.21676 35.223426,15.01297 37.241306,49.42979 19.882856,62.70981 l -67.227324,3.48656 -75.647092,8.07702 c -11.222223,-0.44322 -20.074183,-6.53815 -19.841573,-18.10861 0.12664,-6.47071 3.29661,-12.42387 7.56224,-17.28825 z m 0,0"
             id="path2-2"
             inkscape:connector-curvature="0"
             style="fill:#ff5555;stroke-width:0.3523719" />
          <path
             d="m 45.933329,497.24741 c 0.51204,-5.01579 -2.63728,-9.82099 -7.653073,-11.23323 -41.501427,-11.69021 -90.666945,-9.38053 -130.743743,6.51337 -5.428729,2.14865 -8.081153,8.29451 -5.932512,13.71911 2.144514,5.42047 8.290377,8.07977 13.716352,5.92838 35.805665,-14.19123 80.159105,-16.26279 117.232483,-5.81964 6.257355,1.76323 12.681263,-2.49551 13.380493,-9.10799 z m 0,0"
             id="path4-5"
             inkscape:connector-curvature="0"
             style="fill:#e34747;fill-opacity:1;stroke:none;stroke-width:0.3523719;stroke-opacity:1" />
        </g>
      </g>
      <flowRoot
         style="font-style:normal;font-weight:normal;font-size:40px;line-height:1.25;font-family:sans-serif;letter-spacing:0px;word-spacing:0px;fill:#000000;fill-opacity:1;stroke:none"
         id="flowRoot2597"
         xml:space="preserve"><flowRegion
           id="flowRegion2599"><rect
             y="-31.457628"
             x="-71.05085"
             height="597.69495"
             width="598.2373"
             id="rect2601" /></flowRegion><flowPara
           id="flowPara2603" /></flowRoot>    </g>
  </g>
</svg>
