<?xml version="1.0" encoding="UTF-8" standalone="no"?>
<!-- Generator: Adobe Illustrator 21.0.0, SVG Export Plug-In . SVG Version: 6.00 Build 0)  -->

<svg
   xmlns:dc="http://purl.org/dc/elements/1.1/"
   xmlns:cc="http://creativecommons.org/ns#"
   xmlns:rdf="http://www.w3.org/1999/02/22-rdf-syntax-ns#"
   xmlns:svg="http://www.w3.org/2000/svg"
   xmlns="http://www.w3.org/2000/svg"
   xmlns:sodipodi="http://sodipodi.sourceforge.net/DTD/sodipodi-0.dtd"
   xmlns:inkscape="http://www.inkscape.org/namespaces/inkscape"
   version="1.1"
   id="Layer_1"
   x="0px"
   y="0px"
   width="2042.7323"
   height="1323.1515"
   viewBox="0 0 1838.4591 1190.8364"
   enable-background="new 0 0 128 128"
   xml:space="preserve"
   sodipodi:docname="ps-saturday-paris-large.svg"
   inkscape:export-filename="C:\src\ps-design\ps-saturday-paris\ps-saturday-paris-simple.png"
   inkscape:export-xdpi="96"
   inkscape:export-ydpi="96"
   inkscape:version="0.92.4 (5da689c313, 2019-01-14)"><metadata
   id="metadata45"><rdf:RDF><cc:Work
       rdf:about=""><dc:format>image/svg+xml</dc:format><dc:type
         rdf:resource="http://purl.org/dc/dcmitype/StillImage" /><dc:title></dc:title></cc:Work></rdf:RDF></metadata><defs
   id="defs43" /><sodipodi:namedview
   pagecolor="#ffffff"
   bordercolor="#666666"
   borderopacity="1"
   objecttolerance="10"
   gridtolerance="10"
   guidetolerance="10"
   inkscape:pageopacity="0"
   inkscape:pageshadow="2"
   inkscape:window-width="3145"
   inkscape:window-height="1731"
   id="namedview41"
   showgrid="false"
   fit-margin-top="40"
   fit-margin-left="40"
   fit-margin-right="40"
   fit-margin-bottom="40"
   scale-x="0.9"
   inkscape:zoom="0.921875"
   inkscape:cx="48.477967"
   inkscape:cy="664.88806"
   inkscape:window-x="249"
   inkscape:window-y="93"
   inkscape:window-maximized="0"
   inkscape:current-layer="Layer_1" />


<linearGradient
   id="SVGID_1_"
   gradientUnits="userSpaceOnUse"
   x1="95.266701"
   y1="91.9263"
   x2="26.700001"
   y2="30.68"
   gradientTransform="matrix(7.3602257,0,0,5.9833947,6.5418893,-56.777818)">
	<stop
   offset="0"
   style="stop-color:#A9C8FF"
   id="stop8" />
	<stop
   offset="1"
   style="stop-color:#C7E6FF"
   id="stop10" />
</linearGradient>






<g
   id="g886"
   transform="matrix(2,0,0,2,-36,-77.813344)"><g
     transform="matrix(1.3521837,0,0,1.3521837,799.20335,443.24519)"
     id="g4">
	<line
   id="line2"
   y2="0"
   x2="0"
   y1="128"
   x1="0"
   style="fill:none" />
</g><line
     id="line6"
     y2="443.24515"
     x2="799.20325"
     y1="616.32483"
     x1="799.20325"
     style="clip-rule:evenodd;opacity:0;fill:#00ff18;fill-rule:evenodd;stroke-width:1.35218382" /><path
     id="path13"
     d="m 73.026812,595.41218 c -12.019244,0 -22.419245,-3.81741 -29.278975,-10.75814 C 36.7409,577.5637 34.334108,567.81675 37.153072,557.90826 L 169.5341,91.736022 c 5.5496,-19.5298 28.83,-34.82935 53.02306,-34.82935 H 882.2027 c 12.02658,0 22.42662,3.81742 29.27897,10.75814 7.00691,7.08435 9.41375,16.83729 6.59478,26.74578 L 785.69539,560.58284 c -5.54224,19.52981 -28.83003,34.83531 -53.01567,34.83531 H 73.026812 Z"
     style="clip-rule:evenodd;opacity:0.8;fill:url(#SVGID_1_);fill-rule:evenodd;stroke-width:6.63619852"
     inkscape:connector-curvature="0" /><g
     transform="matrix(7.3602258,0,0,5.9833947,6.5418943,-56.777818)"
     id="g30">
	<g
   id="g28">
		<linearGradient
   y2="90.277802"
   x2="93.585403"
   y1="30.7778"
   x1="26.5854"
   gradientUnits="userSpaceOnUse"
   id="SVGID_2_">
			<stop
   id="stop15"
   style="stop-color:#2D4664"
   offset="0" />
			<stop
   id="stop17"
   style="stop-color:#29405B"
   offset="0.1689" />
			<stop
   id="stop19"
   style="stop-color:#1E2F43"
   offset="0.4445" />
			<stop
   id="stop21"
   style="stop-color:#0C131B"
   offset="0.7902" />
			<stop
   id="stop23"
   style="stop-color:#000000"
   offset="1" />
		</linearGradient>
		<path
   id="path26"
   d="M 118.5,20 H 29.634 c -2.769,0 -5.53,2.259 -6.168,5.045 L 5.632,102.955 C 4.995,105.742 6.722,108 9.491,108 h 88.865 c 2.769,0 5.53,-2.258 6.168,-5.045 L 122.358,25.044 C 122.996,22.259 121.268,20 118.5,20 Z"
   style="clip-rule:evenodd;fill:url(#SVGID_2_);fill-rule:evenodd"
   inkscape:connector-curvature="0" />
	</g>
</g><g
     transform="matrix(7.767643,0,0,7.767643,1623.2071,-77.399256)"
     id="g1024"><g
       id="g1017"><path
         id="path32"
         d="m -166.64514,65.336629 h 12.94345 c 1.50497,0 2.72487,1.272605 2.72487,2.842252 0,1.569646 -1.2199,2.84285 -2.72487,2.84285 h -12.94345 c -1.50496,0 -2.72487,-1.272605 -2.72487,-2.84285 0,-1.569647 1.21991,-2.842252 2.72487,-2.842252 z"
         inkscape:connector-curvature="0"
         style="clip-rule:evenodd;fill:#2c5591;fill-rule:evenodd;stroke-width:0.59887302" /><path
         id="path34"
         d="m -158.24953,52.698612 c -0.22278,0.448556 -0.68511,0.943225 -1.50258,1.517544 l -24.02259,17.252933 c -1.31153,0.952807 -3.19439,0.599472 -4.20469,-0.789913 -1.0103,-1.389386 -0.76656,-3.287813 0.54498,-4.241219 l 21.66303,-15.68688 v -0.322194 l -13.61119,-14.479552 c -1.11031,-1.180978 -0.99472,-3.090784 0.25812,-4.266372 1.25284,-1.174989 3.16804,-1.170198 4.27835,0.01078 l 16.33186,17.374504 c 0.92706,0.986344 0.99593,2.479934 0.26471,3.630369 z"
         inkscape:connector-curvature="0"
         style="clip-rule:evenodd;fill:#2c5591;fill-rule:evenodd;stroke-width:0.59887302" /><path
         id="path36"
         d="m -158.84841,52.099739 c -0.22278,0.448555 -0.68511,0.943225 -1.50257,1.517544 l -24.02259,17.252933 c -1.31154,0.952807 -3.19439,0.599472 -4.20469,-0.789913 -1.0103,-1.389386 -0.76656,-3.287813 0.54497,-4.241219 l 21.66304,-15.686881 V 49.83001 l -13.61119,-14.479552 c -1.11031,-1.180978 -0.99473,-3.090784 0.25812,-4.266372 1.25284,-1.174989 3.16803,-1.170198 4.27834,0.01078 l 16.33187,17.374504 c 0.92706,0.986344 0.99593,2.479933 0.2647,3.630369 z"
         inkscape:connector-curvature="0"
         style="clip-rule:evenodd;fill:#ffffff;fill-rule:evenodd;stroke-width:0.59887302" /><path
         id="path38"
         d="M -167.01344,65.002458 H -154.07 c 1.50497,0 2.72487,1.206729 2.72487,2.694929 0,1.488199 -1.2199,2.694928 -2.72487,2.694928 h -12.94344 c -1.50497,0 -2.72487,-1.206729 -2.72487,-2.694928 0,-1.4882 1.2199,-2.694929 2.72487,-2.694929 z"
         inkscape:connector-curvature="0"
         style="clip-rule:evenodd;fill:#ffffff;fill-rule:evenodd;stroke-width:0.59887302" /></g></g><g
     id="g863"
     transform="matrix(1.0195082,0,0,1.0195082,325.771,66.624362)"><path
       d="M 373.76562,506.90234 C 259.04687,285.24609 264.91797,91.703125 264.91797,91.703125 h -29.1875 c 0,0 5.875,193.546875 -108.84766,415.203125 -1.20312,2.32031 0.47266,5.09375 3.08594,5.09375 h 64.77734 c 2.40625,0 4.35547,-1.94922 4.35547,-4.35547 v -4.86719 c 0,-32.82812 22.9375,-59.42187 51.22266,-59.42187 14.15234,0 26.94922,6.64844 36.22265,17.40234 9.27344,10.75391 15,25.60156 15,42.01953 v 4.86719 c 0,2.40625 1.94922,4.35547 4.35547,4.35547 h 64.77735 c 2.61719,0 4.29297,-2.76563 3.08593,-5.09766 z M 220.69141,369.1875 232.71875,319.94531 h 35.21094 l 12.61328,49.24219 z m 0,0"
       id="path2"
       inkscape:connector-curvature="0"
       style="fill:#fed22b" /><path
       d="m 250.32422,0 c -4.23047,0 -7.65625,3.429688 -7.65625,7.660156 v 43.125 c 0,4.230469 3.42578,7.65625 7.65625,7.65625 4.23047,0 7.66015,-3.425781 7.66015,-7.65625 v -43.125 C 257.98437,3.429688 254.55469,0 250.32422,0 Z m 0,0"
       id="path4"
       inkscape:connector-curvature="0"
       style="fill:#fed22b" /><path
       d="m 259.43359,91.703125 h -23.70312 c 0,0 5.875,193.542965 -108.84766,415.199215 -1.20312,2.33203 0.47266,5.09766 3.08594,5.09766 h 35.85156 c 23.65235,-49.57813 41.82813,-97.70703 54.8711,-142.8125 11.49218,-47.04688 41.95312,-158.29297 38.74218,-277.484375 z m 0,0"
       id="path6"
       inkscape:connector-curvature="0"
       style="fill:#fdc202" /><path
       d="m 266.96094,92.484375 h -33.26953 c -2.57032,0 -4.64844,-2.085937 -4.64844,-4.652344 V 55.433594 c 0,-2.566406 2.08203,-4.648438 4.64844,-4.648438 h 33.26953 c 2.5664,0 4.64843,2.082032 4.64843,4.648438 v 32.398437 c 0,2.570313 -2.08203,4.652344 -4.64843,4.652344 z m 0,0"
       id="path8"
       inkscape:connector-curvature="0"
       style="fill:#f0a70a" /><path
       d="m 259.16016,92.476562 h -25.46875 c -2.5625,0 -4.64844,-2.070312 -4.64844,-4.644531 V 55.441406 c 0,-2.574218 2.08594,-4.65625 4.64844,-4.65625 h 25.46875 c -2.57422,0 -4.64844,2.082032 -4.64844,4.65625 v 32.390625 c 0,2.574219 2.07422,4.644531 4.64844,4.644531 z m 0,0"
       id="path10"
       inkscape:connector-curvature="0"
       style="fill:#e38803" /><path
       d="m 477.25391,288.17187 c 0.0312,20.85938 -17.75,37.91797 -38.60938,37.91797 h -94.38672 c -4.65234,0 -8.85156,-1.91406 -11.7539,-4.87109 -3.01563,-3 -4.88282,-7.15625 -4.88282,-11.75391 0,-4.59375 1.86719,-8.75 4.88282,-11.7539 2.91796,-2.97266 7.14843,-4.8711 11.7539,-4.8711 h 16.37891 c 0.83594,0 1.47656,-0.74218 1.35156,-1.57031 -1.40234,-9.03906 2.30859,-17.55078 9.32031,-22.89453 0.0117,0.008 0.0117,0 0.0117,0 10.00781,-7.48047 23.83594,-5.94531 32.03125,3.05859 0.64844,0.71094 1.79688,0.57422 2.23047,-0.28515 6.25,-12.33594 19.03906,-20.78907 33.80859,-20.78907 7.66016,0 14.78516,2.27735 20.75,6.1875 10.28907,6.75391 17.09766,18.39063 17.11329,31.625 z m 0,0"
       id="path12"
       inkscape:connector-curvature="0"
       style="fill:#93dcfc" /><path
       d="m 35.648438,150.71094 c 15.695312,-0.89844 29.460937,7.77734 36.015624,20.71875 0.4375,0.86328 1.585938,1.00781 2.238282,0.29687 4.871094,-5.35156 12.132812,-8.48437 20.101562,-7.71094 9.878904,0.96094 18.253904,8.1211 20.765624,17.72266 0.89063,3.40234 0.99219,6.70313 0.50781,9.8125 -0.1289,0.83594 0.50782,1.58203 1.35157,1.58203 h 15.90625 c 8.95312,0 16.65625,6.88281 17.07812,15.82422 0.44922,9.54688 -7.16016,17.42969 -16.60937,17.42969 H 37.871094 c -21.808594,0 -39.3125,-18.4375 -37.7734378,-40.57422 C 1.40625,166.96875 16.792969,151.78906 35.648438,150.71094 Z m 0,0"
       id="path14"
       inkscape:connector-curvature="0"
       style="fill:#b4e7fd" /><path
       d="M 73.617188,226.38281 H 37.875 C 16.953125,226.38281 0,209.42969 0,188.51562 c 0,-20.91406 16.953125,-37.86328 37.875,-37.86328 6.464844,0 12.550781,1.61328 17.871094,4.47266 -11.90625,6.38281 -20.003906,18.94141 -20.003906,33.39062 0,20.91407 16.949218,37.86719 37.875,37.86719 z m 0,0"
       id="path16"
       inkscape:connector-curvature="0"
       style="fill:#93dcfc" /><path
       d="m 439.39062,250.35937 c -14.76953,0 -27.55468,8.45313 -33.80859,20.78907 -0.43359,0.85937 -1.58594,0.99609 -2.23437,0.28125 -8.25782,-9.08594 -22.07813,-10.46485 -32.03125,-3.05469 0,0 0,0.008 -0.008,0 -7.17187,5.49609 -10.68359,14.05859 -9.32031,22.89453 0.125,0.82813 -0.51562,1.57031 -1.35156,1.57031 h -16.37891 c -4.28906,0 -8.52344,1.64063 -11.7539,4.8711 -3.01172,3.0039 -4.8711,7.16797 -4.8711,11.7539 0,4.59766 1.85938,8.75391 4.8711,11.75391 3.21875,3.21875 7.41797,4.87109 11.7539,4.87109 h 29.22657 c -5.94532,-2.46093 -10.10938,-8.21093 -10.10938,-14.91015 0,-8.94531 7.44141,-16.20313 16.625,-16.20313 h 15.39453 c 1.34766,0 2.34766,-1.1914 2.19531,-2.53125 -0.0976,-0.85937 -0.14843,-1.73437 -0.14843,-2.61718 0,-12.89844 10.72265,-23.35547 23.95703,-23.35547 7.01953,0 13.33594,2.94922 17.72265,7.64843 0.64844,0.69141 1.76954,0.55469 2.21485,-0.28515 3.94531,-7.46875 11,-13.77344 18.80469,-17.28906 -5.96485,-3.91016 -13.09375,-6.1875 -20.75001,-6.18751 z m 0,0"
       id="path18"
       inkscape:connector-curvature="0"
       style="fill:#72d1fb" /><path
       d="m 207.04687,71.191406 c 0.0312,20.855469 -17.75,37.917974 -38.60937,37.917974 H 74.050781 c -4.652343,0 -8.851562,-1.91407 -11.753906,-4.8711 -3.015625,-3.0039 -4.882813,-7.160155 -4.882813,-11.753905 0,-4.59375 1.867188,-8.75 4.882813,-11.753906 2.917969,-2.972657 7.148437,-4.871094 11.753906,-4.871094 h 16.378907 c 0.835937,0 1.476562,-0.742187 1.351562,-1.570313 -1.402344,-9.042968 2.308594,-17.550781 9.32031,-22.898437 0.0117,0.01172 0.0117,0 0.0117,0 10.00781,-7.476563 23.83594,-5.941406 32.03125,3.0625 0.64844,0.710937 1.79688,0.574219 2.23047,-0.285156 6.25,-12.335938 19.03906,-20.789063 33.80859,-20.789063 7.66016,0 14.78516,2.277344 20.75,6.1875 10.28907,6.75 17.09375,18.390625 17.11328,31.625 z m 0,0"
       id="path20"
       inkscape:connector-curvature="0"
       style="fill:#93dcfc" /><path
       d="m 169.18359,33.378906 c -14.76953,0 -27.55859,8.449219 -33.80859,20.789063 -0.43359,0.859375 -1.58594,0.996093 -2.23438,0.28125 -8.25781,-9.085938 -22.07812,-10.464844 -32.03124,-3.058594 0,0 0,0.01172 -0.008,0 -7.171872,5.496094 -10.683591,14.0625 -9.32031,22.898437 0.125,0.828126 -0.515625,1.570313 -1.351562,1.570313 H 74.050781 c -4.289062,0 -8.523437,1.636719 -11.753906,4.871094 -3.011719,3.003906 -4.871094,7.167969 -4.871094,11.753906 0,4.59375 1.859375,8.750005 4.871094,11.753905 3.21875,3.21875 7.417969,4.8711 11.753906,4.8711 h 29.226559 c -5.945309,-2.46094 -10.109371,-8.21094 -10.109371,-14.910161 0,-8.945313 7.441411,-16.207031 16.625001,-16.207031 h 15.39453 c 1.34766,0 2.34766,-1.1875 2.19531,-2.53125 -0.0977,-0.855469 -0.14843,-1.730469 -0.14843,-2.613282 0,-12.898437 10.72265,-23.355468 23.95703,-23.355468 7.01953,0 13.33593,2.949218 17.71875,7.644531 0.64843,0.695312 1.77343,0.558593 2.21875,-0.28125 3.94531,-7.46875 11,-13.773438 18.80468,-17.289063 -5.96484,-3.910156 -13.09375,-6.1875 -20.75,-6.1875 z m 0,0"
       id="path22"
       inkscape:connector-curvature="0"
       style="fill:#72d1fb" /><path
       d="M 304.60156,288.22656 H 196.04687 c -3.67968,0 -6.66796,-2.98828 -6.66796,-6.66797 v -27.58593 c 0,-3.67969 2.98828,-6.66407 6.66796,-6.66407 h 108.55469 c 3.6836,0 6.66797,2.98438 6.66797,6.66407 v 27.58593 c 0,3.67969 -2.98437,6.66797 -6.66797,6.66797 z m 0,0"
       id="path24"
       inkscape:connector-curvature="0"
       style="fill:#f0a70a" /><path
       d="m 137.89062,369.15234 h 224.8711 c 3.125,0 5.65625,2.53125 5.65625,5.65625 v 29.59766 c 0,3.12891 -2.53125,5.66016 -5.65625,5.66016 h -224.8711 c -3.125,0 -5.66015,-2.53125 -5.66015,-5.66016 v -29.59766 c 0,-3.125 2.53515,-5.65625 5.66015,-5.65625 z m 0,0"
       id="path26-3"
       inkscape:connector-curvature="0"
       style="fill:#f0a70a" /><g
       id="g32"
       style="fill:#e38803"><path
         d="m 221.51953,288.23047 h -25.46875 c -3.6875,0 -6.66797,-2.99219 -6.66797,-6.66797 v -27.58203 c 0,-3.6875 2.98047,-6.67188 6.66797,-6.67188 h 25.46875 c -3.6875,0 -6.66797,2.98438 -6.66797,6.67188 v 27.58203 c 0,3.67187 2.98047,6.66797 6.66797,6.66797 z m 0,0"
         id="path28"
         inkscape:connector-curvature="0" /><path
         d="m 163.36328,410.06641 h -25.46875 c -3.125,0 -5.66016,-2.53125 -5.66016,-5.65625 v -29.59375 c 0,-3.125 2.53516,-5.66797 5.66016,-5.66797 h 25.46875 c -3.13672,0 -5.66797,2.54297 -5.66797,5.66797 v 29.59375 c 0,3.125 2.53125,5.65625 5.66797,5.65625 z m 0,0"
         id="path30"
         inkscape:connector-curvature="0" /></g></g></g></svg>