<?xml version="1.0" encoding="UTF-8" standalone="no"?>
<!-- Generator: Adobe Illustrator 19.0.0, SVG Export Plug-In . SVG Version: 6.00 Build 0)  -->

<svg
   xmlns:dc="http://purl.org/dc/elements/1.1/"
   xmlns:cc="http://creativecommons.org/ns#"
   xmlns:rdf="http://www.w3.org/1999/02/22-rdf-syntax-ns#"
   xmlns:svg="http://www.w3.org/2000/svg"
   xmlns="http://www.w3.org/2000/svg"
   xmlns:sodipodi="http://sodipodi.sourceforge.net/DTD/sodipodi-0.dtd"
   xmlns:inkscape="http://www.inkscape.org/namespaces/inkscape"
   version="1.1"
   id="Capa_1"
   x="0px"
   y="0px"
   viewBox="0 0 1200 1200"
   xml:space="preserve"
   sodipodi:docname="penguin.svg"
   inkscape:export-filename="C:\Users\Adilio\Desktop\penguin.png"
   inkscape:export-xdpi="96"
   inkscape:export-ydpi="96"
   width="1200"
   height="1200"
   inkscape:version="0.92.4 (5da689c313, 2019-01-14)"><metadata
   id="metadata63"><rdf:RDF><cc:Work
       rdf:about=""><dc:format>image/svg+xml</dc:format><dc:type
         rdf:resource="http://purl.org/dc/dcmitype/StillImage" /><dc:title></dc:title></cc:Work></rdf:RDF></metadata><defs
   id="defs61">
	
	
<linearGradient
   id="SVGID_1_"
   gradientUnits="userSpaceOnUse"
   x1="95.266701"
   y1="91.9263"
   x2="26.700001"
   y2="30.68"
   gradientTransform="matrix(0.5,0,0,0.5,-2.0011686,-9.5)"><stop
     offset="0"
     style="stop-color:#A9C8FF"
     id="stop3750" /><stop
     offset="1"
     style="stop-color:#C7E6FF"
     id="stop3752" /></linearGradient><linearGradient
   y2="90.277802"
   x2="93.585403"
   y1="30.7778"
   x1="26.5854"
   gradientUnits="userSpaceOnUse"
   id="SVGID_2_"><stop
     id="stop3757"
     style="stop-color:#2D4664"
     offset="0" /><stop
     id="stop3759"
     style="stop-color:#29405B"
     offset="0.1689" /><stop
     id="stop3761"
     style="stop-color:#1E2F43"
     offset="0.4445" /><stop
     id="stop3763"
     style="stop-color:#0C131B"
     offset="0.7902" /><stop
     id="stop3765"
     style="stop-color:#000000"
     offset="1" /></linearGradient></defs><sodipodi:namedview
   pagecolor="#ffffff"
   bordercolor="#666666"
   borderopacity="1"
   objecttolerance="10"
   gridtolerance="10"
   guidetolerance="10"
   inkscape:pageopacity="0"
   inkscape:pageshadow="2"
   inkscape:window-width="1830"
   inkscape:window-height="1066"
   id="namedview59"
   showgrid="false"
   inkscape:zoom="0.53727022"
   inkscape:cx="95.854043"
   inkscape:cy="571.83476"
   inkscape:window-x="354"
   inkscape:window-y="199"
   inkscape:window-maximized="0"
   inkscape:current-layer="Capa_1" />

<g
   id="g28"
   transform="translate(0,1044.699)">
</g>
<g
   id="g30"
   transform="translate(0,1044.699)">
</g>
<g
   id="g32"
   transform="translate(0,1044.699)">
</g>
<g
   id="g34"
   transform="translate(0,1044.699)">
</g>
<g
   id="g36"
   transform="translate(0,1044.699)">
</g>
<g
   id="g38"
   transform="translate(0,1044.699)">
</g>
<g
   id="g40"
   transform="translate(0,1044.699)">
</g>
<g
   id="g42"
   transform="translate(0,1044.699)">
</g>
<g
   id="g44"
   transform="translate(0,1044.699)">
</g>
<g
   id="g46"
   transform="translate(0,1044.699)">
</g>
<g
   id="g48"
   transform="translate(0,1044.699)">
</g>
<g
   id="g50"
   transform="translate(0,1044.699)">
</g>
<g
   id="g52"
   transform="translate(0,1044.699)">
</g>
<g
   id="g54"
   transform="translate(0,1044.699)">
</g>
<g
   id="g56"
   transform="translate(0,1044.699)">
</g>
<g
   id="g997"
   transform="matrix(7.7268785,0,0,7.7268785,0.00787268,-8072.2544)"><circle
     style="fill:#98e2ed"
     cx="77.650002"
     cy="1122.349"
     r="77.650002"
     id="circle2" /><g
     style="opacity:1"
     transform="matrix(0.95088834,0,0,0.95088834,83.30417,1125.3844)"
     id="g848"><path
       d="m 2.5153314,45 c -0.8165,0 -1.52300003,-0.319 -1.98900003,-0.899 -0.476,-0.5925 -0.6395,-1.407 -0.448,-2.235 L 9.0713314,2.9105 C 9.4483314,1.2785 11.029831,0 12.673331,0 H 57.48483 c 0.817,0 1.5235,0.319 1.989,0.899 0.476,0.592 0.6395,1.407 0.448,2.235 l -8.993,38.9555 c -0.3765,1.632 -1.958499,2.911 -3.601499,2.911 H 2.5153314 Z"
       id="path3755"
       inkscape:connector-curvature="0"
       style="clip-rule:evenodd;opacity:0.8;fill:url(#SVGID_1_);fill-rule:evenodd;stroke-width:0.5" /><g
       id="g3772"
       transform="matrix(0.5,0,0,0.5,-2.0011686,-9.5)"><g
         id="g3770"><linearGradient
           id="linearGradient878"
           gradientUnits="userSpaceOnUse"
           x1="26.5854"
           y1="30.7778"
           x2="93.585403"
           y2="90.277802"><stop
             offset="0"
             style="stop-color:#2D4664"
             id="stop868" /><stop
             offset="0.1689"
             style="stop-color:#29405B"
             id="stop870" /><stop
             offset="0.4445"
             style="stop-color:#1E2F43"
             id="stop872" /><stop
             offset="0.7902"
             style="stop-color:#0C131B"
             id="stop874" /><stop
             offset="1"
             style="stop-color:#000000"
             id="stop876" /></linearGradient><path
           d="M 118.5,20 H 29.634 c -2.769,0 -5.53,2.259 -6.168,5.045 L 5.632,102.955 C 4.995,105.742 6.722,108 9.491,108 h 88.865 c 2.769,0 5.53,-2.258 6.168,-5.045 L 122.358,25.044 C 122.996,22.259 121.268,20 118.5,20 Z"
           id="path3768"
           inkscape:connector-curvature="0"
           style="clip-rule:evenodd;fill:url(#SVGID_2_);fill-rule:evenodd" /></g></g><path
       d="m 30.081331,34.279 h 10.8065 c 1.2565,0 2.275,1.0625 2.275,2.373 0,1.3105 -1.0185,2.3735 -2.275,2.3735 h -10.8065 c -1.2565,0 -2.275,-1.0625 -2.275,-2.3735 0,-1.3105 1.0185,-2.373 2.275,-2.373 z"
       id="path3774"
       inkscape:connector-curvature="0"
       style="clip-rule:evenodd;fill:#2c5591;fill-rule:evenodd;stroke-width:0.5" /><path
       d="m 37.090831,23.7275 c -0.186,0.3745 -0.572,0.7875 -1.2545,1.267 l -20.0565,14.4045 c -1.095,0.7955 -2.667,0.5005 -3.5105,-0.6595 -0.8435,-1.16 -0.64,-2.745 0.455,-3.541 l 18.0865,-13.097 v -0.269 l -11.364,-12.089 c -0.927,-0.986 -0.8305,-2.5805 0.2155,-3.562 1.046,-0.981 2.645,-0.977 3.572,0.009 l 13.6355,14.506 c 0.774,0.8235 0.8315,2.0705 0.221,3.031 z"
       id="path3776"
       inkscape:connector-curvature="0"
       style="clip-rule:evenodd;fill:#2c5591;fill-rule:evenodd;stroke-width:0.5" /><path
       d="m 36.590831,23.2275 c -0.186,0.3745 -0.572,0.7875 -1.2545,1.267 l -20.0565,14.4045 c -1.095,0.7955 -2.667,0.5005 -3.5105,-0.6595 -0.8435,-1.16 -0.64,-2.745 0.455,-3.541 l 18.0865,-13.097 v -0.269 l -11.364,-12.089 c -0.927,-0.986 -0.8305,-2.5805 0.2155,-3.562 1.046,-0.981 2.645,-0.977 3.572,0.009 l 13.6355,14.506 c 0.774,0.8235 0.8315,2.0705 0.221,3.031 z"
       id="path3778"
       inkscape:connector-curvature="0"
       style="clip-rule:evenodd;fill:#ffffff;fill-rule:evenodd;stroke-width:0.5" /><path
       d="m 29.773831,34 h 10.8065 c 1.2565,0 2.275,1.0075 2.275,2.25 0,1.2425 -1.0185,2.25 -2.275,2.25 h -10.8065 c -1.2565,0 -2.275,-1.0075 -2.275,-2.25 0,-1.2425 1.0185,-2.25 2.275,-2.25 z"
       id="path3780"
       inkscape:connector-curvature="0"
       style="clip-rule:evenodd;fill:#ffffff;fill-rule:evenodd;stroke-width:0.5" /></g><g
     transform="matrix(1.0158319,0,0,1.0158319,-20.42333,1038.9429)"
     id="g915"><g
       id="g24">
		<g
   id="g20">
			<path
   inkscape:connector-curvature="0"
   id="path4"
   d="M 119.414,96.013 C 115.174,82.57 109.564,74.25 106.049,69.977 104.114,58.061 101.892,46.52 101.4,45.112 97.973,35.299 88.635,28.256 77.651,28.256 c -11.502,0 -21.199,7.721 -24.194,18.262 -0.333,1.17 -2.389,12.052 -4.23,23.491 -3.519,4.283 -9.111,12.595 -13.341,26.004 -5.325,16.891 6.975,9.193 10.435,1.903 0.873,9.854 6.284,18.396 14.133,23.531 4.944,3.233 10.849,5.119 17.197,5.119 6.349,0 12.253,-1.886 17.195,-5.119 7.85,-5.136 13.262,-13.678 14.135,-23.531 3.459,7.29 15.759,14.987 10.433,-1.903 z M 77.65,121.066 c -14.314,0 -25.961,-11.646 -25.961,-25.961 0,-9.31 6.124,-44.157 7.072,-47.133 1.868,-5.855 7.383,-8.607 12.643,-6.086 3.959,1.899 6.246,7.107 6.246,7.107 0,0 1.654,-5.081 5.507,-6.877 5.897,-2.751 12.119,1.336 13.518,7.095 0.773,3.184 6.936,36.463 6.936,45.893 -0.001,14.316 -11.646,25.962 -25.961,25.962 z"
   style="fill:#353a42" />
			<path
   inkscape:connector-curvature="0"
   id="path6"
   d="m 60.453,121.648 c -2.792,0.213 -5.265,1.545 -5.111,5.545 H 67.98 87.319 99.958 c 0.153,-4 -2.318,-5.332 -5.112,-5.545 -4.942,3.234 -10.847,5.121 -17.195,5.121 -6.349,10e-4 -12.254,-1.886 -17.198,-5.121 z"
   style="fill:#ff802a" />
			<path
   inkscape:connector-curvature="0"
   id="path8"
   d="m 83.157,42.117 c -3.853,1.796 -5.507,6.877 -5.507,6.877 0,0 -2.287,-5.208 -6.246,-7.107 -5.26,-2.521 -10.774,0.23 -12.643,6.086 -0.948,2.976 -7.072,37.823 -7.072,47.133 0,14.314 11.646,25.961 25.961,25.961 14.314,0 25.96,-11.646 25.96,-25.961 0,-9.431 -6.162,-42.709 -6.936,-45.893 -1.398,-5.76 -7.619,-9.847 -13.517,-7.096 z M 78.338,57.74 c 3.854,0 5.322,4.556 5.322,4.556 l -5.322,3.855 -5.322,-3.855 c 0,0 1.468,-4.556 5.322,-4.556 z M 64.513,52.627 c 0.447,-1.877 2.331,-3.035 4.21,-2.588 1.878,0.446 3.036,2.332 2.588,4.21 -0.445,1.876 -2.33,3.035 -4.208,2.588 -1.878,-0.447 -3.038,-2.331 -2.59,-4.21 z m 23.685,4.21 c -1.876,0.447 -3.762,-0.712 -4.208,-2.588 -0.449,-1.878 0.71,-3.764 2.588,-4.21 1.877,-0.447 3.762,0.711 4.21,2.588 0.447,1.879 -0.712,3.763 -2.59,4.21 z"
   style="fill:#ffffff" />
			<path
   inkscape:connector-curvature="0"
   id="path10"
   d="m 83.66,62.296 c 0,0 -1.469,-4.556 -5.322,-4.556 -3.854,0 -5.322,4.556 -5.322,4.556 l 5.322,3.855 z"
   style="fill:#ff802a" />
			<path
   inkscape:connector-curvature="0"
   id="path12"
   d="m 86.578,50.039 c -1.878,0.446 -3.037,2.332 -2.588,4.21 0.446,1.876 2.332,3.035 4.208,2.588 1.878,-0.447 3.037,-2.331 2.59,-4.21 -0.448,-1.877 -2.333,-3.035 -4.21,-2.588 z m 2.409,4.143 c -0.44,-0.725 -1.256,-1.251 -2.296,-1.081 -0.549,0.092 -0.933,0.335 -1.177,0.657 -0.1,-0.945 0.545,-1.817 1.495,-1.973 0.982,-0.162 1.91,0.505 2.072,1.487 0.053,0.318 0.011,0.628 -0.094,0.91 z"
   style="fill:#353a42" />
			<path
   inkscape:connector-curvature="0"
   id="path14"
   d="m 87.01,51.785 c -0.95,0.155 -1.595,1.027 -1.495,1.973 0.244,-0.322 0.628,-0.565 1.177,-0.657 1.04,-0.17 1.855,0.356 2.296,1.081 0.104,-0.282 0.146,-0.592 0.095,-0.909 -0.163,-0.983 -1.091,-1.65 -2.073,-1.488 z"
   style="fill:#ffffff" />
			<path
   inkscape:connector-curvature="0"
   id="path16"
   d="m 67.103,56.837 c 1.878,0.447 3.763,-0.712 4.208,-2.588 0.448,-1.878 -0.71,-3.764 -2.588,-4.21 -1.879,-0.447 -3.763,0.711 -4.21,2.588 -0.448,1.879 0.712,3.763 2.59,4.21 z m -0.884,-3.565 c 0.162,-0.982 1.088,-1.649 2.072,-1.487 0.95,0.155 1.596,1.027 1.493,1.973 -0.243,-0.322 -0.625,-0.565 -1.175,-0.657 -1.04,-0.17 -1.854,0.356 -2.297,1.081 -0.101,-0.282 -0.146,-0.592 -0.093,-0.91 z"
   style="fill:#353a42" />
			<path
   inkscape:connector-curvature="0"
   id="path18"
   d="m 68.609,53.101 c 0.55,0.092 0.932,0.335 1.175,0.657 0.103,-0.945 -0.543,-1.817 -1.493,-1.973 -0.984,-0.162 -1.91,0.505 -2.072,1.487 -0.053,0.317 -0.008,0.627 0.094,0.909 0.442,-0.724 1.256,-1.25 2.296,-1.08 z"
   style="fill:#ffffff" />
		</g>
		<path
   inkscape:connector-curvature="0"
   id="path22"
   d="M 119.414,96.013 C 115.174,82.57 109.564,74.25 106.049,69.977 104.114,58.061 101.892,46.52 101.4,45.112 97.973,35.299 88.635,28.256 77.651,28.256 c -0.037,0 -0.071,0.003 -0.108,0.003 v 98.529 h 22.416 c 0.153,-3.872 -2.318,-5.128 -5.112,-5.341 7.85,-5.136 13.262,-13.678 14.135,-23.531 3.458,7.29 15.758,14.987 10.432,-1.903 z"
   style="opacity:0.3;fill:#ffffff" />
	</g></g></g></svg>