<?xml version="1.0" encoding="UTF-8" standalone="no"?>
<svg
   xmlns:dc="http://purl.org/dc/elements/1.1/"
   xmlns:cc="http://creativecommons.org/ns#"
   xmlns:rdf="http://www.w3.org/1999/02/22-rdf-syntax-ns#"
   xmlns:svg="http://www.w3.org/2000/svg"
   xmlns="http://www.w3.org/2000/svg"
   xmlns:xlink="http://www.w3.org/1999/xlink"
   xmlns:sodipodi="http://sodipodi.sourceforge.net/DTD/sodipodi-0.dtd"
   xmlns:inkscape="http://www.inkscape.org/namespaces/inkscape"
   id="Capa_1"
   enable-background="new 0 0 510 510"
   height="1387.7889"
   viewBox="0 0 1040.6689 1382.3679"
   width="1044.75"
   version="1.1"
   sodipodi:docname="planet-powershell-black-text.svg"
   inkscape:version="0.92.2 5c3e80d, 2017-08-06"
   inkscape:export-filename="C:\Users\adilio\Desktop\planet-powershell-white-text.png"
   inkscape:export-xdpi="96"
   inkscape:export-ydpi="96">
  <metadata
     id="metadata136">
    <rdf:RDF>
      <cc:Work
         rdf:about="">
        <dc:format>image/svg+xml</dc:format>
        <dc:type
           rdf:resource="http://purl.org/dc/dcmitype/StillImage" />
        <dc:title></dc:title>
      </cc:Work>
    </rdf:RDF>
  </metadata>
  <defs
     id="defs134">
    <linearGradient
       id="SVGID_2_-7"
       gradientUnits="userSpaceOnUse"
       x1="26.5854"
       y1="30.7778"
       x2="93.585403"
       y2="90.277802">
      <stop
         offset="0"
         style="stop-color:#2D4664"
         id="stop15" />
      <stop
         offset="0.1689"
         style="stop-color:#29405B"
         id="stop17" />
      <stop
         offset="0.4445"
         style="stop-color:#1E2F43"
         id="stop19" />
      <stop
         offset="0.7902"
         style="stop-color:#0C131B"
         id="stop21" />
      <stop
         offset="1"
         style="stop-color:#000000"
         id="stop23" />
    </linearGradient>
  </defs>
  <sodipodi:namedview
     pagecolor="#ffffff"
     bordercolor="#666666"
     borderopacity="1"
     objecttolerance="10"
     gridtolerance="10"
     guidetolerance="10"
     inkscape:pageopacity="0"
     inkscape:pageshadow="2"
     inkscape:window-width="1353"
     inkscape:window-height="835"
     id="namedview132"
     showgrid="false"
     showguides="false"
     inkscape:zoom="0.32593203"
     inkscape:cx="458.68047"
     inkscape:cy="723.11941"
     inkscape:window-x="190"
     inkscape:window-y="7"
     inkscape:window-maximized="0"
     inkscape:current-layer="Capa_1"
     fit-margin-top="0"
     fit-margin-left="0"
     fit-margin-right="0"
     fit-margin-bottom="0" />
  <linearGradient
     id="SVGID_1_"
     gradientUnits="userSpaceOnUse"
     x1="131.515"
     x2="440.582"
     y1="131.515"
     y2="440.582"
     gradientTransform="matrix(2,0,0,2,10.334473,0)">
    <stop
       offset="0"
       stop-color="#18cffc"
       id="stop2" />
    <stop
       offset="1"
       stop-color="#4a98f7"
       id="stop4" />
  </linearGradient>
  <linearGradient
     id="lg1">
    <stop
       offset="0"
       stop-color="#18cffc"
       stop-opacity="0"
       id="stop7" />
    <stop
       offset="1"
       stop-color="#65e1dc"
       id="stop9" />
  </linearGradient>
  <linearGradient
     id="SVGID_2_"
     gradientUnits="userSpaceOnUse"
     x1="293.974"
     x2="202.21899"
     xlink:href="#lg1"
     y1="535.74597"
     y2="-125.198"
     gradientTransform="matrix(2,0,0,2,10.334473,0)" />
  <linearGradient
     id="SVGID_3_"
     gradientUnits="userSpaceOnUse"
     x1="310.05499"
     x2="55.987999"
     xlink:href="#lg1"
     y1="310.05499"
     y2="55.987999"
     gradientTransform="matrix(2,0,0,2,10.334473,0)" />
  <linearGradient
     id="lg2">
    <stop
       offset="0"
       stop-color="#0469bc"
       stop-opacity="0"
       id="stop14" />
    <stop
       offset="1"
       stop-color="#0469bc"
       id="stop16" />
  </linearGradient>
  <linearGradient
     id="SVGID_4_"
     gradientUnits="userSpaceOnUse"
     x1="354.27701"
     x2="4.9689999"
     xlink:href="#lg2"
     y1="348.599"
     y2="207.078" />
  <linearGradient
     id="lg3">
    <stop
       offset="0"
       stop-color="#92f37f"
       id="stop20" />
    <stop
       offset="1"
       stop-color="#4ab272"
       id="stop22" />
  </linearGradient>
  <linearGradient
     id="SVGID_5_"
     gradientUnits="userSpaceOnUse"
     x1="92.946999"
     x2="494.72299"
     xlink:href="#lg3"
     y1="268.27701"
     y2="553.35498"
     gradientTransform="matrix(2,0,0,2,10.334473,0)" />
  <linearGradient
     id="SVGID_6_"
     gradientUnits="userSpaceOnUse"
     x1="365.45499"
     x2="139.92101"
     y1="402.371"
     y2="237.136">
    <stop
       offset="0"
       stop-color="#4ab272"
       stop-opacity="0"
       id="stop26" />
    <stop
       offset="1"
       stop-color="#009245"
       id="stop28" />
  </linearGradient>
  <linearGradient
     id="SVGID_7_"
     gradientUnits="userSpaceOnUse"
     x1="174.89301"
     x2="576.66803"
     xlink:href="#lg3"
     y1="152.787"
     y2="437.86401"
     gradientTransform="matrix(2,0,0,2,10.334473,0)" />
  <linearGradient
     id="SVGID_8_"
     gradientUnits="userSpaceOnUse"
     x1="192.494"
     x2="78.675003"
     y1="173.743"
     y2="59.924"
     gradientTransform="matrix(2,0,0,2,10.334473,0)">
    <stop
       offset="0"
       stop-color="#92f37f"
       stop-opacity="0"
       id="stop32" />
    <stop
       offset="1"
       stop-color="#ffee83"
       id="stop34" />
  </linearGradient>
  <linearGradient
     id="SVGID_9_"
     gradientUnits="userSpaceOnUse"
     x1="394.21399"
     x2="574.26202"
     xlink:href="#lg3"
     y1="276.75201"
     y2="308.427"
     gradientTransform="matrix(2,0,0,2,10.334473,0)" />
  <linearGradient
     id="SVGID_10_"
     gradientUnits="userSpaceOnUse"
     x1="422.759"
     x2="602.80798"
     xlink:href="#lg3"
     y1="114.496"
     y2="146.17101"
     gradientTransform="matrix(2,0,0,2,10.334473,0)" />
  <linearGradient
     id="SVGID_11_"
     gradientUnits="userSpaceOnUse"
     x1="206.123"
     x2="231.82899"
     y1="279.302"
     y2="305.009">
    <stop
       offset="0"
       stop-color="#ff7044"
       id="stop39" />
    <stop
       offset="1"
       stop-color="#f92814"
       id="stop41" />
  </linearGradient>
  <linearGradient
     id="SVGID_12_"
     gradientUnits="userSpaceOnUse"
     x1="215.526"
     x2="197.564"
     y1="288.70599"
     y2="270.74399">
    <stop
       offset="0"
       stop-color="#ff7044"
       stop-opacity="0"
       id="stop44" />
    <stop
       offset="1"
       stop-color="#ffa425"
       id="stop46" />
  </linearGradient>
  <linearGradient
     id="SVGID_13_"
     gradientUnits="userSpaceOnUse"
     x1="214.23801"
     x2="241.52"
     y1="294.33499"
     y2="243.59399">
    <stop
       offset="0"
       stop-color="#f92814"
       stop-opacity="0"
       id="stop49" />
    <stop
       offset="1"
       stop-color="#c1272d"
       id="stop51" />
  </linearGradient>
  <linearGradient
     id="SVGID_14_"
     gradientUnits="userSpaceOnUse"
     x1="209.51401"
     x2="217.62601"
     y1="262.22198"
     y2="262.22198">
    <stop
       offset="0"
       stop-color="#f9f7fc"
       id="stop54" />
    <stop
       offset="1"
       stop-color="#f0ddfc"
       id="stop56" />
  </linearGradient>
  <linearGradient
     id="SVGID_15_"
     gradientUnits="userSpaceOnUse"
     x1="208.491"
     x2="220.73599"
     y1="263.065"
     y2="260.711">
    <stop
       offset="0"
       stop-color="#fff"
       id="stop59" />
    <stop
       offset="1"
       stop-color="#e9edf5"
       stop-opacity="0"
       id="stop61" />
  </linearGradient>
  <linearGradient
     id="SVGID_16_"
     gradientUnits="userSpaceOnUse"
     x1="225.692"
     x2="207.48599"
     y1="251.95"
     y2="233.745">
    <stop
       offset="0"
       stop-color="#f0ddfc"
       stop-opacity="0"
       id="stop64" />
    <stop
       offset=".2889"
       stop-color="#c8b7e0"
       stop-opacity=".289"
       id="stop66" />
    <stop
       offset=".5915"
       stop-color="#a595c8"
       stop-opacity=".592"
       id="stop68" />
    <stop
       offset=".8395"
       stop-color="#8f81b8"
       stop-opacity=".84"
       id="stop70" />
    <stop
       offset="1"
       stop-color="#8779b3"
       id="stop72" />
  </linearGradient>
  <linearGradient
     id="SVGID_17_"
     gradientUnits="userSpaceOnUse"
     x1="200.49001"
     x2="245.69501"
     y1="195.774"
     y2="240.979">
    <stop
       offset="0"
       stop-color="#ffda45"
       id="stop75" />
    <stop
       offset="1"
       stop-color="#ffa425"
       id="stop77" />
  </linearGradient>
  <linearGradient
     id="SVGID_18_"
     gradientUnits="userSpaceOnUse"
     x1="217.026"
     x2="185.44"
     y1="212.31"
     y2="180.724">
    <stop
       offset="0"
       stop-color="#ffda45"
       stop-opacity="0"
       id="stop80" />
    <stop
       offset="1"
       stop-color="#fcee21"
       id="stop82" />
  </linearGradient>
  <linearGradient
     id="SVGID_19_"
     gradientUnits="userSpaceOnUse"
     x1="214.761"
     x2="262.737"
     y1="222.209"
     y2="132.98199">
    <stop
       offset="0"
       stop-color="#ffda45"
       stop-opacity="0"
       id="stop85" />
    <stop
       offset="1"
       stop-color="#b53759"
       id="stop87" />
  </linearGradient>
  <linearGradient
     id="SVGID_20_"
     gradientUnits="userSpaceOnUse"
     x1="301.88501"
     x2="652.39502"
     xlink:href="#lg2"
     y1="282"
     y2="-369.89899"
     gradientTransform="matrix(2,0,0,2,10.334473,0)" />
  <g
     id="g2638"
     transform="matrix(2.9897502,0,0,2.9897502,380.88821,998.53922)">
    <flowRoot
       transform="matrix(6.6445127,0,0,6.6445127,1473.5356,-93.19966)"
       style="font-style:normal;font-variant:normal;font-weight:600;font-stretch:normal;font-size:39.97659683px;line-height:1.25;font-family:'Segoe UI';-inkscape-font-specification:'Segoe UI, Semi-Bold';font-variant-ligatures:normal;font-variant-caps:normal;font-variant-numeric:normal;font-feature-settings:normal;text-align:start;letter-spacing:0px;word-spacing:0px;writing-mode:lr-tb;text-anchor:start;fill:#000000;fill-opacity:1;stroke:#ffffff;stroke-opacity:1"
       id="flowRoot943-4"
       xml:space="preserve"><flowRegion
         style="font-style:normal;font-variant:normal;font-weight:600;font-stretch:normal;font-size:39.97659683px;font-family:'Segoe UI';-inkscape-font-specification:'Segoe UI, Semi-Bold';font-variant-ligatures:normal;font-variant-caps:normal;font-variant-numeric:normal;font-feature-settings:normal;text-align:start;writing-mode:lr-tb;text-anchor:start;fill:#000000;fill-opacity:1;stroke:#ffffff;stroke-opacity:1"
         id="flowRegion945-2"><rect
           style="font-style:normal;font-variant:normal;font-weight:600;font-stretch:normal;font-size:39.97659683px;font-family:'Segoe UI';-inkscape-font-specification:'Segoe UI, Semi-Bold';font-variant-ligatures:normal;font-variant-caps:normal;font-variant-numeric:normal;font-feature-settings:normal;text-align:start;writing-mode:lr-tb;text-anchor:start;fill:#000000;fill-opacity:1;stroke:#ffffff;stroke-opacity:1"
           y="-9.5811377"
           x="-264.62573"
           height="62.806904"
           width="35.94165"
           id="rect947-0" /></flowRegion><flowPara
         style="font-style:normal;font-variant:normal;font-weight:600;font-stretch:normal;font-size:39.97659683px;font-family:'Segoe UI';-inkscape-font-specification:'Segoe UI, Semi-Bold';font-variant-ligatures:normal;font-variant-caps:normal;font-variant-numeric:normal;font-feature-settings:normal;text-align:start;writing-mode:lr-tb;text-anchor:start;fill:#000000;fill-opacity:1;stroke:#ffffff;stroke-opacity:1"
         id="flowPara949-5">Pla</flowPara></flowRoot>  </g>
  <circle
     style="fill:url(#SVGID_1_);stroke-width:2"
     cx="520.33447"
     cy="510"
     r="510"
     id="circle91" />
  <path
     inkscape:connector-curvature="0"
     style="fill:url(#SVGID_2_);stroke-width:2"
     d="m 879.43847,241.752 c -17.5,-12.856 -36.056,-24.644 -55.502,-35.352 -10.708,-19.446 -22.498,-38.004 -35.354,-55.504 -71.386,-97.18 -166.654,-150.7 -268.248,-150.7 -101.594,0 -196.86,53.52 -268.248,150.7 -12.856,17.5 -24.646,36.056 -35.354,55.504 -19.446,10.708 -38.002,22.498 -55.504,35.354 C 64.050473,313.14 10.530473,408.406 10.530473,510 c 0,101.594 53.52,196.86 150.699997,268.248 17.5,12.856 36.056,24.646 55.504,35.354 10.708,19.446 22.498,38.002 35.354,55.504 71.388,97.18 166.654,150.7 268.248,150.7 101.594,0 196.862,-53.52 268.248,-150.7 12.856,-17.5 24.646,-36.056 35.354,-55.504 19.446,-10.708 38.002,-22.498 55.502,-35.352 97.18,-71.388 150.70003,-166.654 150.70003,-268.248 0,-101.594 -53.52203,-196.862 -150.70203,-268.25 z m -359.104,754.052 c -27.998,0 -57.674,-41.706 -81.134,-112.87 26.592,3.128 53.694,4.75 81.134,4.75 27.44,0 54.544,-1.62 81.136,-4.75 -23.462,71.164 -53.138,112.87 -81.136,112.87 z m 0,-132.122 c -30.334,0 -60.018,-2.054 -88.828,-5.946 -15.988,-56.532 -27.596,-124.394 -34.238,-198.486 39.77,2.844 81.03,4.308 123.066,4.308 42.036,0 83.296,-1.466 123.066,-4.308 -6.642,74.092 -18.25,141.952 -34.238,198.486 -28.808,3.892 -58.494,5.946 -88.828,5.946 z m 0,-839.486 c 27.998,0 57.674,41.706 81.136,112.87 -26.592,-3.128 -53.696,-4.75 -81.136,-4.75 -27.44,0 -54.544,1.622 -81.134,4.75 23.46,-71.164 53.136,-112.87 81.134,-112.87 z m 0,132.122 c 30.334,0 60.02,2.054 88.828,5.946 15.988,56.534 27.596,124.394 34.238,198.486 -39.77,-2.844 -81.032,-4.308 -123.066,-4.308 -42.036,0 -83.296,1.466 -123.066,4.308 6.642,-74.092 18.25,-141.954 34.238,-198.486 28.81,-3.892 58.494,-5.946 88.828,-5.946 z M 390.77447,510 c 0,-42.792 1.542,-84.724 4.516,-125.042 40.318,-2.974 82.252,-4.516 125.044,-4.516 42.792,0 84.726,1.542 125.044,4.516 2.974,40.318 4.516,82.252 4.516,125.042 0,42.792 -1.542,84.724 -4.516,125.042 -40.318,2.974 -82.252,4.516 -125.044,4.516 -42.792,0 -84.724,-1.542 -125.044,-4.516 -2.974,-40.318 -4.516,-82.25 -4.516,-125.042 z m -19.69,123.066 c -74.092,-6.642 -141.954,-18.25 -198.486,-34.238 -3.892,-28.81 -5.946,-58.494 -5.946,-88.828 0,-30.334 2.054,-60.018 5.946,-88.828 56.532,-15.988 124.394,-27.596 198.486,-34.238 -2.844,39.77 -4.308,81.03 -4.308,123.066 -0.002,42.036 1.464,83.296 4.308,123.066 z m 298.502,-246.132 c 74.092,6.642 141.952,18.25 198.486,34.238 3.892,28.81 5.946,58.494 5.946,88.828 0,30.334 -2.054,60.018 -5.946,88.828 -56.534,15.988 -124.394,27.596 -198.486,34.238 2.844,-39.77 4.308,-81.03 4.308,-123.066 0,-42.036 -1.464,-83.296 -4.308,-123.066 z m -1.924,-24.26 c -6.32,-72.622 -17.336,-139.59 -32.5,-196.348 62.586,11.086 120.458,31.014 170.982,57.868 26.852,50.524 46.782,108.396 57.866,170.98 -56.758,-15.164 -123.726,-26.18 -196.348,-32.5 z m -294.656,0 c -72.622,6.32 -139.59,17.336 -196.348,32.5 11.084,-62.584 31.014,-120.458 57.866,-170.98 50.524,-26.852 108.396,-46.782 170.98,-57.866 -15.16,56.754 -26.176,123.722 -32.498,196.346 z m -225.606,228.46 C 76.236473,567.674 34.530473,537.998 34.530473,510 c 0,-27.998 41.706,-57.674 112.869997,-81.134 -3.128,26.592 -4.75,53.694 -4.75,81.134 0,27.44 1.622,54.544 4.75,81.134 z m 225.606,66.194 c 6.32,72.622 17.336,139.59 32.5,196.348 -62.584,-11.084 -120.458,-31.014 -170.98,-57.866 -26.852,-50.524 -46.782,-108.396 -57.866,-170.982 56.756,15.162 123.724,26.178 196.346,32.5 z m 294.656,0 c 72.622,-6.32 139.59,-17.336 196.348,-32.5 -11.084,62.584 -31.014,120.456 -57.866,170.98 -50.524,26.854 -108.396,46.782 -170.982,57.868 15.164,-56.758 26.18,-123.726 32.5,-196.348 z m 225.606,-228.462 c 71.164,23.462 112.86803,53.136 112.86803,81.134 0,27.998 -41.70403,57.672 -112.86803,81.134 3.128,-26.59 4.75,-53.694 4.75,-81.134 0,-27.44 -1.622,-54.544 -4.75,-81.134 z m 107.20203,27.086 c -23.48203,-20.024 -60.70603,-38.026 -110.82603,-53.428 -8.728,-55.26 -24.178,-107.91 -45.802,-156.132 82.056,53.432 139.124,126.804 156.62803,209.56 z M 783.94447,186.494 c -48.222,-21.624 -100.872,-37.074 -156.134,-45.802 -15.402,-50.12 -33.404,-87.346 -53.428,-110.828 82.758,17.504 156.13,74.572 209.562,156.63 z M 466.28647,29.862 c -20.024,23.482 -38.026,60.708 -53.43,110.828 -55.26,8.728 -107.91,24.178 -156.132,45.802 53.434,-82.056 126.804,-139.124 209.562,-156.63 z m -269.46,216.528 c -21.624,48.222 -37.074,100.872 -45.802,156.132 -50.12,15.402 -87.345997,33.404 -110.827997,53.428 17.506,-82.754 74.573997,-156.126 156.629997,-209.56 z M 40.196473,564.048 c 23.482,20.024 60.707997,38.026 110.827997,53.43 8.728,55.26 24.178,107.91 45.802,156.132 C 114.77047,720.176 57.702473,646.806 40.196473,564.048 Z m 216.527997,269.46 c 48.222,21.624 100.872,37.074 156.132,45.802 15.404,50.12 33.404,87.346 53.43,110.828 -82.758,-17.506 -156.128,-74.574 -209.562,-156.63 z m 317.658,156.63 c 20.026,-23.482 38.026,-60.708 53.428,-110.828 55.262,-8.728 107.912,-24.178 156.134,-45.802 -53.432,82.056 -126.804,139.124 -209.562,156.63 z m 269.46,-216.53 c 21.624,-48.222 37.074,-100.87 45.802,-156.132 50.12,-15.402 87.344,-33.404 110.82603,-53.428 -17.50403,82.756 -74.57203,156.128 -156.62803,209.56 z"
     id="path93" />
  <circle
     style="fill:url(#SVGID_3_);stroke-width:2"
     cx="520.33447"
     cy="510"
     r="455.23999"
     id="circle95" />
  <path
     inkscape:connector-curvature="0"
     style="fill:url(#SVGID_5_);stroke-width:2"
     d="m 472.67847,531.238 19.744,19.742 c 7.222,7.222 11.278,17.016 11.278,27.228 0,21.266 17.24,38.506 38.506,38.506 22.178,0 40.158,17.978 40.158,40.156 0,28.838 -6.016,57.358 -17.666,83.738 l -71.084,160.976 c -9.73,22.036 -38.558,27.424 -55.592,10.39 -24.826,-24.826 -38.774,-58.498 -38.774,-93.608 v -18.724 c 0,-48.814 -19.392,-95.63 -53.908,-130.146 l -2.104,-2.104 c -32.484,-32.482 -50.732,-76.54 -50.732,-122.478 v -6.71 c 0,-31.866 25.832,-57.698 57.698,-57.698 45.936,0 89.994,18.25 122.476,50.732 z"
     id="path99" />
  <path
     inkscape:connector-curvature="0"
     style="fill:url(#SVGID_7_);stroke-width:2"
     d="m 344.93047,30.978 c -127.688,46.772 -231.454,143.146 -287.979997,265.784 -6.7,14.534 -10.016,30.4 -10.016,46.402 0,29.81 11.842,58.398 32.92,79.476 l 10.424,10.424 c 46.709997,46.71 110.063997,72.952 176.121997,72.952 9.868,0 17.868,-8 17.868,-17.868 0,-9.868 -8,-17.868 -17.868,-17.868 h -54.928 c -25.334,0 -45.87,-20.536 -45.87,-45.87 0,-25.334 20.538,-45.87 45.87,-45.87 h 42.902 c 51.442,0 100.776,-20.436 137.152,-56.81 l 66.24,-66.24 c 14.424,-14.424 33.988,-22.528 54.386,-22.528 29.51,0 56.418,-16.884 69.254,-43.454 15.734,-32.564 -7.992,-70.376 -44.158,-70.376 h -85.466 c -25.128,0 -45.498,-20.37 -45.498,-45.498 0,-31.712 -31.578,-53.562 -61.354,-42.656 z"
     id="path103" />
  <path
     inkscape:connector-curvature="0"
     style="fill:url(#SVGID_8_);stroke-width:2"
     d="m 537.24847,119.13 h -85.466 c -25.128,0 -45.498,-20.37 -45.498,-45.498 0,-1.494 -0.092,-2.956 -0.228,-4.404 -166.614,43.076 -296.218,178.126 -331.437997,347.758 1.684,1.932 3.412,3.83 5.234,5.654 l 10.424,10.424 c 46.709997,46.71 110.063997,72.952 176.121997,72.952 9.868,0 17.868,-8 17.868,-17.868 0,-9.868 -8,-17.868 -17.868,-17.868 h -54.928 c -25.334,0 -45.87,-20.538 -45.87,-45.87 0,-25.334 20.538,-45.87 45.87,-45.87 h 42.902 c 51.442,0 100.776,-20.436 137.152,-56.81 l 66.24,-66.24 c 14.424,-14.424 33.988,-22.528 54.386,-22.528 29.51,0 56.416,-16.884 69.254,-43.454 15.734,-32.566 -7.99,-70.378 -44.156,-70.378 z"
     id="path105" />
  <path
     inkscape:connector-curvature="0"
     style="fill:url(#SVGID_9_);stroke-width:2"
     d="m 1018.4625,400.114 c -7.044,-32.07 -35.71803,-54.754 -68.55403,-54.754 h -71.894 -38.43 c -65.318,0 -118.27,52.952 -118.27,118.27 v 14.39 c 0,57.372 46.51,103.88 103.882,103.88 29.172,0 52.818,23.648 52.818,52.82 v 137.928 c 0,35.942 46.668,50.26 66.642,20.378 41.51,-62.098 69.74803,-133.828 80.65803,-211.126 3.3,-23.48 5.02,-47.5 5.02,-71.9 0,-37.732 -4.1,-74.496 -11.872,-109.886 z"
     id="path107" />
  <path
     inkscape:connector-curvature="0"
     style="fill:url(#SVGID_10_);stroke-width:2"
     d="m 975.57447,279.86 h -152.34 c -27.25,0 -49.34,-22.09 -49.34,-49.34 0,-27.25 22.09,-49.34 49.34,-49.34 h 86.96 c 25.42,30.1 47.42,63.2 65.38,98.68 z"
     id="path109" />
  <path
     inkscape:connector-curvature="0"
     style="fill:url(#SVGID_20_);stroke-width:2"
     d="m 748.47247,53.786 c 34.396,68.65 53.786,146.124 53.786,228.138 0,281.666 -228.334,510 -510,510 -82.014,0 -159.488,-19.388 -228.137997,-53.786 C 147.85647,905.26 320.68247,1020 520.33447,1020 c 281.666,0 510.00003,-228.334 510.00003,-510 0,-199.652 -114.74203,-372.478 -281.86203,-456.214 z"
     id="path129" />
  <g
     id="g2790"
     transform="matrix(2.2571274,0,0,2.2571274,290.52609,-685.31488)"
     style="fill:#283e59;fill-opacity:1">
    <path
       id="path36"
       d="m 205.49012,510.4909 c -1.96024,3.94688 -6.02829,8.29945 -13.22113,13.35292 L -19.105875,675.6524 c -11.54018,8.38378 -28.107435,5.27475 -36.997062,-6.95046 -8.88962,-12.22517 -6.744941,-28.92945 4.795236,-37.31847 L 139.30539,493.35457 v -2.83499 L 19.540525,363.11393 c -9.7696201,-10.39139 -8.75261,-27.19581 2.27115,-37.5398 11.02376,-10.3387 27.87558,-10.29654 37.6452,0.0947 L 203.16101,478.54712 c 8.15717,8.67886 8.76316,21.82097 2.32911,31.94362 z"
       style="clip-rule:evenodd;fill:#283e59;fill-opacity:1;fill-rule:evenodd;stroke-width:5.26948547"
       inkscape:connector-curvature="0" />
    <path
       id="path38"
       d="m 133.64596,624.02196 h 113.88939 c 13.24222,0 23.97616,10.61802 23.97616,23.71273 0,13.09466 -10.73394,23.71267 -23.97616,23.71267 H 133.64596 c -13.24222,0 -23.97616,-10.61801 -23.97616,-23.71267 0,-13.09471 10.73394,-23.71273 23.97616,-23.71273 z"
       style="clip-rule:evenodd;fill:#283e59;fill-opacity:1;fill-rule:evenodd;stroke-width:5.26948547"
       inkscape:connector-curvature="0" />
  </g>
  <flowRoot
     xml:space="preserve"
     id="flowRoot168"
     style="font-style:normal;font-variant:normal;font-weight:600;font-stretch:normal;font-size:40.00054169px;line-height:1.25;font-family:'Lucida Grande';-inkscape-font-specification:'Lucida Grande, Semi-Bold';font-variant-ligatures:normal;font-variant-caps:normal;font-variant-numeric:normal;font-feature-settings:normal;text-align:center;letter-spacing:0px;word-spacing:0px;writing-mode:lr-tb;text-anchor:middle;fill:#000000;fill-opacity:1;stroke:none;stroke-width:0.99989456;stroke-miterlimit:4;stroke-dasharray:none;stroke-opacity:1;"
     transform="matrix(4.6412901,0,0,4.6412901,-1877.0505,-3925.6834)"><flowRegion
       id="flowRegion170"
       style="font-style:normal;font-variant:normal;font-weight:600;font-stretch:normal;font-size:40.00054169px;font-family:'Lucida Grande';-inkscape-font-specification:'Lucida Grande, Semi-Bold';font-variant-ligatures:normal;font-variant-caps:normal;font-variant-numeric:normal;font-feature-settings:normal;text-align:center;writing-mode:lr-tb;text-anchor:middle;stroke:none;stroke-width:0.99989456;stroke-miterlimit:4;stroke-dasharray:none;stroke-opacity:1;fill:#000000;"><rect
         id="rect172"
         width="994.07233"
         height="263.8587"
         x="18.408747"
         y="1063.8856"
         style="font-style:normal;font-variant:normal;font-weight:600;font-stretch:normal;font-size:40.00054169px;font-family:'Lucida Grande';-inkscape-font-specification:'Lucida Grande, Semi-Bold';font-variant-ligatures:normal;font-variant-caps:normal;font-variant-numeric:normal;font-feature-settings:normal;text-align:center;writing-mode:lr-tb;text-anchor:middle;stroke:none;stroke-width:0.99989456;stroke-miterlimit:4;stroke-dasharray:none;stroke-opacity:1;fill:#000000;" /></flowRegion><flowPara
       id="flowPara174"
       style="font-style:normal;font-variant:normal;font-weight:600;font-stretch:normal;font-size:42.92314148px;font-family:'Lucida Grande';-inkscape-font-specification:'Lucida Grande, Semi-Bold';font-variant-ligatures:normal;font-variant-caps:normal;font-variant-numeric:normal;font-feature-settings:normal;text-align:center;writing-mode:lr-tb;text-anchor:middle;stroke:none;stroke-width:0.99989456;stroke-miterlimit:4;stroke-dasharray:none;stroke-opacity:1;fill:#000000;">Planet</flowPara><flowPara
       style="font-style:normal;font-variant:normal;font-weight:600;font-stretch:normal;font-size:40.00054169px;font-family:'Lucida Grande';-inkscape-font-specification:'Lucida Grande, Semi-Bold';font-variant-ligatures:normal;font-variant-caps:normal;font-variant-numeric:normal;font-feature-settings:normal;text-align:center;writing-mode:lr-tb;text-anchor:middle;stroke:none;stroke-width:0.99989456;stroke-miterlimit:4;stroke-dasharray:none;stroke-opacity:1;fill:#000000;"
       id="flowPara983" /></flowRoot>  <flowRoot
     xml:space="preserve"
     id="flowRoot985"
     style="font-style:normal;font-weight:normal;font-size:40px;line-height:1.25;font-family:sans-serif;letter-spacing:0px;word-spacing:0px;fill:#000000;fill-opacity:1;stroke:none;"
     transform="matrix(0.99609375,0,0,0.99609375,-170.08301,-88.628047)"><flowRegion
       id="flowRegion987"
       style="fill:#000000;"><rect
         id="rect989"
         width="1362.2472"
         height="411.12872"
         x="153.40622"
         y="1297.0631"
         style="fill:#000000;" /></flowRegion><flowPara
       id="flowPara991"
       style="font-style:normal;font-variant:normal;font-weight:600;font-stretch:normal;font-size:192px;font-family:'Lucida Grande';-inkscape-font-specification:'Lucida Grande, Semi-Bold';font-variant-ligatures:normal;font-variant-caps:normal;font-variant-numeric:normal;font-feature-settings:normal;text-align:start;writing-mode:lr-tb;text-anchor:start;fill:#000000;">PowerShell</flowPara></flowRoot></svg>
