<?xml version="1.0" encoding="UTF-8" standalone="no"?>
<!-- Generator: Adobe Illustrator 19.0.0, SVG Export Plug-In . SVG Version: 6.00 Build 0)  -->

<svg
   xmlns:dc="http://purl.org/dc/elements/1.1/"
   xmlns:cc="http://creativecommons.org/ns#"
   xmlns:rdf="http://www.w3.org/1999/02/22-rdf-syntax-ns#"
   xmlns:svg="http://www.w3.org/2000/svg"
   xmlns="http://www.w3.org/2000/svg"
   xmlns:sodipodi="http://sodipodi.sourceforge.net/DTD/sodipodi-0.dtd"
   xmlns:inkscape="http://www.inkscape.org/namespaces/inkscape"
   version="1.1"
   id="Capa_1"
   x="0px"
   y="0px"
   viewBox="0 0 609.10546 609.10546"
   xml:space="preserve"
   sodipodi:docname="salt2.svg"
   inkscape:export-filename="C:\Users\Adilio\Desktop\salt12.png"
   inkscape:export-xdpi="96"
   inkscape:export-ydpi="96"
   width="609.10547"
   height="609.10547"
   inkscape:version="0.92.4 (5da689c313, 2019-01-14)"><metadata
   id="metadata93"><rdf:RDF><cc:Work
       rdf:about=""><dc:format>image/svg+xml</dc:format><dc:type
         rdf:resource="http://purl.org/dc/dcmitype/StillImage" /><dc:title /></cc:Work></rdf:RDF></metadata><defs
   id="defs91">
	
	
	
	
	
	
	
</defs><sodipodi:namedview
   pagecolor="#ffffff"
   bordercolor="#666666"
   borderopacity="1"
   objecttolerance="10"
   gridtolerance="10"
   guidetolerance="10"
   inkscape:pageopacity="0"
   inkscape:pageshadow="2"
   inkscape:window-width="2081"
   inkscape:window-height="1391"
   id="namedview89"
   showgrid="false"
   fit-margin-top="0"
   fit-margin-left="0"
   fit-margin-right="0"
   fit-margin-bottom="0"
   inkscape:zoom="1.8437644"
   inkscape:cx="8.858316"
   inkscape:cy="376.75853"
   inkscape:window-x="137"
   inkscape:window-y="240"
   inkscape:window-maximized="0"
   inkscape:current-layer="Capa_1" />










<path
   inkscape:connector-curvature="0"
   style="fill:#c6c5ca;stroke:#000000"
   d="m 503.79151,503.79209 c 36.213,-36.213 36.213,-94.925 0,-131.137 l -131.137,131.137 c 36.213,36.213 94.925,36.213 131.137,0 z"
   id="path2" /><path
   inkscape:connector-curvature="0"
   style="fill:#acabb1"
   d="m 483.07751,519.40509 c 7.428,-4.108 14.412,-9.311 20.715,-15.612 36.213,-36.213 36.213,-94.925 0,-131.137 l -36.327,36.327 c 29.909,29.91 35.111,75.169 15.612,110.422 z"
   id="path4" /><path
   inkscape:connector-curvature="0"
   style="fill:#787680"
   d="m 482.94851,482.95009 c -10.131,10.131 -10.282,26.433 -0.501,36.778 7.66,-4.16 14.867,-9.458 21.344,-15.936 6.477,-6.478 11.776,-13.684 15.936,-21.344 -10.346,-9.781 -26.648,-9.63 -36.779,0.502 z"
   id="path6" /><g
   id="g12"
   transform="rotate(90,248.52021,297.3863)">
	<path
   inkscape:connector-curvature="0"
   style="fill:#57565c"
   d="m 454.926,42.115 c -6.478,-6.478 -13.684,-11.776 -21.344,-15.936 -6.542,6.92 -8.634,16.502 -6.275,25.123 14.911,0.26 29.77,4.092 43.184,11.501 -4.104,-7.414 -9.273,-14.396 -15.565,-20.688 z"
   id="path8" />
	<path
   inkscape:connector-curvature="0"
   style="fill:#57565c"
   d="m 394.334,34.19 c 5.075,-5.075 7.639,-11.702 7.717,-18.354 -17.389,-2.39 -35.324,0.147 -51.546,7.628 1.234,3.922 3.387,7.616 6.495,10.724 10.31,10.311 27.025,10.311 37.334,0.002 z"
   id="path10" />
</g><path
   inkscape:connector-curvature="0"
   style="fill:#787680"
   d="m 450.91651,530.07109 c -0.078,-6.651 -2.642,-13.278 -7.717,-18.354 -10.309,-10.309 -27.024,-10.309 -37.333,0 -3.108,3.108 -5.261,6.803 -6.495,10.724 16.221,7.483 34.155,10.02 51.545,7.63 z"
   id="path14" /><path
   inkscape:connector-curvature="0"
   style="fill:#c2dff6;stroke:#000000;stroke-width:1.00307572"
   d="m 378.05403,488.53209 110.47748,-109.801 -168.06007,-306.019 c -8.69625,-15.836 -25.94084,-25.119 -44.03765,-23.705 l -80.91547,6.322 c -19.37564,1.513 -37.57106,9.85 -51.31421,23.509 l -67.890709,67.475 c -13.742147,13.658 -22.129505,31.743 -23.653839,51 l -6.360949,80.42 c -1.421706,17.986 7.91748,35.125 23.850039,43.768 z"
   id="path16" /><path
   inkscape:connector-curvature="0"
   style="fill:#d1e7f8"
   d="m 146.31251,78.83809 -67.475,67.475 c -7.305,7.305 -13.071,15.884 -17.101,25.225 l 316.994,316.994 109.801,-109.801 -316.995,-316.995 c -9.34,4.032 -17.919,9.796 -25.224,17.102 z"
   id="path18" /><path
   inkscape:connector-curvature="0"
   style="fill:#d8d7da;stroke:#000000;stroke-width:1.0206157"
   d="M 339.20785,461.70884 461.70726,339.20842 c 12.54541,-12.54541 33.07407,-12.54541 45.62152,0 v 0 c 12.54541,12.54541 12.54541,33.07407 0,45.62152 l -122.50042,122.4994 c -12.54541,12.54541 -33.07408,12.54541 -45.62153,0 v 0 c -12.5454,-12.5454 -12.5454,-33.07509 10e-4,-45.6205 z"
   id="path20" /><path
   inkscape:connector-curvature="0"
   style="fill:#c6c5ca"
   d="m 459.93451,386.80509 v 0 c 12.292,12.292 12.292,32.406 0,44.7 l 45.797,-45.797 c 12.292,-12.292 12.292,-32.406 0,-44.7 v 0 c -12.292,-12.292 -32.406,-12.292 -44.7,0 l -45.797,45.797 c 12.293,-12.292 32.408,-12.292 44.7,0 z"
   id="path22" /><path
   inkscape:connector-curvature="0"
   style="fill:#ddfffb"
   d="m 89.61151,290.53509 144.359,78.793 c 17.639,11.485 41.487,9.501 56.966,-5.977 3.573,-3.573 6.407,-7.599 8.53,-11.888 1.701,-3.437 5.232,-5.459 9.068,-5.436 9.615,0.057 19.245,-3.576 26.581,-10.912 7.29,-7.29 10.917,-16.843 10.906,-26.397 -0.004,-3.9 2.133,-7.414 5.632,-9.138 4.166,-2.053 8.082,-4.766 11.397,-8.341 24.175,-26.069 7.075,-55.807 7.075,-55.807 l -79.591,-145.819 c -1.98,-3.626 -5.919,-5.761 -10.038,-5.435 l -80.417,6.321 c -10.877,0.856 -21.112,5.573 -28.822,13.284 l -67.476,67.476 c -7.711,7.711 -12.428,17.947 -13.284,28.819 l -6.322,80.42 c -0.324,4.124 1.804,8.055 5.436,10.037 z"
   id="path24" /><path
   inkscape:connector-curvature="0"
   style="fill:#ffffff"
   d="m 266.23151,376.03409 c 9.044,-1.495 17.726,-5.704 24.705,-12.682 3.574,-3.574 6.407,-7.599 8.53,-11.888 1.701,-3.437 5.232,-5.459 9.068,-5.436 9.615,0.057 19.245,-3.576 26.581,-10.912 7.29,-7.29 10.917,-16.844 10.906,-26.397 -0.005,-3.9 2.133,-7.414 5.632,-9.138 4.166,-2.053 8.082,-4.766 11.397,-8.341 7.88,-8.497 11.359,-17.379 12.49,-25.5 l -175.258,-175.256 -0.203,0.015 c -10.877,0.856 -21.112,5.573 -28.822,13.284 l -67.476,67.476 c -7.711,7.711 -12.428,17.947 -13.284,28.819 l -0.016,0.206 z"
   id="path26" />
<circle
   id="circle28"
   r="7.7259998"
   cy="289.90875"
   cx="289.90875"
   style="fill:#ddfffb" /><circle
   id="circle30"
   r="7.7259998"
   cy="289.90875"
   cx="289.90875"
   style="fill:#ddfffb" /><circle
   id="circle32"
   r="7.7259998"
   cy="289.90875"
   cx="289.90875"
   style="fill:#ddfffb" /><circle
   id="circle34"
   r="7.7259998"
   cy="289.90875"
   cx="289.90875"
   style="fill:#ddfffb" /><circle
   id="circle38-7"
   r="7.7259998"
   cy="250.59978"
   cx="301.55698"
   style="fill:#ddfffb" /><circle
   id="circle36"
   r="7.7259998"
   cy="289.90875"
   cx="289.90875"
   style="fill:#ddfffb" /><circle
   id="circle38-3"
   r="7.7259998"
   cy="265.24377"
   cx="250.57431"
   style="fill:#ddfffb" /><circle
   id="circle38"
   r="7.7259998"
   cy="289.90875"
   cx="289.90875"
   style="fill:#ddfffb" />



<g
   id="g58"
   transform="translate(33.910768,33.910768)">
</g>
<g
   id="g60"
   transform="translate(33.910768,33.910768)">
</g>
<g
   id="g62"
   transform="translate(33.910768,33.910768)">
</g>
<g
   id="g64"
   transform="translate(33.910768,33.910768)">
</g>
<g
   id="g66"
   transform="translate(33.910768,33.910768)">
</g>
<g
   id="g68"
   transform="translate(33.910768,33.910768)">
</g>
<g
   id="g70"
   transform="translate(33.910768,33.910768)">
</g>
<g
   id="g72"
   transform="translate(33.910768,33.910768)">
</g>
<g
   id="g74"
   transform="translate(33.910768,33.910768)">
</g>
<g
   id="g76"
   transform="translate(33.910768,33.910768)">
</g>
<g
   id="g78"
   transform="translate(33.910768,33.910768)">
</g>
<g
   id="g80"
   transform="translate(33.910768,33.910768)">
</g>
<g
   id="g82"
   transform="translate(33.910768,33.910768)">
</g>
<g
   id="g84"
   transform="translate(33.910768,33.910768)">
</g>
<g
   id="g86"
   transform="translate(33.910768,33.910768)">
</g>
<circle
   id="circle38-4"
   r="7.7259998"
   cy="302.12482"
   cx="236.47273"
   style="fill:#ddfffb" /><circle
   id="circle38-6"
   r="7.7259998"
   cy="214.80347"
   cx="277.69275"
   style="fill:#ddfffb" /><circle
   id="circle38-9-7"
   r="7.7259998"
   cy="271.7522"
   cx="214.23561"
   style="fill:#ddfffb" /><circle
   id="circle38-9"
   r="7.7259998"
   cy="213.17638"
   cx="302.64169"
   style="fill:#ddfffb" /><flowRoot
   xml:space="preserve"
   id="flowRoot922"
   style="font-style:normal;font-weight:normal;font-size:40px;line-height:1.25;font-family:sans-serif;letter-spacing:0px;word-spacing:0px;opacity:0.75;fill:#ec008c;fill-opacity:1;stroke:#000000;stroke-width:3.956213;stroke-miterlimit:4;stroke-dasharray:none;stroke-opacity:1"
   transform="matrix(0.64031678,0.63864163,-1.1742804,1.1722399,329.64435,0.80821515)"><flowRegion
     id="flowRegion924"
     style="fill:#ec008c;fill-opacity:1;stroke:#000000;stroke-width:3.956213;stroke-miterlimit:4;stroke-dasharray:none;stroke-opacity:1"><rect
       id="rect926"
       width="662.77448"
       height="182.23587"
       x="-85.694244"
       y="81.355293"
       style="fill:#ec008c;fill-opacity:1;stroke:#000000;stroke-width:3.956213;stroke-miterlimit:4;stroke-dasharray:none;stroke-opacity:1" /></flowRegion><flowPara
     id="flowPara928"
     style="font-style:normal;font-variant:normal;font-weight:bold;font-stretch:normal;font-size:105.60554504px;font-family:sans-serif;-inkscape-font-specification:'sans-serif, Bold';font-variant-ligatures:normal;font-variant-caps:normal;font-variant-numeric:normal;font-feature-settings:normal;text-align:start;writing-mode:lr-tb;text-anchor:start;fill:#ec008c;fill-opacity:1;stroke:#000000;stroke-width:3.956213;stroke-miterlimit:4;stroke-dasharray:none;stroke-opacity:1">DevOps</flowPara></flowRoot><path
   d="m -100.25492,95.985722 c 0,-25.505459 -11.10951,-48.496362 -28.83926,-64.616039 -16.05338,-14.597211 -37.53129,-23.5544289 -61.17806,-23.6870232 v -0.0071 c -0.0876,0 -0.17521,0.00237 -0.26282,0.00237 -0.0876,0 -0.17521,-0.00237 -0.26282,-0.00237 v 0.0071 c -49.76311,0.2770273 -90.01732,39.7025192 -90.01732,88.3030622 0,12.906638 2.04811,25.415488 2.5335,38.151638 0.005,-0.071 0.009,-0.12075 0.009,-0.12075 0,0 -0.002,0.0497 -0.009,0.12075 0.0166,0.41673 0.045,0.83108 0.0568,1.24544 0.24151,8.07405 0.61325,16.15993 1.35435,24.20556 3.21305,21.37136 12.73616,51.83253 39.98429,74.08469 12.9161,10.54835 29.15416,20.68708 45.83026,20.7297 0.0852,0 0.17285,0 0.25809,0 0,0 0.26282,0 0.52564,0 0.0923,0 0.18469,0 0.27466,0 16.66189,-0.0426 32.89049,-10.16951 45.79949,-20.70602 27.17473,-22.17639 36.72862,-52.51207 39.97481,-73.88106 0.75532,-8.1214 1.13416,-16.28306 1.37567,-24.43287 0.39541,-13.16709 2.59269,-26.06898 2.59269,-39.397078 z"
   id="path2-5"
   inkscape:connector-curvature="0"
   style="fill:#59b4d9;stroke-width:2.36775517" /><path
   d="m -191.05597,259.28743 c -14.97841,-0.0379 -30.97734,-7.17667 -48.92019,-21.8307 -28.38701,-23.18269 -38.35763,-54.74487 -41.72221,-77.1391 l -0.0213,-0.13733 -0.0118,-0.1397 c -0.65823,-7.13168 -1.08206,-14.68955 -1.3733,-24.50863 -0.007,-0.19889 -0.0616,-1.35436 -0.0616,-1.35436 -0.20836,-5.31797 -0.70796,-10.74961 -1.18861,-16.00365 -0.6606,-7.19088 -1.34252,-14.62563 -1.34252,-22.18587 0,-49.502658 39.95114,-90.2848736 90.01732,-93.0385729 V 2.8027163 l 10.29263,-0.0071 v 0.1515364 c 22.21665,1.2193939 43.21627,9.9303653 59.58219,24.8117063 19.34219,17.587686 30.437496,42.456219 30.437496,68.229234 0,7.555507 -0.686649,14.985517 -1.349621,22.169287 -0.528009,5.70392 -1.070225,11.602 -1.243071,17.37459 -0.29597,9.93273 -0.726901,17.56401 -1.394608,24.74067 l -0.01421,0.1397 -0.02131,0.1397 c -3.392986,22.33503 -13.384916,53.8096 -41.715106,76.93073 -17.93101,14.6351 -33.91809,21.76678 -48.8752,21.80703 h -1.07497 z"
   id="path4-3"
   inkscape:connector-curvature="0"
   style="opacity:0.75;fill:#1e1e1e;stroke-width:2.36775517" /><path
   d="m -100.25492,95.985722 c 0,-25.505459 -11.10951,-48.496362 -28.83926,-64.616039 -16.05338,-14.597211 -37.53129,-23.5544289 -61.17806,-23.6870232 v -0.0071 c -0.0876,0 -0.17521,0.00237 -0.26282,0.00237 -0.0876,0 -0.17521,-0.00237 -0.26282,-0.00237 v 0.0071 c -49.76311,0.2770273 -90.01732,39.7025192 -90.01732,88.3030622 0,12.906638 2.04811,25.415488 2.5335,38.151638 0.005,-0.071 0.009,-0.12075 0.009,-0.12075 0,0 -0.002,0.0497 -0.009,0.12075 0.0166,0.41673 0.045,0.83108 0.0568,1.24544 0.24151,8.07405 0.61325,16.15993 1.35435,24.20556 3.21305,21.37136 12.73616,51.83253 39.98429,74.08469 12.9161,10.54835 29.15416,20.68708 45.83026,20.7297 0.0852,0 0.17285,0 0.25809,0 0,0 0.26282,0 0.52564,0 0.0923,0 0.18469,0 0.27466,0 16.66189,-0.0426 32.89049,-10.16951 45.79949,-20.70602 27.17473,-22.17639 36.72862,-52.51207 39.97481,-73.88106 0.75532,-8.1214 1.13416,-16.28306 1.37567,-24.43287 0.39541,-13.16709 2.59269,-26.06898 2.59269,-39.397078 z"
   id="path6-2"
   inkscape:connector-curvature="0"
   style="fill:#59b4d9;stroke-width:2.36775517" /><path
   d="m -276.4017,76.835318 c -0.74821,3.189366 -1.32594,6.437927 -1.70005,9.748048 -0.045,0.421461 -0.0947,0.840553 -0.13259,1.262014 -0.0592,0.603777 -0.0971,1.209923 -0.14207,1.816068 -0.0687,0.982618 -0.1397,1.965237 -0.17758,2.959694 l 115.63643,63.749438 -87.60221,63.89624 c 3.21778,3.78131 6.56105,7.32347 10.56492,10.79934 l 109.13931,-73.96868 z"
   id="path8-7"
   inkscape:connector-curvature="0"
   style="fill:#ffffff;stroke-width:2.36775517" /><path
   d="m -138.95114,93.520889 c 12.88769,0 30.16283,2.078889 37.41526,23.677551 v -0.002 c 0.64877,-7.01802 1.28096,-14.05262 1.28096,-21.210348 0,-25.505459 -11.10951,-48.496362 -28.83926,-64.616039 1.46801,4.965182 5.65894,46.642409 -9.85696,62.151206 z"
   id="path10-9"
   inkscape:connector-curvature="0"
   style="opacity:0.8;fill:#68217a;stroke-width:2.36775517" /><path
   d="m -138.95114,93.520889 c 12.88769,0 30.16283,2.078889 37.41526,23.677551 v -0.002 c 0.64877,-7.01802 1.28096,-14.05262 1.28096,-21.210348 0,-25.505459 -11.10951,-48.496362 -28.83926,-64.616039 1.46801,4.965182 5.65894,46.642409 -9.85696,62.151206 z"
   id="path12"
   inkscape:connector-curvature="0"
   style="opacity:0.2;fill:#1e1e1e;stroke-width:2.36775517" /><path
   d="m -151.37712,-19.439976 c -27.01609,-20.7368 -74.19598,-19.377709 -107.53397,1.496421 -21.62708,13.5411922 -45.64322,9.4591823 -53.40235,37.157183 -1.46091,5.213797 0.61798,23.982992 -7.34952,37.303983 -7.96749,13.320991 -30.22676,24.158206 -32.56137,47.452179 -3.715,37.06247 19.1291,64.26798 29.29624,75.07915 12.32653,13.11026 17.80789,12.92558 12.77404,30.86132 -2.50035,8.9075 -4.4869,18.08018 -4.4869,27.38072 0,18.92547 1.43723,21.41162 17.05968,21.41162 26.3318,0 41.93294,-1.11522 50.30296,-34.78706 -19.37534,-20.82678 -26.82193,-45.93919 -29.58747,-64.32481 -0.74111,-8.048 -1.11521,-16.13152 -1.35436,-24.20556 -0.0118,-0.41673 -0.0402,-0.83108 -0.0568,-1.24544 -0.005,-0.13023 -0.0142,-0.26045 -0.0213,-0.39068 0.009,0.09 0.0213,0.17758 0.0284,0.26992 l 20.77942,-25.88903 c 9.89722,-12.33127 26.2513,-15.279126 42.04896,-14.552225 v 0 c 29.10919,0 65.69337,-8.890921 83.42312,-41.994506 18.57031,-34.685246 -2.59032,-58.1497 -19.35876,-71.023185 z"
   id="path14-8"
   inkscape:connector-curvature="0"
   style="fill:#68217a;stroke-width:2.36775517" /><path
   d="m -151.37712,-19.439976 c -27.01609,-20.7368 -74.19598,-19.377709 -107.53397,1.496421 -21.62708,13.5411922 -45.64322,9.4591823 -53.40235,37.157183 -1.46091,5.213797 0.61798,23.982992 -7.34952,37.303983 -7.96749,13.320991 -30.22676,24.158206 -32.56137,47.452179 -3.715,37.06247 19.1291,64.26798 29.29624,75.07915 12.32653,13.11026 17.80789,12.92558 12.77404,30.86132 -2.50035,8.9075 -4.4869,18.08018 -4.4869,27.38072 0,18.92547 1.43723,21.41162 17.05968,21.41162 26.3318,0 41.93294,-1.11522 50.30296,-34.78706 -19.37534,-20.82678 -26.82193,-45.93919 -29.58747,-64.32481 -0.74111,-8.048 -1.11521,-16.13152 -1.35436,-24.20556 -0.0118,-0.41673 -0.0402,-0.83108 -0.0568,-1.24544 -0.005,-0.13023 -0.0142,-0.26045 -0.0213,-0.39068 0.009,0.09 0.0213,0.17758 0.0284,0.26992 l 20.77942,-25.88903 c 9.89722,-12.33127 26.2513,-15.279126 42.04896,-14.552225 v 0 c 29.10919,0 65.69337,-8.890921 83.42312,-41.994506 18.57031,-34.685246 -2.59032,-58.1497 -19.35876,-71.023185 z"
   id="path16-6"
   inkscape:connector-curvature="0"
   style="opacity:0.3;fill:#1e1e1e;stroke-width:2.36775517" /><path
   d="m -149.91148,179.20995 c -5.45768,0 -10.33999,-1.07259 -14.50961,-3.18937 -8.62336,-4.37561 -13.98159,-12.43308 -13.98159,-21.03277 v -3.2746 l 2.6211,-1.9605 c 0.12786,-0.0947 15.08971,-10.54125 31.17387,-17.20411 14.69192,-6.08513 31.70424,-9.90432 32.42167,-10.06296 l 9.70543,-2.15939 -1.86342,9.76699 c -0.1326,0.69375 -3.20121,16.14809 -14.66825,24.94193 -4.03939,13.79928 -12.80719,22.20718 -24.88747,23.77226 -2.06232,0.26519 -4.08438,0.40252 -6.01173,0.40252 z"
   id="path18-0"
   inkscape:connector-curvature="0"
   style="fill:#59b4d9;stroke-width:2.36775517" /><path
   d="m -171.86768,154.98781 c 0,0 14.35097,-10.01797 29.76032,-16.39907 14.33439,-5.93596 31.33961,-9.722 31.33961,-9.722 0,0 -2.90524,15.2223 -13.94608,22.17876 z"
   id="path20-1"
   inkscape:connector-curvature="0"
   style="fill:#68217a;stroke-width:2.36775517" /><path
   d="m -171.86768,154.98781 c 0,0 14.35097,-10.01797 29.76032,-16.39907 14.33439,-5.93596 31.33961,-9.722 31.33961,-9.722 0,0 -2.90524,15.2223 -13.94608,22.17876 z"
   id="path22-5"
   inkscape:connector-curvature="0"
   style="opacity:0.4;fill:#1e1e1e;stroke-width:2.36775517" /><path
   d="m -144.74504,172.32452 c 13.38965,-1.73557 20.223,-13.74009 21.59629,-31.53377 0,0 -9.66517,1.13653 -25.71619,6.1609 -11.29419,3.53506 -23.00274,8.03616 -23.00274,8.03616 0,6.40478 4.33773,12.12528 10.40155,15.20336 5.10725,2.59032 11.13792,2.85788 16.72109,2.13335 z"
   id="path24-5"
   inkscape:connector-curvature="0"
   style="fill:#ffffff;stroke-width:2.36775517" /><path
   d="m -209.20954,154.98781 c 0,0 -14.35097,-10.01797 -29.76032,-16.39907 -14.33439,-5.93596 -31.33961,-9.722 -31.33961,-9.722 0,0 2.90524,15.2223 13.94608,22.17876 z"
   id="path26-5"
   inkscape:connector-curvature="0"
   style="fill:#68217a;stroke-width:2.36775517" /><path
   d="m -209.20954,154.98781 c 0,0 -14.35097,-10.01797 -29.76032,-16.39907 -14.33439,-5.93596 -31.33961,-9.722 -31.33961,-9.722 0,0 2.90524,15.2223 13.94608,22.17876 z"
   id="path28"
   inkscape:connector-curvature="0"
   style="opacity:0.4;fill:#1e1e1e;stroke-width:2.36775517" /><path
   d="m -236.33218,172.32452 c -13.38966,-1.73557 -20.223,-13.74009 -21.5963,-31.53377 0,0 9.66518,1.13653 25.71619,6.1609 11.2942,3.53506 23.00275,8.03616 23.00275,8.03616 0,6.40478 -4.33773,12.12528 -10.40155,15.20336 -5.10725,2.59032 -11.13792,2.85788 -16.72109,2.13335 z"
   id="path30"
   inkscape:connector-curvature="0"
   style="fill:#ffffff;stroke-width:2.36775517" /><path
   d="m -118.94125,203.80619 h -52.92643 v 14.84583 h 42.49411 c 4.04412,-4.80418 7.49157,-9.79541 10.43232,-14.84583 z"
   id="path32"
   inkscape:connector-curvature="0"
   style="fill:#ffffff;stroke-width:2.36775517" /><path
   d="m -294.80153,217.07272 c -0.55879,17.08099 7.77098,28.00581 17.62794,33.62449 -7.4679,-7.69046 -10.17661,-15.5301 -10.88694,-24.30737 -1.05602,-13.02029 10.08664,-12.75747 7.21929,-36.37819 -3.17753,-26.16133 -33.67422,-58.97131 -19.46058,-89.15546 9.53021,-20.237199 32.86918,-19.188283 44.18468,-19.89861 16.38013,-1.029974 32.4122,3.568207 48.86099,2.609266 25.07927,-1.460905 59.70295,-27.084752 69.94349,-42.775865 -14.74638,15.380938 -47.75999,43.249416 -86.15787,33.494265 -20.48345,-5.204326 -41.96846,-8.509712 -62.45428,-2.038637 -20.28219,6.407145 -31.97417,22.713875 -31.92445,43.985791 0.0663,28.47699 17.18044,36.85647 25.7375,63.06516 7.8207,23.95694 -2.35118,27.42334 -2.68977,37.77516 z"
   id="path34"
   inkscape:connector-curvature="0"
   style="fill:#ec008c;stroke-width:2.36775517" /><path
   d="m -298.38157,53.785221 c 13.99343,-11.152127 30.19361,-9.253187 38.74831,-6.239035 12.38336,4.361405 15.53484,10.659634 32.9923,17.197006 18.82129,7.04644 40.25894,5.436366 73.87633,-14.000536 0,0 -44.62271,28.102886 -78.29929,4.205133 -13.78744,-9.783564 -16.56482,-16.827636 -33.67659,-18.466123 -16.93655,-1.62428 -26.06898,6.516063 -33.64106,17.303555 z"
   id="path36"
   inkscape:connector-curvature="0"
   style="fill:#ec008c;stroke-width:2.36775517" /><path
   d="m -211.75251,-7.9563633 c 0,0 72.80137,-21.7407287 80.93697,35.4642373 0,0.0024 -1.79239,-39.723829 -80.93697,-35.4642373 z"
   id="path38"
   inkscape:connector-curvature="0"
   style="fill:#ec008c;stroke-width:2.36775517" /></svg>