<?xml version="1.0" encoding="UTF-8" standalone="no"?>
<!-- Created with Inkscape (http://www.inkscape.org/) -->

<svg
   xmlns:dc="http://purl.org/dc/elements/1.1/"
   xmlns:cc="http://creativecommons.org/ns#"
   xmlns:rdf="http://www.w3.org/1999/02/22-rdf-syntax-ns#"
   xmlns:svg="http://www.w3.org/2000/svg"
   xmlns="http://www.w3.org/2000/svg"
   xmlns:sodipodi="http://sodipodi.sourceforge.net/DTD/sodipodi-0.dtd"
   xmlns:inkscape="http://www.inkscape.org/namespaces/inkscape"
   width="6in"
   height="6in"
   viewBox="0 0 152.4 152.4"
   version="1.1"
   id="svg8"
   inkscape:export-filename="C:\Users\Adilio\Desktop\pwsh4.png"
   inkscape:export-xdpi="96"
   inkscape:export-ydpi="96"
   sodipodi:docname="hex2.svg"
   inkscape:version="0.92.4 (5da689c313, 2019-01-14)">
  <defs
     id="defs2">
    <clipPath
       clipPathUnits="userSpaceOnUse"
       id="clipPath968">
      <path
         sodipodi:type="star"
         style="opacity:1;fill:none;fill-opacity:1;fill-rule:evenodd;stroke:#ffffff;stroke-width:1.89897358;stroke-linecap:butt;stroke-linejoin:round;stroke-miterlimit:4;stroke-dasharray:none;stroke-opacity:1"
         id="path970"
         sodipodi:sides="6"
         sodipodi:cx="138.03279"
         sodipodi:cy="128.20354"
         sodipodi:r1="48.061493"
         sodipodi:r2="41.622478"
         sodipodi:arg1="-0.52359878"
         sodipodi:arg2="0"
         inkscape:flatsided="true"
         inkscape:rounded="0"
         inkscape:randomized="0"
         d="m 179.65526,104.17279 1e-5,48.06149 -41.62248,24.03075 -41.622473,-24.03075 0,-48.06149 41.622473,-24.030746 z" />
    </clipPath>
  </defs>
  <sodipodi:namedview
     id="base"
     pagecolor="#ffffff"
     bordercolor="#666666"
     borderopacity="1.0"
     inkscape:pageopacity="0.0"
     inkscape:pageshadow="2"
     inkscape:zoom="0.49497475"
     inkscape:cx="-515.05922"
     inkscape:cy="616.09328"
     inkscape:document-units="mm"
     inkscape:current-layer="layer1"
     showgrid="false"
     units="in"
     inkscape:pagecheckerboard="false"
     inkscape:window-width="2034"
     inkscape:window-height="1162"
     inkscape:window-x="755"
     inkscape:window-y="201"
     inkscape:window-maximized="0" />
  <metadata
     id="metadata5">
    <rdf:RDF>
      <cc:Work
         rdf:about="">
        <dc:format>image/svg+xml</dc:format>
        <dc:type
           rdf:resource="http://purl.org/dc/dcmitype/StillImage" />
        <dc:title />
      </cc:Work>
    </rdf:RDF>
  </metadata>
  <g
     inkscape:label="Layer 1"
     inkscape:groupmode="layer"
     id="layer1"
     transform="translate(0,-144.59998)">
    <g
       id="g962"
       transform="matrix(1.5439919,0,0,1.5439919,-136.92151,22.854761)"
       clip-path="url(#clipPath968)">
      <path
         id="path2"
         d="m 184.96562,109.90215 c 0,-11.577132 -5.0427,-22.012922 -13.09038,-29.329766 C 164.58847,73.946571 154.83947,69.88085 144.106,69.82065 v -0.0032 c -0.0398,0 -0.0795,0.0011 -0.1193,0.0011 -0.0398,0 -0.0795,-0.0011 -0.1193,-0.0011 v 0.0032 c -22.5879,0.125923 -40.85962,18.021296 -40.85962,40.0815 0,5.85842 0.92965,11.53632 1.14997,17.31735 0.002,-0.0325 0.004,-0.0548 0.004,-0.0548 0,0 -0.001,0.0244 -0.004,0.0548 0.007,0.18929 0.0203,0.37736 0.0256,0.56531 0.10964,3.66488 0.27837,7.33513 0.61476,10.98713 1.45842,9.70065 5.78105,23.52721 18.1492,33.62768 5.86273,4.78795 13.23332,9.39002 20.80275,9.40936 0.0386,0 0.0784,0 0.11715,0 0,0 0.1193,0 0.2386,0 0.0419,0 0.0838,0 0.12467,0 7.56297,-0.0203 14.92927,-4.61601 20.78877,-9.39864 12.33484,-10.06606 16.67143,-23.83568 18.14491,-33.53522 0.34283,-3.68637 0.5148,-7.39102 0.62442,-11.09031 0.1795,-5.97666 1.17685,-11.83292 1.17685,-17.88266 z"
         style="fill:#59b4d9;stroke-width:1.07474411"
         inkscape:connector-curvature="0" />
      <path
         id="path4"
         d="m 143.75026,184.02619 c -6.79883,-0.0163 -14.06088,-3.25754 -22.20529,-9.90915 -12.88511,-10.52284 -17.41086,-24.84915 -18.93807,-35.01408 l -0.01,-0.0622 -0.005,-0.0634 c -0.29876,-3.23711 -0.49115,-6.66769 -0.62335,-11.12467 -0.003,-0.0902 -0.028,-0.61475 -0.028,-0.61475 -0.0946,-2.41385 -0.32134,-4.87934 -0.53952,-7.2642 -0.29986,-3.264 -0.60937,-6.63869 -0.60937,-10.07037 0,-22.469656 18.13415,-40.981035 40.85961,-42.230961 v -0.06662 l 4.67192,-0.0032 v 0.06865 c 10.08432,0.553492 19.61623,4.507507 27.04486,11.262249 8.77958,7.98322 13.81584,19.271262 13.81584,30.969812 0,3.42953 -0.31168,6.80207 -0.61261,10.06286 -0.23966,2.58905 -0.48578,5.26625 -0.56424,7.88646 -0.13433,4.50856 -0.32996,7.97246 -0.63302,11.23 l -0.007,0.0634 -0.01,0.0634 c -1.54011,10.13809 -6.07553,24.42463 -18.93484,34.91953 -8.13904,6.64299 -15.39571,9.8801 -22.18487,9.89838 h -0.48793 z"
         style="opacity:0.75;fill:#1e1e1e;stroke-width:1.07474411"
         inkscape:connector-curvature="0" />
      <path
         id="path6"
         d="m 184.96562,109.90215 c 0,-11.577132 -5.0427,-22.012922 -13.09038,-29.329766 C 164.58847,73.946571 154.83947,69.88085 144.106,69.82065 v -0.0032 c -0.0398,0 -0.0795,0.0011 -0.1193,0.0011 -0.0398,0 -0.0795,-0.0011 -0.1193,-0.0011 v 0.0032 c -22.5879,0.125923 -40.85962,18.021296 -40.85962,40.0815 0,5.85842 0.92965,11.53632 1.14997,17.31735 0.002,-0.0325 0.004,-0.0548 0.004,-0.0548 0,0 -0.001,0.0244 -0.004,0.0548 0.007,0.18929 0.0203,0.37736 0.0256,0.56531 0.10964,3.66488 0.27837,7.33513 0.61476,10.98713 1.45842,9.70065 5.78105,23.52721 18.1492,33.62768 5.86273,4.78795 13.23332,9.39002 20.80275,9.40936 0.0386,0 0.0784,0 0.11715,0 0,0 0.1193,0 0.2386,0 0.0419,0 0.0838,0 0.12467,0 7.56297,-0.0203 14.92927,-4.61601 20.78877,-9.39864 12.33484,-10.06606 16.67143,-23.83568 18.14491,-33.53522 0.34283,-3.68637 0.5148,-7.39102 0.62442,-11.09031 0.1795,-5.97666 1.17685,-11.83292 1.17685,-17.88266 z"
         style="fill:#59b4d9;stroke-width:1.07474411"
         inkscape:connector-curvature="0" />
      <path
         id="path8"
         d="m 105.01111,101.20962 c -0.33963,1.44767 -0.60186,2.92222 -0.77167,4.42473 -0.0203,0.19132 -0.043,0.38142 -0.0602,0.57282 -0.0268,0.27419 -0.0441,0.54919 -0.0645,0.82435 -0.0313,0.44601 -0.0634,0.89202 -0.0806,1.34344 l 52.48835,28.9364 -39.76338,29.00302 c 1.46057,1.71637 2.97811,3.3242 4.79551,4.90193 l 49.53925,-33.57499 z"
         style="fill:#ffffff;stroke-width:1.07474411"
         inkscape:connector-curvature="0" />
      <path
         id="path10"
         d="m 167.40108,108.78335 c 5.84983,0 13.69117,0.94361 16.9831,10.74743 v -10e-4 c 0.2945,-3.18556 0.58144,-6.3786 0.58144,-9.62757 0,-11.577132 -5.0427,-22.012922 -13.09038,-29.329766 0.66634,2.253733 2.56864,21.171396 -4.47416,28.210966 z"
         style="opacity:0.8;fill:#68217a;stroke-width:1.07474411"
         inkscape:connector-curvature="0" />
      <path
         id="path12"
         d="m 167.40108,108.78335 c 5.84983,0 13.69117,0.94361 16.9831,10.74743 v -10e-4 c 0.2945,-3.18556 0.58144,-6.3786 0.58144,-9.62757 0,-11.577132 -5.0427,-22.012922 -13.09038,-29.329766 0.66634,2.253733 2.56864,21.171396 -4.47416,28.210966 z"
         style="opacity:0.2;fill:#1e1e1e;stroke-width:1.07474411"
         inkscape:connector-curvature="0" />
      <path
         id="path14"
         d="m 161.76082,57.509465 c -12.26283,-9.412606 -33.67818,-8.795706 -48.81058,0.679211 -9.81671,6.146494 -20.717839,4.293601 -24.239777,16.865975 -0.663117,2.366576 0.280524,10.886065 -3.336007,16.932592 -3.616514,6.046527 -13.720184,10.965597 -14.779881,21.538967 -1.686273,16.82296 8.682858,29.17176 13.29781,34.07905 5.595119,5.95087 8.08315,5.86703 5.798245,14.00822 -1.13493,4.04318 -2.036639,8.20675 -2.036639,12.42833 0,8.59042 0.65237,9.71893 7.743528,9.71893 11.952231,0 19.033721,-0.50621 22.832941,-15.79015 -8.79463,-9.45347 -12.1747,-20.8522 -13.43,-29.19759 -0.33638,-3.65306 -0.50621,-7.32221 -0.61476,-10.98709 -0.005,-0.18929 -0.0183,-0.37736 -0.0256,-0.56531 -0.002,-0.0593 -0.007,-0.11821 -0.01,-0.17751 0.004,0.0406 0.01,0.0804 0.013,0.12267 l 9.43195,-11.75123 c 4.49244,-5.59727 11.91569,-6.93534 19.08639,-6.60539 v 0 c 13.2129,0 29.81877,-4.03566 37.86646,-19.061657 8.42922,-15.743922 -1.17577,-26.394633 -8.78711,-32.238018 z"
         style="fill:#68217a;stroke-width:1.07474411"
         inkscape:connector-curvature="0" />
      <path
         id="path16"
         d="m 161.76082,57.509465 c -12.26283,-9.412606 -33.67818,-8.795706 -48.81058,0.679211 -9.81671,6.146494 -20.717839,4.293601 -24.239777,16.865975 -0.663117,2.366576 0.280524,10.886065 -3.336007,16.932592 -3.616514,6.046527 -13.720184,10.965597 -14.779881,21.538967 -1.686273,16.82296 8.682858,29.17176 13.29781,34.07905 5.595119,5.95087 8.08315,5.86703 5.798245,14.00822 -1.13493,4.04318 -2.036639,8.20675 -2.036639,12.42833 0,8.59042 0.65237,9.71893 7.743528,9.71893 11.952231,0 19.033721,-0.50621 22.832941,-15.79015 -8.79463,-9.45347 -12.1747,-20.8522 -13.43,-29.19759 -0.33638,-3.65306 -0.50621,-7.32221 -0.61476,-10.98709 -0.005,-0.18929 -0.0183,-0.37736 -0.0256,-0.56531 -0.002,-0.0593 -0.007,-0.11821 -0.01,-0.17751 0.004,0.0406 0.01,0.0804 0.013,0.12267 l 9.43195,-11.75123 c 4.49244,-5.59727 11.91569,-6.93534 19.08639,-6.60539 v 0 c 13.2129,0 29.81877,-4.03566 37.86646,-19.061657 8.42922,-15.743922 -1.17577,-26.394633 -8.78711,-32.238018 z"
         style="opacity:0.3;fill:#1e1e1e;stroke-width:1.07474411"
         inkscape:connector-curvature="0" />
      <path
         id="path18"
         d="m 162.42609,147.67834 c -2.47729,0 -4.69341,-0.48688 -6.58603,-1.44767 -3.91422,-1.98612 -6.34637,-5.64349 -6.34637,-9.54697 v -1.48638 l 1.18974,-0.88987 c 0.0581,-0.0431 6.84935,-4.78478 14.15009,-7.80908 6.66878,-2.7621 14.39082,-4.49569 14.71646,-4.56767 l 4.40538,-0.98016 -0.84582,4.43329 c -0.0602,0.31481 -1.45305,7.32976 -6.65804,11.32135 -1.83351,6.26365 -5.81329,10.08004 -11.29664,10.79045 -0.9361,0.12023 -1.85393,0.18279 -2.72877,0.18279 z"
         style="fill:#59b4d9;stroke-width:1.07474411"
         inkscape:connector-curvature="0" />
      <path
         id="path20"
         d="m 152.45999,136.6837 c 0,0 6.51402,-4.54724 13.50846,-7.44367 6.50649,-2.69438 14.22531,-4.4129 14.22531,-4.4129 0,0 -1.31871,6.90955 -6.33025,10.06712 z"
         style="fill:#68217a;stroke-width:1.07474411"
         inkscape:connector-curvature="0" />
      <path
         id="path22"
         d="m 152.45999,136.6837 c 0,0 6.51402,-4.54724 13.50846,-7.44367 6.50649,-2.69438 14.22531,-4.4129 14.22531,-4.4129 0,0 -1.31871,6.90955 -6.33025,10.06712 z"
         style="opacity:0.4;fill:#1e1e1e;stroke-width:1.07474411"
         inkscape:connector-curvature="0" />
      <path
         id="path24"
         d="m 164.77118,144.55298 c 6.07768,-0.78779 9.17939,-6.23676 9.80274,-14.31344 0,0 -4.38711,0.51587 -11.6728,2.7965 -5.12652,1.60458 -10.44113,3.64766 -10.44113,3.64766 0,2.90719 1.96893,5.50375 4.72135,6.90093 2.31822,1.17579 5.0556,1.29721 7.58984,0.96835 z"
         style="fill:#ffffff;stroke-width:1.07474411"
         inkscape:connector-curvature="0" />
      <path
         id="path26"
         d="m 135.5102,136.6837 c 0,0 -6.51403,-4.54724 -13.50846,-7.44367 -6.5065,-2.69438 -14.22532,-4.4129 -14.22532,-4.4129 0,0 1.31871,6.90955 6.33025,10.06712 z"
         style="fill:#68217a;stroke-width:1.07474411"
         inkscape:connector-curvature="0" />
      <path
         id="path28"
         d="m 135.5102,136.6837 c 0,0 -6.51403,-4.54724 -13.50846,-7.44367 -6.5065,-2.69438 -14.22532,-4.4129 -14.22532,-4.4129 0,0 1.31871,6.90955 6.33025,10.06712 z"
         style="opacity:0.4;fill:#1e1e1e;stroke-width:1.07474411"
         inkscape:connector-curvature="0" />
      <path
         id="path30"
         d="m 123.199,144.55298 c -6.07768,-0.78779 -9.17939,-6.23676 -9.80274,-14.31344 0,0 4.38711,0.51587 11.6728,2.7965 5.12653,1.60458 10.44114,3.64766 10.44114,3.64766 0,2.90719 -1.96893,5.50375 -4.72135,6.90093 -2.31823,1.17579 -5.0556,1.29721 -7.58985,0.96835 z"
         style="fill:#ffffff;stroke-width:1.07474411"
         inkscape:connector-curvature="0" />
      <path
         id="path32"
         d="m 176.48374,158.84277 h -24.02375 v 6.73866 h 19.28843 c 1.83566,-2.18066 3.40049,-4.44621 4.73532,-6.73866 z"
         style="fill:#ffffff;stroke-width:1.07474411"
         inkscape:connector-curvature="0" />
      <path
         id="path34"
         d="m 96.659269,164.86456 c -0.253633,7.75323 3.527311,12.71207 8.001471,15.26245 -3.38974,-3.49078 -4.61925,-7.04924 -4.941673,-11.03331 -0.479335,-5.91004 4.578413,-5.79074 3.276893,-16.51238 -1.4423,-11.87484 -15.285011,-26.76756 -8.833321,-40.46841 4.325845,-9.18586 14.919601,-8.70975 20.055801,-9.03215 7.43508,-0.4675 14.71217,1.61965 22.17842,1.18436 11.38369,-0.66313 27.09967,-12.294003 31.74794,-19.416317 -6.69351,6.981524 -21.67866,19.631277 -39.10779,15.203307 -9.29761,-2.362271 -19.04984,-3.862621 -28.34852,-0.92533 -9.206264,2.90825 -14.513348,10.31003 -14.490779,19.9655 0.03006,12.92598 7.798344,16.72949 11.682469,28.62582 3.54988,10.87425 -1.06722,12.44767 -1.220911,17.14646 z"
         style="fill:#ec008c;stroke-width:1.07474411"
         inkscape:connector-curvature="0" />
      <path
         id="path36"
         d="m 95.034256,90.746985 c 6.351744,-5.062055 13.705134,-4.200093 17.588194,-2.831963 5.62091,1.979709 7.05139,4.838522 14.97548,7.805872 8.54314,3.198438 18.27387,2.46764 33.53309,-6.354957 0,0 -20.25463,12.756143 -35.54071,1.908746 -6.25824,-4.44085 -7.51891,-7.638192 -15.28609,-8.381908 -7.68764,-0.737298 -11.83293,2.957682 -15.269964,7.85421 z"
         style="fill:#ec008c;stroke-width:1.07474411"
         inkscape:connector-curvature="0" />
      <path
         id="path38"
         d="m 134.35592,62.721977 c 0,0 33.04516,-9.868324 36.73798,16.097521 0,0.0011 -0.81358,-18.031004 -36.73798,-16.097521 z"
         style="fill:#ec008c;stroke-width:1.07474411"
         inkscape:connector-curvature="0" />
      <rect
         height="137.56725"
         width="137.56725"
         id="_x3C_Slice_x3E__7_"
         style="fill:none;stroke-width:1.07474411"
         x="64.851143"
         y="49.145775" />
    </g>
  </g>
</svg>
