<?xml version="1.0" encoding="UTF-8" standalone="no"?>
<!-- Generator: Adobe Illustrator 21.0.0, SVG Export Plug-In . SVG Version: 6.00 Build 0)  -->

<svg
   xmlns:dc="http://purl.org/dc/elements/1.1/"
   xmlns:cc="http://creativecommons.org/ns#"
   xmlns:rdf="http://www.w3.org/1999/02/22-rdf-syntax-ns#"
   xmlns:svg="http://www.w3.org/2000/svg"
   xmlns="http://www.w3.org/2000/svg"
   xmlns:sodipodi="http://sodipodi.sourceforge.net/DTD/sodipodi-0.dtd"
   xmlns:inkscape="http://www.inkscape.org/namespaces/inkscape"
   version="1.1"
   id="Layer_1"
   x="0px"
   y="0px"
   width="4in"
   height="4in"
   viewBox="0 0 383.99999 383.99999"
   enable-background="new 0 0 128 128"
   xml:space="preserve"
   sodipodi:docname="bridge4lyfe.svg"
   inkscape:export-filename="C:\Users\Adilio\Desktop\bridge4lyfe.png"
   inkscape:export-xdpi="96"
   inkscape:export-ydpi="96"
   inkscape:version="0.92.4 (5da689c313, 2019-01-14)"><metadata
   id="metadata45"><rdf:RDF><cc:Work
       rdf:about=""><dc:format>image/svg+xml</dc:format><dc:type
         rdf:resource="http://purl.org/dc/dcmitype/StillImage" /><dc:title /></cc:Work></rdf:RDF></metadata><defs
   id="defs43" /><sodipodi:namedview
   pagecolor="#ffffff"
   bordercolor="#666666"
   borderopacity="1"
   objecttolerance="10"
   gridtolerance="10"
   guidetolerance="10"
   inkscape:pageopacity="0"
   inkscape:pageshadow="2"
   inkscape:window-width="2621"
   inkscape:window-height="1646"
   id="namedview41"
   showgrid="false"
   units="in"
   inkscape:zoom="1.84375"
   inkscape:cx="-28.474576"
   inkscape:cy="42.305085"
   inkscape:window-x="950"
   inkscape:window-y="243"
   inkscape:window-maximized="0"
   inkscape:current-layer="Layer_1" />
<g
   id="g4"
   transform="matrix(3.0550846,0,0,3.0550846,0,-7.0508575)">
	<line
   x1="0"
   y1="128"
   x2="0"
   y2="0"
   id="line2"
   style="fill:none" />
</g>
<line
   x1="0"
   y1="384"
   x2="0"
   y2="-7.050827"
   id="line6"
   style="clip-rule:evenodd;opacity:0;fill:#00ff18;fill-rule:evenodd;stroke-width:3.05508447" />
<linearGradient
   id="SVGID_1_"
   gradientUnits="userSpaceOnUse"
   x1="95.266701"
   y1="91.9263"
   x2="26.700001"
   y2="30.68"
   gradientTransform="matrix(3.0550846,0,0,3.0550846,0,-7.050853)">
	<stop
   offset="0"
   style="stop-color:#A9C8FF"
   id="stop8" />
	<stop
   offset="1"
   style="stop-color:#C7E6FF"
   id="stop10" />
</linearGradient>
<path
   d="m 27.596579,325.95339 c -4.988953,0 -9.305788,-1.94914 -12.153126,-5.49304 -2.908441,-3.62027 -3.907454,-8.59701 -2.737356,-13.65623 L 67.654848,68.779397 C 69.958382,58.807601 79.621614,50.99575 89.663677,50.99575 H 363.46952 c 4.99201,0 9.30885,1.949144 12.15313,5.493042 2.90844,3.61722 3.90745,8.597008 2.73736,13.656228 l -54.94876,238.02473 c -2.30047,9.97179 -11.96676,17.7867 -22.00577,17.7867 H 27.596579 Z"
   id="path13"
   inkscape:connector-curvature="0"
   style="clip-rule:evenodd;opacity:0.8;fill:url(#SVGID_1_);fill-rule:evenodd;stroke-width:3.05508447" />
<g
   id="g30"
   transform="matrix(3.0550846,0,0,3.0550846,0,-7.0508575)">
	<g
   id="g28">
		<linearGradient
   id="SVGID_2_"
   gradientUnits="userSpaceOnUse"
   x1="26.5854"
   y1="30.7778"
   x2="93.585403"
   y2="90.277802">
			<stop
   offset="0"
   style="stop-color:#2D4664"
   id="stop15" />
			<stop
   offset="0.1689"
   style="stop-color:#29405B"
   id="stop17" />
			<stop
   offset="0.4445"
   style="stop-color:#1E2F43"
   id="stop19" />
			<stop
   offset="0.7902"
   style="stop-color:#0C131B"
   id="stop21" />
			<stop
   offset="1"
   style="stop-color:#000000"
   id="stop23" />
		</linearGradient>
		<path
   d="M 118.5,20 H 29.634 c -2.769,0 -5.53,2.259 -6.168,5.045 L 5.632,102.955 C 4.995,105.742 6.722,108 9.491,108 h 88.865 c 2.769,0 5.53,-2.258 6.168,-5.045 L 122.358,25.044 C 122.996,22.259 121.268,20 118.5,20 Z"
   id="path26"
   inkscape:connector-curvature="0"
   style="clip-rule:evenodd;fill:url(#SVGID_2_);fill-rule:evenodd" />
	</g>
</g>
<path
   d="m 206.67658,233.73897 h 61.81023 c 7.18684,0 13.01239,6.07721 13.01239,13.57292 0,7.4957 -5.82555,13.57577 -13.01239,13.57577 h -61.81023 c -7.18685,0 -13.01237,-6.07721 -13.01237,-13.57577 0,-7.49571 5.82552,-13.57292 13.01237,-13.57292 z"
   id="path32"
   inkscape:connector-curvature="0"
   style="clip-rule:evenodd;fill:#2c5591;fill-rule:evenodd;stroke-width:2.85986328" />
<path
   d="m 246.769,173.38727 c -1.06386,2.14203 -3.27167,4.50429 -7.17539,7.24689 L 124.8759,263.02397 c -6.26311,4.55005 -15.25451,2.86272 -20.0791,-3.77215 -4.824595,-6.63489 -3.66063,-15.70066 2.60247,-20.25355 l 103.44985,-74.91128 v -1.53861 L 145.85014,93.402599 c -5.3022,-5.639645 -4.75024,-14.759754 1.2326,-20.373667 5.98284,-5.611052 15.12868,-5.588173 20.43086,0.05148 l 77.99135,82.970368 c 4.42707,4.71019 4.75595,11.84269 1.26405,17.33649 z"
   id="path34"
   inkscape:connector-curvature="0"
   style="clip-rule:evenodd;fill:#2c5591;fill-rule:evenodd;stroke-width:2.85986328" />
<path
   d="m 243.90914,170.5274 c -1.06386,2.14204 -3.27168,4.50429 -7.1754,7.2469 l -114.71771,82.38981 c -6.2631,4.55005 -15.25451,2.86272 -20.0791,-3.77216 -4.824588,-6.63487 -3.660624,-15.70065 2.60248,-20.25356 l 103.44985,-74.91126 v -1.53862 L 142.99027,90.54274 c -5.30219,-5.639654 -4.75023,-14.759758 1.23261,-20.37367 5.98283,-5.611053 15.12868,-5.588174 20.43086,0.05148 l 77.99134,82.97036 c 4.42708,4.71021 4.75596,11.8427 1.26406,17.33649 z"
   id="path36"
   inkscape:connector-curvature="0"
   style="clip-rule:evenodd;fill:#ffffff;fill-rule:evenodd;stroke-width:2.85986328" />
<path
   d="M 204.91777,232.14317 H 266.728 c 7.18684,0 13.01237,5.76263 13.01237,12.86938 0,7.10677 -5.82553,12.86939 -13.01237,12.86939 h -61.81023 c -7.18684,0 -13.01239,-5.76262 -13.01239,-12.86939 0,-7.10675 5.82555,-12.86938 13.01239,-12.86938 z"
   id="path38"
   inkscape:connector-curvature="0"
   style="clip-rule:evenodd;fill:#ffffff;fill-rule:evenodd;stroke-width:2.85986328" />
<flowRoot
   xml:space="preserve"
   id="flowRoot854"
   style="font-style:normal;font-weight:normal;font-size:40px;line-height:0;font-family:sans-serif;letter-spacing:0px;word-spacing:0px;fill:#000000;fill-opacity:1;stroke:none"><flowRegion
     id="flowRegion856"><rect
       id="rect858"
       width="421.96609"
       height="101.9661"
       x="23.864407"
       y="338.98306" /></flowRegion><flowPara
     id="flowPara860" /></flowRoot><flowRoot
   xml:space="preserve"
   id="flowRoot862"
   style="fill:black;fill-opacity:1;stroke:none;font-family:sans-serif;font-style:normal;font-weight:normal;font-size:40px;line-height:0;letter-spacing:0px;word-spacing:0px"><flowRegion
     id="flowRegion864"><rect
       id="rect866"
       width="328.13559"
       height="46.64407"
       x="22.779661"
       y="331.38983" /></flowRegion><flowPara
     id="flowPara868" /></flowRoot><flowRoot
   xml:space="preserve"
   id="flowRoot870"
   style="font-style:normal;font-weight:normal;font-size:40px;line-height:1;font-family:sans-serif;letter-spacing:0px;word-spacing:-5px;opacity:0.5;fill:#000000;fill-opacity:1;stroke:none"
   transform="matrix(1,0,-0.36397023,1,145.28637,-61.864407)"><flowRegion
     id="flowRegion872"
     style="line-height:1;letter-spacing:0px;word-spacing:-5px"><rect
       id="rect874"
       width="305.35596"
       height="53.694912"
       x="15.728813"
       y="333.01694"
       style="line-height:1;letter-spacing:0px;word-spacing:-5px" /></flowRegion><flowPara
     id="flowPara876"
     style="letter-spacing:0px;word-spacing:-5px;opacity:1;fill:#ffffff">#bridge 4 lyfe</flowPara></flowRoot></svg>